<svg width="16" height="16" viewBox="0 0 16 16" fill="none" xmlns="http://www.w3.org/2000/svg">
  <path
    d="M14.625 5H1.375C1.16791 5 1 4.83209 1 4.625V3.5C1 2.67156 1.67156 2 2.5 2H4V0.375C4 0.167906 4.16791 0 4.375 0H5.625C5.83209 0 6 0.167906 6 0.375V2H10V0.375C10 0.167906 10.1679 0 10.375 0H11.625C11.8321 0 12 0.167906 12 0.375V2H13.5C14.3284 2 15 2.67156 15 3.5V4.625C15 4.83209 14.8321 5 14.625 5ZM1.375 6H14.625C14.8321 6 15 6.16791 15 6.375V14.5C15 15.3284 14.3284 16 13.5 16H2.5C1.67156 16 1 15.3284 1 14.5V6.375C1 6.16791 1.16791 6 1.375 6ZM11.7905 8.99834L10.9102 8.11091C10.7644 7.96388 10.5269 7.96291 10.3799 8.10878L7.06625 11.3958L5.62937 9.94728C5.48353 9.80025 5.24606 9.79928 5.09903 9.94516L4.21163 10.8255C4.06459 10.9713 4.06363 11.2088 4.2095 11.3558L6.79078 13.9579C6.93662 14.105 7.17406 14.1059 7.32109 13.9601L11.7884 9.52866C11.9354 9.38281 11.9364 9.14537 11.7905 8.99834Z"
    fill="currentColor" />
</svg>