<svg width="16" height="16" viewBox="0 0 16 16" fill="none" xmlns="http://www.w3.org/2000/svg">
  <path
    d="M0 5.25002V4.75002C0 4.3358 0.335781 4.00002 0.75 4.00002H12V2.50002C12 1.8323 12.8093 1.4987 13.2803 1.96967L15.7803 4.46967C16.0732 4.76258 16.0732 5.23745 15.7803 5.53033L13.2803 8.03033C12.8111 8.49945 12 8.17052 12 7.50002V6.00002H0.75C0.335781 6.00002 0 5.66423 0 5.25002ZM15.25 10H4V8.50002C4 7.83395 3.19181 7.49752 2.71966 7.96967L0.219656 10.4697C-0.0732187 10.7626 -0.0732187 11.2375 0.219656 11.5303L2.71966 14.0303C3.18928 14.4999 4 14.1699 4 13.5V12H15.25C15.6642 12 16 11.6642 16 11.25V10.75C16 10.3358 15.6642 10 15.25 10Z"
    fill="currentColor" />
</svg>