<svg width="16" height="16" viewBox="0 0 16 16" fill="none" xmlns="http://www.w3.org/2000/svg">
  <path
    d="M11.6365 1.93908L7.99999 5.57563L4.36344 1.93908C3.9172 1.49285 3.19343 1.49285 2.74719 1.93908L1.93907 2.74721C1.49284 3.19344 1.49284 3.91722 1.93907 4.36345L5.57562 8L1.93907 11.6365C1.49284 12.0828 1.49284 12.8066 1.93907 13.2528L2.74719 14.0609C3.19343 14.5072 3.9172 14.5072 4.36344 14.0609L7.99999 10.4244L11.6365 14.0609C12.0828 14.5072 12.8065 14.5071 13.2528 14.0609L14.0609 13.2528C14.5071 12.8066 14.5071 12.0828 14.0609 11.6365L10.4244 8L14.0609 4.36345C14.5071 3.91722 14.5071 3.19344 14.0609 2.74721L13.2528 1.93909C12.8065 1.49285 12.0828 1.49285 11.6365 1.93908Z"
    fill="currentColor" />
</svg>