<svg width="17" height="16" viewBox="0 0 17 16" fill="none" xmlns="http://www.w3.org/2000/svg">
  <g>
    <path
      d="M8.5 0.25C4.22188 0.25 0.75 3.72188 0.75 8C0.75 12.2781 4.22188 15.75 8.5 15.75C12.7781 15.75 16.25 12.2781 16.25 8C16.25 3.72188 12.7781 0.25 8.5 0.25ZM12.0813 7.325L8.55 12.0969L5.02812 7.325C4.75625 6.95312 4.43125 5.75 5.45312 5.075C6.33125 4.50937 7.15938 4.94375 7.59375 5.44688C8.09062 6.00625 9.05 5.975 9.52188 5.44688C9.95625 4.94375 10.7844 4.50937 11.65 5.075C12.6781 5.75 12.3562 6.95 12.0813 7.325Z"
      fill="currentColor" />
  </g>
</svg>