<svg width="72" height="136" viewBox="0 0 72 136" fill="none" xmlns="http://www.w3.org/2000/svg">
<path d="M17.6699 25.9576L17.4749 10.295C17.2994 6.39958 19.4248 3.04909 23.3752 2.9834H23.7379C25.5049 3.05226 27.1806 3.77947 28.4299 5.01966C29.6793 6.25985 30.4102 7.92163 30.4767 9.67277C30.6131 13.0503 30.7145 16.7834 30.617 18.5881C30.4143 22.325 26.6198 22.7501 26.6198 22.7501C26.6198 22.7501 26.5964 25.0263 26.5964 26.1238L27.4817 28.6859L24.3619 27.9362L17.6699 25.9576Z" fill="#FFBF9D"/>
<path d="M26.6402 22.7674C24.8981 22.693 23.2143 22.1243 21.7889 21.1289C21.7889 21.1289 22.8536 23.9847 26.6285 23.8031L26.6402 22.7674Z" fill="#EB996E"/>
<path d="M28.7716 12.9177C28.7701 12.9868 28.7549 13.0548 28.7268 13.118C28.6988 13.1812 28.6584 13.2383 28.6081 13.286C28.5577 13.3338 28.4984 13.3712 28.4335 13.3962C28.3685 13.4212 28.2992 13.4333 28.2296 13.4317C28.161 13.4343 28.0926 13.4233 28.0284 13.3993C27.9642 13.3753 27.9055 13.3388 27.8557 13.292C27.8059 13.2452 27.7661 13.189 27.7385 13.1267C27.711 13.0644 27.6963 12.9973 27.6953 12.9293C27.6994 12.7899 27.7584 12.6576 27.8597 12.5608C27.9611 12.464 28.0966 12.4104 28.2374 12.4115C28.3063 12.4089 28.375 12.4201 28.4395 12.4443C28.5039 12.4685 28.5628 12.5053 28.6126 12.5526C28.6625 12.5998 28.7022 12.6564 28.7295 12.7192C28.7569 12.7819 28.7712 12.8494 28.7716 12.9177Z" fill="#263238"/>
<path d="M29.6106 11.3121C29.5404 11.3777 29.1466 11.0609 28.5655 11.0415C27.9844 11.0222 27.5477 11.2889 27.4892 11.2154C27.4307 11.142 27.5321 11.0609 27.7232 10.9333C27.9811 10.7711 28.2838 10.6927 28.5889 10.7092C28.8901 10.7183 29.1802 10.8241 29.4156 11.0106C29.5911 11.1536 29.6457 11.2734 29.6106 11.3121Z" fill="#263238"/>
<path d="M23.5216 12.9177C23.5166 13.0565 23.4571 13.1878 23.3559 13.2838C23.2547 13.3797 23.1197 13.4328 22.9796 13.4317C22.9109 13.4348 22.8422 13.4242 22.7778 13.4004C22.7133 13.3766 22.6544 13.3401 22.6045 13.2932C22.5546 13.2463 22.5148 13.1899 22.4875 13.1274C22.4601 13.0649 22.4458 12.9975 22.4453 12.9293C22.4484 12.7903 22.5066 12.658 22.6073 12.5611C22.708 12.4642 22.8431 12.4104 22.9835 12.4115C23.0526 12.4089 23.1215 12.42 23.1861 12.4442C23.2508 12.4684 23.31 12.5052 23.3601 12.5523C23.4103 12.5995 23.4504 12.6561 23.4781 12.7189C23.5059 12.7816 23.5206 12.8492 23.5216 12.9177Z" fill="#263238"/>
<path d="M23.9114 11.21C23.8412 11.2757 23.4434 10.9627 22.8663 10.9395C22.2891 10.9163 21.8484 11.1868 21.7899 11.1134C21.7314 11.04 21.8328 10.9588 22.0239 10.8313C22.2827 10.6709 22.5848 10.5927 22.8897 10.6072C23.1904 10.6187 23.4798 10.7242 23.7164 10.9086C23.9114 11.0516 23.9582 11.1791 23.9114 11.21Z" fill="#263238"/>
<path d="M25.8198 15.7091C26.1294 15.629 26.4475 15.5862 26.7674 15.5816C26.9156 15.5816 27.056 15.5468 27.0872 15.4502C27.1044 15.2985 27.0759 15.1452 27.0053 15.0096C26.8805 14.6502 26.7518 14.2715 26.6153 13.8735C26.0733 12.2581 25.6872 10.9326 25.7535 10.9133C25.8198 10.894 26.3112 12.1847 26.8532 13.8L27.2237 14.9594C27.3112 15.1399 27.3305 15.3456 27.2783 15.5391C27.2535 15.5893 27.218 15.6337 27.1743 15.6691C27.1305 15.7044 27.0795 15.73 27.0248 15.7439C26.9416 15.7621 26.8565 15.7699 26.7713 15.7671C26.453 15.79 26.1329 15.7705 25.8198 15.7091Z" fill="#263238"/>
<path d="M24.1869 9.41928C24.1011 9.56227 23.5473 9.3845 22.861 9.34199C22.1746 9.29948 21.6013 9.38064 21.5389 9.22992C21.5116 9.1565 21.6325 9.02897 21.8782 8.92077C22.2019 8.78584 22.5541 8.73144 22.9039 8.76232C23.2535 8.78334 23.5931 8.88667 23.8944 9.06375C24.1245 9.20673 24.2259 9.33813 24.1869 9.41928Z" fill="#263238"/>
<path d="M29.7081 9.62129C29.5833 9.74882 29.1153 9.62129 28.5382 9.57878C27.961 9.53627 27.4891 9.64061 27.3682 9.50149C27.3214 9.43193 27.4033 9.30441 27.6139 9.18461C27.9085 9.03906 28.2372 8.97497 28.5655 8.99911C28.8917 9.0087 29.2089 9.10769 29.4819 9.28508C29.7003 9.4242 29.7588 9.55946 29.7081 9.62129Z" fill="#263238"/>
<path d="M17.6716 13.0801C17.6092 13.0492 15.1095 12.2145 15.0861 14.7728C15.0627 17.331 17.6599 16.8286 17.6638 16.7552C17.6677 16.6818 17.6716 13.0801 17.6716 13.0801Z" fill="#FFBF9D"/>
<path d="M16.8911 15.7752C16.8911 15.7752 16.8482 15.8062 16.7702 15.8409C16.6627 15.8843 16.5424 15.8843 16.4349 15.8409C16.2687 15.7352 16.134 15.5874 16.0449 15.4128C15.9558 15.2381 15.9154 15.0431 15.9279 14.8478C15.923 14.628 15.9683 14.4101 16.0605 14.2101C16.0857 14.1302 16.1301 14.0575 16.1898 13.9982C16.2496 13.939 16.323 13.895 16.4037 13.8701C16.4549 13.8571 16.5092 13.8624 16.5569 13.885C16.6046 13.9076 16.6429 13.9461 16.6649 13.9937C16.7 14.0671 16.6844 14.1174 16.6961 14.1213C16.7078 14.1251 16.7546 14.0787 16.7351 13.9744C16.7192 13.9112 16.6838 13.8544 16.6338 13.8121C16.5987 13.7852 16.5586 13.7655 16.5157 13.7542C16.4728 13.7429 16.4281 13.7402 16.3842 13.7464C16.2788 13.7656 16.1801 13.8111 16.0975 13.8788C16.0149 13.9464 15.9511 14.0339 15.9123 14.1328C15.8002 14.3532 15.744 14.5972 15.7485 14.8439C15.7337 15.072 15.7872 15.2993 15.9024 15.4974C16.0176 15.6954 16.1893 15.8553 16.3959 15.9569C16.4646 15.9781 16.5374 15.9833 16.6084 15.9719C16.6795 15.9605 16.7469 15.9328 16.8053 15.8912C16.8911 15.8371 16.8911 15.783 16.8911 15.7752Z" fill="#EB996E"/>
<path d="M24.0007 16.0636C24.0865 16.0636 24.0904 16.6471 24.6013 17.0606C25.1121 17.4741 25.74 17.4084 25.7478 17.4895C25.7556 17.5707 25.6074 17.6055 25.3383 17.6132C24.991 17.6212 24.6522 17.5061 24.3829 17.2886C24.1252 17.0802 23.9588 16.7811 23.9188 16.4539C23.911 16.2065 23.9578 16.0597 24.0007 16.0636Z" fill="#263238"/>
<path d="M35.6937 6.32474C35.6495 6.17382 35.5473 6.04613 35.409 5.96921C35.1088 5.82934 34.7761 5.77195 34.4458 5.80304C33.6293 5.7743 32.8297 5.56432 32.1059 5.18859C32.3618 5.06646 32.5972 4.90615 32.804 4.71326C33.0241 4.51718 33.1858 4.26518 33.2717 3.98454C33.3577 3.7039 33.3645 3.40531 33.2915 3.12111C33.2794 3.06709 33.2548 3.01661 33.2196 2.97367C33.1844 2.93073 33.1396 2.89653 33.0887 2.87379C32.9249 2.81968 32.7728 2.98199 32.6558 3.10952C32.5048 3.3078 32.3027 3.46226 32.0709 3.55675C31.839 3.65124 31.5858 3.6823 31.3377 3.64668C30.9923 3.62258 30.6572 3.5194 30.3588 3.34525L30.3277 3.31047L29.9377 2.92402C28.9783 1.9579 28.1516 1.28549 27.2936 0.933826C25.8014 0.374373 24.1831 0.230045 22.614 0.516464C21.2958 0.841079 20.1064 1.88448 19.9075 3.22158C19.1783 2.59554 18.0708 2.58781 17.1777 2.93561C16.1716 3.27568 15.5944 4.31523 15.2863 5.32385L15.2395 5.49002C14.8962 6.02064 14.4295 6.46193 13.8785 6.77688C13.781 6.83099 13.6679 6.89668 13.6562 7.00875C13.6591 7.06363 13.676 7.11688 13.7054 7.16352C13.7347 7.21016 13.7755 7.24865 13.8239 7.2754C14.0649 7.44554 14.3404 7.56159 14.6312 7.61547C14.5379 7.85508 14.4244 8.08649 14.2919 8.30721C14.1749 8.49657 14.0384 8.72071 14.1359 8.92166C14.181 8.99428 14.2473 9.05163 14.326 9.08613C14.4046 9.12063 14.492 9.13065 14.5766 9.11488C14.7437 9.08046 14.9017 9.01203 15.0407 8.91393C14.9276 9.17671 14.8145 9.43949 14.6975 9.68682C15.0598 9.75089 15.4322 9.73106 15.7855 9.62885C15.9883 10.5756 16.1287 12.334 16.3666 12.9716C17.0529 12.9909 17.2206 12.9175 17.5638 13.0334C18.0084 13.188 17.829 13.9686 18.4139 13.7522C18.7103 13.644 19.1939 12.5349 19.2836 12.2374C19.9638 10.2504 20.2045 8.14159 19.9894 6.05423C20.4116 5.62049 20.9132 5.27033 21.4674 5.02242L21.4206 5.06106C22.4814 4.7094 23.6786 4.36546 24.6769 4.86784C25.4569 5.25429 25.8975 6.06196 26.4708 6.70733C26.9536 7.29487 27.5568 7.77406 28.2405 8.11316C28.9243 8.45227 29.6729 8.64355 30.4368 8.67433C30.5694 9.80662 30.5928 11.6538 30.6357 12.7088L31.5717 10.6104C31.6458 10.4868 31.7082 10.3631 31.7667 10.224V10.1853C31.8592 9.98198 31.9621 9.78335 32.0747 9.59021C32.1968 9.69396 32.3528 9.7502 32.5136 9.74845C32.6744 9.74671 32.8291 9.6871 32.9488 9.58072C33.0686 9.47435 33.1452 9.32846 33.1645 9.17024C33.1838 9.01202 33.1444 8.85226 33.0536 8.72071C32.9649 8.59778 32.8584 8.48841 32.7377 8.39609C32.8667 8.52223 33.0263 8.61337 33.2012 8.66074C33.376 8.70812 33.5602 8.71013 33.736 8.6666C33.9102 8.61572 34.0626 8.50943 34.1698 8.36416C34.2769 8.21888 34.3328 8.04269 34.3288 7.8628C34.3158 7.74159 34.2708 7.62593 34.1982 7.52753C34.1256 7.42913 34.028 7.35148 33.9154 7.30245C34.3843 7.34306 34.8548 7.24631 35.2686 7.02421C35.5143 6.90055 35.7795 6.65709 35.6937 6.32474Z" fill="#263238"/>
<path d="M21.0726 3.65039C20.9337 3.75328 20.8033 3.867 20.6827 3.99046C20.3792 4.34413 20.1748 4.77056 20.0899 5.22709C20.0211 5.5395 19.9846 5.85802 19.9807 6.17775C19.9807 6.52169 20.0002 6.89267 20.0236 7.27912C20.0491 7.68836 20.0491 8.09877 20.0236 8.50802C20.0088 8.72621 19.9788 8.94313 19.9339 9.15724C19.898 9.38502 19.8025 9.59951 19.657 9.77942C19.591 9.85207 19.507 9.90634 19.4133 9.93685C19.3195 9.96736 19.2194 9.97303 19.1228 9.95332C18.9381 9.91613 18.7709 9.81971 18.647 9.67895C18.4441 9.39679 18.3216 9.06577 18.2921 8.72056H18.3701C18.2525 8.99916 18.0948 9.25948 17.9021 9.49345C17.7161 9.71185 17.4519 9.85036 17.1651 9.87989C17.0311 9.89262 16.8962 9.86855 16.7751 9.81034C16.6642 9.74962 16.5734 9.65834 16.5138 9.54755C16.4578 9.44585 16.4309 9.33095 16.4358 9.21521C16.4427 9.10727 16.4867 9.00494 16.5606 8.92537L16.5996 8.96016C16.3718 9.21323 16.0927 9.41599 15.7807 9.55528C15.6999 9.59222 15.6165 9.62322 15.5311 9.64803C15.5007 9.65869 15.4694 9.66645 15.4375 9.67122L15.5233 9.63644C15.9254 9.49483 16.2877 9.26036 16.5801 8.95243L16.6191 8.98721C16.5565 9.06541 16.52 9.16089 16.5144 9.26054C16.5088 9.36019 16.5345 9.4591 16.5879 9.54369C16.6411 9.64353 16.7242 9.72455 16.8258 9.77556C16.9342 9.82955 17.0562 9.85104 17.1768 9.83739C17.4474 9.80126 17.6933 9.66277 17.8631 9.45094C18.052 9.21714 18.2045 8.95662 18.3155 8.67805L18.3701 8.55825L18.3935 8.68965C18.423 9.01809 18.5401 9.33285 18.7328 9.60165C18.8426 9.72881 18.9923 9.81588 19.1579 9.84898C19.2394 9.86947 19.3249 9.86886 19.4062 9.8472C19.4874 9.82555 19.5617 9.78358 19.6219 9.72532C19.7539 9.55461 19.841 9.3541 19.8754 9.14179C19.9203 8.93288 19.9503 8.7211 19.9651 8.50802C19.9906 8.10135 19.9906 7.69351 19.9651 7.28685C19.9456 6.9004 19.9222 6.51396 19.93 6.17775C19.9378 5.8538 19.9783 5.53144 20.0509 5.2155C20.1445 4.75189 20.3628 4.32195 20.6827 3.97114C20.7937 3.84342 20.9255 3.735 21.0726 3.65039Z" fill="#455A64"/>
<path d="M32.723 7.42621L32.6918 7.44939L32.5943 7.51895C32.5432 7.55581 32.4898 7.58938 32.4344 7.61943C32.3681 7.65421 32.294 7.69672 32.2043 7.73536C31.6942 7.95636 31.137 8.04927 30.582 8.00588C29.7571 7.94277 28.9686 7.64336 28.3124 7.1441C27.5127 6.53118 26.8489 5.76163 26.3625 4.88339C26.0934 4.42739 25.875 3.95979 25.6293 3.52697C25.4113 3.10224 25.1315 2.71161 24.7987 2.36763C24.501 2.05837 24.1295 1.82843 23.7185 1.69908C23.5323 1.64582 23.3388 1.62234 23.1452 1.62952C22.9664 1.63767 22.7894 1.66885 22.6187 1.72226C22.3299 1.82137 22.0645 1.97785 21.8388 2.18213C21.5107 2.47117 21.2885 2.85986 21.207 3.28737C21.207 3.28737 21.207 3.28737 21.207 3.24873C21.207 3.21008 21.207 3.17917 21.207 3.13279C21.2383 2.98676 21.2881 2.84524 21.3552 2.71157C21.4646 2.50059 21.6097 2.30975 21.7842 2.14736C22.1496 1.79949 22.6278 1.59135 23.1335 1.55996C23.3348 1.55246 23.5361 1.57593 23.7302 1.62952C24.1548 1.75984 24.5396 1.9937 24.8494 2.30966C25.1872 2.65386 25.4735 3.04428 25.6995 3.469C25.9452 3.90182 26.1636 4.36942 26.4288 4.82156C26.9073 5.68608 27.5557 6.44688 28.3358 7.05908C28.9787 7.55366 29.7517 7.85419 30.5625 7.92472C31.1084 7.97343 31.6582 7.89126 32.1653 7.68512C32.5436 7.54987 32.7152 7.40688 32.723 7.42621Z" fill="#455A64"/>
<path d="M33.0873 5.78162C33.0451 5.81711 32.9994 5.84819 32.9508 5.87437C32.825 5.94783 32.6947 6.01365 32.5608 6.07146C32.3535 6.15546 32.1396 6.22266 31.9213 6.27241C31.6543 6.32828 31.3829 6.36061 31.1101 6.36902C30.8357 6.37194 30.5616 6.34994 30.2912 6.30332C30.0717 6.26519 29.8563 6.20698 29.6477 6.12942C29.5061 6.07944 29.368 6.02005 29.2344 5.95166C29.1408 5.89756 29.0901 5.8705 29.094 5.86277C29.0979 5.85504 29.3084 5.95939 29.6672 6.07146C29.8765 6.1378 30.0902 6.18945 30.3068 6.22603C30.565 6.26375 30.8257 6.28184 31.0867 6.28014C31.3552 6.27225 31.6226 6.24252 31.8862 6.19125C32.101 6.14794 32.3122 6.08851 32.5179 6.01349C32.8806 5.88596 33.0795 5.76617 33.0873 5.78162Z" fill="#455A64"/>
<path d="M31.4728 119.562L31.2037 126.391C31.2037 126.391 38.3754 128.945 38.4534 130.213L24.582 130.189L24.5469 119.531L31.4728 119.562Z" fill="#263238"/>
<path d="M26.918 125.813C26.8522 125.829 26.7902 125.857 26.7355 125.897C26.6807 125.936 26.6344 125.986 26.5991 126.043C26.5638 126.101 26.5402 126.164 26.5297 126.23C26.5192 126.297 26.5219 126.364 26.5378 126.43C26.5537 126.495 26.5824 126.556 26.6222 126.611C26.6621 126.665 26.7123 126.711 26.7701 126.746C26.8278 126.781 26.892 126.804 26.9588 126.814C27.0257 126.825 27.094 126.822 27.1598 126.806C27.2988 126.767 27.4181 126.678 27.4946 126.557C27.571 126.436 27.599 126.29 27.5732 126.149C27.5183 126.016 27.4143 125.909 27.2825 125.85C27.1506 125.79 27.0007 125.783 26.8634 125.829" fill="#E0E0E0"/>
<path d="M24.582 130.192L24.6249 129.118L37.9075 129.543C37.9075 129.543 38.5236 129.802 38.4534 130.216L24.582 130.192Z" fill="#455A64"/>
<path d="M31.4289 126.329C31.4289 126.391 31.0858 126.422 30.7543 126.63C30.4228 126.839 30.2434 127.11 30.181 127.083C30.1186 127.055 30.22 126.696 30.6256 126.437C31.0312 126.178 31.4445 126.267 31.4289 126.329Z" fill="white"/>
<path d="M32.8801 126.905C32.8801 126.967 32.5993 127.079 32.3692 127.354C32.1391 127.628 32.0728 127.914 32.0065 127.91C31.9402 127.906 31.8934 127.543 32.1898 127.207C32.4862 126.87 32.8801 126.843 32.8801 126.905Z" fill="white"/>
<path d="M33.7065 128.569C33.6441 128.569 33.5505 128.26 33.7065 127.904C33.8624 127.548 34.1978 127.409 34.2251 127.463C34.2524 127.518 34.0574 127.707 33.9209 128.001C33.7845 128.294 33.7728 128.565 33.7065 128.569Z" fill="white"/>
<path d="M31.3208 124.763C31.2935 124.825 30.9815 124.732 30.5993 124.763C30.2172 124.794 29.9169 124.902 29.8818 124.844C29.8467 124.786 30.1353 124.558 30.5876 124.535C31.04 124.512 31.3442 124.713 31.3208 124.763Z" fill="white"/>
<path d="M14.8331 119.986L14.4431 128.249L16.1122 134.864C16.1394 134.979 16.1422 135.098 16.1203 135.214C16.0984 135.329 16.0525 135.439 15.9853 135.537C15.9181 135.634 15.8313 135.716 15.7302 135.778C15.6292 135.84 15.5162 135.88 15.3986 135.896C15.2593 135.921 15.1162 135.913 14.9807 135.873C14.8452 135.832 14.7211 135.761 14.6186 135.664C13.3278 134.428 8.72612 129.79 8.70662 129.35C8.67542 128.65 8.46094 120.512 8.46094 120.512L14.8331 119.986Z" fill="#263238"/>
<path d="M15.399 135.896L8.67973 128.692V129.04C8.67728 129.345 8.78365 129.641 8.98001 129.875C9.51428 130.501 11.0313 132.194 14.6073 135.672C14.7098 135.768 14.8339 135.84 14.9694 135.88C15.1049 135.92 15.248 135.928 15.3873 135.903L15.399 135.896Z" fill="#455A64"/>
<g opacity="0.6">
<path d="M10.5154 126.043C10.6192 126.118 10.6907 126.229 10.7153 126.353C10.7399 126.478 10.7158 126.607 10.648 126.715C10.5686 126.819 10.4534 126.89 10.3244 126.914C10.1955 126.938 10.062 126.914 9.9499 126.847C9.84031 126.768 9.76523 126.65 9.73988 126.518C9.71453 126.386 9.74082 126.249 9.81341 126.136C9.90668 126.035 10.0345 125.973 10.1717 125.962C10.3089 125.95 10.4455 125.99 10.5544 126.074" fill="white"/>
</g>
<path d="M13.5054 132.229C13.721 131.971 13.9861 131.758 14.2854 131.603C14.6055 131.489 14.9438 131.434 15.2837 131.44C15.2837 131.421 15.1823 131.355 14.9834 131.325C14.718 131.289 14.4477 131.327 14.2035 131.437C13.9618 131.541 13.7559 131.713 13.6107 131.931C13.4976 132.117 13.482 132.229 13.5054 132.229Z" fill="white"/>
<path d="M14.0945 133.363C14.3467 133.233 14.6072 133.119 14.8745 133.023C15.1545 132.977 15.4371 132.949 15.7207 132.938C15.5886 132.855 15.4386 132.804 15.2829 132.788C15.1271 132.773 14.9699 132.794 14.8238 132.849C14.3051 133 14.0516 133.34 14.0945 133.363Z" fill="white"/>
<path d="M12.3906 130.801C12.7644 130.571 13.1555 130.369 13.5605 130.198C13.9832 130.084 14.4131 129.997 14.8475 129.939C14.3993 129.816 13.9221 129.847 13.4942 130.028C13.0452 130.147 12.6538 130.421 12.3906 130.801Z" fill="white"/>
<path d="M12.2891 128.284C12.3086 128.334 12.7921 128.153 13.4122 128.145C14.0323 128.137 14.5236 128.288 14.5431 128.238C14.196 128.05 13.8053 127.955 13.4099 127.963C13.0144 127.972 12.628 128.082 12.2891 128.284Z" fill="white"/>
<path d="M12.3368 125.854C12.7167 125.742 13.1104 125.682 13.5068 125.677C13.8979 125.728 14.2806 125.829 14.6455 125.978C14.6455 125.959 14.5675 125.854 14.3725 125.739C14.1086 125.595 13.8152 125.513 13.5146 125.499C13.2146 125.48 12.9143 125.53 12.6371 125.646C12.4265 125.739 12.3251 125.835 12.3368 125.854Z" fill="white"/>
<path d="M13.4986 125.221C13.524 125.118 13.524 125.01 13.4986 124.908C13.4764 124.62 13.3941 124.339 13.2568 124.084C13.1727 123.886 13.0246 123.72 12.8356 123.613C12.7703 123.589 12.6996 123.583 12.631 123.595C12.5624 123.607 12.4984 123.637 12.4456 123.682C12.3967 123.734 12.3588 123.795 12.334 123.861C12.3092 123.928 12.2981 123.998 12.3013 124.069C12.3192 124.351 12.4362 124.619 12.632 124.825C12.8279 125.031 13.0902 125.163 13.3738 125.197C13.6564 125.232 13.9433 125.185 14.1994 125.062C14.4556 124.938 14.67 124.744 14.8167 124.502C14.8494 124.443 14.8692 124.379 14.8746 124.312C14.88 124.245 14.8709 124.178 14.8479 124.115C14.8143 124.051 14.7613 123.999 14.6962 123.966C14.631 123.934 14.5572 123.922 14.4852 123.934C14.2733 123.972 14.0754 124.065 13.9119 124.204C13.6728 124.375 13.4678 124.589 13.3075 124.834C13.1944 125.004 13.1554 125.112 13.1671 125.116C13.3997 124.808 13.677 124.536 13.9899 124.309C14.1379 124.193 14.3118 124.115 14.4969 124.081C14.5365 124.075 14.577 124.081 14.6127 124.099C14.6484 124.117 14.6774 124.146 14.6958 124.181C14.7088 124.225 14.7121 124.271 14.7054 124.317C14.6987 124.362 14.6821 124.405 14.6568 124.444C14.5245 124.649 14.3366 124.814 14.1146 124.918C13.8925 125.023 13.6453 125.063 13.4011 125.035C13.161 125.005 12.9385 124.895 12.7699 124.723C12.6013 124.551 12.4966 124.327 12.4729 124.088C12.4701 123.992 12.5034 123.898 12.5665 123.825C12.5942 123.797 12.6299 123.778 12.669 123.77C12.708 123.763 12.7485 123.767 12.7849 123.783C12.9439 123.872 13.0718 124.007 13.1515 124.169C13.33 124.496 13.4476 124.852 13.4986 125.221Z" fill="white"/>
<path d="M35.7428 62.4399C36.5341 65.236 36.8892 68.1357 36.7958 71.0383C36.7295 72.8778 32.5061 123.858 32.5061 123.858L23.7667 124.213L24.1099 76.4446L23.4002 76.6224C23.4002 76.6224 19.5316 97.1465 19.2898 100.455C19.0675 103.426 15.9984 125.083 15.9984 125.083L8.04297 124.874L9.30258 96.9611L11.0653 69.562L11.8452 61.5742L35.7428 62.4399Z" fill="#263238"/>
<path d="M22.5156 71.6414C22.6387 71.7156 22.7694 71.7765 22.9056 71.8231C23.2553 71.9757 23.6237 72.0822 24.0014 72.1399C24.2701 72.1767 24.5431 72.1675 24.8087 72.1129C25.1174 72.0518 25.4026 71.9058 25.6315 71.6917C25.8658 71.4477 26.0301 71.1462 26.1073 70.8183C26.1931 70.4898 26.2399 70.1497 26.2945 69.8058C26.5129 68.4185 26.6455 67.1548 26.7157 66.2389C26.7507 65.779 26.7702 65.4081 26.778 65.1491C26.7915 65.0207 26.7915 64.8912 26.778 64.7627C26.7395 64.8882 26.7172 65.0181 26.7117 65.1491C26.6766 65.4428 26.6377 65.8022 26.587 66.2312C26.4856 67.1393 26.3335 68.3991 26.1151 69.7826C26.0059 70.4666 25.9396 71.1584 25.5145 71.5835C25.3115 71.7578 25.0732 71.887 24.8155 71.9623C24.5579 72.0376 24.2869 72.0573 24.0209 72.0201C23.6501 71.9717 23.2855 71.8849 22.9329 71.7612C22.7991 71.7051 22.659 71.6649 22.5156 71.6414Z" fill="#455A64"/>
<path d="M24.8577 65.0708C24.8577 65.0708 24.7992 65.0283 24.6744 65.0283C24.4998 65.0302 24.3309 65.0901 24.1948 65.1984C24.0893 65.2739 24.0035 65.3732 23.9445 65.4881C23.8855 65.603 23.855 65.7302 23.8555 65.8592C23.8678 66.0212 23.9313 66.1752 24.0371 66.2994C24.1428 66.4236 24.2853 66.5116 24.4443 66.5509C24.6011 66.6074 24.7713 66.6162 24.9332 66.5762C25.095 66.5363 25.2412 66.4495 25.353 66.3268C25.4317 66.2256 25.4849 66.1071 25.5079 65.9814C25.531 65.8557 25.5233 65.7263 25.4856 65.6041C25.4427 65.4395 25.3434 65.2947 25.2048 65.1945C25.1034 65.1249 25.0332 65.1172 25.0293 65.1249C25.1926 65.2533 25.309 65.4311 25.3608 65.6312C25.3829 65.7339 25.3818 65.8402 25.3575 65.9424C25.3332 66.0446 25.2864 66.1403 25.2204 66.2224C25.1295 66.3154 25.0133 66.3803 24.8859 66.4091C24.7585 66.4379 24.6255 66.4294 24.5028 66.3847C24.3783 66.3535 24.266 66.286 24.1806 66.1909C24.0951 66.0959 24.0402 65.9776 24.0232 65.8515C24.0223 65.7455 24.0446 65.6406 24.0883 65.5439C24.132 65.4472 24.1963 65.361 24.2766 65.2911C24.4417 65.1582 24.6453 65.081 24.8577 65.0708Z" fill="#455A64"/>
<path d="M11.1602 69.07C11.258 69.0956 11.3593 69.106 11.4604 69.1009C11.7336 69.1146 12.0074 69.1068 12.2794 69.0777C13.1801 68.9926 14.0604 68.7601 14.8844 68.3898C15.7013 68.0213 16.45 67.5197 17.0995 66.9059C17.293 66.7219 17.4729 66.5243 17.6376 66.3146C17.7049 66.2417 17.7613 66.1597 17.8053 66.0711C17.778 66.0518 17.5089 66.3726 17.0254 66.8131C16.3646 67.3887 15.6223 67.8652 14.822 68.2275C14.014 68.5893 13.1577 68.834 12.2794 68.954C11.5891 69.0429 11.1602 69.039 11.1602 69.07Z" fill="#455A64"/>
<path d="M32.2617 64.9229C32.3846 65.2229 32.55 65.5039 32.7531 65.7576C33.211 66.3985 33.7467 66.9813 34.3481 67.4927C34.9551 68.009 35.6213 68.4526 36.3331 68.8144C36.6218 68.9818 36.9312 69.1116 37.2534 69.2008C36.9765 69.0244 36.6901 68.8631 36.3954 68.7178C35.0285 67.9507 33.8267 66.9253 32.8584 65.6996C32.6757 65.4289 32.4764 65.1694 32.2617 64.9229Z" fill="#455A64"/>
<path d="M32.2384 27.4819L26.0807 25.4763C26.0807 25.4763 26.1158 27.3853 23.3314 27.4433C20.1258 27.5129 17.4818 25.0898 17.4818 25.0898C17.4818 25.0898 12.6461 26.9873 11.2422 28.1041L12.5408 52.4L12.9581 59.356C12.5459 60.0638 12.3093 60.8585 12.2678 61.6747C12.2678 62.8842 12.2249 63.6919 12.2249 63.6919C20.7732 66.2463 28.6039 68.3988 36.4033 65.9256C36.4033 65.9256 36.8635 61.8795 36.4033 60.7588C35.9432 59.6381 36.0329 59.5376 36.0329 59.5376L35.2919 46.6767L34.5939 36.8803L32.2384 27.4819Z" fill="#01A5A3"/>
<path d="M27.6763 26.0851C27.5749 25.374 26.713 23.8128 26.713 23.8128L24.6891 26.3672L17.4667 22.5762L16.2656 25.0881L21.5927 28.74L24.2835 28.3226L26.3738 27.9362L27.6763 26.0851Z" fill="#01A5A3"/>
<path d="M16.3555 25.0898C16.3927 25.1365 16.4359 25.1781 16.4842 25.2135C16.5739 25.2869 16.7025 25.399 16.8741 25.5343C17.2212 25.8086 17.7282 26.1989 18.3794 26.655C20.084 27.8477 21.8854 28.8986 23.765 29.7968L23.8352 29.8315L23.8742 29.7697C23.9561 29.6422 24.0458 29.5069 24.1277 29.3833C24.5326 28.6952 24.8249 27.9478 24.9934 27.1689H24.8296C24.9331 27.6805 25.1272 28.1698 25.4029 28.6142C25.6327 29.0129 25.8826 29.3998 26.1516 29.7736L26.2296 29.8818L26.2725 29.7581C26.6625 28.649 26.9979 27.7293 27.2396 27.053L27.497 26.2994C27.5277 26.2119 27.5537 26.1229 27.575 26.0328C27.5267 26.1133 27.4874 26.1988 27.458 26.2878C27.38 26.4772 27.2825 26.7206 27.1617 27.0259C26.9121 27.6906 26.5611 28.6026 26.1438 29.704L26.2647 29.6847C26.0034 29.3106 25.7613 28.9236 25.5394 28.5253C25.2782 28.0993 25.0947 27.631 24.9973 27.1419L24.9349 26.6743L24.8335 27.1303C24.6645 27.8914 24.3764 28.6216 23.9795 29.2944C23.9015 29.4296 23.8157 29.5649 23.7338 29.6808L23.8391 29.6499C21.9656 28.7548 20.1628 27.7214 18.4457 26.5583C17.7906 26.1139 17.2758 25.7429 16.9131 25.484L16.4998 25.1865C16.4551 25.1495 16.4067 25.1172 16.3555 25.0898Z" fill="#263238"/>
<path d="M61.0339 41.1044L59.5715 33.1011L45.1424 37.6534C45.1424 37.6534 37.2649 28.9545 35.4828 27.5247C33.7006 26.0948 32.1797 26.288 32.1797 26.288L34.8276 41.9236L38.8522 45.0732C39.8543 45.8588 41.0105 46.4291 42.2472 46.7478C43.484 47.0665 44.7741 47.1266 46.0355 46.9242C51.1363 46.1088 61.4902 41.0773 61.0339 41.1044Z" fill="#E0E0E0"/>
<path d="M9.43359 87.5415H26.4755L26.6393 45.5426C26.6393 45.5426 23.6794 38.1653 21.5696 33.9183C19.4598 29.6713 16.6793 24.1064 16.6793 24.1064L15.3885 25.8416L10.8492 27.426L11.984 42.1882L12.764 56.1467L11.169 64.5094L9.43359 87.5415Z" fill="#E0E0E0"/>
<path d="M33.7221 26.6609L28.707 25.718L27.3265 24.4736L26.5153 45.2721L26.4724 87.5377H38.6786L36.409 56.8694L34.7555 36.7433L33.7221 26.6609Z" fill="#E0E0E0"/>
<path d="M26.0483 44.1712C25.986 44.1171 25.9273 44.059 25.8728 43.9973L25.3931 43.4717L23.6538 41.5395L21.0878 38.6295L19.5747 36.9099L18.7947 35.9979C18.4883 35.701 18.2409 35.3496 18.0655 34.9622C17.9774 34.6442 17.9707 34.3095 18.046 33.9883C18.1111 33.6819 18.2038 33.3819 18.3229 33.0918C18.5428 32.5418 18.8103 32.0117 19.1223 31.5074L19.1808 31.6233L17.383 31.4919C17.0983 31.4838 16.8144 31.4579 16.5329 31.4146C16.2546 31.3735 15.9922 31.2602 15.7724 31.0861C15.5703 30.9099 15.4331 30.6719 15.3825 30.4099C15.3394 30.174 15.3289 29.9335 15.3513 29.6949C15.3864 29.2428 15.4059 28.8293 15.4215 28.4506C15.4449 27.7086 15.4605 27.1096 15.4761 26.6845C15.4761 26.4874 15.4761 26.3328 15.4761 26.2092C15.4721 26.1551 15.4721 26.1009 15.4761 26.0469C15.4809 26.1009 15.4809 26.1552 15.4761 26.2092C15.4761 26.3328 15.4761 26.4874 15.4761 26.6845C15.4761 27.098 15.4761 27.697 15.4761 28.4544C15.4761 28.8409 15.4527 29.2505 15.4254 29.7027C15.4081 29.9312 15.4199 30.161 15.4605 30.3867C15.5048 30.6204 15.627 30.8327 15.8075 30.9895C16.0102 31.1464 16.2509 31.2477 16.5056 31.2832C16.7821 31.3227 17.0608 31.3459 17.3401 31.3528L19.1418 31.4726H19.2627L19.2003 31.5808C18.8964 32.0731 18.6355 32.5902 18.4204 33.1266C18.3056 33.4079 18.2169 33.6989 18.1552 33.9961C18.0811 34.2891 18.0811 34.5957 18.1552 34.8888C18.3269 35.2557 18.5633 35.5894 18.8532 35.8742L19.6332 36.7862L21.1814 38.5175L23.724 41.4467L25.4243 43.4292L25.8806 43.9741C25.9423 44.0347 25.9984 44.1006 26.0483 44.1712Z" fill="#263238"/>
<path d="M26.6406 44.1725C26.6448 44.0978 26.6579 44.0239 26.6796 43.9523C26.7186 43.8054 26.7771 43.5967 26.8629 43.3262C27.0306 42.7891 27.288 42.0162 27.6078 41.0616C27.9275 40.1071 28.3097 38.9671 28.7075 37.6996C28.9064 37.0619 29.0975 36.3973 29.308 35.7016C29.5186 35.006 29.698 34.2795 29.8423 33.5298C29.9304 33.192 29.9581 32.8415 29.9242 32.4941C29.8253 32.174 29.6325 31.8901 29.3704 31.6787C28.8775 31.2465 28.3294 30.8801 27.7404 30.589L27.6351 30.5349L27.7287 30.4692L28.9532 29.5997C29.3486 29.4023 29.6677 29.082 29.8618 28.6877C29.8942 28.499 29.8834 28.3055 29.83 28.1215C29.7767 27.9375 29.6823 27.7678 29.5537 27.6249C29.3353 27.3235 29.1443 27.0337 28.9727 26.7747C28.6334 26.253 28.376 25.8318 28.1927 25.542L27.9938 25.2096C27.9686 25.1727 27.9489 25.1324 27.9353 25.0898C27.9662 25.1231 27.9937 25.1594 28.0172 25.198L28.2317 25.5188L29.0429 26.7245C29.2145 26.9834 29.4094 27.2655 29.6317 27.5631C29.7518 27.7215 29.8514 27.8942 29.9281 28.0771C30.0147 28.2814 30.0298 28.5086 29.971 28.7224C29.7749 29.1487 29.4397 29.4972 29.0195 29.7117L27.8105 30.5967V30.473C28.4153 30.7662 28.9779 31.1379 29.4835 31.5783C29.7671 31.8141 29.9745 32.1272 30.0802 32.4787C30.1185 32.8441 30.0894 33.2134 29.9944 33.5685C29.854 34.3414 29.659 35.0563 29.4601 35.7519C29.2613 36.4475 29.0507 37.1199 28.8479 37.7537C28.4384 39.0212 28.0484 40.1574 27.7131 41.108C27.3777 42.0587 27.1125 42.8084 26.9331 43.3571C26.8473 43.6148 26.7771 43.8196 26.7225 43.9716C26.6998 44.0403 26.6724 44.1074 26.6406 44.1725Z" fill="#263238"/>
<path d="M34.7573 34.8457C34.7865 34.9726 34.8034 35.102 34.808 35.2321C34.8314 35.522 34.8587 35.8968 34.8938 36.3374C34.9562 37.3074 35.042 38.5826 35.1356 39.9932C35.2292 41.4037 35.3111 42.6983 35.3735 43.6489C35.4047 44.0933 35.4281 44.4682 35.4437 44.758C35.4583 44.8942 35.4583 45.0315 35.4437 45.1677C35.4081 45.0415 35.3859 44.912 35.3774 44.7812C35.3423 44.5184 35.3033 44.1436 35.2565 43.676C35.1668 42.7408 35.0615 41.4501 34.9679 40.0202C34.8743 38.5904 34.8119 37.3151 34.7729 36.3606C34.7534 35.893 34.7417 35.5143 34.7378 35.2515C34.7296 35.1159 34.7361 34.9799 34.7573 34.8457Z" fill="#263238"/>
<path d="M34.0855 27.7803C34.2151 28.5095 34.292 29.2469 34.3156 29.9869C34.3932 30.7223 34.418 31.4623 34.3897 32.2012C34.2622 31.4718 34.1853 30.7345 34.1596 29.9946C34.082 29.2592 34.0572 28.5192 34.0855 27.7803Z" fill="#263238"/>
<path d="M26.6415 86.5295C26.6364 86.4936 26.6364 86.4572 26.6415 86.4213C26.6415 86.344 26.6415 86.2397 26.6415 86.1083C26.6415 85.8262 26.6181 85.4204 26.6026 84.9064C26.5831 83.8514 26.5519 82.3404 26.513 80.4778C26.4468 76.737 26.3845 71.5895 26.3611 65.8624C26.3378 60.1353 26.3611 54.9839 26.3884 51.2431C26.4118 49.3805 26.4312 47.8695 26.4429 46.8145C26.4429 46.3005 26.4429 45.8947 26.4702 45.6088V45.2957C26.4651 45.2611 26.4651 45.226 26.4702 45.1914C26.4702 45.1914 26.4702 45.2262 26.4702 45.2996V45.6126C26.4702 45.8947 26.4702 46.3005 26.4702 46.8145C26.4702 47.8695 26.4702 49.3805 26.4702 51.2431C26.4702 54.9917 26.4702 60.1584 26.4935 65.8624C26.5169 71.5663 26.5675 76.7254 26.5948 80.4739C26.5948 82.3366 26.6298 83.8476 26.6376 84.9064C26.6376 85.4204 26.6376 85.8262 26.6376 86.1083C26.6376 86.2397 26.6376 86.344 26.6376 86.4213C26.6376 86.4986 26.6415 86.5295 26.6415 86.5295Z" fill="#263238"/>
<path d="M19.7299 72.0508H1.61562C1.09656 72.0508 0.675781 72.4678 0.675781 72.9821V85.2634C0.675781 85.7777 1.09656 86.1947 1.61562 86.1947H19.7299C20.249 86.1947 20.6698 85.7777 20.6698 85.2634V72.9821C20.6698 72.4678 20.249 72.0508 19.7299 72.0508Z" fill="#455A64"/>
<path d="M12.9198 72.0659C12.8612 72.0508 12.7998 72.0495 12.7406 72.0621C12.6813 72.0746 12.6258 72.1007 12.5785 72.1382C12.5312 72.1757 12.4934 72.2236 12.468 72.2781C12.4426 72.3327 12.4304 72.3923 12.4324 72.4523C12.4324 72.8387 12.756 75.513 12.756 75.513C12.756 75.513 13.5945 78.477 13.3683 78.8093C13.3205 78.8756 13.2582 78.9303 13.186 78.9694C13.1139 79.0084 13.0338 79.0308 12.9516 79.0349C12.8695 79.039 12.7876 79.0247 12.7118 78.993C12.6361 78.9613 12.5686 78.913 12.5143 78.8518C12.4012 78.6934 11.4535 76.2163 11.4535 76.2163L11.2078 74.8676C11.2078 74.8676 11.6992 79.1378 11.4262 79.474C11.3851 79.5345 11.3303 79.5846 11.2661 79.6203C11.202 79.6561 11.1303 79.6764 11.0568 79.6798C10.9833 79.6832 10.91 79.6695 10.8428 79.6398C10.7756 79.6101 10.7163 79.5652 10.6697 79.5088C10.4786 79.3388 10.2797 77.449 10.2797 77.449L9.83514 74.9333L9.89754 79.0219C9.89754 79.0219 9.84684 79.4779 9.48807 79.4933C9.34369 79.4909 9.20468 79.4386 9.09505 79.3455C8.98541 79.2524 8.912 79.1243 8.8875 78.9832L8.38444 74.7323C8.38444 74.7323 8.55213 77.4838 8.38444 77.6268C8.13486 77.82 7.90867 77.7543 7.82677 77.5457C7.63712 76.5863 7.50043 75.6175 7.4173 74.6435L7.18721 69.9327L7.01562 68.6342L11.5744 68.4023V68.7192C11.5744 68.7192 13.3332 70.0331 13.7193 70.5548C14.0193 71.0159 14.2517 71.5169 14.4095 72.0427L12.9198 72.0659Z" fill="#FFBF9D"/>
<path d="M19.5933 81.5283H21.7499V75.2254H19.5933V81.5283Z" fill="#455A64"/>
<path d="M21.1641 77.9504L22.9111 77.4248L22.9189 79.5193L21.2265 79.1329L21.1641 77.9504Z" fill="#455A64"/>
<path d="M20.7323 81.5357C20.3555 81.4802 19.9744 81.4582 19.5936 81.47L19.6599 81.5357C19.6794 80.7628 19.6911 79.6034 19.6911 78.332C19.6911 77.1147 19.6911 76.0133 19.6599 75.2405L19.5936 75.3062C20.0081 75.3175 20.4228 75.2955 20.8337 75.2405C20.4228 75.1854 20.0081 75.1635 19.5936 75.1748H19.5273V75.2443C19.5273 76.0172 19.4961 77.1263 19.4961 78.3359C19.4961 79.6112 19.4961 80.755 19.5273 81.5395V81.6052H19.5897C19.9718 81.6119 20.3539 81.5887 20.7323 81.5357Z" fill="#263238"/>
<path d="M10.8541 27.4219C10.8541 27.4219 6.1978 28.3571 5.11757 35.4097C4.03734 42.4623 3.00391 51.7177 3.00391 51.7177L6.43958 69.1851L12.57 68.5938L10.9204 52.7495L12.1839 43.8613L10.8541 27.4219Z" fill="#E0E0E0"/>
<path d="M11.1617 34.5713C11.1874 34.6385 11.2044 34.7086 11.2124 34.78C11.2436 34.9384 11.2787 35.1355 11.3255 35.379C11.4035 35.9007 11.5049 36.662 11.6062 37.601C11.809 39.483 12.0196 42.0838 12.2107 44.9628C12.4018 47.8418 12.5383 50.4504 12.6241 52.3362C12.6631 53.2598 12.6904 54.0172 12.7138 54.5737C12.7138 54.8172 12.7138 55.022 12.7138 55.1804C12.7222 55.251 12.7222 55.3224 12.7138 55.393C12.692 55.3256 12.6814 55.2551 12.6826 55.1843C12.6826 55.022 12.6514 54.8211 12.6319 54.5776C12.5929 54.0211 12.5422 53.2675 12.4798 52.3439C12.355 50.431 12.1873 47.8418 12.004 44.9744C11.8207 42.107 11.614 39.4946 11.4581 37.6319C11.3801 36.689 11.2982 35.9316 11.2436 35.406C11.2124 35.1626 11.189 34.9616 11.1695 34.7993C11.155 34.7241 11.1524 34.6472 11.1617 34.5713Z" fill="#263238"/>
<path d="M55.6076 32.0957L46.0727 32.316L45.1836 35.8481C45.1836 35.8481 47.7496 38.0199 48.007 38.1127C48.2644 38.2054 54.2193 39.2218 54.2193 39.2218C54.2193 39.2218 60.7592 36.4394 60.6734 36.4664C60.5876 36.4935 55.6076 32.0957 55.6076 32.0957Z" fill="#FFBF9D"/>
<path d="M62.5192 22.8621C61.9381 21.5366 60.1793 21.1347 59.3487 19.9521L41.6166 21.3163C41.0628 22.0196 40.2321 22.92 39.8617 23.7354C39.462 24.5443 39.3666 25.4678 39.5926 26.3401C39.7172 26.7692 39.9641 27.1536 40.3038 27.447C40.6434 27.7404 41.0614 27.9304 41.5074 27.9941C41.3865 28.9795 42.2561 29.8838 43.235 30.1002C44.2138 30.3166 45.2316 29.9881 46.113 29.5244C47.3414 30.0538 48.6088 30.5949 49.9503 30.6412C51.2918 30.6876 52.7386 30.1157 53.3431 28.9293C54.3945 29.3918 55.5087 29.699 56.6501 29.8413C57.2213 29.9075 57.8001 29.8495 58.3463 29.6713C58.8926 29.4931 59.393 29.199 59.8128 28.8095C60.5927 27.9864 60.7994 26.5681 60.0468 25.7179C60.4299 25.818 60.8338 25.8092 61.2121 25.6924C61.5904 25.5757 61.9279 25.3557 62.1859 25.0576C62.4439 24.7596 62.612 24.3956 62.671 24.0073C62.7299 23.619 62.6773 23.2221 62.5192 22.8621Z" fill="#E0E0E0"/>
<path d="M59.2849 16.0098C59.6412 15.3065 59.8169 14.527 59.7965 13.7404C59.7761 12.9537 59.5602 12.1842 59.1679 11.5L56.7812 25.3425C57.2675 25.3875 57.7575 25.3154 58.2096 25.1323C58.6617 24.9492 59.0624 24.6605 59.3776 24.2908C59.6928 23.9211 59.9132 23.4814 60.0199 23.0092C60.1267 22.5369 60.1167 22.0461 59.9907 21.5785C60.7395 20.6974 61.3361 19.6115 61.3011 18.4638C61.266 17.316 60.4392 16.1335 59.2849 16.0098Z" fill="#E0E0E0"/>
<path d="M59.4689 14.0816C60.0772 12.3658 59.2388 10.3563 57.7608 9.28197C56.2828 8.20765 54.3095 7.96419 52.5039 8.2888C51.0844 8.54772 49.5869 9.26651 49.0916 10.6075C48.0465 10.0935 46.2058 10.3176 45.2192 10.9398C44.7305 11.2603 44.3313 11.6979 44.0586 12.212C43.7859 12.7261 43.6486 13.3 43.6593 13.8807C42.9058 14.0919 42.2202 14.4927 41.6692 15.0441C41.1182 15.5955 40.7205 16.2788 40.5148 17.0276C40.3092 17.7764 40.3024 18.5652 40.4954 19.3173C40.6883 20.0694 41.0743 20.7592 41.6158 21.3198C40.3445 22.8192 40.91 25.6982 42.1657 27.2092C43.4214 28.7202 45.1373 28.9907 47.0833 29.3192C49.7507 29.7675 52.6209 29.4892 54.9334 28.0941C56.5933 27.0953 57.878 25.5862 58.5919 23.7966C59.3058 22.0071 59.4097 20.0353 58.8878 18.1818C58.6775 17.6317 58.5628 17.0502 58.5485 16.4621C58.6187 15.6158 59.1803 14.8932 59.4689 14.0816Z" fill="#E0E0E0"/>
<path d="M51.9334 37.2859C50.7759 37.4251 49.6094 37.1101 48.6832 36.4081C47.757 35.7062 47.1446 34.6731 46.9769 33.5297L44.9022 19.208C44.2198 15.3783 45.9005 11.7921 49.7808 11.224L50.1435 11.1893C51.8996 11.0351 53.6499 11.5414 55.0466 12.6075C56.4433 13.6736 57.3839 15.2215 57.6817 16.9434C58.2549 20.2669 58.8516 23.9458 58.9803 25.7428C59.2689 29.4643 55.568 30.3802 55.568 30.3802C55.568 30.3802 55.6694 31.2381 55.8176 32.3124C55.8945 32.893 55.8543 33.4829 55.6995 34.0481C55.5446 34.6132 55.278 35.1422 54.9153 35.6045C54.5525 36.0667 54.1008 36.453 53.5863 36.741C53.0717 37.029 52.5046 37.2129 51.9179 37.2821L51.9334 37.2859Z" fill="#FFBF9D"/>
<path d="M55.5698 30.3727C53.8437 30.5565 52.1014 30.2297 50.5625 29.4336C50.5625 29.4336 51.9898 32.1387 55.7024 31.4663L55.5698 30.3727Z" fill="#FF9A6C"/>
<path d="M52.2699 24.7177C52.3424 24.6212 52.4357 24.542 52.5432 24.486C52.6506 24.43 52.7693 24.3986 52.8906 24.3941C53.0119 24.3896 53.1327 24.4122 53.244 24.4601C53.3553 24.508 53.4544 24.5801 53.5339 24.671C53.6134 24.7619 53.6712 24.8693 53.7033 24.9854C53.7353 25.1014 53.7406 25.223 53.7189 25.3414C53.6971 25.4597 53.6488 25.5717 53.5776 25.6691C53.5064 25.7665 53.414 25.8468 53.3073 25.9041C53.1074 26.0039 52.8801 26.0365 52.6599 25.9968C52.4915 25.9774 52.3341 25.9042 52.2114 25.7882C52.1326 25.6962 52.0785 25.586 52.0539 25.4678C52.0294 25.3496 52.0353 25.2272 52.0711 25.1119C52.122 24.92 52.226 24.746 52.3713 24.6095" fill="#FF9A6C"/>
<path d="M56.544 20.8318C56.5583 20.9704 56.5174 21.109 56.43 21.2181C56.3425 21.3271 56.2155 21.3979 56.076 21.4154C56.0083 21.4263 55.9391 21.4237 55.8724 21.4078C55.8057 21.3919 55.7429 21.3629 55.6877 21.3226C55.6325 21.2823 55.586 21.2314 55.5508 21.173C55.5157 21.1146 55.4928 21.0499 55.4833 20.9825C55.469 20.8444 55.51 20.7062 55.5975 20.5978C55.6851 20.4894 55.8121 20.4194 55.9512 20.4029C56.0187 20.3913 56.0878 20.3934 56.1545 20.4088C56.2212 20.4243 56.284 20.4529 56.3393 20.4929C56.3946 20.5329 56.4412 20.5836 56.4764 20.6418C56.5115 20.7 56.5345 20.7646 56.544 20.8318Z" fill="#263238"/>
<path d="M57.059 18.8442C57.0005 18.9177 56.5677 18.6549 55.9905 18.709C55.4133 18.7631 55.0195 19.0954 54.9493 19.0181C54.8791 18.9408 54.9727 18.8597 55.1443 18.709C55.3795 18.5177 55.6678 18.4018 55.971 18.3766C56.2705 18.3477 56.5715 18.4155 56.8289 18.5699C57.0161 18.6897 57.0863 18.8095 57.059 18.8442Z" fill="#263238"/>
<path d="M51.5554 21.2608C51.5697 21.3989 51.5286 21.5371 51.4411 21.6455C51.3535 21.7539 51.2265 21.8239 51.0874 21.8404C51.0199 21.852 50.9508 21.8499 50.8841 21.8345C50.8175 21.819 50.7546 21.7904 50.6993 21.7504C50.644 21.7104 50.5974 21.6598 50.5623 21.6015C50.5271 21.5433 50.5041 21.4787 50.4946 21.4115C50.4813 21.2731 50.5226 21.135 50.6099 21.0262C50.6971 20.9174 50.8236 20.8463 50.9626 20.828C51.0303 20.817 51.0995 20.8196 51.1662 20.8355C51.2329 20.8514 51.2957 20.8804 51.3509 20.9207C51.4061 20.9611 51.4527 21.0119 51.4878 21.0703C51.5229 21.1287 51.5459 21.1935 51.5554 21.2608Z" fill="#263238"/>
<path d="M51.5238 19.4692C51.4614 19.5465 51.0286 19.2837 50.4553 19.334C49.882 19.3842 49.4804 19.7204 49.4102 19.647C49.34 19.5736 49.4336 19.4886 49.609 19.3378C49.8398 19.1436 50.1262 19.026 50.428 19.0016C50.7288 18.9727 51.0309 19.0405 51.2898 19.1949C51.4809 19.3147 51.5511 19.4345 51.5238 19.4692Z" fill="#263238"/>
<path d="M53.8591 23.5352C54.1545 23.4157 54.4636 23.3327 54.7795 23.2879C54.9237 23.2569 55.0602 23.2183 55.0797 23.114C55.0779 22.9626 55.0288 22.8154 54.9393 22.6927L54.4051 21.6184C53.6602 20.092 53.1065 18.8283 53.1689 18.8012C53.2313 18.7742 53.8864 19.9876 54.6313 21.5063L55.1499 22.5884C55.258 22.7558 55.3036 22.9554 55.2786 23.1526C55.2605 23.2058 55.2308 23.2545 55.1918 23.2952C55.1527 23.3359 55.1052 23.3677 55.0524 23.3883C54.9729 23.4158 54.8905 23.4339 54.8068 23.4424C54.4966 23.5159 54.1778 23.5471 53.8591 23.5352Z" fill="#263238"/>
<path d="M51.6568 17.3083C51.6022 17.4667 51.0212 17.401 50.3465 17.4899C49.6718 17.5788 49.122 17.772 49.0284 17.6329C48.9894 17.5672 49.0791 17.4204 49.3014 17.2465C49.5941 17.0577 49.9263 16.9374 50.2729 16.8945C50.6195 16.8517 50.9713 16.8874 51.3019 16.9991C51.5515 17.1112 51.6802 17.2349 51.6568 17.3083Z" fill="#E0E0E0"/>
<path d="M56.433 17.0307C56.3277 17.1543 55.9338 17.0036 55.458 16.9727C54.9822 16.9418 54.5689 17.0191 54.4831 16.88C54.4441 16.8104 54.5143 16.6829 54.6976 16.5708C54.9402 16.4303 55.221 16.3682 55.5009 16.393C55.7858 16.4092 56.0585 16.5133 56.2809 16.6906C56.433 16.8336 56.4836 16.9689 56.433 17.0307Z" fill="#E0E0E0"/>
<path d="M45.4624 21.9759C45.3961 21.9759 42.8184 21.4503 43.1226 23.9816C43.4268 26.5128 45.9343 25.6858 45.9304 25.6124C45.9265 25.5389 45.4624 21.9759 45.4624 21.9759Z" fill="#FFBF9D"/>
<path d="M45.0344 24.7497C45.0344 24.7497 44.9915 24.7845 44.9213 24.8308C44.8201 24.8856 44.7023 24.902 44.5898 24.8772C44.4121 24.7931 44.2602 24.6635 44.1499 24.5018C44.0395 24.3402 43.9746 24.1522 43.962 23.9575C43.9272 23.7416 43.9432 23.5208 44.0088 23.3121C44.0221 23.229 44.0558 23.1503 44.1067 23.083C44.1577 23.0157 44.2245 22.9617 44.3012 22.9256C44.351 22.9062 44.4061 22.9048 44.4568 22.9218C44.5075 22.9387 44.5505 22.973 44.5781 23.0184C44.621 23.0841 44.6132 23.1343 44.6249 23.1382C44.6366 23.1421 44.6756 23.088 44.6249 22.9875C44.6048 22.9263 44.5633 22.8742 44.5079 22.8406C44.4701 22.8185 44.4282 22.804 44.3847 22.798C44.3412 22.7921 44.2969 22.7947 44.2544 22.8059C44.1519 22.8388 44.0597 22.8973 43.9866 22.9759C43.9135 23.0544 43.862 23.1502 43.8372 23.2541C43.7539 23.4869 43.7298 23.7364 43.767 23.9807C43.7823 24.2071 43.8644 24.4241 44.003 24.6048C44.1417 24.7855 44.3308 24.9218 44.5469 24.997C44.6165 25.0072 44.6875 25.0021 44.7549 24.9821C44.8223 24.962 44.8845 24.9276 44.9369 24.8811C45.0383 24.7999 45.0422 24.7535 45.0344 24.7497Z" fill="#FF9A6C"/>
<path d="M51.813 24.6892C51.8637 24.612 52.3551 24.8863 53.0102 25.0332C53.6654 25.18 54.227 25.1568 54.2426 25.2496C54.2582 25.3423 53.6654 25.5085 52.94 25.3385C52.2147 25.1684 51.7584 24.7511 51.813 24.6892Z" fill="#263238"/>
<path d="M51.2358 25.5704C51.2358 25.5704 51.1617 25.5704 51.0681 25.5356C51.0076 25.4989 50.955 25.4506 50.9135 25.3936C50.872 25.3365 50.8424 25.2718 50.8264 25.2033C50.8005 25.0703 50.8255 24.9325 50.8966 24.8168C50.959 24.728 51.0213 24.7009 51.033 24.7125C51.0447 24.7241 50.9239 24.9366 50.9824 25.184C51.0408 25.4313 51.2553 25.5395 51.2358 25.5704Z" fill="#FF9A6C"/>
<path d="M49.746 21.431C49.746 21.4696 49.5588 21.5701 49.2897 21.5546C49.0206 21.5392 48.8295 21.4194 48.849 21.3846C48.8685 21.3498 49.0596 21.3846 49.2975 21.3846C49.5354 21.3846 49.7343 21.3885 49.746 21.431Z" fill="#FF9A6C"/>
<path d="M49.8963 21.6453C49.8963 21.6878 49.7286 21.7303 49.5453 21.823C49.362 21.9158 49.2255 22.0201 49.1904 21.9931C49.1553 21.966 49.2567 21.7883 49.4751 21.6839C49.6935 21.5796 49.9002 21.6028 49.8963 21.6453Z" fill="#FF9A6C"/>
<path d="M57.9134 20.2712C57.9485 20.2944 57.8666 20.449 57.6755 20.5263C57.4844 20.6035 57.3206 20.561 57.3284 20.5263C57.3362 20.4915 57.4649 20.4567 57.6131 20.391C57.7613 20.3253 57.8783 20.2403 57.9134 20.2712Z" fill="#FF9A6C"/>
<path d="M57.9914 20.8234C57.9914 20.8659 57.8471 20.9122 57.6599 20.9006C57.4727 20.8891 57.3324 20.8272 57.3402 20.7847C57.348 20.7422 57.4961 20.7345 57.6716 20.7461C57.8471 20.7577 57.9875 20.7809 57.9914 20.8234Z" fill="#FF9A6C"/>
<path d="M50.9278 25.7717C50.9278 25.8103 50.7133 25.7524 50.608 25.5437C50.5027 25.335 50.5807 25.1572 50.608 25.1572C50.6353 25.1572 50.6587 25.3195 50.7406 25.478C50.8225 25.6364 50.9473 25.7292 50.9278 25.7717Z" fill="#FF9A6C"/>
<path d="M48.889 32.14C48.9573 31.9585 48.9721 31.7615 48.9319 31.572C48.9057 31.482 48.862 31.398 48.8032 31.3246C48.725 31.2449 48.6372 31.1748 48.542 31.1159C48.4134 31.0397 48.3166 30.9205 48.269 30.7797C48.246 30.6214 48.2866 30.4604 48.3821 30.3315C48.4595 30.2334 48.5069 30.1154 48.5186 29.9914C48.5115 29.9371 48.493 29.8849 48.464 29.8383C48.4351 29.7916 48.3966 29.7516 48.3509 29.7209C48.2612 29.6397 48.1637 29.5702 48.0818 29.4851C47.9995 29.4021 47.9462 29.2951 47.9297 29.1799C47.9291 29.0997 47.9451 29.0204 47.9766 28.9466C48.0081 28.8728 48.0545 28.8062 48.113 28.7509C48.191 28.6736 48.2378 28.6388 48.2456 28.6466C48.2534 28.6543 48.2183 28.7007 48.1637 28.7895C48.0755 28.8987 48.0311 29.0363 48.0389 29.176C48.0623 29.3383 48.2456 29.462 48.4289 29.6204C48.492 29.6653 48.5448 29.723 48.5838 29.7896C48.6227 29.8562 48.6471 29.9303 48.6551 30.0068C48.6478 30.1621 48.5934 30.3116 48.4991 30.4358C48.4242 30.5299 48.388 30.6487 48.3977 30.7681C48.4385 30.8745 48.514 30.9643 48.6122 31.0232C48.714 31.0931 48.8058 31.1763 48.8851 31.2705C48.9671 31.3804 49.0182 31.5097 49.0333 31.6455C49.0483 31.7813 49.0268 31.9186 48.9709 32.0434C48.9436 32.113 48.8929 32.14 48.889 32.14Z" fill="#FF9A6C"/>
<path d="M49.9194 31.9933C49.9155 31.8387 49.8769 31.6869 49.8063 31.5489C49.74 31.4175 49.6347 31.2746 49.5372 31.0929C49.4829 30.9942 49.446 30.887 49.428 30.776C49.4103 30.6506 49.4306 30.5228 49.4865 30.4089C49.5142 30.3715 49.5341 30.329 49.5448 30.2838C49.5555 30.2387 49.5569 30.1918 49.5489 30.1461C49.5137 30.0654 49.4536 29.9978 49.3773 29.9529C49.2953 29.8964 49.2183 29.833 49.1472 29.7636C49.0708 29.6807 49.0258 29.574 49.0201 29.4619C49.0145 29.3497 49.0484 29.2392 49.116 29.1491C49.1745 29.0757 49.2213 29.0564 49.2291 29.0641C49.2369 29.0718 49.2018 29.1105 49.1667 29.18C49.1222 29.2796 49.1113 29.3907 49.1355 29.4969C49.1628 29.6322 49.2876 29.7249 49.4631 29.837C49.5674 29.8975 49.6494 29.9896 49.6971 30.0998C49.7137 30.1652 49.7163 30.2334 49.7049 30.2999C49.6935 30.3664 49.6683 30.4299 49.6308 30.4862C49.5906 30.5743 49.5731 30.6709 49.5799 30.7674C49.5867 30.8639 49.6176 30.9571 49.6698 31.0388C49.7517 31.2127 49.8492 31.3673 49.9077 31.5141C49.96 31.6278 49.9815 31.753 49.9701 31.8774C49.9584 31.9547 49.9272 31.9972 49.9194 31.9933Z" fill="#FF9A6C"/>
<path d="M57.9936 14.9195C57.7718 14.2974 57.4204 13.7285 56.9622 13.2498C56.504 12.7711 55.9492 12.3933 55.334 12.141C54.1173 11.6077 52.3897 10.8811 51.0638 10.9237C49.6335 11.0042 48.2372 11.3877 46.9691 12.0482C45.5301 12.8211 44.5629 14.5717 44.0716 16.1214C43.5802 17.671 44.2626 19.3714 44.5395 20.979L44.9529 22.5248C45.1401 23.0426 45.9044 23.1238 46.3568 22.8107C46.7769 22.4481 47.0693 21.9621 47.1914 21.4234C47.9713 19.0081 48.5251 16.4537 48.2092 13.9302C49.4273 14.7315 50.7697 15.3294 52.183 15.7001C52.51 15.812 52.8605 15.8386 53.2009 15.7774C53.3693 15.7427 53.5215 15.6538 53.6336 15.5245C53.7458 15.3952 53.8116 15.2327 53.8209 15.0625C54.3926 15.7349 55.0956 16.2857 55.8878 16.6817C56.3792 16.9329 56.9797 17.1222 57.475 16.8749C57.638 16.7841 57.7788 16.6587 57.8874 16.5077C57.9959 16.3568 58.0695 16.1839 58.1028 16.0016C58.1558 15.6374 58.1183 15.266 57.9936 14.9195Z" fill="#E0E0E0"/>
<path d="M40.5664 19.0823C40.5664 19.0514 41.1163 19.0823 41.9742 18.9625C42.4775 18.878 42.9704 18.7407 43.4444 18.5529C44.0206 18.3175 44.5687 18.0194 45.0784 17.6641C46.0096 17.0167 46.788 16.1769 47.3598 15.2024C47.7965 14.4566 47.9564 13.9349 47.9876 13.9465C47.9687 14.0791 47.9334 14.2089 47.8823 14.3329C47.7676 14.6585 47.6254 14.9739 47.4573 15.2759C46.9025 16.2851 46.1189 17.1529 45.1681 17.8109C44.6491 18.1748 44.0873 18.4746 43.4951 18.7036C43.012 18.8915 42.508 19.0212 41.9937 19.0901C41.6475 19.1374 41.2978 19.1542 40.9486 19.1403C40.8195 19.1346 40.6913 19.1151 40.5664 19.0823Z" fill="white"/>
<path d="M40.9492 20.2281C40.9492 20.1933 41.4718 20.1778 42.2868 19.9846C42.7622 19.8671 43.2276 19.7133 43.679 19.5247C44.7838 19.0549 45.7824 18.3702 46.6155 17.5113C46.9567 17.1607 47.2672 16.7819 47.5437 16.3791C48.0117 15.6912 48.2144 15.2197 48.2456 15.2197C48.212 15.3369 48.1677 15.4507 48.113 15.5598C48.0583 15.6928 47.9945 15.8219 47.922 15.9462C47.836 16.1155 47.7396 16.2794 47.6334 16.437C47.3674 16.8515 47.0618 17.2398 46.7208 17.5964C46.3024 18.036 45.8399 18.4322 45.3403 18.7789C44.8358 19.1185 44.299 19.4084 43.7375 19.6445C43.277 19.8342 42.799 19.9791 42.3102 20.0773C42.1248 20.1191 41.9374 20.1514 41.7487 20.174C41.6054 20.1963 41.4608 20.2092 41.3158 20.2126C41.1943 20.2287 41.0716 20.2339 40.9492 20.2281Z" fill="white"/>
<path d="M56.8754 16.5029C56.8754 16.5029 56.969 16.5029 57.1367 16.4565C57.3784 16.391 57.5953 16.2566 57.7606 16.07C57.8928 15.9369 57.9892 15.7731 58.041 15.5935C58.0928 15.4139 58.0983 15.2243 58.057 15.0421C58.0002 14.8102 57.8762 14.5999 57.7001 14.4372C57.5241 14.2744 57.3038 14.1663 57.0665 14.1262H56.9768L57.0119 14.0451C57.2066 13.5383 57.2558 12.9879 57.1539 12.4551C57.052 11.9223 56.8031 11.428 56.4347 11.0269C55.8185 10.3773 54.989 9.96631 54.0949 9.86759C53.3577 9.78525 52.6113 9.86847 51.911 10.1111C51.4369 10.2762 50.9809 10.4885 50.55 10.7448C50.3979 10.8484 50.2404 10.9438 50.0781 11.0308C50.0781 11.0308 50.1093 10.996 50.1834 10.938C50.2575 10.8801 50.3706 10.7951 50.5188 10.6946C50.9406 10.4138 51.395 10.1841 51.872 10.0106C52.5855 9.74388 53.352 9.64595 54.1105 9.7246C55.0517 9.81561 55.9268 10.2444 56.5712 10.9303C56.9593 11.3523 57.2201 11.8736 57.3242 12.4351C57.4283 12.9966 57.3715 13.5758 57.1601 14.1069L57.1055 14.0142C57.3688 14.0594 57.6125 14.1814 57.8056 14.3645C57.9986 14.5475 58.1323 14.7834 58.1896 15.0421C58.2309 15.2407 58.2204 15.4465 58.159 15.6399C58.0976 15.8333 57.9873 16.008 57.8386 16.1473C57.657 16.3338 57.4211 16.4595 57.164 16.5067C57.0978 16.5133 57.0312 16.5133 56.9651 16.5067C56.8988 16.5106 56.8754 16.5067 56.8754 16.5029Z" fill="white"/>
<path d="M65.0659 61.0723H41.5817L39.0234 80.4255L40.5404 123.178H48.6129L54.1544 85.4454L55.882 123.769L66.1267 123.966L68.6615 77.786L65.0659 61.0723Z" fill="#263238"/>
<path d="M63.4626 119.424L63.2286 125.556C63.2286 125.556 69.4409 127.852 69.5072 128.988L57.4921 128.965L57.4492 119.396L63.4626 119.424Z" fill="#263238"/>
<path d="M59.5151 125.032C59.399 125.067 59.3 125.143 59.2367 125.246C59.1735 125.348 59.1504 125.47 59.1719 125.589C59.2032 125.704 59.2781 125.804 59.3811 125.866C59.4842 125.929 59.6075 125.95 59.7257 125.925C59.8483 125.889 59.9528 125.808 60.0185 125.7C60.0842 125.591 60.1063 125.462 60.0805 125.337C60.0365 125.22 59.9479 125.124 59.8337 125.07C59.7194 125.016 59.5883 125.008 59.4683 125.048" fill="#E0E0E0"/>
<path d="M57.4922 128.966L57.5273 128L69.0354 128.386C69.0354 128.386 69.5697 128.618 69.5073 128.989L57.4922 128.966Z" fill="#455A64"/>
<path d="M63.422 125.497C63.422 125.555 63.1256 125.582 62.8371 125.768C62.5485 125.953 62.3925 126.201 62.3418 126.178C62.2911 126.154 62.373 125.818 62.7318 125.598C63.0905 125.378 63.4337 125.443 63.422 125.497Z" fill="white"/>
<path d="M64.6825 126.019C64.6825 126.073 64.4407 126.174 64.2418 126.406C64.0429 126.638 63.9844 126.912 63.9259 126.908C63.8674 126.904 63.8284 126.576 64.0858 126.278C64.3432 125.981 64.6825 125.961 64.6825 126.019Z" fill="white"/>
<path d="M65.395 127.515C65.3404 127.515 65.2585 127.237 65.395 126.916C65.5315 126.595 65.8201 126.471 65.8435 126.529C65.8669 126.587 65.6992 126.746 65.5783 127.009C65.4574 127.271 65.4535 127.507 65.395 127.515Z" fill="white"/>
<path d="M63.3209 124.112C63.2936 124.166 63.0245 124.085 62.693 124.112C62.3615 124.139 62.1041 124.235 62.0729 124.185C62.0417 124.135 62.2913 123.926 62.6813 123.907C63.0713 123.888 63.3482 124.046 63.3209 124.112Z" fill="white"/>
<path d="M46.2917 118.561L46.4555 125.98L48.2883 131.816C48.3178 131.915 48.3268 132.019 48.3147 132.122C48.3026 132.225 48.2698 132.325 48.2181 132.415C48.1665 132.505 48.097 132.584 48.014 132.647C47.9309 132.71 47.8359 132.756 47.7346 132.782C47.6156 132.809 47.4919 132.808 47.3734 132.779C47.2549 132.75 47.1448 132.694 47.0521 132.616C45.8627 131.58 41.5028 127.75 41.5184 127.205C41.5418 126.575 40.8242 119.388 40.8242 119.388L46.2917 118.561Z" fill="#263238"/>
<path d="M47.7357 132.781L41.4961 126.706V127.019C41.5091 127.291 41.6182 127.549 41.8042 127.749C42.3033 128.283 43.719 129.72 47.0142 132.615C47.1095 132.697 47.2235 132.755 47.3465 132.784C47.4694 132.813 47.5977 132.812 47.7201 132.781H47.7357Z" fill="#455A64"/>
<g opacity="0.6">
<path d="M42.9268 124.248C43.021 124.311 43.0884 124.407 43.1165 124.517C43.1445 124.626 43.1311 124.742 43.0789 124.843C43.0196 124.94 42.9249 125.01 42.8145 125.04C42.7042 125.069 42.5865 125.055 42.4861 125.001C42.3856 124.933 42.3138 124.831 42.2843 124.714C42.2548 124.598 42.2698 124.474 42.3262 124.367C42.3997 124.274 42.5068 124.212 42.6253 124.194C42.7437 124.177 42.8643 124.206 42.9619 124.275" fill="white"/>
</g>
<path d="M45.8761 129.617C45.919 129.636 46.0711 129.23 46.5079 129.01C46.7775 128.891 47.0671 128.823 47.3619 128.809C47.3619 128.809 47.2683 128.736 47.0928 128.72C46.8615 128.706 46.6308 128.757 46.4277 128.868C46.2247 128.979 46.0577 129.145 45.9463 129.346C45.8644 129.501 45.8566 129.613 45.8761 129.617Z" fill="white"/>
<path d="M46.454 130.586C46.493 130.617 46.7231 130.366 47.1053 130.238C47.3444 130.182 47.5866 130.14 47.8306 130.111C47.712 130.046 47.5795 130.009 47.4439 130.004C47.3084 130 47.1736 130.027 47.0507 130.084C46.6139 130.231 46.415 130.567 46.454 130.586Z" fill="white"/>
<path d="M44.8281 128.386C45.134 128.161 45.456 127.959 45.7914 127.78C46.1504 127.653 46.5178 127.551 46.8911 127.474C46.4945 127.389 46.0802 127.445 45.7212 127.633C45.3431 127.772 45.0267 128.039 44.8281 128.386Z" fill="white"/>
<path d="M44.5781 126.135C44.5976 126.178 45.0032 125.988 45.5414 125.946C46.0795 125.903 46.5124 126.011 46.5241 125.965C46.2234 125.793 45.8724 125.729 45.5297 125.783C45.1803 125.785 44.8429 125.909 44.5781 126.135Z" fill="white"/>
<path d="M44.4853 123.958C44.8071 123.837 45.1445 123.762 45.4875 123.734C45.8292 123.756 46.1663 123.823 46.4897 123.935C46.4897 123.935 46.4156 123.83 46.2362 123.742C46.0031 123.625 45.7447 123.567 45.4836 123.572C45.2232 123.574 44.9668 123.636 44.7348 123.753C44.5789 123.85 44.4736 123.939 44.4853 123.958Z" fill="white"/>
<path d="M54.3952 73.2021C54.421 73.3735 54.4315 73.5468 54.4264 73.72C54.4264 74.0523 54.4264 74.5315 54.4264 75.1267C54.4264 76.3169 54.3679 77.9593 54.286 79.764C54.2041 81.5687 54.13 83.2188 54.0949 84.4014C54.0949 84.9733 54.0637 85.4486 54.052 85.808C54.0522 85.9798 54.0418 86.1515 54.0208 86.322C53.9948 86.1519 53.9843 85.9799 53.9896 85.808C53.9896 85.4757 53.9896 84.9926 53.9896 84.3975C53.9896 83.2072 54.052 81.5648 54.1339 79.7601C54.2158 77.9554 54.2899 76.3053 54.325 75.1228C54.325 74.547 54.3562 74.0716 54.3679 73.7161C54.3667 73.5444 54.3758 73.3728 54.3952 73.2021Z" fill="#455A64"/>
<path d="M61.4646 124.524C61.4218 124.524 61.3867 116.447 61.3867 106.485C61.3867 96.522 61.4218 88.4414 61.4646 88.4414C61.5074 88.4414 61.5425 96.5181 61.5425 106.485C61.5425 116.451 61.5074 124.524 61.4646 124.524Z" fill="#455A64"/>
<path d="M44.3678 121.565C44.3618 121.536 44.3618 121.506 44.3678 121.476C44.3678 121.411 44.3678 121.329 44.3951 121.221C44.4263 120.989 44.4653 120.661 44.5199 120.247C44.6291 119.386 44.7889 118.164 44.9839 116.657C45.3739 113.624 45.8692 109.431 46.3293 104.79C46.7895 100.148 47.1093 95.9361 47.3316 92.887C47.433 91.3683 47.5188 90.1394 47.5773 89.2737C47.6046 88.8564 47.628 88.5279 47.6475 88.2922C47.6475 88.1878 47.6475 88.1028 47.667 88.0371V87.9482C47.6712 87.9777 47.6712 88.0076 47.667 88.0371C47.667 88.1028 47.667 88.1878 47.667 88.2922C47.667 88.5279 47.6436 88.8603 47.628 89.2776C47.589 90.1317 47.5227 91.3683 47.4291 92.8909C47.2458 95.9438 46.9338 100.16 46.4736 104.805C46.0135 109.45 45.4987 113.639 45.0853 116.669C44.8747 118.184 44.6953 119.409 44.5667 120.255C44.5043 120.67 44.4536 120.995 44.4146 121.229C44.3951 121.329 44.3834 121.414 44.3717 121.48C44.36 121.546 44.3678 121.565 44.3678 121.565Z" fill="#455A64"/>
<path d="M46.6016 36.1057C46.6016 36.1057 50.162 38.2969 52.9347 37.7713C54.7043 37.392 56.3495 36.5788 57.7197 35.4062L62.2434 46.6132L58.6635 68.6599L49.9319 69.5178L47.6974 48.4295L46.6016 36.1057Z" fill="white"/>
<path d="M46.0741 32.3193C45.9532 32.3541 43.1415 32.7947 43.1415 32.7947L38.2122 40.4965L39.5108 52.2367C39.5108 52.2367 38.1147 62.779 37.561 66.8173C36.9175 71.474 36.6367 85.5368 36.6367 85.5368L53.4602 85.8266L54.2402 62.8099C54.2402 62.8099 52.7466 54.7139 51.3115 47.7385C50.2312 42.3708 46.0741 32.3193 46.0741 32.3193Z" fill="#01A5A3"/>
<path d="M55.7572 31.9941C55.9678 32.311 56.6541 44.9092 56.5605 47.8925C56.4709 50.6788 55.7806 56.7808 55.7806 56.7808L55.3906 85.5748L69.4648 85.6096C69.4648 85.6096 68.8018 70.743 67.7996 65.9241C66.7974 61.1051 66.9846 57.9942 66.9846 57.9942L66.3957 41.2534L59.9533 32.3651L55.7572 31.9941Z" fill="#01A5A3"/>
<g opacity="0.3">
<path d="M47.8398 64.356C48.924 65.9598 50.8972 66.7868 52.8354 66.9916C54.8392 67.155 56.855 66.8915 58.7474 66.2187L58.802 66.1994C62.0535 65.1022 64.8486 62.9722 66.7536 60.1399L66.9915 59.7882L67.3113 58.6289L47.8398 64.356Z" fill="black"/>
</g>
<path d="M49.3199 59.2635C49.3979 59.2441 51.8976 57.9882 52.5216 57.9341C53.1456 57.88 57.9812 57.7988 57.9812 57.7988L59.12 62.4671C59.12 62.4671 55.0369 64.2679 54.4091 64.3993C53.7812 64.5307 51.1177 65.3925 50.6809 65.3809C50.2441 65.3693 49.0157 64.9172 49.0235 64.6351C49.0186 64.5593 49.0341 64.4836 49.0683 64.4157C49.1026 64.3478 49.1544 64.2902 49.2185 64.2486C49.7791 64.2856 50.342 64.2688 50.8993 64.1984C51.194 64.1054 51.483 63.9957 51.765 63.8699C51.765 63.8699 47.3271 64.3839 47.0191 64.2795C46.3327 64.0477 46.5004 63.5066 46.5004 63.5066C46.5004 63.5066 45.9934 63.1202 45.9544 62.7994C45.9154 62.4787 46.0987 62.3164 46.3873 62.1966C46.6759 62.0768 48.6141 61.2962 49.1873 61.1609C49.7606 61.0257 51.2698 60.817 51.2698 60.817C51.2698 60.817 46.7071 61.157 46.4263 61.0179C46.1455 60.8788 45.853 60.3842 46.3249 60.1175C46.9027 59.7785 47.5303 59.5308 48.1851 59.3833C48.696 59.3485 49.3199 59.2635 49.3199 59.2635Z" fill="#FFBF9D"/>
<path d="M52.4664 62.126C52.1906 62.2601 51.9018 62.3663 51.6045 62.4429C51.0625 62.6129 50.302 62.8293 49.4558 63.0032C48.6095 63.1771 47.8296 63.3085 47.2641 63.3896C46.9617 63.4422 46.6546 63.4643 46.3477 63.4554C46.6433 63.376 46.9444 63.3179 47.2485 63.2814C47.8062 63.1848 48.5783 63.0457 49.4207 62.8641C50.263 62.6825 51.0234 62.4776 51.5733 62.3463C51.8645 62.2491 52.1632 62.1754 52.4664 62.126Z" fill="#FF9A6C"/>
<path d="M52.1516 58.6631C51.7055 58.8265 51.2425 58.9406 50.7711 59.0031C50.3072 59.1151 49.8327 59.1785 49.3555 59.1925C49.8026 59.0279 50.267 58.9138 50.7399 58.8524C51.202 58.7382 51.6754 58.6747 52.1516 58.6631Z" fill="#FF9A6C"/>
<path d="M58.0082 59.6509C58.0082 59.6509 57.9419 59.6509 57.8249 59.6702C57.6617 59.7029 57.504 59.7589 57.357 59.8364C57.1295 59.9721 56.8698 60.0455 56.6043 60.049C56.3001 60.0219 56.0038 59.8441 55.762 60.049C55.6411 60.1537 55.5105 60.2468 55.372 60.3272C55.2175 60.3847 55.0492 60.3954 54.8884 60.3581C54.5921 60.2924 54.3698 60.1688 54.1631 60.1494C54.0846 60.1376 54.0045 60.1414 53.9275 60.1606C53.8504 60.1799 53.7781 60.2142 53.7146 60.2615C53.6288 60.3349 53.6093 60.4006 53.5976 60.3968C53.5859 60.3929 53.5976 60.3195 53.6756 60.219C53.74 60.1542 53.8184 60.1045 53.9048 60.0738C53.9912 60.043 54.0835 60.0319 54.1748 60.0412C54.425 60.0847 54.6724 60.1428 54.9157 60.2151C55.0456 60.2444 55.1813 60.235 55.3057 60.1881C55.4443 60.1107 55.5749 60.0201 55.6957 59.9176C55.7713 59.8637 55.8578 59.8268 55.9492 59.8094C56.0356 59.7938 56.1241 59.7938 56.2105 59.8094C56.3742 59.8403 56.5107 59.8944 56.6433 59.906C56.8852 59.9061 57.1235 59.8478 57.3375 59.7359C57.4973 59.6635 57.6691 59.6203 57.8444 59.6084C57.9458 59.6123 58.0121 59.6432 58.0082 59.6509Z" fill="#FF9A6C"/>
<path d="M58.0252 60.5996C57.8941 60.7644 57.7095 60.8791 57.5027 60.9242C57.282 60.9922 57.0483 61.0081 56.8202 60.9706C56.7019 60.94 56.5798 60.9257 56.4575 60.9281C56.3983 60.9365 56.3418 60.9583 56.2925 60.9918C56.2431 61.0253 56.2022 61.0696 56.1729 61.1213C56.0803 61.2538 55.9413 61.3475 55.7829 61.3841C55.6455 61.4149 55.503 61.4149 55.3656 61.3841C55.1583 61.3242 54.9453 61.2853 54.73 61.2682C54.5868 61.2632 54.4471 61.313 54.34 61.4073C54.2698 61.4768 54.2503 61.5348 54.2386 61.5309C54.2269 61.5271 54.2386 61.4614 54.2932 61.3686C54.3431 61.3063 54.4057 61.2552 54.4769 61.2186C54.5482 61.1819 54.6264 61.1606 54.7066 61.1561C54.9315 61.1577 55.1554 61.1863 55.3734 61.2411C55.4905 61.2755 55.6154 61.2728 55.7308 61.2333C55.8462 61.1938 55.9462 61.1195 56.0169 61.0208C56.0643 60.9589 56.1193 60.9031 56.1807 60.8547C56.2476 60.8057 56.3276 60.7775 56.4107 60.7735C56.5424 60.7739 56.6734 60.7908 56.8007 60.8238C57.0076 60.8687 57.2218 60.8687 57.4286 60.8238C57.6338 60.7666 57.8334 60.6916 58.0252 60.5996Z" fill="#FF9A6C"/>
<path d="M59.9454 32.3398C59.9454 32.3398 64.9487 33.0277 67.4758 39.2418C69.2229 43.5429 72.3661 52.3616 71.5042 55.6541C70.7243 58.6297 59.5593 63.8584 59.5593 63.8584L57.6445 57.1149L64.5003 52.1181L61.6964 41.8851L59.9454 32.3398Z" fill="#01A5A3"/>
<path d="M69.1486 58.3189C69.0986 58.3688 69.0452 58.4153 68.9887 58.458C68.8795 58.5469 68.7275 58.686 68.5052 58.8445C68.0762 59.1691 67.4171 59.598 66.5787 60.1159C64.8979 61.1438 62.4645 62.4771 59.5943 63.9262L59.5124 63.9687L59.489 63.8799L58.319 59.7101C58.0591 58.7595 57.8056 57.8346 57.5586 56.9354V56.8852L57.6054 56.8543L63.845 52.3986C64.5122 52.2698 65.1894 52.1987 65.8689 52.186C66.3875 52.1715 66.9033 52.2663 67.382 52.4643C67.6762 52.5975 67.9412 52.7866 68.162 53.0207C68.2361 53.1058 68.2868 53.1753 68.3219 53.2178C68.357 53.2603 68.3726 53.2874 68.3687 53.2874C68.3648 53.2874 68.2907 53.2024 68.1386 53.0439C67.9146 52.8223 67.6498 52.6452 67.3587 52.5222C66.8862 52.338 66.3801 52.2537 65.8729 52.2749C65.1991 52.2967 64.5285 52.3756 63.8684 52.5106H63.8918L57.6522 56.9973L57.6795 56.9161C57.9291 57.8127 58.1826 58.7401 58.4594 59.6869C58.8494 61.1477 59.2394 62.5544 59.6021 63.8605L59.4968 63.8103C62.367 62.3727 64.8082 61.0549 66.5163 60.054C67.3587 59.5478 68.0216 59.1343 68.4662 58.8213C68.6924 58.6744 68.8562 58.543 68.9653 58.4619C69.0204 58.407 69.0819 58.359 69.1486 58.3189Z" fill="#263238"/>
<path d="M63.8905 52.4432C64.7485 48.4976 63.6136 44.2235 61.4883 40.7803L63.8905 52.4432Z" fill="#01A5A3"/>
<path d="M61.4883 40.7803C61.5916 40.9001 61.683 41.0295 61.7613 41.1667C61.929 41.4256 62.1512 41.8159 62.4047 42.3261C62.6972 42.9041 62.9576 43.4975 63.1847 44.1037C63.4635 44.848 63.6928 45.6097 63.871 46.3837C64.0383 47.1609 64.1517 47.9485 64.2103 48.7411C64.2481 49.3849 64.2403 50.0305 64.1869 50.6733C64.1869 50.9477 64.1284 51.195 64.1011 51.4153C64.077 51.6011 64.0431 51.7855 63.9997 51.9679C63.9742 52.1267 63.935 52.2832 63.8827 52.4355C63.8883 52.2757 63.9079 52.1166 63.9412 51.9602C63.9646 51.8056 63.9919 51.6201 64.0114 51.4037C64.0309 51.1873 64.066 50.9399 64.0738 50.6656C64.1185 50.0222 64.1185 49.3766 64.0738 48.7333C64.0102 47.9537 63.8942 47.1791 63.7267 46.4147C63.5518 45.6469 63.3291 44.8906 63.0599 44.1501C62.8064 43.4661 62.549 42.8632 62.3072 42.3686C62.0654 41.8739 61.8627 41.4759 61.7106 41.2092C61.6261 41.0718 61.5518 40.9284 61.4883 40.7803Z" fill="#263238"/>
<path d="M62.4816 42.6024C62.4306 42.0773 62.4742 41.5473 62.6103 41.0373C62.6968 40.5191 62.834 40.0105 63.0197 39.5186C62.9875 40.0412 62.9013 40.5592 62.7624 41.0643C62.583 41.9107 62.5167 42.6024 62.4816 42.6024Z" fill="#263238"/>
<path d="M48.2269 59.5001C48.1293 59.5012 48.0321 59.4882 47.9383 59.4614C47.7512 59.4305 47.486 59.3687 47.1584 59.2875C46.3113 59.0674 45.4801 58.7911 44.6704 58.4605C43.8647 58.1274 43.0829 57.74 42.3305 57.3012C42.038 57.1311 41.808 56.9882 41.6559 56.8838C41.5694 56.8365 41.4905 56.7765 41.4219 56.7061C41.4219 56.7061 41.8118 56.8915 42.3851 57.2046C42.9584 57.5176 43.8007 57.9234 44.725 58.3098C45.6492 58.6962 46.5461 58.9822 47.1857 59.1754C47.5386 59.2645 47.8862 59.3728 48.2269 59.5001Z" fill="#263238"/>
<path d="M43.1414 32.791C43.1414 32.791 37.3698 34.0972 34.9519 38.6573C33.1229 42.1353 29.1764 52.6234 29.1023 54.7179C29.0282 56.8125 34.4723 64.4486 34.4723 64.4486L40.6533 60.5842L37.1007 54.0494L40.7235 45.7292L43.1414 32.791Z" fill="#01A5A3"/>
<path d="M40.1566 128.775C40.0576 128.775 39.9595 128.756 39.868 128.719C39.7764 128.682 39.6933 128.627 39.6233 128.558C39.5533 128.488 39.4978 128.406 39.4602 128.315C39.4226 128.224 39.4034 128.127 39.404 128.029C39.404 127.426 39.4976 67.8246 39.4742 66.8624C39.483 66.2877 39.3643 65.718 39.1264 65.1938C38.8885 64.6696 38.5373 64.2036 38.0976 63.8288C37.9374 63.7121 37.83 63.5376 37.7986 63.3431C37.7672 63.1486 37.8144 62.9496 37.9299 62.7892C38.0444 62.6292 38.2183 62.5207 38.4134 62.4873C38.6086 62.454 38.8091 62.4987 38.9711 62.6115C39.6001 63.1221 40.1066 63.765 40.454 64.4935C40.8013 65.222 40.9808 66.018 40.9795 66.8237C41.0068 67.8053 40.9132 125.564 40.9093 128.033C40.9093 128.131 40.8898 128.227 40.8519 128.318C40.814 128.408 40.7585 128.49 40.6886 128.559C40.6186 128.628 40.5356 128.682 40.4444 128.719C40.3531 128.757 40.2553 128.775 40.1566 128.775Z" fill="#FFBF9D"/>
<path d="M35.8866 71.2957C35.6866 71.2946 35.4952 71.2152 35.3541 71.0747C35.2131 70.9342 35.1339 70.7441 35.1339 70.546C35.1339 68.3316 35.1339 64.9657 35.1339 64.7686C35.1232 64.5751 35.1902 64.3852 35.3203 64.2404C35.4503 64.0956 35.6328 64.0077 35.8281 63.9957C36.028 63.988 36.2232 64.0567 36.3735 64.1876C36.5237 64.3185 36.6175 64.5016 36.6353 64.699C36.6353 64.7338 36.6353 64.8382 36.6353 70.5614C36.6313 70.7562 36.5508 70.9418 36.4111 71.0789C36.2713 71.216 36.0832 71.2937 35.8866 71.2957Z" fill="#FFBF9D"/>
<path d="M37.0481 60.6913L35.6091 61.955C35.3283 62.1946 34.9968 63.8872 34.8564 64.6601C34.8337 64.7838 34.8416 64.911 34.8797 65.0309C34.9178 65.1507 34.9847 65.2596 35.0748 65.348C35.5662 65.8388 36.5645 66.7663 37.0676 66.8165C37.5108 66.8397 37.9474 66.7023 38.296 66.4301C38.296 66.4301 38.9824 66.8165 39.3918 66.4764C39.8013 66.1364 38.8225 63.9452 38.8225 63.9452C38.8225 63.9452 38.4325 62.9134 39.4698 62.983L39.9378 63.7559L40.8581 65.6494C40.8581 65.6494 41.7395 65.5606 41.8526 65.2205C41.9657 64.8804 41.5562 63.7559 41.5562 63.7559C41.6839 63.5608 41.7684 63.3411 41.804 63.1112C41.8397 62.8814 41.8256 62.6467 41.7629 62.4226C41.5094 61.7657 41.0999 60.5677 39.891 60.2972C38.6821 60.0267 37.0481 60.6913 37.0481 60.6913Z" fill="#FFBF9D"/>
<path d="M38.2089 66.177C38.2089 66.177 38.0022 65.9528 37.6668 65.605C37.2255 65.1526 36.7366 64.7484 36.2083 64.3993C36.0514 64.2906 35.9187 64.1512 35.8183 63.9897C35.7293 63.8254 35.6964 63.6369 35.7247 63.4525C35.7847 63.1657 35.9191 62.8993 36.1147 62.6796C36.2707 62.4903 36.4033 62.3434 36.4852 62.2391C36.5671 62.1348 36.6139 62.0691 36.6256 62.0768C36.5274 62.3232 36.3847 62.5498 36.2044 62.7453C36.0304 62.9591 35.9137 63.213 35.8651 63.4834C35.8432 63.6352 35.872 63.7899 35.947 63.924C36.0408 64.0667 36.1628 64.1889 36.3058 64.2834C36.8441 64.637 37.3321 65.0607 37.7565 65.5432C37.9386 65.7307 38.0912 65.9443 38.2089 66.177Z" fill="#FF9A6C"/>
<path d="M40.2318 62.619C40.263 62.65 40.0875 62.8741 40.0095 63.1987C39.9315 63.5233 39.9822 63.8054 39.9354 63.817C39.8715 63.7219 39.8311 63.6132 39.8176 63.4997C39.804 63.3863 39.8177 63.2712 39.8574 63.1639C39.9471 62.7891 40.2084 62.5843 40.2318 62.619Z" fill="#FF9A6C"/>
<path d="M41.6984 129.32H38.875L39.4015 127.094H41.0706L41.6984 129.32Z" fill="#455A64"/>
<path d="M37.2925 54.2525C37.2691 54.2525 37.0702 53.9742 36.6529 53.5994C36.406 53.3821 36.1382 53.1893 35.8535 53.0236C35.5019 52.8286 35.1307 52.6705 34.7459 52.5521C34.3645 52.4432 33.9722 52.3758 33.576 52.3512C33.2463 52.3364 32.9158 52.3533 32.5894 52.4014C32.0317 52.4903 31.7041 52.6294 31.6924 52.6024C31.6807 52.5753 31.7704 52.5521 31.9186 52.4903C32.0064 52.4488 32.0978 52.4152 32.1916 52.3898C32.3195 52.3498 32.4497 52.3176 32.5816 52.2932C32.9138 52.2262 33.2527 52.1977 33.5916 52.2082C34.0073 52.2247 34.4196 52.2895 34.82 52.4014C35.2182 52.5223 35.6004 52.6896 35.9587 52.8999C36.2476 53.0775 36.5157 53.2861 36.7582 53.5221C36.8529 53.6101 36.9415 53.7044 37.0234 53.8042C37.0871 53.8774 37.1458 53.9549 37.1989 54.0361C37.2574 54.1675 37.3042 54.2448 37.2925 54.2525Z" fill="#263238"/>
<path d="M37.293 53.6189C37.3302 53.4932 37.3771 53.3704 37.4334 53.2518L37.8662 52.2548L39.391 48.8425V48.8618C39.4651 48.2899 39.5314 47.6754 39.586 47.0378C39.7539 45.3879 39.7917 43.7276 39.6991 42.0719C39.6991 41.755 39.6406 41.4729 39.6172 41.2218L39.508 40.5841L39.4105 40.1977C39.3975 40.151 39.3896 40.1031 39.3871 40.0547C39.3871 40.0547 39.4105 40.0972 39.4417 40.1861L39.5665 40.5725C39.6094 40.7464 39.6523 40.959 39.703 41.2102C39.7537 41.4614 39.7888 41.7512 39.8122 42.0681C39.9353 43.7299 39.9132 45.3991 39.7459 47.0571C39.6874 47.6947 39.6211 48.313 39.5392 48.885V48.9082L37.9481 52.2934C37.757 52.6799 37.5971 53.0238 37.4763 53.275C37.4258 53.3949 37.3645 53.51 37.293 53.6189Z" fill="#263238"/>
<path d="M59.4531 33.1884C59.4531 33.1884 60.623 31.975 61.4264 31.9286C62.2297 31.8822 65.0258 32.7285 65.876 32.9952C67.0459 33.3623 66.8977 34.2434 66.0905 34.2241C65.3467 34.1845 64.6073 34.0862 63.8793 33.9304C63.6387 34.2296 63.3264 34.4644 62.9709 34.6136C62.6154 34.7627 62.2279 34.8214 61.8437 34.7844C60.5684 34.6183 59.4531 33.1884 59.4531 33.1884Z" fill="#FFBF9D"/>
<path d="M61.4258 31.9285C62.1087 31.734 62.8028 31.5804 63.5043 31.4686C64.5105 31.3256 65.15 31.3952 65.3801 31.7623C65.6102 32.1294 66.1601 34.023 65.9105 34.3631C65.6609 34.7032 62.9896 36.1678 62.6035 36.1755C62.2174 36.1832 61.9444 35.9823 62.1667 35.5186C62.389 35.0548 63.8787 33.9303 63.8787 33.9303L63.7266 32.7709L61.4258 31.9285Z" fill="#FFBF9D"/>
<path d="M65.4788 32.0107C65.4788 32.0107 66.5356 35.1912 66.5473 35.4462C66.559 35.7013 65.7673 36.2191 65.1824 36.4626C64.5974 36.7061 62.7957 37.0693 62.6319 36.764C62.5365 36.5836 62.4985 36.3789 62.5228 36.1766L65.3072 34.8086L65.4788 32.0107Z" fill="#FFBF9D"/>
<path d="M66.3631 35.4863C66.3631 35.4863 66.1915 36.8775 66.1876 37.0901C66.1837 37.3026 65.7976 37.8977 65.4077 37.7007C65.0177 37.5036 65.0801 37.4997 65.084 37.1094C65.0979 36.788 65.133 36.4678 65.1893 36.151L66.2422 35.6061" fill="#FFBF9D"/>
<path d="M61.6367 34.7589C61.8514 34.8464 62.0866 34.8718 62.3153 34.8323C62.6002 34.8019 62.8755 34.7126 63.1234 34.5701C63.3712 34.4277 63.5862 34.2353 63.7543 34.0053L63.6646 34.0401L63.8791 34.0942C64.4599 34.269 65.0622 34.3639 65.6691 34.3763C65.9228 34.3869 66.1757 34.342 66.41 34.2449C66.41 34.2178 66.1214 34.2758 65.6691 34.2449C65.0767 34.1964 64.4911 34.0863 63.922 33.9164L63.7075 33.8623H63.649L63.6178 33.9125C63.3001 34.3409 62.828 34.6316 62.2997 34.7241C61.898 34.7898 61.6406 34.7279 61.6367 34.7589Z" fill="#EB996E"/>
<path d="M62.0977 31.9648C62.7549 32.234 63.433 32.4499 64.1255 32.6102C64.8046 32.8255 65.4996 32.9883 66.2041 33.0971C64.8685 32.6102 63.4951 32.2315 62.0977 31.9648Z" fill="#EB996E"/>
<path d="M65.7562 34.3262C65.7289 34.3262 65.6665 34.5349 65.4443 34.7976C65.1367 35.135 64.7624 35.406 64.3445 35.5937C63.7441 35.8551 63.1182 36.0545 62.4766 36.1888C63.1549 36.2213 63.8293 36.0689 64.4264 35.7483C64.8658 35.5519 65.2491 35.2505 65.5418 34.8711C65.6727 34.7183 65.7482 34.5265 65.7562 34.3262Z" fill="#EB996E"/>
<path d="M65.0124 36.597C65.3323 36.54 65.6344 36.4102 65.8949 36.2177C66.1555 36.0252 66.3673 35.7754 66.5138 35.4879C66.4748 35.4609 66.2057 35.7816 65.7924 36.0831C65.379 36.3845 64.9929 36.5507 65.0124 36.597Z" fill="#EB996E"/>
</svg>
