<svg width="47" height="133" viewBox="0 0 47 133" fill="none" xmlns="http://www.w3.org/2000/svg">
<path d="M33.7165 25.3346C33.9895 24.6352 31.56 10.3096 30.702 7.048C29.8441 3.7864 29.5321 1.84258 28.5845 1.232C27.6368 0.621411 24.2752 -0.259685 21.6351 0.0726579C18.995 0.405001 16 1.64936 14.8847 3.62023C13.7693 5.59111 12.9348 10.6961 12.6579 12.7481C12.4161 14.4523 10.4546 20.8866 9.7721 21.5127C9.08965 22.1387 9.31193 25.0989 9.31193 25.0989L29.9494 27.3364L33.7165 25.3346Z" fill="#455A64"/>
<g opacity="0.3">
<path d="M27.4027 20.2422C27.6069 19.7243 27.8685 19.2305 28.1826 18.7698C29.337 16.7499 30.3393 14.6484 31.1816 12.4823L31.5715 12.293C31.2322 13.6533 31.6534 15.0561 31.6534 16.4589C31.6534 17.8617 31.4935 19.3379 30.6707 20.4779C30.1058 21.2051 29.3692 21.7837 28.5258 22.1628C28.3621 22.2625 28.1718 22.311 27.9799 22.3019C27.8682 22.2702 27.7651 22.2142 27.678 22.138C27.591 22.0618 27.5223 21.9673 27.4768 21.8614C27.3567 21.6098 27.2883 21.3371 27.2756 21.0591C27.2629 20.7812 27.3061 20.5034 27.4027 20.2422Z" fill="black"/>
</g>
<g opacity="0.3">
<path d="M19.2266 23.1029C17.8773 21.2596 17.3041 18.6974 16.9258 16.1855C17.5224 16.3401 18.045 16.6377 18.6378 16.7884C18.7209 16.8007 18.7969 16.8418 18.8523 16.9043C18.8818 16.9615 18.894 17.0259 18.8874 17.0898C18.8874 19.1457 19.2305 21.4258 19.2266 23.1029Z" fill="black"/>
</g>
<path d="M14.996 10.131C14.6587 9.71013 14.4821 9.18491 14.4971 8.64772C14.512 8.11053 14.7177 7.59577 15.0779 7.19401C14.6333 6.6839 14.7503 5.86849 15.1598 5.33133C15.6093 4.82609 16.1696 4.42952 16.7976 4.172C16.9662 3.40145 17.4254 2.72384 18.0815 2.27774C18.7375 1.83165 19.5408 1.6508 20.3269 1.77217C21.0835 0.566462 22.7916 0.311408 24.1838 0.655345C24.5168 0.762155 24.8634 0.821994 25.2133 0.833107C25.468 0.803031 25.7206 0.757868 25.9698 0.697854C27.3582 0.454393 28.7855 1.37027 29.386 2.63008C29.4652 2.83938 29.5728 3.037 29.7058 3.21748C29.9208 3.4202 30.1605 3.59547 30.4195 3.73918C30.6806 3.92423 30.8984 4.16297 31.0579 4.43909C31.2174 4.7152 31.3149 5.02219 31.3437 5.33907C31.3866 5.87622 31.2384 6.45203 31.488 6.93122C31.6128 7.17082 31.8273 7.36018 31.9287 7.61137C32.2172 8.34175 31.4217 9.1301 31.605 9.8914C31.644 10.046 31.722 10.189 31.7727 10.3397C31.8738 10.654 31.8586 10.9938 31.7298 11.2981C31.5928 11.5113 31.4988 11.7489 31.4529 11.9975C31.4738 12.1868 31.5197 12.3726 31.5894 12.5501C31.7025 13.0062 30.7782 14.8108 30.3883 15.0775L18.4589 15.6726C18.0038 15.5893 17.5859 15.3679 17.2632 15.0391C16.9404 14.7102 16.7287 14.2902 16.6573 13.837C16.6534 13.6853 16.609 13.5372 16.5286 13.4081C16.4304 13.3219 16.3166 13.255 16.1932 13.211C15.4132 12.8245 15.2689 11.7927 15.3157 10.9309C15.3315 10.8095 15.3236 10.6862 15.2923 10.5677C15.2235 10.4042 15.1228 10.2558 14.996 10.131Z" fill="#263238"/>
<path d="M18.4169 10.0142C18.3827 8.87654 18.6578 7.75069 19.2136 6.75464C19.7693 5.75858 20.5852 4.92898 21.5757 4.35278C22.5139 3.87041 23.5404 3.57997 24.5941 3.49873C25.5668 3.36615 26.5572 3.53062 27.4331 3.97019C28.1 4.09385 30.5997 6.18453 30.822 8.55344C31.0716 11.1851 31.2705 14.4042 31.017 16.3828C30.5061 20.3555 27.476 20.9506 27.476 20.9506L28.0337 27.5009L19.5088 27.3888L18.4169 10.0142Z" fill="#FFBF9D"/>
<path d="M25.0742 16.1086C25.0869 15.9201 25.1687 15.7428 25.3043 15.6101C25.4252 15.4821 25.5863 15.3986 25.7613 15.3733C25.9364 15.348 26.1149 15.3825 26.2675 15.4709C26.4084 15.5708 26.517 15.709 26.58 15.8689C26.643 16.0288 26.6578 16.2033 26.6224 16.3714C26.4781 16.611 26.3728 16.8428 26.0999 16.8892H25.9673C25.7489 16.9046 25.5324 16.84 25.3589 16.7076C25.2696 16.6349 25.1978 16.5434 25.1486 16.4398C25.0993 16.3362 25.0739 16.2231 25.0742 16.1086Z" fill="#EB996E"/>
<path d="M29.229 12.0926C29.2334 12.2247 29.1858 12.3534 29.0963 12.4514C29.0069 12.5494 28.8825 12.6092 28.7494 12.6182C28.6839 12.6251 28.6177 12.6189 28.5546 12.5999C28.4916 12.581 28.4331 12.5497 28.3825 12.5078C28.3319 12.466 28.2904 12.4146 28.2603 12.3565C28.2302 12.2985 28.2122 12.235 28.2073 12.1699C28.203 12.0378 28.2505 11.9092 28.34 11.8111C28.4295 11.7131 28.5539 11.6533 28.687 11.6443C28.7525 11.6374 28.8187 11.6436 28.8817 11.6626C28.9447 11.6815 29.0033 11.7129 29.0538 11.7547C29.1044 11.7965 29.146 11.848 29.1761 11.906C29.2062 11.9641 29.2242 12.0275 29.229 12.0926Z" fill="#263238"/>
<path d="M29.9496 10.094C29.8911 10.1597 29.4934 9.88914 28.9435 9.90459C28.3936 9.92005 27.9959 10.2099 27.9335 10.1442C27.8711 10.0785 27.9647 9.99348 28.1362 9.86208C28.3713 9.69206 28.6526 9.59642 28.9435 9.58771C29.2294 9.57788 29.511 9.65914 29.7468 9.81958C29.9223 9.94324 29.9808 10.063 29.9496 10.094Z" fill="#263238"/>
<path d="M26.8644 14.4861C27.1516 14.3867 27.4504 14.3244 27.7536 14.3006C27.894 14.2812 28.0266 14.2503 28.0461 14.1537C28.0552 14.0096 28.0184 13.8663 27.9408 13.7441C27.7965 13.4117 27.6483 13.0601 27.4923 12.6929C26.8683 11.2013 26.4121 9.98782 26.4745 9.94531C26.9577 10.7992 27.3723 11.6895 27.7146 12.6079L28.1435 13.6629C28.2381 13.8281 28.2699 14.0214 28.2332 14.2078C28.214 14.2567 28.1841 14.3007 28.1457 14.3368C28.1073 14.3729 28.0613 14.4001 28.011 14.4165C27.9336 14.4399 27.8538 14.4541 27.7731 14.459C27.4726 14.5064 27.1672 14.5155 26.8644 14.4861Z" fill="#263238"/>
<path d="M27.4754 20.9455C25.5918 21.033 23.7208 20.6009 22.0703 19.6973C22.0703 19.6973 23.5795 22.441 27.5612 21.9502L27.4754 20.9455Z" fill="#EB996E"/>
<path d="M29.9607 8.40568C29.871 8.54094 29.4499 8.46365 28.9585 8.52161C28.4671 8.57958 28.0616 8.7187 27.9485 8.5989C27.8978 8.5448 27.9485 8.41341 28.1162 8.27043C28.3419 8.09852 28.6125 7.99396 28.8961 7.969C29.1828 7.93547 29.4731 7.98655 29.7306 8.11585C29.9256 8.22019 29.9997 8.33998 29.9607 8.40568Z" fill="#263238"/>
<path d="M23.2734 12.167C23.2795 12.2995 23.3383 12.4244 23.4369 12.5142C23.5356 12.6039 23.6661 12.6514 23.7999 12.6461C23.9296 12.6472 24.0544 12.5974 24.1471 12.5076C24.2399 12.4179 24.2931 12.2954 24.2952 12.167C24.2881 12.0347 24.229 11.9105 24.1306 11.8209C24.0322 11.7313 23.9023 11.6835 23.7687 11.6878C23.7044 11.6867 23.6405 11.6983 23.5807 11.7219C23.5209 11.7455 23.4664 11.7806 23.4203 11.8251C23.3743 11.8697 23.3376 11.9228 23.3124 11.9815C23.2872 12.0402 23.2739 12.1032 23.2734 12.167Z" fill="#263238"/>
<path d="M22.5496 10.7801C22.6159 10.8419 22.9864 10.5328 23.5363 10.498C24.0861 10.4632 24.5073 10.7067 24.5619 10.6371C24.6165 10.5675 24.5151 10.4903 24.3318 10.3743C24.0822 10.2287 23.794 10.1614 23.5051 10.1811C23.2187 10.2001 22.9457 10.3083 22.7251 10.4903C22.5652 10.6217 22.5145 10.753 22.5496 10.7801Z" fill="#263238"/>
<path d="M22.3335 8.40061C22.4505 8.51654 22.8638 8.3581 23.3747 8.31946C23.8856 8.28081 24.3223 8.33878 24.412 8.19966C24.451 8.13396 24.3769 8.01803 24.178 7.91369C23.9108 7.78431 23.6117 7.73336 23.3162 7.76684C23.0211 7.79127 22.7388 7.89701 22.5012 8.07213C22.3296 8.21125 22.2789 8.34264 22.3335 8.40061Z" fill="#263238"/>
<path d="M19.1763 13.7413C19.1763 13.4437 18.7863 12.7597 18.5056 12.7249C17.7256 12.6283 16.3061 12.7249 16.3568 14.7035C16.4192 17.4086 19.1373 16.7826 19.1412 16.7053C19.1451 16.628 19.2075 14.7576 19.1763 13.7413Z" fill="#FFBF9D"/>
<path d="M18.368 15.7349C18.368 15.7349 18.3212 15.7696 18.2393 15.8083C18.1256 15.8549 17.998 15.8549 17.8844 15.8083C17.7112 15.7011 17.5693 15.551 17.4729 15.3727C17.3764 15.1944 17.3287 14.9942 17.3345 14.7919C17.3214 14.5619 17.3614 14.3319 17.4515 14.1195C17.4719 14.0314 17.5143 13.9497 17.575 13.8822C17.6357 13.8146 17.7126 13.7633 17.7986 13.7331C17.8526 13.7175 17.9104 13.7213 17.9618 13.744C18.0132 13.7666 18.0549 13.8066 18.0794 13.8567C18.1184 13.9302 18.1028 13.9843 18.1184 13.9881C18.134 13.992 18.1769 13.9418 18.1496 13.8297C18.1337 13.7634 18.0951 13.7047 18.0404 13.6635C17.9624 13.612 17.8682 13.59 17.7752 13.6017C17.6642 13.6261 17.5615 13.6784 17.4768 13.7535C17.3921 13.8286 17.3284 13.9241 17.2916 14.0306C17.1786 14.2722 17.1276 14.5377 17.1434 14.8035C17.1746 15.3446 17.4671 15.8469 17.8649 15.9629C17.9386 15.9825 18.0157 15.9854 18.0907 15.9713C18.1656 15.9573 18.2364 15.9266 18.2978 15.8817C18.3641 15.8006 18.3758 15.7387 18.368 15.7349Z" fill="#EB996E"/>
<path d="M31.4309 8.56781C31.1572 8.44146 30.9257 8.23997 30.764 7.98723C30.6022 7.73449 30.517 7.4411 30.5184 7.14183C30.1557 7.25776 29.7697 6.80562 29.5474 6.50033C29.3251 6.19503 29.0599 6.04432 29.0638 5.6656C29.0732 5.592 29.0624 5.51725 29.0326 5.44919C28.9741 5.34485 28.8415 5.3178 28.7284 5.28689C28.434 5.20451 28.1651 5.05027 27.9464 4.83828C27.7277 4.62629 27.5662 4.36332 27.4766 4.07345C26.8985 4.34728 26.2601 4.47222 25.6203 4.43671C25.485 4.64426 25.2987 4.8144 25.079 4.9312C24.8592 5.04801 24.6131 5.10765 24.3638 5.10456C24.1144 5.10147 23.87 5.03575 23.6532 4.91354C23.4365 4.79133 23.2546 4.61663 23.1245 4.40579C23.0382 4.57392 22.9161 4.72146 22.7666 4.83823C22.6172 4.955 22.4439 5.0382 22.2587 5.08207C21.8907 5.16529 21.5125 5.19652 21.1356 5.17482C21.2179 5.5389 21.1645 5.92019 20.9854 6.24832C20.8062 6.57646 20.5133 6.82931 20.1607 6.9602C20.0671 6.99111 19.954 7.02589 19.915 7.11477C19.9023 7.16579 19.9003 7.21884 19.909 7.27066C19.9177 7.32249 19.937 7.37202 19.9657 7.41621C20.0218 7.57004 20.046 7.73351 20.037 7.89683C20.0279 8.06016 19.9857 8.22 19.9129 8.36681C19.8401 8.51362 19.7382 8.64439 19.6133 8.75129C19.4883 8.8582 19.3429 8.93906 19.1857 8.98904C19.2924 9.07664 19.3777 9.18707 19.4351 9.31202C19.4925 9.43698 19.5206 9.57321 19.5172 9.71046C19.5138 9.84772 19.4791 9.98243 19.4156 10.1045C19.3521 10.2265 19.2615 10.3327 19.1507 10.415C19.0532 10.4769 18.9245 10.5541 18.944 10.6662C18.9553 10.708 18.9767 10.7465 19.0064 10.7783C19.2398 11.0215 19.3982 11.3259 19.4626 11.6555C19.4892 11.8205 19.4505 11.9894 19.3546 12.1269C19.2587 12.2643 19.113 12.3599 18.9479 12.3936C19.0454 12.4602 19.128 12.5461 19.1904 12.6458C19.2529 12.7456 19.2937 12.8571 19.3105 12.9733C19.3105 13.209 19.0922 13.4525 18.8699 13.3597C18.3575 13.2748 17.8499 13.1638 17.349 13.0274C16.5456 12.0149 17.4777 10.8401 17.5128 9.54938C17.5747 8.25781 17.9392 6.99827 18.5774 5.87042C18.824 5.38827 19.1348 4.94114 19.5016 4.54105C19.9442 4.10873 20.4348 3.72757 20.964 3.4049C21.6157 2.92632 22.3414 2.55567 23.1128 2.30739C24.5713 1.92095 26.1117 2.40014 27.5039 2.98367C28.04 3.18959 28.5462 3.46508 29.0092 3.80294C29.5314 4.24711 29.9697 4.77965 30.3039 5.37577C30.846 6.20291 31.211 7.13151 31.3763 8.10408" fill="#263238"/>
<path d="M31.9333 7.60537C31.8962 7.50398 31.8435 7.40884 31.7773 7.32326C31.7149 7.23438 31.6291 7.1339 31.5511 7.00251C31.4576 6.84948 31.399 6.678 31.3795 6.50013C31.3597 6.279 31.3597 6.05657 31.3795 5.83544C31.3998 5.56792 31.3841 5.29891 31.3327 5.0355C31.2608 4.73289 31.1282 4.44771 30.9428 4.19692C30.8427 4.05511 30.7262 3.92541 30.5957 3.81047C30.4577 3.6978 30.3103 3.59696 30.155 3.50904C29.9967 3.41771 29.8534 3.30304 29.7299 3.16897C29.6161 3.01471 29.5243 2.84567 29.457 2.66659C29.2859 2.28887 29.0497 1.94363 28.7589 1.64637C28.4514 1.3234 28.0848 1.06114 27.6787 0.873482C27.466 0.776379 27.2439 0.701268 27.0157 0.649342C26.7816 0.607914 26.5432 0.59494 26.306 0.610701C26.1851 0.610701 26.0642 0.637753 25.9394 0.653211L25.5806 0.730499C25.3431 0.788454 25.096 0.796353 24.8553 0.753684C24.6096 0.71504 24.3678 0.633887 24.1143 0.579785C23.8575 0.524092 23.5967 0.487919 23.3344 0.471581C23.0748 0.449577 22.8139 0.449577 22.5544 0.471581C22.2894 0.502645 22.0281 0.559596 21.7745 0.641612C21.2397 0.808905 20.7708 1.13714 20.4329 1.58068L20.3393 1.71594H20.3822C19.5851 1.59127 18.7701 1.77365 18.1044 2.22566C17.4386 2.67767 16.9727 3.36503 16.8023 4.14668V4.11962C16.48 4.27763 16.1675 4.45442 15.8663 4.64906C15.5726 4.84001 15.3162 5.08224 15.1098 5.36398C14.917 5.64308 14.805 5.9692 14.7861 6.30691C14.7614 6.63389 14.8648 6.95774 15.0747 7.21119V7.16482C14.7219 7.55217 14.5176 8.05005 14.4975 8.57148C14.4653 9.03752 14.5797 9.502 14.8251 9.90086C14.8798 9.99236 14.9425 10.079 15.0123 10.1598C15.0819 10.2345 15.147 10.3132 15.2073 10.3955C15.2656 10.4721 15.302 10.5629 15.3126 10.6583C15.3204 10.7509 15.3204 10.8439 15.3126 10.9365C15.2942 11.2791 15.3151 11.6227 15.375 11.9606C15.42 12.2349 15.5194 12.4976 15.6675 12.7335C15.7787 12.9061 15.928 13.0515 16.1042 13.1586C16.2485 13.2436 16.3733 13.2784 16.4435 13.3248C16.4802 13.3483 16.5154 13.3741 16.5488 13.4021C16.5228 13.3672 16.4895 13.3382 16.4513 13.317C16.3811 13.2629 16.2563 13.2282 16.1159 13.1393C15.944 13.0337 15.7997 12.8894 15.6948 12.718C15.5496 12.4818 15.4541 12.2189 15.414 11.9452C15.3551 11.611 15.3367 11.2711 15.3594 10.9327C15.3672 10.8362 15.3672 10.7393 15.3594 10.6428C15.3451 10.5411 15.3063 10.4444 15.2463 10.3607C15.1856 10.2775 15.1205 10.1975 15.0513 10.1211C14.9845 10.0402 14.9233 9.95504 14.868 9.86608C14.632 9.47526 14.523 9.02191 14.556 8.56762C14.5788 8.0616 14.7788 7.57926 15.1215 7.20346L15.1449 7.18028L15.1215 7.15709C14.9263 6.91621 14.8302 6.61116 14.8524 6.30305C14.871 5.97901 14.9789 5.66623 15.1644 5.39876C15.3679 5.12528 15.6188 4.88975 15.9053 4.70316C16.2035 4.51027 16.5134 4.33602 16.8335 4.18146C17.0018 3.4214 17.456 2.75342 18.1036 2.31337C18.7513 1.87332 19.5437 1.69424 20.3199 1.81255H20.3471V1.78936L20.4407 1.65797C20.7686 1.22706 21.2239 0.908244 21.7433 0.745954C21.9971 0.664393 22.2583 0.607446 22.5232 0.575917C22.7823 0.550369 23.043 0.543915 23.3032 0.556599C23.5656 0.571847 23.8265 0.608032 24.0831 0.664804C24.3327 0.718906 24.5784 0.796194 24.828 0.838703C24.9568 0.859573 25.0874 0.868625 25.2179 0.865751C25.3492 0.858608 25.4797 0.84051 25.6079 0.811649L25.9667 0.734361C26.0876 0.734361 26.2046 0.699584 26.3216 0.69572C26.5556 0.684409 26.7902 0.702588 27.0196 0.749822C27.2432 0.796787 27.4604 0.869413 27.667 0.966231C28.0668 1.14671 28.4281 1.40117 28.7316 1.71594C29.0167 2.00801 29.2489 2.34659 29.418 2.71683C29.4902 2.89833 29.5859 3.06979 29.7026 3.22693C29.828 3.36843 29.9771 3.4874 30.1433 3.5786C30.2961 3.66699 30.4421 3.76645 30.5801 3.87617C30.706 3.9834 30.8198 4.1039 30.9194 4.23556C31.1057 4.47719 31.2386 4.75502 31.3093 5.05096C31.3618 5.30508 31.3802 5.56496 31.3639 5.82385C31.344 6.04884 31.344 6.27514 31.3639 6.50013C31.3876 6.67939 31.4487 6.85179 31.5433 7.00637C31.6291 7.13777 31.7149 7.23824 31.7773 7.32326C31.8263 7.38701 31.8706 7.45417 31.9099 7.52422C31.9216 7.58218 31.9294 7.60923 31.9333 7.60537Z" fill="#455A64"/>
<path d="M21.5916 1.1301C21.5916 1.1301 21.6618 1.08759 21.7905 1.01803C21.9741 0.920518 22.1733 0.85515 22.3794 0.824811C22.682 0.778755 22.9916 0.813435 23.2763 0.925285C23.6243 1.06524 23.918 1.31166 24.1147 1.62862C24.1758 1.72306 24.2255 1.82421 24.2629 1.93005C24.2834 1.97499 24.294 2.02373 24.294 2.07303C24.294 2.12233 24.2834 2.17108 24.2629 2.21602L24.2005 2.30876L24.3097 2.27398C24.5895 2.18919 24.8916 2.21552 25.1521 2.34741C25.3612 2.45177 25.5298 2.62155 25.6317 2.83047C25.7019 2.96762 25.7431 3.11754 25.7526 3.27101C25.7493 3.32636 25.7493 3.38184 25.7526 3.43718V3.39467C25.7555 3.3535 25.7555 3.31219 25.7526 3.27101C25.7532 3.11097 25.7186 2.95272 25.6512 2.80728C25.5485 2.58544 25.3761 2.40245 25.1599 2.28558C24.8815 2.13968 24.5562 2.10911 24.2551 2.20056L24.3019 2.25853C24.3337 2.20595 24.3524 2.14663 24.3564 2.08549C24.3605 2.02434 24.3498 1.96312 24.3253 1.90686C24.2845 1.79496 24.2322 1.68748 24.1693 1.58611C23.9634 1.25579 23.6558 0.999763 23.2919 0.855728C22.9937 0.742813 22.6699 0.713399 22.356 0.770709C22.1449 0.806426 21.9425 0.881152 21.7593 0.990986C21.6969 1.02963 21.6501 1.06441 21.6189 1.0876C21.5877 1.11078 21.5877 1.12624 21.5916 1.1301Z" fill="#455A64"/>
<path d="M17.2812 4.36523C17.2812 4.36523 17.3085 4.40388 17.3787 4.46185C17.4758 4.53887 17.5803 4.60618 17.6907 4.6628C17.8612 4.74988 18.0489 4.7987 18.2406 4.80578C18.4845 4.81586 18.7234 4.736 18.9113 4.58164H18.8489L18.9308 4.68985L19.0283 4.79419C19.2246 4.97698 19.4629 5.10963 19.7225 5.18064C19.9335 5.24293 20.1547 5.26393 20.3737 5.24247C20.5199 5.22446 20.6629 5.18675 20.7988 5.1304C20.8487 5.10902 20.8959 5.08177 20.9392 5.04925C20.7563 5.11901 20.5648 5.16449 20.3698 5.1845C20.1591 5.19768 19.9477 5.1728 19.7459 5.11108C19.4988 5.03488 19.2731 4.90255 19.0868 4.72463C19.0556 4.68985 19.0244 4.65893 18.9971 4.62415L18.9152 4.52368L18.8879 4.4889L18.8567 4.51595C18.6852 4.66027 18.4655 4.73605 18.2406 4.72849C18.0587 4.72478 17.8795 4.684 17.7141 4.6087C17.5654 4.5356 17.4209 4.45431 17.2812 4.36523Z" fill="#455A64"/>
<path d="M15.9231 6.91739C15.9215 6.9341 15.9215 6.95091 15.9231 6.96762C15.9397 7.01272 15.962 7.05556 15.9894 7.09515C16.0981 7.23996 16.2585 7.33813 16.4378 7.36953C16.7029 7.40772 16.9735 7.37019 17.2178 7.26132C17.3617 7.20777 17.5024 7.14584 17.639 7.07583C17.7995 7.00559 17.9295 6.88089 18.0055 6.72416V6.68165L17.9392 6.70484C18.1972 6.89333 18.4825 7.04187 18.7855 7.14539C19.0348 7.23731 19.3056 7.25609 19.5654 7.19949C19.737 7.16328 19.8966 7.08487 20.0295 6.97149C20.0655 6.94127 20.097 6.90614 20.1231 6.86715C20.1342 6.85433 20.1434 6.84002 20.1504 6.82464C20.1504 6.82464 20.1036 6.87488 20.01 6.9483C19.8749 7.04655 19.7188 7.11267 19.5537 7.14153C19.3092 7.18686 19.0568 7.16412 18.8245 7.07583C18.5452 6.96217 18.2828 6.81136 18.0445 6.62755L17.9977 6.59277V6.64688V6.68552C17.9295 6.82278 17.815 6.93212 17.6741 6.99467C17.5376 7.0681 17.3933 7.1222 17.2607 7.18017C17.0308 7.28665 16.7758 7.3281 16.5236 7.29996C16.3554 7.27561 16.2017 7.19191 16.0908 7.06423C16.0307 7.02011 15.9746 6.97099 15.9231 6.91739Z" fill="#455A64"/>
<path d="M16.8595 6.76074C16.8224 6.97019 16.8002 7.18197 16.7932 7.39451C16.7581 7.80415 16.723 8.39541 16.684 9.12579C16.5771 11.0364 16.5914 12.9518 16.7269 14.8606C16.8148 15.9044 16.9658 16.9419 17.1793 17.9677C17.3617 18.8118 17.6041 19.6422 17.9046 20.4525C18.0216 20.8003 18.1659 21.1017 18.2946 21.3684C18.3889 21.5999 18.497 21.8258 18.6183 22.0447C18.7087 22.2381 18.8143 22.4241 18.9341 22.6012C18.872 22.3978 18.7897 22.2011 18.6885 22.0138C18.6027 21.8283 18.4974 21.6003 18.396 21.3259C18.2946 21.0515 18.1581 20.7539 18.0489 20.4023C17.7719 19.5937 17.5453 18.769 17.3703 17.9329C17.1695 16.9109 17.025 15.8789 16.9375 14.8413C16.8052 12.9404 16.7727 11.0339 16.84 9.12966C16.84 8.42246 16.8712 7.83893 16.8829 7.39451C16.8949 7.18299 16.8871 6.97082 16.8595 6.76074Z" fill="#263238"/>
<path d="M20.3311 1.89022C20.6002 1.68927 16.7316 3.88815 16.4547 7.45504C16.1779 11.0219 17.5818 21.3671 17.5818 21.3671L10.3945 21.2782C10.3945 21.2782 13.0191 8.0038 14.1734 5.53441C15.3277 3.06502 16.4781 1.66995 17.2932 1.46513C19.7071 0.808176 20.3311 1.88636 20.3311 1.88636" fill="#455A64"/>
<path d="M25.2056 15.3525C25.2836 15.3525 25.3421 15.8742 25.8373 16.2027C26.3326 16.5312 26.902 16.4191 26.9137 16.4926C26.9253 16.566 26.7967 16.6085 26.5588 16.6394C26.2444 16.6756 25.9271 16.6018 25.6618 16.4307C25.4088 16.2632 25.2301 16.006 25.1627 15.7119C25.1354 15.4917 25.1666 15.3525 25.2056 15.3525Z" fill="#263238"/>
<path d="M11.0961 39.2933C11.0961 39.2933 6.09658 42.1027 3.36286 41.9984C0.629139 41.8941 0.0792758 40.5917 0.00128092 39.5947C-0.0767139 38.5977 3.43305 33.5391 3.43305 33.5391C3.43305 33.5391 12.071 23.8277 13.9663 24.96C14.247 25.1262 15.3546 28.666 15.3546 28.666L17.0081 32.3527L7.23141 36.6036L10.7685 36.5611L11.0961 39.2933Z" fill="#FFBF9D"/>
<path d="M11.1885 45.6857C11.7656 45.9446 12.6782 51.6756 13.3021 51.7722C12.8584 53.3459 12.512 54.9449 12.2648 56.5603C11.6003 54.6498 11.1682 52.6674 10.9779 50.6554C10.9779 50.6554 9.46087 46.0915 9.41797 45.4307L11.1885 45.6857Z" fill="#FFBF9D"/>
<path d="M18.7847 114.026L19.0694 121.426C19.0694 121.426 11.5741 124.197 11.4883 125.573L25.9914 125.542L26.0265 113.991L18.7847 114.026Z" fill="#263238"/>
<path d="M23.5496 120.797C23.686 120.843 23.8008 120.937 23.8725 121.061C23.9443 121.185 23.9681 121.33 23.9396 121.47C23.9027 121.61 23.8127 121.73 23.6884 121.805C23.5642 121.881 23.4153 121.906 23.2727 121.876C23.1254 121.831 22.9999 121.735 22.9207 121.604C22.8414 121.473 22.814 121.318 22.8438 121.168C22.8967 121.026 23.0037 120.909 23.1421 120.843C23.2805 120.778 23.4393 120.768 23.5847 120.817" fill="#E0E0E0"/>
<path d="M25.9935 125.543L25.9506 124.384L12.0597 124.851C12.0597 124.851 11.4162 125.13 11.4903 125.582L25.9935 125.543Z" fill="#455A64"/>
<path d="M18.8324 121.356C18.8324 121.425 19.1873 121.456 19.5383 121.684C19.8893 121.912 20.0726 122.202 20.1389 122.175C20.2052 122.148 20.096 121.742 19.6709 121.475C19.2458 121.209 18.8168 121.294 18.8324 121.356Z" fill="white"/>
<path d="M17.3123 121.982C17.3123 122.052 17.6048 122.171 17.8466 122.465C18.0884 122.759 18.1547 123.076 18.2366 123.072C18.3185 123.068 18.3536 122.685 18.0455 122.299C17.7374 121.913 17.3123 121.92 17.3123 121.982Z" fill="white"/>
<path d="M16.4508 123.789C16.5171 123.789 16.6146 123.453 16.4508 123.067C16.287 122.68 15.936 122.533 15.9087 122.591C15.8814 122.649 16.0842 122.854 16.2285 123.171C16.3728 123.488 16.3806 123.782 16.4508 123.789Z" fill="white"/>
<path d="M18.9596 119.66C18.9869 119.722 19.3145 119.626 19.7122 119.66C20.11 119.695 20.4259 119.811 20.461 119.749C20.4961 119.687 20.1997 119.44 19.7278 119.417C19.256 119.394 18.9245 119.598 18.9596 119.66Z" fill="white"/>
<path d="M35.8244 114.843L36.035 123.801L34.1397 130.934C34.1075 131.056 34.1009 131.183 34.1202 131.307C34.1395 131.432 34.1843 131.551 34.252 131.657C34.3196 131.764 34.4085 131.855 34.5133 131.927C34.6181 131.998 34.7365 132.047 34.8611 132.071C35.0061 132.099 35.1559 132.092 35.2977 132.051C35.4396 132.01 35.5694 131.936 35.6762 131.835C37.0567 130.521 42.1069 125.652 42.0523 125.014C41.9938 124.241 42.4657 115.55 42.4657 115.55L35.8244 114.843Z" fill="#263238"/>
<path d="M34.8594 132.072L42.0505 124.413V124.8C42.052 125.127 41.9359 125.445 41.7229 125.696C41.1458 126.365 39.5235 128.177 35.7017 131.844C35.5917 131.949 35.4573 132.026 35.3103 132.067C35.1634 132.108 35.0085 132.113 34.8594 132.08V132.072Z" fill="#455A64"/>
<g opacity="0.6">
<path d="M40.1965 121.533C40.0854 121.614 40.0085 121.734 39.9805 121.868C39.9524 122.002 39.9752 122.141 40.0444 122.26C40.1228 122.372 40.2415 122.45 40.3762 122.479C40.511 122.508 40.6517 122.485 40.7698 122.414C40.8879 122.327 40.9692 122.2 40.998 122.058C41.0268 121.915 41.0011 121.766 40.9258 121.641C40.8322 121.53 40.6982 121.459 40.5525 121.443C40.4067 121.428 40.2608 121.47 40.1458 121.56" fill="white"/>
</g>
<path d="M36.9266 128.155C36.7127 127.876 36.4482 127.639 36.1467 127.456C35.8146 127.328 35.4617 127.261 35.1055 127.259C35.1055 127.239 35.2147 127.17 35.4252 127.139C35.7039 127.108 35.9857 127.157 36.2364 127.282C36.4834 127.406 36.6903 127.596 36.8331 127.831C36.9344 128.016 36.95 128.148 36.9266 128.155Z" fill="white"/>
<path d="M36.2863 129.357C36.0263 129.213 35.758 129.084 35.4829 128.971C35.1918 128.915 34.8974 128.878 34.6016 128.859C34.7406 128.772 34.8984 128.72 35.062 128.707C35.2255 128.693 35.3899 128.719 35.5414 128.781C36.0562 128.94 36.333 129.334 36.2863 129.357Z" fill="white"/>
<path d="M38.1247 126.618C37.7443 126.363 37.3454 126.136 36.9314 125.938C36.4918 125.805 36.0436 125.701 35.5898 125.629C36.0609 125.505 36.5609 125.55 37.0016 125.756C37.4682 125.901 37.8669 126.207 38.1247 126.618Z" fill="white"/>
<path d="M38.293 123.886C38.2696 123.94 37.7665 123.736 37.123 123.713C36.4796 123.689 35.9531 123.844 35.9531 123.79C36.3056 123.561 36.7284 123.464 37.1464 123.515C37.56 123.507 37.9641 123.638 38.293 123.886Z" fill="white"/>
<path d="M38.2968 121.252C37.9023 121.128 37.4933 121.057 37.08 121.039C36.6691 121.084 36.2663 121.184 35.8828 121.337C35.8828 121.318 35.9647 121.205 36.1714 121.086C36.4478 120.935 36.7567 120.851 37.0722 120.842C37.3879 120.831 37.7019 120.893 37.9887 121.024C38.2032 121.144 38.3124 121.233 38.2968 121.252Z" fill="white"/>
<path d="M37.0963 120.54C37.0709 120.428 37.0709 120.312 37.0963 120.2C37.1259 119.89 37.2174 119.589 37.3654 119.315C37.4585 119.105 37.617 118.93 37.8178 118.816C37.8883 118.787 37.9658 118.78 38.0407 118.794C38.1155 118.809 38.1845 118.844 38.239 118.897C38.3348 119.011 38.3861 119.155 38.3833 119.303C38.3611 119.607 38.2318 119.894 38.0179 120.113C37.804 120.332 37.5192 120.469 37.2133 120.501C36.9157 120.533 36.6151 120.477 36.3498 120.339C36.0845 120.202 35.8666 119.989 35.7236 119.728C35.6872 119.662 35.6659 119.588 35.6612 119.513C35.6564 119.437 35.6684 119.362 35.6963 119.292C35.7325 119.223 35.7898 119.168 35.86 119.133C35.9301 119.099 36.0094 119.088 36.0863 119.102C36.3089 119.15 36.5147 119.255 36.683 119.407C36.9293 119.6 37.1381 119.836 37.2991 120.103C37.3675 120.195 37.4153 120.3 37.4395 120.412C37.2048 120.075 36.9209 119.774 36.5972 119.52C36.4464 119.392 36.2652 119.304 36.0707 119.264C36.0294 119.256 35.9866 119.262 35.9491 119.281C35.9116 119.3 35.8816 119.331 35.864 119.369C35.8496 119.415 35.845 119.465 35.8503 119.513C35.8557 119.562 35.871 119.608 35.8952 119.651C36.0249 119.874 36.2166 120.056 36.4475 120.175C36.6784 120.293 36.9388 120.343 37.1977 120.319C37.4531 120.288 37.6901 120.171 37.87 119.988C38.0499 119.806 38.1621 119.568 38.1883 119.315C38.1926 119.211 38.161 119.109 38.0986 119.025C38.0698 118.994 38.0322 118.974 37.991 118.965C37.9498 118.957 37.907 118.962 37.8685 118.979C37.6993 119.074 37.5633 119.218 37.4785 119.392C37.2841 119.749 37.1547 120.138 37.0963 120.54Z" fill="white"/>
<path d="M32.8053 52.1272C32.8053 52.1272 39.3373 54.7898 41.2989 76.6743C41.9502 83.9279 46.0527 122.012 46.0527 122.012L11.6219 122.329C11.6219 122.329 9.01292 70.2206 9.14551 64.0336C9.23175 59.5441 10.6789 55.1842 13.2987 51.5205L32.8053 52.1272Z" fill="#01A5A3"/>
<g opacity="0.3">
<path d="M38.7427 120.817C34.5426 117.409 29.3833 104.973 27.0434 100.127C24.0484 93.8743 21.5838 87.3743 19.1582 80.9013C17.4618 76.4031 15.742 71.8005 15.6172 66.9893C15.6172 66.9893 20.1838 81.195 24.4306 90.2147C28.6774 99.2343 38.7427 120.817 38.7427 120.817Z" fill="black"/>
</g>
<g opacity="0.3">
<path d="M10.2671 46.5118C10.3954 46.3794 10.5569 46.2834 10.7351 46.2335C13.0749 45.3756 15.8321 46.0712 17.7 47.7136C19.568 49.356 20.582 51.8138 20.7496 54.2832C20.8081 55.1527 20.7964 56.1033 21.3541 56.7796C21.7774 57.242 22.3637 57.5256 22.992 57.5718C23.6145 57.6123 24.2397 57.5733 24.8522 57.4559L25.6711 57.5216C24.761 57.9512 23.7929 58.248 22.797 58.4027C22.294 58.4757 21.7811 58.4395 21.2936 58.2968C20.8061 58.154 20.3557 57.9079 19.9736 57.5757C19.4681 57.0017 19.0954 56.325 18.8817 55.5932C18.4821 54.6043 18.1754 53.5811 17.9652 52.5364C17.8287 51.7404 17.7819 50.8631 17.2321 50.268C16.6822 49.6729 15.7268 49.5338 15.0092 49.0855C14.436 48.7261 13.9875 48.1464 13.3401 47.9262C12.6928 47.7059 12.0064 47.9262 11.3357 47.8721C10.9745 47.8686 10.6279 47.7306 10.3646 47.4856C10.2375 47.3594 10.1583 47.1934 10.1405 47.0159C10.1228 46.8384 10.1675 46.6603 10.2671 46.5118Z" fill="black"/>
</g>
<path d="M0.755821 34.873C0.755821 34.873 -0.156719 36.9019 0.32295 37.2883L0.798718 37.6748L3.04497 35.4063L0.755821 34.873Z" fill="#FFBF9D"/>
<path d="M1.86156 35.4258C1.59193 35.7718 1.37392 36.1544 1.2142 36.5619C0.996925 36.9427 0.83666 37.3528 0.738434 37.7792C1.00903 37.4332 1.22833 37.0506 1.38969 36.6431C1.60622 36.2624 1.7652 35.8522 1.86156 35.4258Z" fill="#EB996E"/>
<path d="M12.0889 37.3095L9.17578 27.8532L12.2956 25.0824C12.7947 24.7462 16.1953 23.2815 16.8037 23.1888C17.6811 23.0535 19.6349 22.8564 19.6349 22.8564C20.1468 23.5771 20.8287 24.163 21.6211 24.563C22.4136 24.9631 23.2927 25.1653 24.182 25.1519C27.5904 25.0399 27.723 22.9028 27.723 22.9028C27.723 22.9028 34.6021 24.1356 34.8205 24.7191C36.2335 33.867 35.7412 43.2047 33.3737 52.1568C28.0115 53.1654 13.2666 51.6737 13.2666 51.6737C12.731 51.4591 12.2568 51.1175 11.8855 50.6788C11.5143 50.2402 11.2574 49.7179 11.1374 49.1579C10.7669 47.2528 12.0889 37.3095 12.0889 37.3095Z" fill="#E0E0E0"/>
<path d="M35.705 25.2568C35.705 25.2568 39.4605 28.1243 39.6945 31.2506C39.9284 34.377 38.197 45.4023 38.197 45.4023L29.8164 42.0827L33.6538 26.6828L35.705 25.2568Z" fill="#E0E0E0"/>
<path d="M33.1151 30.1875C33.1658 30.1875 32.5107 32.8386 31.6488 36.0731C30.787 39.3077 30.0422 41.9239 29.9876 41.9239C29.933 41.9239 30.5881 39.2729 31.4539 36.0383C32.3196 32.8038 33.0606 30.1759 33.1151 30.1875Z" fill="#263238"/>
<path d="M33.373 21.7944C31.0917 20.1597 26.6109 23.1817 22.9646 23.0658C21.9303 23.0532 20.9117 22.8126 19.9829 22.3614C19.0541 21.9102 18.2383 21.2598 17.5947 20.4573L17.271 20.581L12.2676 17.1416C12.1135 19.4122 12.1932 21.6924 12.5055 23.9469C13.0476 27.5795 21.237 30.3812 26.2599 29.6199C31.2828 28.8586 35.904 25.1024 35.904 25.1024C35.904 25.1024 35.6661 23.4252 33.373 21.7944Z" fill="#455A64"/>
<path d="M9.58769 30.1754L9.4356 28.1852C10.1964 27.9917 10.8667 27.5445 11.334 26.9189C11.8013 26.2933 12.0371 25.5273 12.0016 24.7497C11.9525 23.5483 11.8223 22.3515 11.6117 21.1674C11.2724 18.8487 10.2935 17.7589 10.2935 17.7589C9.77149 17.1837 9.10669 16.7537 8.36514 16.5117C7.62359 16.2697 6.83107 16.2241 6.06622 16.3793C5.22443 16.5643 4.43212 16.9251 3.74217 17.4375C3.05221 17.95 2.48047 18.6023 2.06508 19.3511C1.72654 19.9716 1.63206 20.6944 1.7999 21.3799C2.18988 22.9528 2.90353 25.9361 3.11411 26.7361C3.25786 27.2294 3.36089 27.7334 3.42219 28.2432L3.73417 30.0325C3.80487 30.8553 4.19884 31.6176 4.83123 32.1554C5.46362 32.6931 6.28384 32.9633 7.11525 32.9076C8.81164 32.7917 9.61109 31.5589 9.58769 30.1754Z" fill="#FFBF9D"/>
<path d="M2.73145 23.5595C2.68076 23.5595 0.742585 23.1924 0.999968 25.1053C1.25735 27.0182 3.12923 26.3535 3.12533 26.2994C3.12143 26.2453 2.73145 23.5595 2.73145 23.5595Z" fill="#FFBF9D"/>
<path d="M2.44305 25.6404C2.44305 25.6404 2.41185 25.6674 2.36115 25.7022C2.28568 25.7454 2.19672 25.7591 2.11157 25.7409C1.97672 25.68 1.86077 25.5844 1.77574 25.4641C1.69071 25.3439 1.6397 25.2032 1.628 25.0569C1.6013 24.8945 1.61062 24.7283 1.6553 24.5699C1.66567 24.5083 1.69096 24.4501 1.72899 24.4003C1.76702 24.3505 1.81667 24.3106 1.87369 24.284C1.91098 24.2686 1.95254 24.2668 1.99106 24.2788C2.02958 24.2908 2.06258 24.3159 2.08427 24.3497C2.11547 24.396 2.10767 24.4385 2.11937 24.4385C2.13107 24.4385 2.15447 24.4038 2.11937 24.3265C2.10225 24.2805 2.06904 24.2421 2.02578 24.2183C1.99714 24.2018 1.96545 24.1913 1.93262 24.1874C1.89978 24.1834 1.86647 24.186 1.83469 24.1951C1.75807 24.2206 1.68943 24.2653 1.63544 24.3249C1.58145 24.3845 1.54395 24.4569 1.52661 24.5352C1.46869 24.7108 1.45399 24.8976 1.48371 25.08C1.49435 25.2536 1.55726 25.42 1.66432 25.5578C1.77137 25.6956 1.91766 25.7984 2.08427 25.8529C2.13753 25.8605 2.19182 25.8561 2.24312 25.84C2.29443 25.824 2.34143 25.7967 2.38065 25.7602C2.44695 25.6945 2.45085 25.6443 2.44305 25.6404Z" fill="#EB996E"/>
<path d="M10.4782 22.8778C10.4894 22.986 10.4579 23.0944 10.3903 23.1801C10.3227 23.2658 10.2243 23.3223 10.1156 23.3377C10.0629 23.3488 10.0084 23.349 9.95564 23.3382C9.90287 23.3274 9.85292 23.3059 9.80895 23.2751C9.76498 23.2442 9.72794 23.2046 9.70017 23.1589C9.6724 23.1131 9.6545 23.0622 9.6476 23.0092C9.63431 22.9012 9.66452 22.7923 9.73168 22.7063C9.79885 22.6202 9.89754 22.5638 10.0064 22.5493C10.0593 22.5376 10.1142 22.537 10.1674 22.5475C10.2207 22.558 10.2711 22.5793 10.3155 22.6103C10.36 22.6412 10.3974 22.681 10.4254 22.727C10.4534 22.7731 10.4714 22.8245 10.4782 22.8778Z" fill="#263238"/>
<path d="M10.5844 21.8044C10.5376 21.8624 10.1944 21.6614 9.74593 21.7117C9.29746 21.7619 8.98938 22.0131 8.93479 21.9629C8.88019 21.9126 8.93479 21.8392 9.08298 21.7194C9.26463 21.5664 9.48914 21.472 9.72644 21.4489C9.96086 21.4257 10.1967 21.4757 10.4011 21.5919C10.5493 21.6846 10.6078 21.7774 10.5844 21.8044Z" fill="#263238"/>
<path d="M6.80595 23.2615C6.81713 23.3697 6.78562 23.478 6.71801 23.5637C6.65041 23.6494 6.55196 23.7059 6.44328 23.7213C6.39028 23.7324 6.33554 23.7325 6.28253 23.7215C6.22951 23.7105 6.1794 23.6886 6.13537 23.6574C6.09135 23.6261 6.05438 23.5861 6.02682 23.5399C5.99926 23.4937 5.98172 23.4423 5.97531 23.389C5.96305 23.2811 5.99365 23.1728 6.06062 23.087C6.1276 23.0011 6.22569 22.9445 6.33408 22.9291C6.38735 22.9174 6.4425 22.9169 6.49598 22.9276C6.54946 22.9383 6.60007 22.9601 6.64454 22.9914C6.68902 23.0227 6.72636 23.0629 6.75416 23.1094C6.78197 23.156 6.79961 23.2078 6.80595 23.2615Z" fill="#263238"/>
<path d="M6.54904 22.2136C6.50224 22.2716 6.15906 22.0706 5.71059 22.1208C5.26212 22.1711 4.95404 22.4223 4.89945 22.372C4.84485 22.3218 4.89945 22.2484 5.04764 22.1286C5.23032 21.9772 5.45429 21.883 5.69109 21.8581C5.92552 21.8349 6.16138 21.8849 6.36575 22.001C6.51394 22.0745 6.57244 22.1672 6.54904 22.2136Z" fill="#263238"/>
<path d="M6.06623 20.8905C6.01553 21.0026 5.67625 20.9601 5.28628 21.0181C4.8963 21.076 4.57262 21.192 4.50633 21.0954C4.44003 20.9987 4.50633 20.9446 4.64672 20.8326C4.81841 20.6959 5.02491 20.6089 5.24338 20.5814C5.46331 20.5515 5.68728 20.5823 5.89074 20.6703C6.02723 20.7475 6.08963 20.8364 6.06623 20.8905Z" fill="#263238"/>
<path d="M10.4435 20.3029C10.3928 20.4189 10.0536 20.3725 9.66358 20.4304C9.27361 20.4884 8.94603 20.6043 8.88363 20.5077C8.82124 20.4111 8.88363 20.357 9.02012 20.2449C9.1927 20.1079 9.40093 20.0222 9.62068 19.9976C9.8406 19.9639 10.0657 19.9948 10.268 20.0865C10.3967 20.1599 10.4669 20.2488 10.4435 20.3029Z" fill="#263238"/>
<path d="M7.87954 25.4699C7.87954 25.497 7.83665 25.5511 7.71965 25.5782C7.56247 25.6139 7.3974 25.5876 7.25948 25.5047C7.18996 25.4651 7.12902 25.4123 7.08016 25.3493C7.0313 25.2863 6.9955 25.2144 6.9748 25.1376C6.94361 25.0217 6.9748 24.9482 6.9748 24.9444C6.9748 24.9405 7.10739 25.184 7.36478 25.3308C7.62216 25.4777 7.86394 25.4158 7.87954 25.4699Z" fill="#263238"/>
<path d="M9.43659 28.188C9.43659 28.188 7.13574 28.4739 6.55078 28.1416C6.55078 28.1416 7.07335 29.185 9.49899 28.7986L9.43659 28.188Z" fill="#EB996E"/>
<path d="M8.32209 23.375C8.34938 23.375 8.41568 23.4562 8.49757 23.6146C8.53657 23.6919 8.58337 23.7885 8.63017 23.8928C8.67696 23.9972 8.67696 24.0049 8.70426 24.0629C8.73583 24.1295 8.75939 24.1995 8.77446 24.2716C8.78294 24.3173 8.78178 24.3642 8.77104 24.4094C8.7603 24.4547 8.74022 24.4972 8.71206 24.5343C8.65924 24.599 8.58675 24.6451 8.50537 24.6657C8.43734 24.681 8.36672 24.681 8.29869 24.6657C8.24422 24.6519 8.19178 24.6311 8.1427 24.6039C7.97501 24.4957 7.91651 24.4029 7.93211 24.3798C7.94771 24.3566 8.053 24.4145 8.20509 24.4686C8.28302 24.4977 8.36895 24.4977 8.44688 24.4686C8.4862 24.4567 8.52047 24.4323 8.54437 24.3991C8.55199 24.3814 8.55591 24.3623 8.55591 24.343C8.55591 24.3238 8.55199 24.3047 8.54437 24.287C8.53427 24.2311 8.51724 24.1765 8.49368 24.1247C8.47028 24.0667 8.45078 24.0088 8.43128 23.9508C8.41178 23.8928 8.36498 23.7614 8.36498 23.6571C8.31039 23.4832 8.29479 23.375 8.32209 23.375Z" fill="#263238"/>
<path d="M11.4145 20.1126C11.473 17.5041 9.39057 15.8849 6.97273 15.8192C5.34653 15.7728 4.05572 15.9429 2.68301 17.0945C2.20055 17.4603 1.78278 17.903 1.44679 18.4045C0.405558 20.4527 0.955422 22.099 1.63008 23.6331L2.27354 23.5172L2.32033 23.7452C2.35843 23.9316 2.46292 24.0982 2.61471 24.2145C2.76649 24.3309 2.95545 24.3893 3.14708 24.379C3.24728 24.3742 3.34665 24.3587 3.44346 24.3326C3.72814 24.2399 3.88023 23.5868 3.83343 23.2931C3.7703 22.8148 3.6606 22.3437 3.50586 21.8864C3.27577 21.1715 3.13928 20.7734 3.25627 20.1281C3.25164 19.7535 3.3399 19.3836 3.51329 19.0507C3.68668 18.7178 3.9399 18.4323 4.25071 18.219C5.38553 17.5312 6.02119 18.1572 7.49139 18.0181C8.75881 17.9022 9.10979 17.3495 10.0457 17.8133C10.9817 18.277 11.4145 20.1126 11.4145 20.1126Z" fill="#263238"/>
<path d="M3.61645 28.9881C3.61645 29.189 3.54235 33.9152 3.87383 35.1016C4.20531 36.288 6.48666 42.6025 6.48666 42.6025L16.2906 41.0568C16.2906 41.0568 16.1541 40.3264 15.9201 39.2598C15.3859 36.829 13.9118 33.5868 13.0967 32.1453C11.9268 30.1165 9.49726 28.7871 9.49726 28.7871L3.61645 28.9881Z" fill="#01A5A3"/>
<path d="M17.7241 42.9663C18.0244 43.175 22.5013 46.1776 22.9069 47.5495C23.3125 48.9214 23.2969 49.9648 23.4646 51.6111C23.5699 52.6931 23.6868 55.12 23.6868 55.12C23.6868 55.12 27.0991 56.0861 27.3019 56.6001C27.5047 57.114 26.5571 57.458 25.3949 57.6744C24.2328 57.8908 21.1052 58.0067 20.8283 57.6976C20.6632 57.2725 20.5607 56.8261 20.5242 56.3721C20.5242 55.8465 18.7498 53.2496 18.6913 51.9086C18.6855 51.2275 18.5697 50.5517 18.3481 49.9068L13.5982 47.0858C13.5982 47.0858 10.4277 47.7118 9.1564 47.051C7.88509 46.3902 7.20653 44.5662 7.20653 44.5662L6.90625 42.5798L16.2656 40.8408L17.7241 42.9663Z" fill="#FFBF9D"/>
<path d="M3.61598 28.9854C3.09063 29.0473 2.60573 29.2958 2.25107 29.6848C1.59201 30.365 0.273901 34.442 0.301199 34.5154C0.771664 34.946 1.33424 35.2657 1.94689 35.4506C2.61765 35.5781 3.89676 35.2187 3.89676 35.2187L3.61598 28.9854Z" fill="#01A5A3"/>
<path d="M4.83191 37.7631C4.75663 37.3991 4.64964 37.0422 4.51213 36.6965C4.26645 35.9932 3.95837 35.1276 3.61909 34.1692C3.27981 33.2108 2.97563 32.2833 2.77285 31.6302C2.68193 31.2714 2.56329 30.9199 2.41797 30.5791C2.45547 30.9488 2.52993 31.3138 2.64025 31.6689C2.81184 32.3336 3.08872 33.2456 3.4202 34.231C3.75168 35.2164 4.11436 36.1053 4.36394 36.7429C4.49089 37.0953 4.64743 37.4366 4.83191 37.7631Z" fill="#263238"/>
<path d="M18.5429 43.5017L14.3546 47.5246L13.6136 47.084C13.6136 47.084 11.3947 47.8067 9.593 47.2077C7.79132 46.6087 7.25316 44.5644 7.25316 44.5644L6.80469 42.5394L16.2499 40.6768L17.6421 42.6476L18.5429 43.5017Z" fill="#263238"/>
<path d="M11.8022 36.2419C11.8022 36.2419 14.5866 35.9868 15.3549 35.8864C16.1231 35.7859 16.9148 35.3956 17.4724 35.5424C18.0301 35.6893 20.4323 37.2892 20.4323 37.2892L20.4635 37.7297C20.4635 37.7297 21.3449 38.178 21.4385 38.4755C21.5048 38.6842 21.2357 38.862 21.0758 38.9663L20.9627 39.0243L20.5259 38.8697C20.5259 38.8697 20.4908 39.0359 20.136 39.1518C19.7811 39.2678 19.7928 38.9702 19.7928 38.9702C19.6597 39.2125 19.4944 39.436 19.3014 39.6349C18.9114 40.1102 18.6151 39.9208 18.6151 39.9208C18.5894 40.1962 18.4971 40.4613 18.346 40.6937C18.2447 40.7962 18.1231 40.877 17.9889 40.9308C17.8547 40.9847 17.7108 41.0105 17.566 41.0068C17.566 41.0068 17.0435 41.5826 16.6691 41.6328C16.2947 41.683 14.6412 40.3614 14.6412 40.3614C14.6412 40.3614 14.1694 40.3034 13.249 40.2802C12.9732 40.2647 12.7054 40.1826 12.4689 40.0412C12.2324 39.8998 12.0343 39.7032 11.8919 39.4687L5.9487 41.4434L3.36707 37.7877L11.8022 36.2419Z" fill="#FFBF9D"/>
<path d="M20.1605 39.2544C20.1605 39.2776 20.3126 39.2891 20.4764 39.1346C20.5668 39.0392 20.623 38.917 20.6363 38.7868C20.6518 38.6442 20.6518 38.5004 20.6363 38.3578C20.6239 37.9978 20.546 37.643 20.4062 37.3105C20.357 37.6655 20.3688 38.0261 20.4413 38.3771C20.4881 38.6747 20.5037 38.9104 20.3906 39.0457C20.2775 39.1809 20.1527 39.2196 20.1605 39.2544Z" fill="#EB996E"/>
<path d="M17.8125 36.7588C17.8125 36.7781 17.949 36.9095 18.2298 37.0448C18.6017 37.1814 18.9563 37.3604 19.2866 37.5781C19.4302 37.6994 19.5458 37.8497 19.6259 38.019C19.7059 38.1883 19.7485 38.3727 19.7507 38.5596C19.7465 38.7245 19.7622 38.8892 19.7975 39.0504C19.8693 38.8958 19.9002 38.7255 19.8872 38.5558C19.8943 38.3687 19.8692 38.1819 19.8131 38.0031C19.7425 37.7787 19.6069 37.5798 19.4231 37.4312C19.0848 37.1994 18.7089 37.0268 18.3117 36.9211C18.152 36.8486 17.9845 36.7942 17.8125 36.7588Z" fill="#EB996E"/>
<path d="M17.4336 37.941C17.7844 38.149 18.0916 38.4219 18.3383 38.7448C18.5276 39.105 18.6417 39.4993 18.6737 39.9042C18.6971 39.9042 18.7556 39.7689 18.7595 39.5177C18.7593 39.2044 18.6699 38.8975 18.5015 38.6323C18.3332 38.3671 18.0928 38.1543 17.808 38.0183C17.5896 37.9294 17.4375 37.9178 17.4336 37.941Z" fill="#EB996E"/>
<path d="M16.2987 39.013C16.2636 39.0671 16.7433 39.3221 17.1137 39.8168C17.2679 40.0291 17.3706 40.2737 17.414 40.5317C17.4452 40.7288 17.414 40.8602 17.4569 40.864C17.4998 40.8679 17.5466 40.7442 17.5505 40.5201C17.5443 40.2261 17.4462 39.9412 17.2697 39.7047C17.0984 39.4747 16.8806 39.2825 16.6302 39.1405C16.443 39.0323 16.3104 38.9898 16.2987 39.013Z" fill="#EB996E"/>
<g opacity="0.3">
<path d="M5.51931 38.2254C5.6207 37.8776 5.97948 37.5066 6.29926 37.6921C6.22744 38.326 6.31401 38.9678 6.55135 39.5608C6.78868 40.1538 7.16949 40.6799 7.66027 41.0928C9.14607 42.3101 11.3806 42.3101 12.7767 43.6317L12.9561 44.3273C12.4219 44.4046 11.9656 43.9757 11.5405 43.6433C10.7341 43.0798 9.85199 42.631 8.91988 42.3101C7.9874 41.9967 7.12709 41.5028 6.38895 40.8571C5.687 40.1885 5.24633 39.1606 5.51931 38.2254Z" fill="black"/>
</g>
<path d="M13.9613 41.2378C13.9613 41.2378 17.0226 41.8445 17.3931 42.0609C17.6898 42.2704 17.9528 42.5231 18.1731 42.8106C18.1731 42.8106 18.3173 43.2821 18.2121 43.2898C18.1068 43.2976 18.5045 43.7265 18.3134 43.9816C18.2875 44.0159 18.2544 44.0444 18.2164 44.0651C18.1785 44.0858 18.1365 44.0982 18.0933 44.1015C18.0501 44.1048 18.0067 44.0989 17.9659 44.0842C17.9252 44.0695 17.8881 44.0464 17.8572 44.0163C17.8572 44.0163 18.2744 44.4724 17.8962 44.5265C17.3514 44.4915 16.8124 44.3956 16.2895 44.2405L15.8215 44.0086C15.8215 44.0086 16.6249 45.168 16.4845 45.3573C16.3441 45.5467 16.0321 45.3573 15.9385 45.2105C15.5677 44.8579 15.1771 44.5263 14.7686 44.2173C14.7686 44.2173 13.0878 44.2637 12.7953 43.9622C12.595 43.7309 12.4174 43.4811 12.2649 43.2164L7.95572 41.2842C7.53327 41.1016 7.15862 40.8255 6.86051 40.4772C6.5624 40.1288 6.34875 39.7175 6.23594 39.2747V39.2321C6.15794 38.9384 5.45599 32.365 5.53788 32.1331C5.61978 31.9013 5.40139 30.684 6.66491 30.5332C7.92843 30.3825 9.34793 30.4714 9.55072 31.3448C9.75351 32.2182 9.53122 37.5279 9.53122 37.5279L9.67551 38.3008C9.8276 38.6061 13.9613 41.2378 13.9613 41.2378Z" fill="#FFBF9D"/>
<path d="M13.9623 41.241L13.8921 41.1869L13.6738 41.0362L12.8236 40.4681L11.4587 39.5561L10.6047 38.9687L10.1445 38.6364C9.98491 38.521 9.83611 38.3917 9.69992 38.2499V38.2692C9.65703 38.0335 9.61023 37.7746 9.55954 37.4963C9.60633 36.4182 9.65313 35.2047 9.67263 33.8753C9.67263 33.2145 9.67263 32.5228 9.67263 31.8001C9.6639 31.6144 9.64042 31.4296 9.60243 31.2475C9.55156 31.0502 9.43471 30.8759 9.27095 30.7529C8.9443 30.5263 8.56128 30.3926 8.16343 30.3664C7.76782 30.3297 7.36961 30.3297 6.974 30.3664C6.54424 30.3458 6.1237 30.4945 5.80408 30.7799C5.53737 31.1226 5.40568 31.5498 5.43361 31.9818C5.42334 32.0884 5.42334 32.1958 5.43361 32.3025V32.6155L5.4804 33.2454C5.63249 34.9303 5.80798 36.6771 6.01077 38.4663C6.03633 38.8322 6.10437 39.194 6.21355 39.5445C6.33825 39.8898 6.52596 40.2094 6.76732 40.4874C7.00598 40.7616 7.2894 40.9941 7.60576 41.1753C7.92554 41.3492 8.24142 41.4729 8.5573 41.6197L12.2114 43.2544L12.1685 43.2196C12.3036 43.4377 12.4548 43.6457 12.6208 43.8418C12.6637 43.892 12.7066 43.9384 12.7534 43.9848C12.8105 44.0342 12.8767 44.0723 12.9484 44.0968C13.0753 44.1395 13.2058 44.1705 13.3384 44.1896C13.8244 44.2527 14.3148 44.2759 14.8047 44.2591H14.7501C15.0075 44.4601 15.261 44.6649 15.5066 44.8659C15.6275 44.9702 15.7484 45.0745 15.8537 45.1789C15.9026 45.2454 15.9589 45.3063 16.0214 45.3605C16.093 45.4146 16.1754 45.4528 16.2632 45.4726C16.3133 45.4868 16.3662 45.4878 16.4168 45.4756C16.4674 45.4634 16.5139 45.4384 16.5518 45.403C16.5736 45.3771 16.5896 45.3467 16.5986 45.3141C16.6041 45.2874 16.6041 45.2598 16.5986 45.233C16.5933 45.1894 16.5828 45.1466 16.5674 45.1055C16.5129 44.9598 16.4464 44.819 16.3685 44.6842C16.2242 44.4215 16.0643 44.178 15.9044 43.9384L15.8069 44.0466L16.2749 44.2785C16.66 44.385 17.0505 44.4715 17.4448 44.5374C17.5384 44.5374 17.6359 44.5606 17.7334 44.5644C17.8423 44.5798 17.9532 44.5595 18.0493 44.5065C18.0755 44.4845 18.0958 44.4564 18.108 44.4246C18.1203 44.3929 18.1242 44.3585 18.1195 44.3248C18.1127 44.2723 18.0969 44.2213 18.0727 44.1741C18.0281 44.0903 17.9731 44.0124 17.9089 43.9423L17.8153 44.035C17.8886 44.0946 17.9783 44.131 18.0727 44.1393C18.1204 44.1409 18.1678 44.1321 18.2116 44.1134C18.2555 44.0946 18.2946 44.0666 18.3262 44.0311C18.3911 43.9649 18.4275 43.8762 18.4276 43.7838C18.4242 43.7013 18.4057 43.6201 18.373 43.5442C18.3457 43.4747 18.3106 43.4051 18.2794 43.3433V43.2969C18.2794 43.3317 18.3262 43.2969 18.3262 43.2621C18.3324 43.2367 18.3324 43.2102 18.3262 43.1848C18.32 43.0387 18.2924 42.8942 18.2443 42.7559C18.0229 42.476 17.7599 42.231 17.4643 42.0293C17.1813 41.9015 16.8842 41.8069 16.5791 41.7472C16.0214 41.612 15.5456 41.5154 15.1557 41.4342L14.2665 41.2642L14.0364 41.2255H13.9584C13.983 41.2375 14.0093 41.2454 14.0364 41.2487L14.2626 41.3028L15.144 41.5038C15.5339 41.5888 16.0019 41.697 16.5557 41.84C16.8502 41.9018 17.1367 41.9965 17.4097 42.1221C17.6852 42.3228 17.9295 42.5624 18.1351 42.8332C18.1732 42.9589 18.1967 43.0886 18.2053 43.2196C18.2085 43.2297 18.2085 43.2405 18.2053 43.2505C18.2053 43.2505 18.2365 43.2737 18.2287 43.2505C18.2287 43.2041 18.2287 43.2505 18.2287 43.2273C18.2118 43.2316 18.1968 43.2411 18.1858 43.2544C18.1767 43.2767 18.1767 43.3016 18.1858 43.3239C18.1847 43.3368 18.1847 43.3497 18.1858 43.3626L18.2092 43.4167C18.2404 43.4824 18.2716 43.5481 18.2989 43.6138C18.3314 43.6685 18.3465 43.7317 18.3424 43.7951C18.3382 43.8585 18.3149 43.9192 18.2755 43.9693C18.2309 44.0132 18.1706 44.0378 18.1078 44.0378C18.0449 44.0378 17.9847 44.0132 17.9401 43.9693L17.8504 44.0582C17.9055 44.1205 17.9527 44.1893 17.9908 44.263C18.0298 44.3364 18.0376 44.4137 17.9908 44.433C17.8256 44.4738 17.6529 44.4738 17.4877 44.433C17.093 44.3692 16.7024 44.2828 16.3178 44.1741L15.8459 43.9384L15.5924 43.8109L15.7523 44.0466C15.9083 44.2823 16.0643 44.5297 16.2047 44.7886C16.2779 44.9114 16.3393 45.0408 16.388 45.175C16.4114 45.2368 16.4192 45.3103 16.388 45.3064C16.3688 45.3236 16.3453 45.3355 16.32 45.3409C16.2947 45.3464 16.2684 45.3451 16.2437 45.3373C16.18 45.321 16.1203 45.2921 16.0682 45.2523C16.0139 45.2025 15.9655 45.1468 15.9239 45.0861C15.8087 44.9718 15.6877 44.8635 15.5612 44.7615C15.3156 44.5528 15.0621 44.348 14.8047 44.1432L14.7813 44.1239H14.7501C14.2718 44.1397 13.793 44.1152 13.3189 44.0505C13.2025 44.0325 13.0877 44.0054 12.9757 43.9693C12.9285 43.9506 12.884 43.9259 12.8431 43.8959L12.7222 43.7645C12.5648 43.5731 12.4202 43.3717 12.2894 43.1616V43.1384H12.266L8.6158 41.4922C8.30382 41.3492 7.97234 41.2178 7.67986 41.0555C7.38477 40.8858 7.12101 40.6676 6.89991 40.4101C6.67466 40.1485 6.49895 39.8487 6.38124 39.5252C6.27788 39.1898 6.21504 38.8434 6.19406 38.4934C5.98737 36.7041 5.80408 34.9535 5.65979 33.2763C5.63639 33.0677 5.63639 32.859 5.63639 32.6503L5.61689 32.3411C5.60368 32.2424 5.60368 32.1423 5.61689 32.0436C5.58453 31.6531 5.69682 31.2643 5.93277 30.9499C6.22184 30.6993 6.59823 30.5703 6.9818 30.5906C7.37085 30.5528 7.76268 30.5528 8.15173 30.5906C8.51616 30.6119 8.86851 30.7279 9.17346 30.9268C9.30771 31.0287 9.40488 31.1711 9.45034 31.3325C9.48548 31.5044 9.50635 31.6789 9.51274 31.8542C9.55173 32.5653 9.54784 33.257 9.54394 33.9178C9.54394 35.2434 9.49324 36.4568 9.45814 37.535C9.51274 37.8055 9.56343 38.0644 9.60633 38.3079C9.75389 38.451 9.91446 38.5804 10.086 38.6943L10.5579 39.0189L11.4197 39.5986L12.8002 40.4874L13.6699 41.0285L13.8961 41.1637C13.9136 41.193 13.9361 41.2191 13.9623 41.241Z" fill="#EB996E"/>
<path d="M15.5781 42.9991C16.0146 43.0924 16.4425 43.2217 16.8572 43.3855C17.2449 43.6124 17.6127 43.8709 17.957 44.1584C17.7194 43.7549 17.367 43.4297 16.9439 43.2235C16.5208 43.0173 16.0457 42.9392 15.5781 42.9991Z" fill="#EB996E"/>
<path d="M16.1094 42.2545C16.1094 42.3125 16.6436 42.3975 17.2247 42.6989C17.8058 43.0004 18.1996 43.3791 18.2425 43.3404C18.0063 42.9978 17.6875 42.719 17.315 42.5293C16.9424 42.3397 16.5281 42.2453 16.1094 42.2545Z" fill="#EB996E"/>
<path d="M7.77298 29.9097C8.43203 29.8865 9.43817 30.1145 10.027 31.7106C10.6159 33.3066 10.2532 37.5072 10.2532 37.5072L5.15625 37.8241C5.15625 37.8241 5.15625 34.0447 5.19915 33.0708C5.28884 31.0149 5.66712 29.987 7.77298 29.9097Z" fill="#01A5A3"/>
<path d="M7.77282 29.9124C7.7106 29.9059 7.64786 29.9059 7.58563 29.9124C7.40546 29.9169 7.22573 29.9324 7.04747 29.9587C6.76017 30.0061 6.48238 30.0987 6.22462 30.2331C5.88374 30.4355 5.61828 30.7419 5.46807 31.1065C5.1288 31.9142 5.1171 32.9498 5.1054 34.0782C5.0937 35.2067 5.0781 36.4781 5.0625 37.819V37.9195H5.16389L7.44914 37.7804L10.2609 37.6026H10.3428V37.5253C10.4399 36.3415 10.4672 35.1531 10.4246 33.9662C10.4043 33.4574 10.3535 32.9503 10.2726 32.4474C10.201 32.0111 10.0574 31.5893 9.84749 31.1992C9.71747 30.9045 9.52578 30.6405 9.28511 30.4246C9.04444 30.2088 8.76026 30.046 8.45138 29.9471C8.23123 29.8833 7.99973 29.8675 7.77282 29.9008C7.99538 29.9168 8.21598 29.9531 8.43188 30.009C8.72234 30.1105 8.98877 30.2698 9.21478 30.4772C9.44079 30.6845 9.6216 30.9355 9.74609 31.2147C10.1361 31.9103 10.2297 32.8648 10.2648 33.9198C10.295 35.0995 10.2598 36.2799 10.1595 37.4558L10.2492 37.3708L7.43744 37.5447L5.15219 37.6877L5.24969 37.7804C5.24969 36.4394 5.24969 35.1835 5.27309 34.0473C5.29649 32.9112 5.27309 31.8871 5.58117 31.1181C5.7241 30.7911 5.96686 30.5167 6.27532 30.3336C6.51858 30.1967 6.78164 30.0976 7.05527 30.0399C7.51544 29.9471 7.77282 29.9471 7.77282 29.9124Z" fill="#263238"/>
<path d="M30.5608 42.377L28.3223 47.1457L17.1729 47.7215C17.0715 47.2191 15.8197 46.1757 15.4337 45.8472C15.4337 45.8472 14.2637 44.7922 13.1289 44.6454C12.3571 44.5648 11.5912 44.4357 10.8359 44.2589C10.3445 44.1314 8.95228 43.401 8.70269 43.5981C8.45311 43.7952 8.6715 44.3246 9.00297 44.7575C9.33445 45.1903 10.3172 45.5303 10.3172 45.5303L7.46647 45.1632C6.99024 44.9607 6.47926 44.8505 5.96117 44.8386C5.82123 44.8444 5.68724 44.8963 5.58054 44.9862C5.47383 45.0762 5.40052 45.1988 5.37227 45.3348C5.34403 45.4707 5.36247 45.6121 5.42466 45.7365C5.48685 45.8609 5.58922 45.9611 5.71549 46.0211C6.20565 46.1921 6.68604 46.3895 7.15449 46.6124C7.75115 46.9293 8.574 47.2964 8.574 47.2964C8.574 47.2964 9.20576 48.4982 9.61133 48.7185C9.61133 48.7185 10.0676 49.8779 10.5629 50.2063C11.1944 50.5744 11.8558 50.8898 12.54 51.1493L13.2693 51.4159C13.4175 51.4623 13.554 51.5009 13.6827 51.5318C14.2871 51.6787 17.4108 52.0072 18.8225 52.1347V52.1154C22.8432 52.5714 27.7061 53.0081 30.0616 52.7646C34.4839 52.3163 37.436 45.1091 37.436 45.1091L30.5608 42.377Z" fill="#FFBF9D"/>
<path d="M13.1318 46.0463C12.6687 45.8475 12.1786 45.7172 11.6772 45.6598C11.1863 45.5411 10.6801 45.4968 10.1758 45.5285C10.6563 45.6721 11.1481 45.7755 11.646 45.8376C12.134 45.9511 12.6312 46.0209 13.1318 46.0463Z" fill="#EB996E"/>
<path d="M8.52344 47.2988C8.52344 47.3413 8.80032 47.5268 9.21759 47.6157C9.46992 47.7041 9.74521 47.7041 9.99754 47.6157C9.99754 47.5616 9.66606 47.5307 9.27219 47.4457C9.0309 47.3618 8.77879 47.3123 8.52344 47.2988Z" fill="#EB996E"/>
<path d="M10.7059 48.985C10.7059 48.9347 10.4563 48.8768 10.1443 48.8072C9.83232 48.7376 9.57884 48.6874 9.56324 48.7338C9.54764 48.7801 9.78162 48.9115 10.1053 48.9811C10.429 49.0507 10.7059 49.0313 10.7059 48.985Z" fill="#EB996E"/>
<path d="M28.3226 47.1445C28.1515 47.1858 27.9762 47.2078 27.8001 47.2102L26.3689 47.3068C25.1638 47.3841 23.4948 47.4729 21.6541 47.558L19.0529 47.6739L17.922 47.7164L17.4073 47.7357H17.2825C17.2581 47.7412 17.2328 47.7412 17.2084 47.7357C17.1773 47.728 17.149 47.7119 17.1265 47.6894C17.0633 47.6404 17.0034 47.5875 16.9471 47.5309C16.5181 47.0981 16.2061 46.7271 15.9877 46.4682C15.8656 46.3429 15.7583 46.2042 15.668 46.0547C15.8101 46.1622 15.9408 46.284 16.0579 46.4179C16.2919 46.6575 16.6273 47.0169 17.0563 47.4266C17.1092 47.4775 17.1652 47.5253 17.224 47.5695C17.224 47.6043 17.3293 47.5695 17.4112 47.5695L17.922 47.5386L19.0568 47.4768L21.6541 47.3454C23.4987 47.2604 25.1638 47.1947 26.3767 47.1561L27.8079 47.1213C27.9798 47.1147 28.152 47.1225 28.3226 47.1445Z" fill="#EB996E"/>
<path d="M30.0807 52.7753C30.0134 52.7844 29.9452 52.7844 29.8779 52.7753C29.7453 52.7753 29.5503 52.7753 29.2969 52.7753C28.7899 52.7753 28.0606 52.7367 27.1559 52.6942C25.3503 52.6092 22.8662 52.47 20.1091 52.2768C18.7325 52.1802 17.4221 52.0797 16.2327 51.9599C15.1745 51.8476 14.1297 51.6341 13.1129 51.3223C12.4272 51.1151 11.7615 50.8474 11.1241 50.5224C10.95 50.4362 10.7807 50.3407 10.6171 50.2364C10.504 50.1668 10.4455 50.1282 10.4494 50.1204C10.4533 50.1127 10.7029 50.2403 11.1592 50.4528C11.8038 50.7468 12.47 50.9923 13.1519 51.187C14.1654 51.4751 15.203 51.6717 16.2522 51.7744C17.4221 51.8865 18.7481 51.9793 20.1247 52.0759L27.1676 52.5512L29.3008 52.698L29.8818 52.7406C29.9492 52.7449 30.0159 52.7565 30.0807 52.7753Z" fill="#EB996E"/>
<path d="M2.125 38.4458C2.59631 38.2142 3.0792 38.0065 3.5718 37.8236C4.40245 37.5647 5.1317 37.5879 5.1317 37.5299C4.59676 37.4124 4.03899 37.45 3.52501 37.6381C2.98857 37.7656 2.50175 38.0465 2.125 38.4458Z" fill="#EB996E"/>
</svg>
