<svg width="77" height="143" viewBox="0 0 77 143" fill="none" xmlns="http://www.w3.org/2000/svg">
<path d="M42.6007 33.2329C42.7605 33.5536 54.0854 40.7415 54.0854 40.7415L65.0515 30.4736L68.4014 33.8357C68.4014 33.8357 62.4348 43.8292 58.0553 47.9487C55.0252 50.7852 51.3673 49.7998 47.4597 47.257C45.233 45.8078 39.5784 41.7501 39.5784 41.7501L42.6007 33.2329Z" fill="#FFBF9D"/>
<path d="M15.9599 124.123L16.2563 131.851C16.2563 131.851 8.41392 134.754 8.32812 136.187L23.4981 136.156L23.5371 124.076L15.9599 124.123Z" fill="#263238"/>
<path d="M20.9447 131.203C21.0899 131.247 21.2137 131.343 21.2927 131.472C21.3717 131.601 21.4005 131.754 21.3737 131.902C21.3349 132.049 21.2409 132.175 21.111 132.255C20.9811 132.334 20.8253 132.362 20.6756 132.331C20.5214 132.284 20.3902 132.183 20.3074 132.046C20.2245 131.909 20.196 131.746 20.2271 131.589C20.2818 131.438 20.3945 131.315 20.5407 131.246C20.6868 131.177 20.8545 131.169 21.0071 131.222" fill="#E0E0E0"/>
<path d="M23.496 136.167L23.4531 134.949L8.92655 135.436C8.92655 135.436 8.2519 135.726 8.326 136.209L23.496 136.167Z" fill="#455A64"/>
<path d="M16.0082 131.788C16.0082 131.861 16.3982 131.892 16.7453 132.128C17.0923 132.364 17.3068 132.673 17.3731 132.642C17.4394 132.611 17.3302 132.19 16.8857 131.911C16.4411 131.633 15.9926 131.718 16.0082 131.788Z" fill="white"/>
<path d="M14.418 132.439C14.418 132.512 14.726 132.636 14.9756 132.945C15.2252 133.254 15.3032 133.583 15.3656 133.579C15.428 133.575 15.4826 133.162 15.1628 132.783C14.8431 132.404 14.4219 132.369 14.418 132.439Z" fill="white"/>
<path d="M13.5216 134.329C13.5879 134.329 13.6893 133.978 13.4982 133.576C13.3071 133.174 12.96 133.016 12.9288 133.077C12.8976 133.139 13.1121 133.352 13.2642 133.684C13.4163 134.016 13.4475 134.322 13.5216 134.329Z" fill="white"/>
<path d="M16.1394 130.015C16.1706 130.085 16.5294 129.98 16.9193 130.015C17.3093 130.05 17.6642 130.174 17.6993 130.112C17.7344 130.05 17.4224 129.787 16.9193 129.76C16.4163 129.733 16.1043 129.957 16.1394 130.015Z" fill="white"/>
<path d="M33.478 124.165L34.3008 133.505L32.7994 141.084C32.7738 141.213 32.7753 141.346 32.8038 141.475C32.8322 141.604 32.8871 141.725 32.965 141.832C33.0429 141.939 33.1421 142.029 33.2565 142.096C33.371 142.164 33.4981 142.207 33.6301 142.224C33.7828 142.243 33.938 142.226 34.0826 142.173C34.2272 142.121 34.3569 142.035 34.4607 141.922C35.814 140.461 40.7627 135.063 40.6613 134.383C40.5482 133.61 40.4546 124.474 40.4546 124.474L33.478 124.165Z" fill="#263238"/>
<path d="M33.6328 142.214L40.6251 133.739L40.6484 134.126C40.6719 134.469 40.5709 134.808 40.3638 135.084C39.81 135.818 38.2345 137.82 34.4947 141.897C34.3874 142.014 34.2526 142.103 34.1023 142.157C33.952 142.21 33.7907 142.226 33.6328 142.202V142.214Z" fill="#455A64"/>
<g opacity="0.6">
<path d="M38.4911 130.854C38.3785 130.945 38.3044 131.076 38.2835 131.219C38.2626 131.361 38.2963 131.507 38.378 131.627C38.4672 131.743 38.5986 131.82 38.7443 131.842C38.8899 131.863 39.0384 131.828 39.158 131.743C39.275 131.645 39.3514 131.508 39.3723 131.358C39.3932 131.208 39.3571 131.056 39.2711 130.931C39.1667 130.822 39.0239 130.758 38.8726 130.752C38.7213 130.745 38.5734 130.797 38.4599 130.896" fill="white"/>
</g>
<path d="M35.5201 137.995C35.2755 137.716 34.9789 137.486 34.6466 137.319C34.2922 137.204 33.919 137.157 33.5469 137.18C33.5469 137.16 33.6522 137.079 33.8706 137.033C34.1593 136.985 34.4559 137.019 34.7262 137.13C34.9965 137.242 35.2298 137.426 35.3993 137.663C35.5201 137.848 35.5513 137.995 35.5201 137.995Z" fill="white"/>
<path d="M34.9345 139.288C34.6534 139.153 34.3643 139.036 34.0688 138.936C33.7607 138.9 33.4508 138.881 33.1406 138.878C33.2798 138.779 33.4409 138.714 33.6105 138.689C33.7802 138.664 33.9534 138.68 34.1156 138.735C34.6849 138.863 34.9813 139.257 34.9345 139.288Z" fill="white"/>
<path d="M36.6673 136.305C36.2523 136.067 35.821 135.858 35.3765 135.679C34.9087 135.565 34.4329 135.486 33.9531 135.443C34.4378 135.284 34.9634 135.298 35.4389 135.482C35.934 135.603 36.3694 135.895 36.6673 136.305Z" fill="white"/>
<path d="M36.66 133.449C36.6366 133.504 36.1023 133.322 35.4237 133.341C34.7452 133.361 34.2148 133.558 34.1914 133.5C34.5598 133.271 34.9839 133.145 35.4187 133.136C35.8534 133.127 36.2824 133.236 36.66 133.449Z" fill="white"/>
<path d="M36.4904 130.701C36.0705 130.592 35.6373 130.543 35.2035 130.554C34.7781 130.627 34.3648 130.757 33.9751 130.94C33.9556 130.94 34.0531 130.801 34.2637 130.662C34.5403 130.485 34.856 130.376 35.184 130.345C35.5123 130.313 35.8438 130.358 36.1512 130.477C36.3851 130.573 36.5021 130.678 36.4904 130.701Z" fill="white"/>
<path d="M35.1873 130.031C35.1486 129.917 35.1366 129.796 35.1522 129.676C35.1616 129.35 35.2372 129.029 35.3745 128.733C35.4574 128.507 35.612 128.313 35.8152 128.18C35.8858 128.144 35.9659 128.131 36.0447 128.141C36.1234 128.151 36.1971 128.185 36.2559 128.238C36.3638 128.35 36.4275 128.497 36.4352 128.652C36.4342 128.968 36.3218 129.274 36.1175 129.516C35.9131 129.759 35.6297 129.924 35.316 129.981C35.0055 130.032 34.6868 129.991 34.4001 129.862C34.1134 129.733 33.8717 129.523 33.7054 129.259C33.6644 129.191 33.6384 129.116 33.629 129.038C33.6195 128.96 33.627 128.881 33.6508 128.806C33.6844 128.734 33.74 128.673 33.8098 128.633C33.8797 128.593 33.9604 128.575 34.0408 128.582C34.2767 128.618 34.4988 128.715 34.6843 128.864C34.9533 129.05 35.187 129.282 35.3745 129.548C35.4507 129.641 35.5077 129.747 35.5422 129.861C35.2728 129.526 34.9563 129.231 34.6024 128.984C34.4358 128.862 34.2417 128.783 34.0369 128.752C33.9929 128.747 33.9483 128.756 33.9101 128.778C33.872 128.801 33.8425 128.835 33.8263 128.876C33.8126 128.926 33.81 128.978 33.8187 129.028C33.8275 129.079 33.8474 129.127 33.877 129.17C34.0271 129.394 34.2394 129.571 34.4883 129.68C34.7373 129.788 35.0124 129.823 35.2809 129.78C35.5458 129.73 35.7856 129.592 35.9612 129.389C36.1368 129.186 36.2379 128.93 36.2481 128.663C36.2448 128.556 36.2049 128.452 36.135 128.37C36.103 128.34 36.0628 128.321 36.0196 128.315C35.9764 128.309 35.9323 128.316 35.8932 128.335C35.7182 128.444 35.582 128.605 35.5032 128.795C35.3263 129.186 35.2194 129.604 35.1873 130.031Z" fill="white"/>
<path d="M9.93855 73.1325C9.98534 72.1471 10.0789 71.0341 10.192 70.2226C11.2344 70.5212 12.2912 70.7676 13.3586 70.9607C15.8346 71.3486 18.3494 71.433 20.8461 71.2119H21.0138C26.1576 70.7829 31.4456 69.3415 36.761 67.7764L37.5409 73.7701L39.4908 102.483L40.9025 131.737H32.1359C32.1359 131.737 29.0395 109.234 28.7977 106.12C28.5325 102.642 24.3325 81.1435 24.3325 81.1435L23.5525 80.9542L24.0205 131.378H14.938C14.938 131.378 10.0126 77.1902 9.93855 75.2657C9.90735 74.5198 9.91515 73.8127 9.93855 73.1325Z" fill="#263238"/>
<path d="M31.0262 18.9121C31.6074 17.3574 32.0498 15.7553 32.3482 14.124C32.6485 12.4858 32.5333 10.7993 32.0129 9.21613C31.9271 8.9804 31.1939 7.3921 30.9404 7.41529C30.761 7.41529 31.2056 8.90697 31.112 9.06155C30.2745 10.5742 29.9196 12.303 30.0942 14.0196C30.2235 15.6799 30.5387 17.3208 31.034 18.9121" fill="#263238"/>
<path d="M24.9815 4.80371H24.5916C22.7094 4.88087 20.9254 5.65717 19.5945 6.97823C18.2635 8.2993 17.483 10.0684 17.4082 11.9336C17.2678 15.5353 17.1548 19.5118 17.26 21.4363C17.4745 25.4167 21.5225 25.8727 21.5225 25.8727L21.542 29.5788L25.5275 31.2753L30.8039 28.6783L31.264 12.5945C31.459 8.44403 29.1777 4.87714 24.9815 4.80371Z" fill="#FFBF9D"/>
<path d="M21.5156 25.8893C23.3721 25.8073 25.1662 25.2013 26.6867 24.1426C26.6867 24.1426 25.5519 27.1878 21.5273 26.9945L21.5156 25.8893Z" fill="#FF9A6C"/>
<path d="M19.4727 15.4898C19.4767 15.6384 19.5395 15.7796 19.6474 15.8829C19.7553 15.9862 19.8998 16.0435 20.0498 16.0424C20.123 16.045 20.196 16.0331 20.2644 16.0073C20.3329 15.9816 20.3955 15.9426 20.4485 15.8925C20.5016 15.8425 20.544 15.7824 20.5733 15.7159C20.6026 15.6494 20.6182 15.5778 20.6192 15.5053C20.6151 15.3566 20.5524 15.2155 20.4445 15.1122C20.3365 15.0089 20.1921 14.9516 20.042 14.9526C19.9687 14.9495 19.8955 14.9611 19.8268 14.9866C19.7581 15.0122 19.6953 15.0512 19.6422 15.1013C19.589 15.1515 19.5466 15.2117 19.5175 15.2785C19.4884 15.3452 19.4731 15.4171 19.4727 15.4898Z" fill="#263238"/>
<path d="M18.3417 13.6763C18.4158 13.7459 18.837 13.4096 19.457 13.3865C20.0771 13.3633 20.5412 13.6492 20.6036 13.572C20.6659 13.4947 20.5568 13.4058 20.354 13.2705C20.0774 13.0999 19.7552 13.0163 19.4297 13.0309C19.1085 13.0428 18.7995 13.1566 18.5484 13.3555C18.3651 13.5063 18.3066 13.6415 18.3417 13.6763Z" fill="#263238"/>
<path d="M24.957 15.4897C24.9611 15.6383 25.0238 15.7794 25.1317 15.8827C25.2396 15.9861 25.3841 16.0433 25.5342 16.0423C25.6074 16.0448 25.6803 16.0329 25.7488 16.0072C25.8173 15.9814 25.8799 15.9424 25.9329 15.8924C25.9859 15.8423 26.0283 15.7823 26.0576 15.7158C26.0869 15.6493 26.1026 15.5777 26.1036 15.5051C26.0995 15.3565 26.0367 15.2153 25.9288 15.112C25.8209 15.0087 25.6764 14.9514 25.5264 14.9525C25.4532 14.9499 25.3802 14.9618 25.3118 14.9876C25.2433 15.0133 25.1807 15.0524 25.1277 15.1024C25.0747 15.1524 25.0322 15.2125 25.0029 15.279C24.9736 15.3455 24.958 15.4171 24.957 15.4897Z" fill="#263238"/>
<path d="M24.4055 13.5587C24.4796 13.6321 24.9008 13.2959 25.517 13.2689C26.1331 13.2418 26.6011 13.5355 26.6869 13.4582C26.7727 13.381 26.6401 13.2921 26.4334 13.1568C26.1593 12.9839 25.8375 12.9001 25.5131 12.9172C25.1921 12.9275 24.8831 13.0399 24.6317 13.238C24.4289 13.4041 24.3665 13.5587 24.4055 13.5587Z" fill="#263238"/>
<path d="M22.3834 18.3649C22.0525 18.2773 21.7119 18.2306 21.3694 18.2258C21.2135 18.2258 21.0614 18.191 21.0302 18.0867C21.0129 17.9259 21.0427 17.7636 21.116 17.6191L21.5332 16.4095C22.1104 14.686 22.5238 13.2754 22.4536 13.2522C22.3834 13.2291 21.8569 14.6087 21.2836 16.3438C21.1485 16.7689 21.0185 17.1747 20.8937 17.5611C20.8037 17.7533 20.7844 17.9707 20.8391 18.1756C20.8636 18.2305 20.9007 18.279 20.9474 18.3172C20.9941 18.3554 21.0491 18.3824 21.1082 18.3958C21.1963 18.416 21.2869 18.4238 21.3773 18.419C21.7136 18.4419 22.0515 18.4237 22.3834 18.3649Z" fill="#263238"/>
<path d="M24.1251 11.6651C24.2148 11.8158 24.8076 11.6264 25.5368 11.5839C26.2661 11.5414 26.8783 11.6226 26.9485 11.4603C26.9758 11.383 26.8471 11.2477 26.5858 11.1318C26.2393 10.9901 25.8637 10.9318 25.49 10.9618C25.1165 10.9838 24.7538 11.0952 24.4332 11.2864C24.1914 11.4371 24.0861 11.5917 24.1251 11.6651Z" fill="#263238"/>
<path d="M18.239 11.8784C18.3716 12.0137 18.8708 11.8591 19.4752 11.8359C20.0797 11.8127 20.5944 11.8977 20.7075 11.7509C20.7582 11.6775 20.6724 11.5422 20.4463 11.4147C20.1327 11.2647 19.786 11.1956 19.4383 11.2138C19.0906 11.232 18.7532 11.337 18.4574 11.519C18.2468 11.6659 18.1805 11.8127 18.239 11.8784Z" fill="#263238"/>
<path d="M31.0664 15.5594C31.1327 15.5285 33.7962 14.6358 33.8196 17.3641C33.843 20.0924 31.0898 19.5552 31.0898 19.4779C31.0898 19.4006 31.0664 15.5594 31.0664 15.5594Z" fill="#FFBF9D"/>
<path d="M31.9019 18.4359C31.9019 18.4359 31.9487 18.4707 32.0306 18.5055C32.1458 18.5511 32.2742 18.5511 32.3894 18.5055C32.5669 18.3933 32.7106 18.2357 32.8054 18.0494C32.9001 17.863 32.9423 17.6547 32.9275 17.4466C32.9317 17.2124 32.8837 16.9802 32.7871 16.7665C32.7604 16.682 32.7135 16.6052 32.6503 16.5426C32.5872 16.4801 32.5097 16.4335 32.4245 16.4071C32.369 16.3926 32.3102 16.3978 32.2582 16.4218C32.2062 16.4458 32.1643 16.4871 32.1398 16.5385C32.1047 16.6157 32.1398 16.6698 32.1086 16.6737C32.0774 16.6776 32.0501 16.6273 32.0696 16.5153C32.0842 16.4484 32.1213 16.3884 32.1749 16.3452C32.2482 16.2887 32.3395 16.2599 32.4323 16.2641C32.5457 16.2849 32.6519 16.3342 32.7407 16.4072C32.8294 16.4803 32.8978 16.5747 32.9392 16.6814C33.0584 16.9216 33.1173 17.1868 33.1108 17.4543C33.1108 18.0031 32.8183 18.5209 32.4245 18.6369C32.3505 18.6588 32.2724 18.6639 32.1961 18.6518C32.1198 18.6398 32.0473 18.6109 31.9838 18.5673C31.9058 18.5016 31.8902 18.4398 31.9019 18.4359Z" fill="#FF9A6C"/>
<path d="M19.1735 7.43145C18.729 7.18799 20.0666 5.75815 21.1585 5.26736C22.812 4.52152 25.339 4.06165 26.8638 4.49447C28.7006 5.00844 30.2293 5.91272 31.1535 7.58603C32.0435 9.27168 32.4648 11.1617 32.3742 13.062C32.3952 13.6416 32.2606 14.2163 31.9842 14.7276C31.5942 15.3304 30.865 15.7091 30.8962 16.5438C30.9067 16.6941 30.8869 16.845 30.838 16.9876C30.7892 17.1302 30.7122 17.2618 30.6115 17.3747C30.1084 17.908 29.4923 17.4095 29.2076 16.9071C28.6031 15.8405 28.5329 14.5652 28.4822 13.3402C28.3961 12.4724 28.4541 11.5964 28.6538 10.7472C28.7864 10.2912 29.0048 9.8622 29.114 9.40233C29.1831 9.17431 29.2011 8.93409 29.1667 8.69846C29.1324 8.46284 29.0465 8.23749 28.9151 8.03818C28.8463 7.95849 28.772 7.8836 28.6928 7.81404C28.3089 7.48257 27.8428 7.25845 27.3424 7.16472C26.8421 7.07099 26.3255 7.11103 25.846 7.28074C24.2861 7.82563 21.6499 8.63717 20.9596 8.11546C20.4664 7.79157 20.0456 7.37065 19.7234 6.87884L19.1735 7.43145Z" fill="#263238"/>
<path d="M24.3251 18.7442C24.2315 18.7442 24.2276 19.3664 23.6855 19.8069C23.1435 20.2475 22.4688 20.1934 22.4649 20.2629C22.461 20.3325 22.6131 20.3866 22.8978 20.3943C23.2675 20.4029 23.6282 20.281 23.9156 20.0504C24.1926 19.8283 24.3716 19.5082 24.4148 19.1577C24.4382 18.8949 24.368 18.7403 24.3251 18.7442Z" fill="#263238"/>
<path d="M8.42002 72.7895C8.47067 73.3679 8.71661 73.9124 9.11809 74.3353C9.56898 74.9763 9.89317 75.6962 10.0735 76.4569C10.0735 76.4569 10.5532 79.3861 10.6585 80.3213C10.7638 81.2565 10.7599 82.1376 10.0033 81.9482C9.24676 81.7589 9.03228 81.1754 8.93479 79.4441L8.50973 78.5166L8.08464 79.2122L7.94036 81.9946C7.94036 81.9946 9.80833 83.8612 9.66404 84.3829C9.51975 84.9046 9.15707 84.8079 9.15707 84.8079L8.8412 85.0939L5.95928 82.9491L4.97266 79.2547L5.41333 74.5246L5.23393 71.5645L8.95428 71.6688L8.42002 72.7895Z" fill="#FFBF9D"/>
<path d="M11.1269 36.2996C11.1269 36.2996 9.4734 36.1759 8.03439 39.0975C6.24831 42.7339 6.08452 56.0663 6.08452 56.0663L5.23828 71.5666L9.3486 74.8823C9.3486 74.8823 11.3219 60.7423 12.1057 58.6709C12.8896 56.5996 12.7882 44.3724 12.7882 44.3724L11.1269 36.2996Z" fill="#FFBF9D"/>
<path d="M38.8039 29.9822C36.5842 28.8797 34.2925 27.9256 31.9443 27.1263L31.2111 25.623L25.6267 30.1908L21.3369 26.7399L20.5063 28.3166L12.4026 31.1647L12.1804 31.2497C10.8566 31.8125 9.81088 32.871 9.27113 34.1944L5.55859 46.3018L11.0494 48.8794L10.9987 52.3999L10.1603 66.9225C10.1603 66.9225 10.2539 67.0384 9.74301 68.3021C9.23215 69.5658 9.03716 74.2263 9.03716 74.2263L9.15415 74.2611C10.1171 74.5606 11.0978 74.8006 12.0907 74.9799L12.3246 75.0263C14.9802 75.4632 17.6812 75.5618 20.362 75.32H20.5375C25.9425 74.8601 31.9638 73.4534 37.5521 71.7801L37.0334 69.1098C36.9476 67.85 36.7526 66.3467 36.7526 66.3467V58.8728L37.751 48.4775L38.8039 29.9822Z" fill="#455A64"/>
<path d="M25.5578 30.1943C25.4162 30.4319 25.2488 30.6535 25.0586 30.8551C24.7311 31.2415 24.2592 31.8057 23.7015 32.4434L23.6235 32.5323L23.5455 32.4434L22.8007 31.6164C22.1519 30.9161 21.5476 30.1765 20.9912 29.4021C20.747 29.0901 20.5463 28.7469 20.3945 28.3818C20.4218 28.3818 20.6675 28.7412 21.116 29.3132C21.5644 29.8851 22.2157 30.6464 22.9606 31.4734L23.7015 32.3081H23.5455C24.1071 31.6821 24.6024 31.1488 24.9611 30.7623C25.1384 30.5519 25.3385 30.3614 25.5578 30.1943Z" fill="#263238"/>
<path d="M31.4199 27.7578C31.1784 28.1121 30.9056 28.4444 30.6048 28.751C30.0823 29.3461 29.3452 30.1576 28.5224 31.0426L27.3524 32.2908L27.2784 32.3681L27.2081 32.2947C26.7509 31.8392 26.3237 31.3552 25.929 30.8455C25.7497 30.6622 25.6161 30.4399 25.5391 30.1963C25.5391 30.1963 25.6951 30.4204 26.007 30.7721C26.319 31.1238 26.787 31.6068 27.3329 32.1556H27.1886L28.3586 30.8919C29.1814 30.0069 29.9185 29.2108 30.4878 28.6428C30.7738 28.3233 31.0855 28.0273 31.4199 27.7578Z" fill="#263238"/>
<path d="M21.8705 72.387C21.8661 72.3511 21.8661 72.3148 21.8705 72.2788V71.962C21.8705 71.6644 21.89 71.2548 21.9056 70.7408C21.9368 69.6781 21.9953 68.1439 22.085 66.2464C22.2566 62.4515 22.5452 57.2152 23.0209 51.4417C23.4967 45.6682 24.0895 40.4473 24.5808 36.6833C24.8343 34.8013 25.0566 33.2826 25.2243 32.2353C25.3101 31.7214 25.3764 31.3195 25.4232 31.0258L25.4817 30.7127C25.4845 30.677 25.4924 30.6419 25.5051 30.6084C25.511 30.6442 25.511 30.6808 25.5051 30.7166C25.5051 30.8016 25.5051 30.906 25.47 31.0335C25.431 31.3272 25.3803 31.733 25.314 32.2469C25.1697 33.2981 24.9708 34.8207 24.7368 36.7026C24.265 40.4705 23.6995 45.6836 23.2198 51.4571C22.7401 57.2306 22.4399 62.4631 22.2215 66.2542C22.1162 68.1361 22.0343 69.6665 21.9719 70.7408C21.9407 71.2586 21.9173 71.6683 21.9017 71.962C21.9017 72.0934 21.9017 72.1977 21.8744 72.2788C21.8774 72.3149 21.8761 72.3513 21.8705 72.387Z" fill="#263238"/>
<path d="M28.2178 41.4189C28.2178 41.4189 28.2178 41.5581 28.2178 41.8054C28.2178 42.0527 28.1749 42.4237 28.1476 42.8604L27.863 46.6128L27.8318 46.5394L30.8228 48.943H30.7098L33.9348 47.1499L34.5237 46.8215L34.4691 46.9065C34.6602 45.0322 34.8591 43.27 35.0034 41.7204L35.0931 41.8247L30.156 41.5619L28.7482 41.473C28.5759 41.4688 28.404 41.4546 28.2334 41.4305C28.3919 41.4209 28.5508 41.4209 28.7092 41.4305L30.1014 41.4692L35.1048 41.6392H35.2062V41.7397C35.0541 43.2855 34.8786 45.0515 34.6953 46.9258V46.9799L34.6446 47.0108L34.0557 47.3354L30.7916 49.1131L30.7332 49.1479L30.6786 49.1054L27.7031 46.6707L27.668 46.6437V46.5973C27.824 45.0515 27.9565 43.7376 28.0579 42.8024C28.1047 42.3735 28.1398 42.0295 28.171 41.7706C28.1757 41.6522 28.1914 41.5345 28.2178 41.4189Z" fill="#263238"/>
<path d="M10.48 36.4082C10.5095 36.5819 10.5251 36.7576 10.5268 36.9338L10.6321 38.3559C10.7179 39.5577 10.8466 41.2195 10.948 43.0551C11.0494 44.8907 11.1001 46.5601 11.0884 47.7697C11.0884 48.3726 11.065 48.8595 11.0377 49.1996C11.0324 49.3747 11.0128 49.5492 10.9792 49.7213C10.9548 49.5472 10.9482 49.3711 10.9597 49.1957C10.9597 48.8595 10.9597 48.3726 10.9597 47.7697C10.9363 46.564 10.87 44.9023 10.7647 43.0667C10.6594 41.231 10.558 39.5693 10.5073 38.3636C10.4761 37.7608 10.4644 37.2738 10.4644 36.9338C10.4508 36.7585 10.456 36.5823 10.48 36.4082Z" fill="#263238"/>
<path d="M38.4277 29.7861C38.4277 29.7861 40.5374 30.6131 41.4968 31.4208C42.6667 32.3946 50.6612 38.4618 50.6612 38.4618L45.1313 47.9491L37.3513 43.7755L38.0767 32.0005L38.4277 29.7861Z" fill="#455A64"/>
<path d="M38.9789 36.7461C38.9792 36.9018 38.9635 37.0572 38.9321 37.2098C38.8814 37.5422 38.8151 37.9634 38.741 38.4658C38.5772 39.5285 38.351 40.997 38.1716 42.6201C37.9923 44.2431 37.8479 45.7116 37.7622 46.7937C37.718 47.3089 37.6829 47.7302 37.6569 48.0574C37.6551 48.2139 37.6341 48.3696 37.5945 48.5211C37.5779 48.367 37.5779 48.2115 37.5945 48.0574C37.5945 47.7559 37.5945 47.3192 37.6374 46.786C37.9791 45.4184 38.0989 44.0056 37.9922 42.6007C38.1872 40.9699 38.4212 39.5092 38.6201 38.4465C38.7176 37.917 38.8034 37.4919 38.8736 37.1982C38.8935 37.0444 38.9288 36.893 38.9789 36.7461Z" fill="#263238"/>
<path d="M48.2969 31.1711C48.5582 31.0242 52.4345 29.5905 52.4345 29.5905L60.5811 29.2891L64.1922 30.062L60.6825 35.8973L55.3671 36.3224L50.7225 34.4095L48.8584 32.2415L48.2969 31.1711Z" fill="#FFBF9D"/>
<path d="M55.1931 3.83279C55.2237 3.60572 55.2995 3.38694 55.4162 3.18918C55.5329 2.99143 55.6882 2.81866 55.8729 2.68092C56.0576 2.54318 56.2681 2.44323 56.4922 2.38688C56.7163 2.33053 56.9494 2.31892 57.1781 2.3527C57.4583 1.85771 57.9204 1.48898 58.4682 1.32338C59.016 1.15779 59.6072 1.20812 60.1185 1.46388C60.5982 1.72666 60.9569 2.15948 61.421 2.43772C61.8851 2.71596 62.3921 2.82417 62.8639 3.05217C63.1085 3.145 63.3261 3.29621 63.4975 3.49238C63.669 3.68855 63.7889 3.92362 63.8466 4.17673C63.8506 4.46561 63.7622 4.74834 63.5941 4.98437C63.426 5.2204 63.1867 5.39763 62.9107 5.49064C62.3544 5.66617 61.7661 5.71893 61.187 5.64522C61.3075 5.72968 61.3925 5.85518 61.4256 5.99774C61.4586 6.14031 61.4376 6.28995 61.3664 6.41811C61.2184 6.67156 60.9808 6.86159 60.6995 6.95141C60.243 7.12773 59.7459 7.17485 59.2639 7.0875C58.7819 7.00016 58.3338 6.78179 57.9697 6.45676L56.8817 5.62976C56.6512 5.62331 56.4243 5.57152 56.2142 5.47739C56.0041 5.38326 55.815 5.24867 55.6579 5.08146C55.5008 4.91424 55.3788 4.71774 55.299 4.50337C55.2192 4.28901 55.1832 4.06106 55.1931 3.83279Z" fill="#263238"/>
<path d="M57.9062 7.43684C58.0127 7.53352 58.1518 7.58715 58.2962 7.58715C58.4406 7.58715 58.5798 7.53352 58.6862 7.43684C58.7844 7.33649 58.8534 7.2116 58.8856 7.0755C58.9179 6.93939 58.9123 6.79716 58.8695 6.66395C58.7777 6.39651 58.5942 6.16948 58.3508 6.02245C58.1087 5.87615 57.8458 5.76672 57.5709 5.69783C57.1544 5.56673 56.7237 5.48501 56.2878 5.45437C56.1333 5.4388 55.9772 5.45863 55.8316 5.51234C55.7594 5.53892 55.6957 5.58409 55.6471 5.64319C55.5984 5.70228 55.5665 5.77317 55.5547 5.84855C55.5547 6.06496 55.7263 6.23499 55.9018 6.36252C56.5546 6.83868 57.2489 7.2564 57.9764 7.61074" fill="#01A5A3"/>
<path d="M58.5637 7.32182C59.5933 6.16248 62.1593 6.33638 62.7715 7.07449C63.2243 6.8579 63.7441 6.82302 64.2222 6.97712C64.7004 7.13121 65.1 7.46239 65.3376 7.90149L68.0674 8.47343C68.542 8.53292 68.9939 8.70966 69.3816 8.9874C69.5691 9.13281 69.6967 9.34094 69.7404 9.57283C69.7842 9.80472 69.7412 10.0445 69.6195 10.2472C69.8481 10.3255 70.0539 10.458 70.2189 10.6331C70.3839 10.8083 70.5032 11.0209 70.5663 11.2522C70.6293 11.4836 70.6343 11.7267 70.5808 11.9604C70.5272 12.1941 70.4168 12.4113 70.259 12.5929C70.352 12.6974 70.4224 12.8196 70.4658 12.9521C70.5093 13.0845 70.5249 13.2244 70.5118 13.3631C70.4986 13.5017 70.4569 13.6362 70.3893 13.7583C70.3217 13.8805 70.2296 13.9875 70.1187 14.073C70.8778 14.9655 71.4778 15.9796 71.893 17.0718C72.1109 17.5135 72.1634 18.0175 72.0412 18.494C71.8735 18.95 71.2613 19.2669 70.8713 18.9886C71.0071 19.1744 71.0856 19.3952 71.0974 19.6243C71.1091 19.8533 71.0536 20.0809 70.9376 20.2793C71.4017 20.2793 71.5421 20.9943 71.2262 21.3305C71.0483 21.4753 70.8423 21.5823 70.6209 21.6448C70.3995 21.7073 70.1674 21.724 69.9393 21.6937C69.4782 21.632 69.0093 21.7144 68.5978 21.9295C68.6022 21.9858 68.6183 22.0407 68.6451 22.0906C68.672 22.1404 68.709 22.1843 68.7538 22.2193C69.1357 22.5117 69.3914 22.937 69.4688 23.4091C69.5463 23.8812 69.4399 24.3649 69.171 24.7621L69.0189 24.9708C68.6426 25.3705 68.189 25.6911 67.6852 25.9137C66.6479 26.4586 66.0278 26.362 64.8618 26.5359C65.1855 27.2779 63.3019 28.9396 61.1298 27.3358C57.2701 28.4611 53.2665 29.0273 49.2433 29.0169C48.6038 29.0169 47.8355 28.9435 47.5508 28.3792C47.2874 28.4305 47.0151 28.4148 46.7594 28.3338C46.5037 28.2527 46.2729 28.1088 46.0884 27.9155C45.7261 27.5241 45.4334 27.0746 45.2227 26.5861C44.6708 26.4305 44.181 26.1098 43.8201 25.6678C43.4592 25.2258 43.2449 24.6841 43.2065 24.1168C42.8305 23.8273 42.5194 23.4634 42.2931 23.0482C42.0668 22.633 41.9303 22.1757 41.8923 21.7053C41.631 21.6138 41.3916 21.4697 41.1891 21.2822C40.9866 21.0947 40.8254 20.8677 40.7156 20.6156C40.6057 20.3634 40.5496 20.0915 40.5508 19.8168C40.552 19.5422 40.6104 19.2708 40.7224 19.0195C40.9453 17.7105 41.384 16.4467 42.021 15.2787C41.2918 15.128 41.0071 14.1542 41.3034 13.4702C41.5998 12.7862 42.2628 12.3495 42.8906 11.9476C42.3447 12.0944 41.865 11.4181 41.9898 10.8694C42.1809 10.335 42.5777 9.89737 43.0934 9.65209C43.8014 9.2233 44.5597 8.88198 45.3514 8.63574C45.6049 7.67735 46.8255 6.58371 47.7263 6.15475C51.3492 4.42734 53.8918 3.9752 58.5481 7.31409" fill="#263238"/>
<path d="M59.426 11.2681L53.0382 9.17358C50.5463 8.78713 48.7485 11.7782 48.4716 14.2592C48.1674 17.0184 47.91 20.396 48.1479 22.475C48.2696 23.6589 48.7262 24.7846 49.4651 25.7226C50.204 26.6606 51.1952 27.3727 52.3245 27.7771L52.2309 30.3122C52.5507 32.2444 54.6371 32.2946 54.6371 32.2946C60.3541 32.4222 60.7363 29.2262 60.7363 29.2262L60.7246 13.5559C60.7753 12.783 60.1825 11.3802 59.426 11.2681Z" fill="#FFBF9D"/>
<path d="M52.5124 20.5662C52.2113 20.4598 51.8984 20.3898 51.5804 20.3575C51.4361 20.3575 51.2957 20.2995 51.2762 20.199C51.2698 20.0475 51.3107 19.8978 51.3932 19.7701C51.5492 19.4223 51.713 19.059 51.8807 18.6765C52.5592 17.1307 53.0506 15.8361 52.996 15.809C52.9414 15.782 52.3214 17.0341 51.6506 18.5798L51.1826 19.6812C51.083 19.8545 51.0458 20.0562 51.0773 20.2532C51.096 20.306 51.1269 20.3538 51.1675 20.3927C51.2082 20.4316 51.2574 20.4606 51.3113 20.4773C51.392 20.5041 51.476 20.5197 51.5609 20.5237C51.8747 20.58 52.1948 20.5943 52.5124 20.5662Z" fill="#263238"/>
<path d="M52.3242 27.7807C54.1354 27.5634 55.8851 26.992 57.4718 26.0996C57.4718 26.0996 56.5008 28.7197 52.2891 29.0366L52.3242 27.7807Z" fill="#EB996E"/>
<path d="M54.9831 14.1879C55.0338 14.3463 55.611 14.2999 56.2856 14.4082C56.9603 14.5164 57.5024 14.7289 57.5959 14.5936C57.6388 14.5279 57.553 14.3772 57.3386 14.2072C57.052 14.0088 56.7236 13.8778 56.3783 13.8243C56.0329 13.7707 55.6798 13.7959 55.3458 13.898C55.0923 13.9947 54.9597 14.1145 54.9831 14.1879Z" fill="#263238"/>
<path d="M49.4212 14.0928C49.5187 14.2242 49.9243 14.0928 50.404 14.1237C50.8836 14.1546 51.2814 14.2512 51.3828 14.1237C51.4257 14.058 51.3828 13.9266 51.1956 13.7952C50.9677 13.6342 50.6955 13.5465 50.4156 13.544C50.1385 13.5412 49.8669 13.6206 49.6357 13.772C49.4446 13.8957 49.3822 14.0271 49.4212 14.0928Z" fill="#263238"/>
<path d="M46.5836 16.2624C46.6003 15.6058 46.8455 14.975 47.2778 14.477C47.5509 14.2423 47.8113 13.9933 48.0577 13.7312C48.5296 13.1206 48.4477 12.2666 48.6622 11.5207C48.7954 11.0416 49.0417 10.6008 49.3807 10.2346C49.7197 9.86836 50.1418 9.5873 50.612 9.41458C51.392 9.13634 52.2889 9.17499 53.026 8.78854C53.572 8.50257 53.9853 8.01565 54.5469 7.749C55.6388 7.25435 56.8867 7.81084 57.9397 8.42142C58.1424 9.23296 57.6238 9.93629 57.1246 10.6126C56.8704 10.9481 56.5462 11.2254 56.174 11.4254C55.8018 11.6255 55.3905 11.7437 54.9681 11.7719C54.3129 11.8105 53.5485 11.6637 53.0884 12.1236C52.6282 12.5834 52.792 13.4684 52.3942 14.0249C51.8249 14.8248 50.5341 14.5195 49.6644 15.0103C49.0093 15.3968 48.7324 16.1697 48.4009 16.8498C48.0694 17.5299 47.5001 18.2371 46.7396 18.1985C46.6124 17.5613 46.5601 16.9116 46.5836 16.2624Z" fill="#263238"/>
<path d="M56.3203 9.89707C58.2376 9.86932 60.1421 10.2105 61.9281 10.9018C62.4787 11.0652 62.9632 11.3965 63.3126 11.8486C63.5452 12.2907 63.6453 12.7895 63.6011 13.2862C63.6011 14.832 62.9499 16.7642 62.3493 18.1825L60.3995 19.3418C58.8903 18.9901 59.5844 16.4087 59.6585 15.1141C59.133 14.8752 58.6857 14.495 58.3672 14.0169C58.0488 13.5387 57.8719 12.9817 57.8568 12.409C57.4264 12.1319 57.0646 11.7622 56.7986 11.3272C56.5325 10.8923 56.369 10.4034 56.3203 9.89707Z" fill="#263238"/>
<path d="M60.4209 18.7791C60.4794 17.8902 61.5908 17.7163 62.3708 18.1762C62.7959 18.4274 63.1117 18.9259 63.0571 19.8688C62.909 22.3885 60.3897 21.7199 60.3897 21.6465C60.3897 21.5731 60.3507 19.8186 60.4209 18.7791Z" fill="#FFBF9D"/>
<path d="M61.2012 20.7425C61.2012 20.7425 61.2441 20.7773 61.3182 20.816C61.4218 20.8651 61.5402 20.8734 61.6497 20.8392C61.8192 20.7454 61.9605 20.6086 62.0592 20.443C62.1579 20.2773 62.2103 20.0886 62.2113 19.8962C62.23 19.6813 62.2007 19.4649 62.1255 19.2625C62.1065 19.1826 62.0681 19.1085 62.0138 19.0465C61.9594 18.9846 61.8907 18.9367 61.8135 18.9069C61.7634 18.8905 61.7091 18.8919 61.66 18.911C61.6108 18.93 61.5699 18.9655 61.5444 19.0113C61.5054 19.0808 61.521 19.1311 61.5054 19.1349C61.4898 19.1388 61.4547 19.0886 61.4781 18.9842C61.4981 18.9241 61.5362 18.8715 61.5873 18.8335C61.6606 18.7849 61.7503 18.7668 61.8369 18.7833C61.9401 18.81 62.0347 18.8624 62.1118 18.9354C62.1889 19.0084 62.2459 19.0997 62.2776 19.2006C62.3722 19.4252 62.411 19.6691 62.3907 19.9117C62.3878 20.1362 62.3192 20.355 62.1932 20.5416C62.0672 20.7282 61.8892 20.8745 61.6809 20.9628C61.613 20.9767 61.5429 20.9756 61.4755 20.9595C61.4081 20.9435 61.3451 20.913 61.2909 20.8701C61.2051 20.8044 61.1934 20.7464 61.2012 20.7425Z" fill="#EB996E"/>
<path d="M61.4838 21.7992C61.4838 21.7992 61.4838 21.7992 61.4838 21.8339C61.4898 21.8674 61.5003 21.8999 61.515 21.9306C61.5807 22.0481 61.6854 22.1396 61.8114 22.1895C62.0092 22.2759 62.223 22.3207 62.4392 22.3209C62.5698 22.3239 62.7003 22.3148 62.8292 22.2938C62.9845 22.2726 63.1357 22.2283 63.2777 22.1624H63.2465C63.2807 22.3758 63.3702 22.5766 63.5063 22.7454C63.6423 22.9142 63.8202 23.0451 64.0226 23.1253C64.225 23.2056 64.445 23.2324 64.661 23.2031C64.8769 23.1739 65.0816 23.0896 65.2548 22.9585H65.2119C65.2902 23.0727 65.4107 23.1519 65.5473 23.1788C65.6777 23.2035 65.8125 23.1928 65.9373 23.1479C66.0738 23.0966 66.1901 23.0031 66.2688 22.8812C66.3463 22.7564 66.3906 22.6141 66.3975 22.4677C66.4091 22.1638 66.3125 21.8656 66.1245 21.6253C65.9286 21.3835 65.7033 21.1668 65.4537 20.9799V21.0379C65.5568 20.9709 65.6447 20.8834 65.7118 20.7809C65.779 20.6785 65.8239 20.5633 65.8437 20.4427C65.8945 20.1927 65.8701 19.9333 65.7735 19.6969C65.6669 19.4621 65.516 19.2496 65.3289 19.0709C65.1405 18.8889 64.9398 18.7198 64.7284 18.5646V18.6226C64.8196 18.5251 64.8889 18.4097 64.9319 18.2838C64.975 18.158 64.9906 18.0245 64.978 17.8922C64.9602 17.6199 64.8611 17.3589 64.6933 17.1425C64.3493 16.7688 63.9257 16.4757 63.4531 16.2846L63.4765 16.331C63.5417 16.0685 63.542 15.7944 63.4772 15.5319C63.4125 15.2693 63.2846 15.0262 63.1046 14.8232C62.9246 14.6202 62.6978 14.4632 62.4434 14.3658C62.1891 14.2683 61.9147 14.2332 61.6437 14.2635L61.6827 14.306C61.7244 14.0894 61.7151 13.8662 61.6556 13.6537C61.5961 13.4412 61.4879 13.2452 61.3395 13.081C61.2096 12.9222 61.0464 12.7933 60.8612 12.7032C60.676 12.6131 60.4733 12.564 60.2671 12.5592L60.2983 12.5902C60.293 12.3761 60.2387 12.166 60.1394 11.9759C60.0401 11.7857 59.8983 11.6205 59.725 11.4927C59.5774 11.3752 59.4073 11.2886 59.225 11.2381C59.0427 11.1876 58.8519 11.1743 58.6643 11.199L58.6916 11.226C58.6795 10.9969 58.6083 10.7747 58.4849 10.5806C58.3829 10.4049 58.251 10.248 58.0949 10.1169C57.8565 9.89573 57.5505 9.75973 57.2253 9.73047H57.1278H57.0381C56.9835 9.73047 56.9289 9.73047 56.8782 9.73047C56.7958 9.74716 56.715 9.77042 56.6364 9.80003L56.496 9.86186H56.4492C56.4492 9.86186 56.4492 9.86186 56.496 9.86186L56.6403 9.80776C56.7195 9.78305 56.8003 9.76368 56.8821 9.74979C56.9353 9.74541 56.9888 9.74541 57.042 9.74979H57.1278H57.2214C57.5393 9.78058 57.8374 9.91673 58.0676 10.1362C58.223 10.2634 58.355 10.4164 58.4576 10.5884C58.575 10.7773 58.6421 10.9927 58.6526 11.2144V11.2376H58.6838C58.8764 11.2173 59.0711 11.2366 59.2559 11.2941C59.4407 11.3516 59.6116 11.4462 59.7579 11.572C59.9042 11.6978 60.0229 11.8521 60.1064 12.0252C60.19 12.1984 60.2367 12.3867 60.2437 12.5786V12.6095H60.2749C60.472 12.6155 60.6655 12.6638 60.8419 12.7512C61.0183 12.8387 61.1735 12.963 61.2966 13.1157C61.4361 13.2718 61.5378 13.4573 61.5939 13.6583C61.65 13.8592 61.659 14.0702 61.6203 14.2751V14.3253H61.671C61.9301 14.2966 62.1925 14.3304 62.4357 14.4238C62.6789 14.5172 62.8957 14.6674 63.0676 14.8617C63.2396 15.056 63.3616 15.2886 63.4233 15.5397C63.485 15.7909 63.4845 16.053 63.422 16.3039V16.331H63.4493C63.9104 16.5174 64.3236 16.804 64.6582 17.1696C64.8184 17.3715 64.9135 17.6166 64.9312 17.8729C64.943 17.9947 64.9286 18.1176 64.8889 18.2335C64.8492 18.3494 64.7852 18.4557 64.7011 18.5453L64.6699 18.5762L64.705 18.6033C65.136 18.8766 65.4881 19.2561 65.7267 19.7046C65.8195 19.9258 65.8439 20.1692 65.7969 20.4041C65.7749 20.5178 65.7288 20.6255 65.6615 20.7201C65.5943 20.8147 65.5075 20.894 65.4069 20.9529L65.364 20.9799L65.403 21.0108C65.6495 21.1928 65.8711 21.4059 66.0621 21.6446C66.256 21.8668 66.3626 22.1508 66.3624 22.4445C66.3629 22.578 66.3236 22.7087 66.2494 22.8202C66.1751 22.9316 66.0692 23.0187 65.9451 23.0706C65.831 23.1214 65.7031 23.133 65.5816 23.1036C65.46 23.0742 65.3519 23.0055 65.2743 22.9083V22.8812H65.247C65.0658 23.0162 64.8503 23.0989 64.6245 23.12C64.3988 23.1412 64.1715 23.1 63.9679 23.001C63.7984 22.914 63.6513 22.7897 63.5378 22.6376C63.4242 22.4856 63.3472 22.3098 63.3128 22.1238V22.0967H63.2894C63.1531 22.1639 63.007 22.2095 62.8565 22.232C62.7275 22.2526 62.5971 22.2629 62.4665 22.2629C62.2537 22.266 62.0425 22.2252 61.8465 22.1431C61.7228 22.097 61.6193 22.0095 61.554 21.8958C61.4955 21.8455 61.4877 21.7992 61.4838 21.7992Z" fill="#455A64"/>
<path d="M71.164 19.1118C71.2004 19.0636 71.2318 19.0118 71.2575 18.9572C71.3373 18.8022 71.3838 18.6325 71.3941 18.4587C71.4108 18.1858 71.3383 17.9147 71.1874 17.6858C71.0831 17.5311 70.9474 17.3996 70.7889 17.2998C70.6304 17.2 70.4527 17.134 70.267 17.1062V17.1371C70.3527 16.7084 70.2704 16.2635 70.0369 15.8927C69.9133 15.6843 69.7441 15.506 69.5417 15.371C69.3216 15.2405 69.0891 15.1317 68.8475 15.0464C68.7289 14.9952 68.6175 14.9289 68.516 14.8493C68.4156 14.765 68.3356 14.6593 68.282 14.5402C68.1689 14.2967 68.1338 14.0107 67.9896 13.7673C67.8368 13.4991 67.6067 13.2823 67.3288 13.1446C67.0509 13.0069 66.7378 12.9546 66.4297 12.9944L66.4726 13.0369C66.5165 12.731 66.489 12.4193 66.3921 12.1256C66.2952 11.832 66.1316 11.5643 65.9138 11.3432C65.696 11.1222 65.4299 10.9536 65.1359 10.8506C64.842 10.7476 64.5281 10.7129 64.2185 10.7491L64.2614 10.7916C64.2973 10.4558 64.2358 10.1167 64.0839 9.81437C63.9321 9.512 63.6963 9.25887 63.4042 9.08474C63.1122 8.91062 62.7761 8.82273 62.4354 8.83142C62.0946 8.84011 61.7635 8.94502 61.4809 9.1338H61.5238C61.2682 8.89561 60.9654 8.71268 60.6346 8.59664C60.3418 8.4903 60.0364 8.42147 59.726 8.39182C59.221 8.33366 58.7094 8.36772 58.2168 8.4923C57.8993 8.57051 57.5974 8.70115 57.3238 8.87874C57.2518 8.92329 57.1827 8.97234 57.1171 9.02559C57.093 9.04258 57.0708 9.062 57.0508 9.08356C57.0508 9.08356 57.1444 9.01013 57.3316 8.8942C57.6098 8.73409 57.9109 8.61682 58.2246 8.5464C58.7136 8.43158 59.2192 8.4028 59.7182 8.46138C60.0252 8.49344 60.3267 8.56489 60.6152 8.67393C60.9377 8.78472 61.2318 8.9641 61.477 9.19949L61.4965 9.21882H61.5199C61.7913 9.03787 62.1092 8.93757 62.4362 8.92972C62.7632 8.92188 63.0857 9.00683 63.3656 9.17456C63.6455 9.34228 63.8712 9.5858 64.0161 9.87641C64.161 10.167 64.219 10.4926 64.1834 10.8148V10.8612H64.2302C64.5285 10.8241 64.8315 10.8558 65.1154 10.9539C65.3992 11.052 65.6564 11.2138 65.8667 11.4267C66.077 11.6396 66.2348 11.8978 66.3277 12.1812C66.4207 12.4645 66.4462 12.7653 66.4024 13.0601V13.1103H66.4531C66.7428 13.0733 67.037 13.1222 67.2987 13.2509C67.5603 13.3795 67.7777 13.582 67.9233 13.833C68.0598 14.0764 68.0949 14.3585 68.2158 14.6059C68.2726 14.7339 68.3579 14.8475 68.4653 14.9382C68.5717 15.023 68.6899 15.092 68.8163 15.143C69.0544 15.2276 69.2842 15.3337 69.5027 15.4599C69.697 15.5915 69.8605 15.7628 69.9823 15.9623C70.2101 16.3195 70.2923 16.7491 70.2124 17.1641V17.1912H70.2631C70.4426 17.2166 70.6147 17.2789 70.7685 17.3741C70.9223 17.4693 71.0543 17.5952 71.1561 17.7438C71.3131 17.9703 71.3886 18.2425 71.3707 18.5167C71.3614 18.6875 71.3204 18.8552 71.2498 19.0114C71.1952 19.0577 71.1601 19.108 71.164 19.1118Z" fill="#455A64"/>
<path d="M46.8657 19.7904C46.8808 19.7576 46.8886 19.7221 46.8886 19.6861C46.8886 19.6501 46.8808 19.6145 46.8657 19.5817C46.833 19.5009 46.7807 19.4292 46.7136 19.373C46.6222 19.2996 46.5158 19.2468 46.4016 19.2185C46.2643 19.1817 46.133 19.1257 46.0117 19.0523C45.8779 18.9566 45.7782 18.8213 45.727 18.6658C45.6698 18.4795 45.6486 18.2842 45.6646 18.09C45.6646 17.8814 45.7036 17.6611 45.7036 17.4253C45.6542 16.919 45.5469 16.4199 45.3838 15.9375C45.3154 15.6671 45.3035 15.3857 45.3487 15.1105C45.3702 14.9665 45.4223 14.8286 45.5017 14.706C45.581 14.5834 45.6857 14.4789 45.8089 14.3995C46.0919 14.2647 46.3905 14.1648 46.698 14.1019C46.8608 14.0581 47.015 13.9876 47.1543 13.8932C47.2914 13.7926 47.4013 13.6598 47.4741 13.5068C47.5987 13.186 47.6889 12.8531 47.7432 12.5136C47.7769 12.3473 47.8361 12.187 47.9186 12.0383C48.0083 11.8899 48.1456 11.7756 48.3086 11.7137C48.5384 11.6497 48.7758 11.6172 49.0145 11.6171C49.1371 11.6081 49.2572 11.578 49.3693 11.5282C49.4827 11.4762 49.5798 11.3948 49.6501 11.2925C49.7679 11.0917 49.8571 10.8759 49.9153 10.651C50.0096 10.3446 50.1975 10.0748 50.4532 9.8789C50.7089 9.68299 51.0197 9.57061 51.3426 9.55731C51.7375 9.54821 52.1216 9.68609 52.4189 9.94376L52.454 9.97468L52.4735 9.93603C52.617 9.62623 52.826 9.35062 53.0864 9.12792C53.3468 8.90521 53.6525 8.74062 53.9827 8.6453C54.2574 8.56676 54.5448 8.54183 54.829 8.57188C55.0715 8.59439 55.3079 8.65984 55.5271 8.7651C55.8366 8.91369 56.0955 9.14877 56.2719 9.44138C56.3193 9.51681 56.361 9.5956 56.3967 9.67712L56.4279 9.73894C56.4272 9.73123 56.4272 9.72347 56.4279 9.71576L56.4006 9.65392C56.3711 9.5686 56.3319 9.48692 56.2836 9.41047C56.1113 9.11026 55.8536 8.86699 55.5426 8.711C55.3206 8.60054 55.0801 8.53113 54.8329 8.50618C54.5415 8.47136 54.246 8.49369 53.9632 8.57188C53.6235 8.66756 53.3085 8.83437 53.0394 9.06104C52.7703 9.2877 52.5534 9.56895 52.4034 9.88579H52.458C52.1477 9.6135 51.7452 9.46722 51.3309 9.47616C50.9933 9.48889 50.6681 9.6055 50.4004 9.8098C50.1327 10.0141 49.9359 10.2959 49.8373 10.6162C49.7857 10.8335 49.7044 11.0428 49.5955 11.2384C49.5269 11.3278 49.4385 11.4004 49.3371 11.4507C49.2356 11.5009 49.124 11.5275 49.0106 11.5282C48.7668 11.532 48.5245 11.5658 48.2891 11.6287C48.1151 11.7 47.9698 11.8264 47.8758 11.9881C47.7884 12.1436 47.7265 12.3118 47.6925 12.4866C47.6382 12.819 47.5507 13.1452 47.4312 13.4604C47.3686 13.6129 47.2663 13.7463 47.1348 13.8469C47.0026 13.9369 46.8563 14.0047 46.7019 14.0478C46.3867 14.1111 46.0812 14.215 45.7933 14.357C45.6572 14.4377 45.5433 14.5506 45.4618 14.6855C45.3848 14.8169 45.332 14.9608 45.3058 15.1105C45.2584 15.3946 45.2703 15.6853 45.3409 15.9646C45.5084 16.4424 45.6196 16.9377 45.6724 17.4408C45.6724 17.6727 45.6451 17.8891 45.6373 18.1016C45.6218 18.3014 45.6457 18.5022 45.7075 18.6929C45.763 18.8619 45.8708 19.0092 46.0156 19.1141C46.1426 19.1893 46.2808 19.244 46.425 19.2764C46.5365 19.3048 46.6412 19.3547 46.7331 19.4233C46.799 19.4751 46.85 19.543 46.8813 19.6204C46.893 19.6773 46.8876 19.7364 46.8657 19.7904Z" fill="#455A64"/>
<path d="M41.9347 15.8777L41.9581 15.8314C41.9789 15.7953 42.0023 15.7489 42.0283 15.6922C42.0907 15.5609 42.1804 15.3792 42.2896 15.1474C42.3988 14.9155 42.5352 14.6141 42.7185 14.2894C42.9123 13.9161 43.2066 13.6031 43.5687 13.3852C43.7754 13.277 44.0132 13.2035 44.2511 13.0992C44.3747 13.0465 44.4912 12.979 44.5982 12.8982C44.711 12.8114 44.8007 12.6987 44.8595 12.5698C44.9804 12.307 44.9843 12.0133 45.0779 11.7428C45.1214 11.6055 45.2074 11.4852 45.3236 11.3988C45.4489 11.3143 45.5872 11.2504 45.733 11.2095C45.8878 11.1675 46.038 11.1105 46.1815 11.0394C46.332 10.96 46.4535 10.8356 46.5286 10.6839C46.6459 10.3693 46.7193 10.0404 46.747 9.70619C46.7703 9.54308 46.8274 9.38651 46.9147 9.24632C47.005 9.11155 47.145 9.01721 47.3046 8.98354C47.64 8.91398 47.9988 9.02992 48.3693 8.98354C48.5564 8.95054 48.7284 8.85995 48.8606 8.72462C48.983 8.59337 49.089 8.44806 49.1765 8.2918C49.2609 8.14189 49.3547 7.99734 49.4573 7.85898C49.5569 7.72116 49.6914 7.61185 49.8473 7.5421C50.1581 7.4358 50.4958 7.4358 50.8066 7.5421C51.1189 7.63992 51.4493 7.66764 51.7738 7.62325C52.0748 7.54655 52.359 7.41555 52.6122 7.23681C52.8484 7.07752 53.0991 6.94039 53.3609 6.82717C53.8473 6.6661 54.3707 6.64998 54.8663 6.7808C55.2782 6.88311 55.661 7.07742 55.9855 7.34887C56.2252 7.5588 56.4328 7.80225 56.6016 8.07153C56.7041 8.24417 56.7915 8.42517 56.8629 8.61255L56.9253 8.7594C56.9307 8.77654 56.9372 8.79332 56.9448 8.80964C56.9448 8.80964 56.9448 8.79032 56.9448 8.7594C56.9448 8.72849 56.9175 8.67052 56.8941 8.60869C56.7246 8.11071 56.4261 7.6656 56.0284 7.31796C55.7012 7.03889 55.3146 6.83676 54.8974 6.7267C54.3849 6.58575 53.8415 6.60056 53.3375 6.7692C53.0639 6.88003 52.8025 7.01861 52.5576 7.1827C52.3095 7.35799 52.0323 7.48878 51.7386 7.56915C51.4254 7.60753 51.1075 7.57853 50.8066 7.48413C50.6444 7.44044 50.4787 7.4107 50.3114 7.39525C50.1343 7.37494 49.9549 7.40353 49.7932 7.47786C49.6315 7.5522 49.4936 7.66938 49.3949 7.81647C49.2914 7.95769 49.1964 8.10479 49.1102 8.25702C49.0259 8.40762 48.9238 8.54773 48.806 8.67438C48.6862 8.79893 48.5288 8.88164 48.3576 8.91012C48.0105 8.96808 47.6517 8.85215 47.2891 8.91012C47.1068 8.94673 46.946 9.05203 46.8406 9.20381C46.7456 9.354 46.6844 9.52272 46.6612 9.69846C46.6338 10.0245 46.563 10.3454 46.4506 10.653C46.3808 10.7913 46.2708 10.9058 46.1347 10.9815C45.994 11.0488 45.8479 11.1044 45.6979 11.1476C45.5446 11.1885 45.3995 11.2551 45.269 11.3447C45.1439 11.4447 45.0516 11.5792 45.0038 11.7312C44.9024 12.0171 44.9024 12.3108 44.7893 12.5543C44.6683 12.7868 44.4638 12.9661 44.216 13.0567C43.9821 13.161 43.7442 13.2344 43.5336 13.3504C43.1618 13.5722 42.8626 13.8955 42.6717 14.2817C42.4885 14.6102 42.3637 14.9078 42.2506 15.1435L42.0049 15.6961L41.9386 15.8391C41.9386 15.8777 41.9308 15.8777 41.9347 15.8777Z" fill="#455A64"/>
<path d="M44.6349 13.2571H44.5881C44.5411 13.2552 44.4943 13.2645 44.4517 13.2841C44.3759 13.3326 44.3135 13.3989 44.27 13.4771C44.2264 13.5554 44.2031 13.6431 44.2021 13.7324C44.199 13.8633 44.2174 13.9938 44.2567 14.1188C44.2979 14.2608 44.3189 14.4078 44.3191 14.5555C44.3025 14.7233 44.2406 14.8835 44.1397 15.0193C44.0422 15.1738 43.9174 15.3207 43.816 15.5023C43.7566 15.5959 43.72 15.7019 43.7092 15.8119C43.6984 15.9219 43.7136 16.0329 43.7536 16.1361C43.8316 16.3486 43.9915 16.5225 44.0656 16.7467C44.135 16.9783 44.1112 17.2276 43.9993 17.4423C43.8979 17.6703 43.7575 17.8944 43.66 18.1495C43.607 18.2797 43.5793 18.4187 43.5781 18.5591C43.5793 18.7036 43.6126 18.8461 43.6756 18.9765C43.8141 19.2291 43.976 19.4684 44.1592 19.6914C44.3456 19.9157 44.4403 20.2012 44.4244 20.4913C44.3574 20.7857 44.2552 21.0711 44.1202 21.3415C44.0588 21.4874 44.0257 21.6434 44.0227 21.8014C44.0281 21.9592 44.0694 22.1138 44.1436 22.2535C44.2973 22.5118 44.4804 22.7517 44.6895 22.9685C44.8853 23.1728 45.0366 23.4149 45.1341 23.6795C45.2031 23.9433 45.2917 24.2016 45.3993 24.4524C45.4592 24.5763 45.5473 24.6848 45.6567 24.7693C45.7649 24.8478 45.8864 24.9067 46.0155 24.9432C46.1349 24.9774 46.252 25.0187 46.3664 25.0668C46.4733 25.1198 46.5729 25.186 46.6628 25.2639C46.8239 25.4256 46.9629 25.6075 47.0762 25.805C47.1932 25.9905 47.3024 26.1914 47.4233 26.3421C47.6404 26.6462 47.9509 26.8726 48.3085 26.9875C48.5761 27.0746 48.8599 27.101 49.1392 27.0648C49.315 27.0431 49.4862 26.9935 49.6461 26.9179C49.7514 26.8638 49.806 26.829 49.806 26.829C49.5961 26.9362 49.3693 27.0068 49.1353 27.0377C48.8613 27.068 48.5839 27.0363 48.3241 26.945C47.9762 26.8317 47.675 26.6092 47.4662 26.3112C47.3492 26.145 47.2439 25.9634 47.1269 25.774C47.0131 25.5702 46.8713 25.3829 46.7057 25.2176C46.6136 25.1338 46.5099 25.0635 46.3976 25.0089C46.2806 24.9548 46.1559 24.92 46.035 24.8775C45.9145 24.8432 45.8009 24.7883 45.6996 24.7152C45.5979 24.6373 45.5164 24.5367 45.4617 24.4215C45.3603 24.1692 45.2744 23.9111 45.2043 23.6486C45.1042 23.3745 44.949 23.1234 44.748 22.9105C44.5426 22.6996 44.3621 22.4662 44.2099 22.2149C44.1428 22.0841 44.1055 21.9403 44.1007 21.7937C44.1056 21.6441 44.136 21.4965 44.1904 21.357C44.33 21.0823 44.4348 20.7915 44.5024 20.4913C44.5191 20.3366 44.4977 20.1801 44.44 20.0353C44.3823 19.8986 44.3091 19.769 44.2216 19.6489C44.0414 19.4286 43.8809 19.1933 43.7419 18.9455C43.6838 18.8248 43.6532 18.6929 43.6522 18.5591C43.6515 18.4268 43.6767 18.2955 43.7263 18.1727C43.8199 17.9253 43.9603 17.7051 44.0617 17.4655C44.1779 17.2368 44.2016 16.9728 44.128 16.7273C44.0422 16.4955 43.8862 16.3177 43.8082 16.1168C43.7711 16.0213 43.7567 15.9186 43.7661 15.8167C43.7756 15.7148 43.8087 15.6165 43.8628 15.5294C43.9603 15.3516 44.0851 15.2009 44.1826 15.0463C44.2845 14.9024 44.3464 14.7345 44.362 14.5594C44.3605 14.4074 44.3368 14.2564 44.2918 14.1111C44.2536 13.9923 44.2326 13.8687 44.2294 13.744C44.2304 13.6589 44.2518 13.5754 44.2918 13.5001C44.3318 13.4249 44.3893 13.3601 44.4595 13.3112C44.5118 13.2775 44.5725 13.2588 44.6349 13.2571Z" fill="#455A64"/>
<path d="M62.9837 21.3908C63.1257 21.4394 63.2577 21.5127 63.3737 21.6072C63.6933 21.8587 63.9118 22.215 63.9898 22.612C64.0557 22.8838 64.0557 23.1672 63.9898 23.439C63.9039 23.7485 63.7448 24.0334 63.5257 24.2699C63.2851 24.5326 62.9802 24.7296 62.6405 24.8418C62.2748 24.963 61.8807 24.9724 61.5096 24.8689C61.1385 24.7657 60.8036 24.5623 60.5424 24.2815C60.2977 24.0191 60.1363 23.6912 60.0784 23.3385C60.028 23.0434 60.0468 22.7407 60.1334 22.4539C60.2199 22.1671 60.3719 21.9038 60.5775 21.6845C60.7433 21.5186 60.9408 21.3872 61.1586 21.2981C61.3174 21.2305 61.4858 21.1874 61.6578 21.1706C61.7661 21.1515 61.877 21.1515 61.9853 21.1706C62.0237 21.1749 62.0608 21.1867 62.0945 21.2053C61.9511 21.1828 61.8051 21.1828 61.6617 21.2053C61.4949 21.232 61.3324 21.2801 61.1781 21.3483C60.9719 21.4416 60.7853 21.5728 60.6282 21.7348C60.4342 21.9487 60.292 22.2036 60.2123 22.4802C60.1325 22.7567 60.1174 23.0476 60.1681 23.3308C60.2262 23.6646 60.3806 23.9747 60.6126 24.2235C60.8624 24.4907 61.1825 24.6834 61.5369 24.78C61.8899 24.8789 62.2648 24.8709 62.6132 24.7568C62.9214 24.6536 63.2002 24.4786 63.4261 24.2467C63.6521 24.0147 63.8186 23.7324 63.9118 23.4235C63.9838 23.1654 63.9944 22.8942 63.943 22.6313C63.8735 22.2456 63.6709 21.8959 63.3698 21.642C63.2463 21.5507 63.1173 21.4668 62.9837 21.3908Z" fill="#E0E0E0"/>
<path d="M55.0867 18.1449C55.0791 18.2874 55.1278 18.4271 55.2224 18.5346C55.3171 18.6421 55.4502 18.7089 55.5937 18.7207C55.6639 18.7288 55.7351 18.7229 55.803 18.7035C55.8709 18.6841 55.9343 18.6515 55.9894 18.6077C56.0445 18.5638 56.0904 18.5096 56.1242 18.448C56.158 18.3865 56.1791 18.3189 56.1864 18.2492C56.193 18.1074 56.1438 17.9686 56.0493 17.862C55.9548 17.7554 55.8222 17.6892 55.6795 17.6773C55.6093 17.6682 55.5381 17.6731 55.47 17.6919C55.4018 17.7106 55.3382 17.7427 55.2829 17.7864C55.2276 17.83 55.1817 17.8843 55.148 17.9459C55.1143 18.0075 55.0934 18.0752 55.0867 18.1449Z" fill="#263238"/>
<path d="M50.0594 18.059C50.0518 18.2015 50.1004 18.3412 50.1951 18.4487C50.2897 18.5562 50.4229 18.623 50.5663 18.6348C50.6361 18.6434 50.707 18.638 50.7746 18.619C50.8423 18.6 50.9055 18.5678 50.9604 18.5242C51.0153 18.4806 51.0608 18.4266 51.0942 18.3653C51.1277 18.3039 51.1484 18.2366 51.1552 18.1672C51.1628 18.0248 51.1141 17.885 51.0195 17.7775C50.9248 17.67 50.7917 17.6033 50.6482 17.5914C50.5785 17.5834 50.5079 17.5891 50.4404 17.6083C50.3729 17.6275 50.31 17.6598 50.2552 17.7033C50.2005 17.7468 50.1549 17.8007 50.1213 17.8617C50.0877 17.9228 50.0666 17.9898 50.0594 18.059Z" fill="#263238"/>
<path d="M49.4808 15.9973C49.5354 16.0823 49.9565 15.7964 50.4986 15.8582C51.0406 15.92 51.3994 16.2717 51.4657 16.2021C51.532 16.1326 51.4657 16.0282 51.298 15.8621C51.0957 15.6545 50.8259 15.5245 50.5362 15.4948C50.2466 15.4651 49.9557 15.5377 49.7147 15.6997C49.5314 15.8311 49.4574 15.9625 49.4808 15.9973Z" fill="#263238"/>
<path d="M54.6645 16.4391C54.7386 16.5203 55.2027 16.1647 55.8344 16.1686C56.4662 16.1724 56.9614 16.5241 57.0316 16.443C57.1018 16.3618 56.9926 16.2536 56.786 16.0913C56.5121 15.8825 56.1761 15.7696 55.8305 15.7705C55.4878 15.7682 55.1541 15.8798 54.8829 16.0874C54.6918 16.2613 54.6216 16.4005 54.6645 16.4391Z" fill="#263238"/>
<path d="M42.1836 5.49372C42.3959 5.33602 42.628 5.20614 42.8739 5.10728C43.1664 4.9972 43.4774 4.94343 43.7903 4.94884C44.2037 4.95062 44.6086 5.06564 44.9602 5.28118L45.0148 5.31596L45.0499 5.25799C45.335 4.79605 45.7914 4.46312 46.3212 4.33052C46.6216 4.24502 46.9373 4.22596 47.2459 4.27471C47.5546 4.32346 47.8486 4.43882 48.1073 4.61263L48.1736 4.659L48.2243 4.59331C48.7518 3.8979 49.53 3.43132 50.3965 3.29098C51.0703 3.18022 51.7622 3.28299 52.3736 3.58468C52.9353 3.85587 53.4113 4.27416 53.7502 4.79426L53.7736 4.82904H53.8126C54.5244 4.85187 55.2233 5.02305 55.8639 5.33142C56.3635 5.56886 56.8238 5.8803 57.2288 6.25502C57.5807 6.59467 57.8969 6.96887 58.1725 7.37185C58.1621 7.34053 58.1477 7.31066 58.1297 7.28297C58.0985 7.225 58.0556 7.13612 57.9893 7.03178C57.7923 6.72692 57.5621 6.44441 57.3029 6.18933C56.9011 5.79376 56.4376 5.46493 55.9302 5.21548C55.2763 4.88918 54.5597 4.70474 53.8282 4.67446L53.8906 4.70924C53.5402 4.16005 53.0436 3.7174 52.4555 3.43011C51.8115 3.11234 51.0827 3.00414 50.3731 3.12095C49.4634 3.27171 48.6476 3.76453 48.0956 4.49669H48.2087C47.9301 4.30984 47.6132 4.18658 47.2807 4.1358C46.9482 4.08501 46.6086 4.10796 46.2861 4.203C45.7213 4.35095 45.238 4.71328 44.9407 5.21162L45.0304 5.18843C44.7045 4.9999 44.3384 4.89011 43.9617 4.86796C43.585 4.8458 43.2083 4.9119 42.8621 5.0609C42.6743 5.13875 42.4995 5.24428 42.3435 5.37393C42.2845 5.40575 42.2306 5.44613 42.1836 5.49372Z" fill="#263238"/>
<path d="M59.4149 4.61951C59.6118 4.71497 59.8274 4.76642 60.0466 4.77023C60.3512 4.78732 60.6561 4.7438 60.9435 4.64225C61.2308 4.54071 61.4947 4.38318 61.7196 4.17897C62.0327 3.88618 62.2489 3.50621 62.3397 3.08919C62.445 2.6072 62.3959 2.10464 62.1993 1.65161C61.968 1.14731 61.5487 0.751246 61.0294 0.546375C60.4677 0.321809 59.84 0.321809 59.2784 0.546375L59.3797 0.569561C59.1322 0.28609 58.7932 0.0962905 58.4204 0.0324017C58.1112 -0.0293108 57.7906 -0.00250393 57.4962 0.10969C57.2089 0.221185 56.9636 0.418334 56.7942 0.673903C56.6306 0.911849 56.5311 1.18729 56.5052 1.47408C56.4792 1.76086 56.5277 2.04945 56.646 2.31243L56.763 2.20809C56.5633 2.09831 56.3396 2.03846 56.1113 2.03375C55.8829 2.02903 55.6569 2.07959 55.4527 2.18104C55.2651 2.26683 55.0983 2.39166 54.9637 2.54704C54.8291 2.70241 54.7299 2.88468 54.6728 3.08146C54.5832 3.4007 54.583 3.7381 54.6723 4.05742C54.7617 4.37674 54.9371 4.66591 55.1797 4.89389C55.4914 5.18537 55.8791 5.3848 56.299 5.46969C56.4093 5.49323 56.5215 5.50746 56.6343 5.5122C56.673 5.519 56.7126 5.519 56.7513 5.5122C56.7513 5.5122 56.5914 5.5122 56.3106 5.42332C55.9096 5.32005 55.5426 5.11493 55.246 4.8282C55.026 4.60878 54.8688 4.33529 54.7907 4.03579C54.7125 3.73628 54.7163 3.42157 54.8015 3.12397C54.8546 2.94792 54.945 2.78514 55.0668 2.64652C55.1885 2.5079 55.3387 2.39663 55.5073 2.32016C55.6895 2.2289 55.8916 2.18362 56.0957 2.18834C56.2998 2.19306 56.4995 2.24763 56.6772 2.34721L56.9112 2.48633L56.7903 2.24674C56.6852 2.0098 56.6429 1.75017 56.6674 1.49248C56.692 1.23479 56.7826 0.987602 56.9307 0.774377C57.0839 0.547869 57.3028 0.37271 57.5586 0.271999C57.8237 0.173404 58.1112 0.149331 58.3892 0.202439C58.7227 0.258457 59.0261 0.427905 59.2472 0.681631L59.2862 0.731868L59.3447 0.708682C59.8645 0.497795 60.4471 0.497795 60.9669 0.708682C61.4481 0.896067 61.8378 1.26011 62.055 1.72503C62.2445 2.14843 62.2963 2.61983 62.2032 3.07373C62.1237 3.46619 61.9266 3.82578 61.6377 4.10554C61.2078 4.5071 60.6373 4.72742 60.0466 4.71999C59.8333 4.70602 59.6218 4.67239 59.4149 4.61951Z" fill="#263238"/>
<path d="M71.4957 11.1668C71.5181 11.1377 71.5352 11.105 71.5464 11.0702C71.5853 10.9745 71.6179 10.8764 71.6439 10.7765C71.7616 10.2947 71.7435 9.79007 71.5915 9.31778C71.4395 8.84549 71.1595 8.42367 70.782 8.09838C70.4886 7.85142 70.1473 7.66645 69.7791 7.55481C69.411 7.44318 69.0237 7.40722 68.6411 7.44916L68.7269 7.49553C68.3679 6.7763 67.7604 6.2086 67.0149 5.89564C66.452 5.66294 65.8344 5.59196 65.2327 5.69083C64.6833 5.78064 64.1648 6.00367 63.7235 6.34006H63.8093C63.2524 6.04822 62.6296 5.90191 61.9998 5.91497C61.5139 5.92024 61.0334 6.01729 60.5842 6.20094C60.2939 6.31607 60.022 6.47227 59.7769 6.66467C59.6859 6.72892 59.6034 6.80422 59.5312 6.88881C59.8664 6.64258 60.2321 6.43997 60.6193 6.28595C61.0616 6.12074 61.531 6.03819 62.0037 6.04249C62.6082 6.04167 63.2034 6.19044 63.7352 6.47531L63.7781 6.4985L63.821 6.46758C64.2429 6.15168 64.7373 5.94453 65.26 5.86473C65.8304 5.77279 66.4153 5.84107 66.9486 6.06182C67.655 6.35888 68.2325 6.89416 68.5787 7.57282L68.6021 7.62692H68.6606C69.0219 7.5864 69.3878 7.61784 69.7367 7.71937C70.0856 7.82091 70.4105 7.99049 70.6923 8.21818C71.14 8.58562 71.4492 9.09223 71.5698 9.65576C71.6474 10.0267 71.6474 10.4094 71.5698 10.7803C71.5386 11.0238 71.484 11.159 71.4957 11.1668Z" fill="#263238"/>
<path d="M55.0726 21.8121C55.0333 21.6288 54.93 21.4652 54.7809 21.35C54.6318 21.2348 54.4465 21.1753 54.2576 21.1822C54.1189 21.1956 53.9858 21.2428 53.8701 21.3197C53.7544 21.3966 53.6597 21.5007 53.5946 21.6227C53.5311 21.7446 53.4932 21.878 53.4832 22.0148C53.4731 22.1516 53.4911 22.2891 53.5361 22.4188V22.4768C53.6601 22.6182 53.8254 22.718 54.0092 22.7623C54.1929 22.8066 54.386 22.7933 54.5617 22.7241C54.737 22.6499 54.8824 22.52 54.9749 22.3548C55.0674 22.1897 55.1018 21.9987 55.0726 21.8121Z" fill="#EB996E"/>
<path d="M53.1016 22.4777C53.1016 22.385 53.7255 22.4313 54.213 21.9367C54.7004 21.442 54.681 20.7773 54.7668 20.7773C54.8526 20.7773 54.8799 20.9319 54.8643 21.2102C54.841 21.5735 54.6891 21.917 54.4353 22.1801C54.192 22.4324 53.859 22.5807 53.5071 22.5936C53.238 22.6014 53.1016 22.5202 53.1016 22.4777Z" fill="#263238"/>
<path d="M44.7907 60.7373C44.6426 60.9537 41.281 72.3075 41.7957 75.9942C42.3105 79.6809 44.7907 90.598 44.7907 90.598C44.7907 90.598 46.3194 96.8159 46.0309 99.2775C45.7423 101.739 45.8554 109.963 46.686 114.894C47.6454 120.586 48.6671 130.788 48.6671 130.788L56.0766 130.224L55.7334 94.7098L57.5585 80.7552L58.5802 67.0905L44.7907 60.7373Z" fill="#263238"/>
<path d="M66.0217 125.937L65.2846 133.951L66.6301 140.451C66.6511 140.565 66.6482 140.681 66.6214 140.793C66.5946 140.904 66.5446 141.01 66.4745 141.101C66.4044 141.193 66.3158 141.269 66.2143 141.325C66.1129 141.381 66.0008 141.415 65.8852 141.425C65.749 141.444 65.6103 141.43 65.4803 141.386C65.3503 141.341 65.2325 141.268 65.1365 141.17C63.9236 139.914 59.4818 135.281 59.5676 134.697C59.6729 134.025 59.7548 126.195 59.7548 126.195L66.0217 125.937Z" fill="#263238"/>
<path d="M65.8865 141.425L59.6079 134.156L59.5845 134.496C59.5654 134.792 59.6555 135.085 59.838 135.319C60.3372 135.949 61.7528 137.665 65.1105 141.166C65.2098 141.269 65.3326 141.346 65.4684 141.391C65.6042 141.436 65.749 141.448 65.8904 141.425H65.8865Z" fill="#455A64"/>
<g opacity="0.6">
<path d="M61.5212 131.675C61.6194 131.752 61.6842 131.863 61.7023 131.986C61.7204 132.109 61.6905 132.234 61.6187 132.336C61.5365 132.433 61.4213 132.497 61.2948 132.515C61.1683 132.534 61.0393 132.506 60.9323 132.436C60.8276 132.355 60.7585 132.237 60.7396 132.107C60.7207 131.976 60.7534 131.844 60.8309 131.737C60.9262 131.643 61.0538 131.587 61.1883 131.582C61.3227 131.577 61.4542 131.623 61.5563 131.71" fill="white"/>
</g>
<path d="M64.1865 137.802C64.4088 137.563 64.6731 137.367 64.9665 137.222C65.2872 137.126 65.6225 137.087 65.957 137.106C65.957 137.087 65.8595 137.017 65.6645 136.979C65.402 136.932 65.1317 136.961 64.8846 137.06C64.6429 137.153 64.4331 137.312 64.2801 137.52C64.1865 137.678 64.167 137.794 64.1865 137.802Z" fill="white"/>
<path d="M64.7154 138.913C64.9696 138.798 65.23 138.697 65.4954 138.611C65.7725 138.58 66.051 138.563 66.3299 138.561C66.2023 138.476 66.0571 138.422 65.9051 138.401C65.7531 138.38 65.5983 138.394 65.4525 138.441C64.9377 138.549 64.6725 138.889 64.7154 138.913Z" fill="white"/>
<path d="M63.1562 136.355C63.5328 136.148 63.9238 135.969 64.3262 135.818C64.7453 135.718 65.1716 135.651 65.6014 135.617C65.1663 135.476 64.6956 135.487 64.2677 135.648C63.8245 135.746 63.4308 135.997 63.1562 136.355Z" fill="white"/>
<path d="M63.1641 133.9C63.1836 133.95 63.6632 133.791 64.2755 133.811C64.8878 133.83 65.3596 133.992 65.3791 133.946C65.0602 133.719 64.6715 133.608 64.2794 133.633C63.888 133.596 63.4952 133.689 63.1641 133.9Z" fill="white"/>
<path d="M63.3173 131.545C63.7 131.453 64.0934 131.412 64.4872 131.422C64.8697 131.485 65.2421 131.598 65.5947 131.758C65.5947 131.758 65.5245 131.634 65.3334 131.514C65.0812 131.363 64.7975 131.269 64.5036 131.242C64.2098 131.214 63.9135 131.254 63.637 131.356C63.4148 131.426 63.3056 131.526 63.3173 131.545Z" fill="white"/>
<path d="M64.4864 130.972C64.5219 130.875 64.5326 130.77 64.5176 130.667C64.5095 130.386 64.4418 130.109 64.3188 129.856C64.245 129.66 64.1079 129.494 63.9288 129.384C63.8659 129.354 63.7955 129.343 63.7262 129.352C63.657 129.361 63.5918 129.389 63.5388 129.434C63.4425 129.529 63.3855 129.656 63.3789 129.79C63.3808 130.069 63.4825 130.339 63.666 130.551C63.8494 130.764 64.1028 130.905 64.3811 130.949C64.6572 130.995 64.9406 130.96 65.1973 130.85C65.454 130.74 65.673 130.558 65.828 130.327C65.866 130.271 65.8904 130.207 65.8992 130.14C65.908 130.073 65.901 130.005 65.8787 129.941C65.8478 129.877 65.7979 129.824 65.7358 129.79C65.6738 129.755 65.6024 129.74 65.5316 129.747C65.3217 129.777 65.1231 129.86 64.9544 129.987C64.7135 130.145 64.5034 130.346 64.3343 130.578C64.2174 130.741 64.1745 130.841 64.1862 130.845C64.429 130.555 64.7127 130.301 65.0285 130.091C65.1795 129.987 65.3532 129.92 65.5355 129.894C65.5744 129.889 65.614 129.896 65.6484 129.915C65.6828 129.934 65.7102 129.963 65.7266 129.999C65.7373 130.041 65.7386 130.086 65.7306 130.129C65.7225 130.173 65.7052 130.214 65.6798 130.25C65.5392 130.445 65.3466 130.598 65.1234 130.691C64.9002 130.783 64.6553 130.813 64.4163 130.775C64.1832 130.738 63.9701 130.622 63.8126 130.448C63.6551 130.273 63.5626 130.051 63.5505 129.817C63.5526 129.724 63.5887 129.635 63.6519 129.566C63.6809 129.539 63.7173 129.522 63.7563 129.517C63.7952 129.511 63.835 129.518 63.8703 129.535C64.0204 129.626 64.1388 129.761 64.2096 129.921C64.3658 130.252 64.4597 130.608 64.4864 130.972Z" fill="white"/>
<path d="M70.2075 61.3652C70.3557 61.5816 73.7173 72.9354 73.1986 76.6221C72.6799 80.3088 70.2075 91.2336 70.2075 91.2336C70.2075 91.2336 68.6749 97.4515 68.9674 99.9093C69.2599 102.367 68.749 110.556 68.3122 115.522C67.817 121.117 66.5768 130.852 66.5768 130.852L58.8905 130.357L59.2804 95.3493L57.4553 81.3947L56.4336 67.73L70.2075 61.3652Z" fill="#263238"/>
<path d="M49.0045 126.189L49.3945 132.828C49.3945 132.828 42.3749 135.425 42.3398 136.662L55.9616 136.418L55.8096 126.05L49.0045 126.189Z" fill="#263238"/>
<path d="M53.5918 132.197C53.7202 132.229 53.8319 132.307 53.9043 132.417C53.9766 132.527 54.0043 132.66 53.9817 132.789C53.9475 132.918 53.8649 133.031 53.7505 133.102C53.6362 133.174 53.4986 133.2 53.3656 133.175C53.2927 133.167 53.2226 133.143 53.1601 133.105C53.0975 133.067 53.044 133.016 53.0033 132.955C52.9626 132.895 52.9356 132.826 52.9241 132.754C52.9127 132.683 52.9172 132.609 52.9372 132.539C52.9572 132.469 52.9923 132.404 53.04 132.349C53.0877 132.294 53.147 132.25 53.2137 132.22C53.2804 132.189 53.3529 132.174 53.4263 132.174C53.4996 132.174 53.572 132.19 53.6386 132.221" fill="#E0E0E0"/>
<path d="M55.9563 136.418L55.8978 135.371L42.8609 135.997C42.8609 135.997 42.2604 136.256 42.3345 136.662L55.9563 136.418Z" fill="#455A64"/>
<path d="M49.1684 132.77C49.1684 132.832 49.5038 132.855 49.8353 133.052C50.1668 133.249 50.3462 133.508 50.4046 133.485C50.4631 133.462 50.3617 133.098 49.9562 132.863C49.5506 132.627 49.1528 132.712 49.1684 132.77Z" fill="white"/>
<path d="M47.75 133.357C47.75 133.419 48.0269 133.52 48.257 133.782C48.487 134.045 48.5611 134.327 48.6274 134.323C48.6937 134.32 48.7288 133.96 48.4325 133.639C48.1361 133.319 47.75 133.296 47.75 133.357Z" fill="white"/>
<path d="M46.9665 134.99C47.0289 134.99 47.1147 134.685 46.9353 134.345C46.7559 134.005 46.4478 133.87 46.4206 133.924C46.3933 133.978 46.5882 134.156 46.7286 134.441C46.869 134.727 46.9002 134.983 46.9665 134.99Z" fill="white"/>
<path d="M49.2566 131.246C49.2839 131.3 49.5881 131.211 49.9624 131.227C50.3368 131.242 50.6371 131.351 50.6683 131.297C50.6995 131.242 50.4148 131.022 49.9741 131.007C49.5335 130.991 49.2215 131.196 49.2566 131.246Z" fill="white"/>
<path d="M73.0612 71.2798C72.9824 71.8343 72.7172 72.3462 72.3085 72.7328C71.8432 73.3306 71.4953 74.0096 71.2829 74.7346C71.2829 74.7346 70.6784 77.5364 70.5263 78.4445C70.3742 79.3527 70.3392 80.1912 71.0762 80.0483C71.8133 79.9053 72.055 79.3565 72.2461 77.6832L72.6985 76.8098L73.0885 77.5016V80.2067C73.0885 80.2067 71.1932 81.9187 71.3063 82.4288C71.4194 82.9389 71.7743 82.8654 71.7743 82.8654L72.0667 83.1553L74.9526 81.2231L76.0913 77.6948L75.9002 73.1077L76.0367 67.8945L72.7414 68.7331L73.0612 71.2798Z" fill="#FFBF9D"/>
<path d="M66.9492 30.8496C66.9492 30.8496 71.6289 32.9944 72.21 36.1439C72.791 39.2934 73.5047 48.8116 73.6685 50.1217C73.971 52.6096 74.493 55.0665 75.2284 57.4641C76.3125 61.1624 75.9459 70.924 75.9459 70.924H73.0289C73.0289 70.924 70.1548 62.5768 69.5737 58.2795C68.9927 53.9822 67.8851 52.1428 68.1542 50.3999C68.4233 48.657 67.4484 44.2168 67.4484 44.2168L66.9492 30.8496Z" fill="#FFBF9D"/>
<path d="M66.9515 39.9732C67.1114 40.2785 66.9515 46.1563 67.4117 46.3186C67.8718 46.4809 73.8345 46.0829 73.8345 46.0829C73.8345 46.0829 73.1014 37.04 72.0953 35.2121C71.0891 33.3843 68.5465 31.1661 68.0395 31.1699C67.5325 31.1738 65.9727 38.7636 65.9727 38.7636L66.9515 39.9732Z" fill="#01A5A3"/>
<path d="M49.0488 30.6953C48.6861 30.9813 43.1718 33.3734 43.1718 33.3734L45.1412 46.899L46.0538 52.4522L43.1562 64.2118C43.1562 64.2118 49.4309 70.0703 59.5001 69.2742C69.5692 68.4781 71.8389 65.0001 71.8389 65.0001L67.5296 47.7956C67.5296 47.7956 67.089 42.4974 67.089 40.5652C67.089 40.2058 68.0405 31.1668 68.0405 31.1668L63.3608 29.7949C63.3608 29.7949 62.4873 33.2729 56.431 33.2729C50.3747 33.2729 49.0488 30.6953 49.0488 30.6953Z" fill="#01A5A3"/>
<path d="M66.452 38.8711C66.5296 38.965 66.5939 39.0691 66.6431 39.1803C66.8017 39.4725 66.9411 39.7745 67.0604 40.0845C67.4593 41.1095 67.7088 42.1857 67.8013 43.2804C67.8928 44.3744 67.8231 45.4757 67.5946 46.5498C67.527 46.875 67.441 47.1963 67.3373 47.512C67.3058 47.6298 67.2586 47.7429 67.1969 47.8482C67.1657 47.8482 67.3178 47.3459 67.466 46.5266C67.8445 44.3846 67.6605 42.1821 66.9317 40.1309C66.6548 39.3464 66.4208 38.8827 66.452 38.8711Z" fill="#263238"/>
<path d="M39.1485 44.0635L37.4717 58.3774L36.8789 68.6067L36.9257 71.9339L41.1335 73.0856L43.06 61.612L45.2516 47.2401L44.8188 45.6904L39.1485 44.0635Z" fill="#FFBF9D"/>
<path d="M38.8438 43.9751C38.8438 43.6853 40.5089 35.168 42.4081 33.9275L43.2817 33.2744L45.2315 44.9876V45.7837L38.8438 43.9751Z" fill="#01A5A3"/>
<path d="M45.2549 47.24C45.1176 46.8973 45.0119 46.5429 44.9391 46.1812C44.7753 45.5165 44.5725 44.5967 44.4048 43.5688C44.2371 42.5409 44.124 41.6018 44.0655 40.9216C44.0136 40.5556 43.9992 40.1853 44.0226 39.8164C44.1093 40.1746 44.168 40.539 44.1981 40.9062C44.2917 41.5825 44.4204 42.5138 44.5881 43.5379C44.7558 44.562 44.9352 45.4701 45.0677 46.1503C45.1577 46.5083 45.2203 46.8726 45.2549 47.24Z" fill="#263238"/>
<path d="M64.3555 30.1525C64.3555 30.1525 65.5254 28.8386 66.3951 28.6918C67.2647 28.5449 70.4547 29.1478 71.4179 29.3371C72.7555 29.6038 72.6931 30.5931 71.8079 30.6665C70.986 30.7083 70.162 30.6877 69.3433 30.6047C69.112 30.9593 68.7951 31.2511 68.4212 31.4535C68.0474 31.656 67.6284 31.7627 67.2023 31.764C65.7711 31.7563 64.3555 30.1525 64.3555 30.1525Z" fill="#FFBF9D"/>
<path d="M66.3945 28.6928C67.1232 28.3978 67.8694 28.1474 68.6291 27.9431C69.7171 27.6648 70.4269 27.6648 70.7271 28.0397C71.0274 28.4145 71.8698 30.4356 71.6241 30.8375C71.3784 31.2395 68.6291 33.1562 68.204 33.2258C67.7789 33.2953 67.4553 33.0944 67.6425 32.5572C67.8296 32.0201 69.3388 30.625 69.3388 30.625L69.0269 29.3806L66.3945 28.6928Z" fill="#FFBF9D"/>
<path d="M70.8666 28.3018C70.8666 28.3018 72.4265 31.6754 72.4499 31.9537C72.4733 32.2319 71.6973 32.9005 71.0733 33.2367C70.4494 33.5729 68.519 34.1873 68.3045 33.8666C68.1768 33.6811 68.1101 33.4611 68.1134 33.2367L71.0148 31.4011L70.8666 28.3018Z" fill="#FFBF9D"/>
<path d="M72.254 32.0176C72.254 32.0176 72.2306 33.5634 72.254 33.803C72.2774 34.0426 71.9108 34.7382 71.474 34.5758C71.0372 34.4135 71.084 34.3942 71.045 33.9614C71.0214 33.6063 71.0214 33.25 71.045 32.8948L72.137 32.1722" fill="#FFBF9D"/>
<path d="M66.9648 31.7759C67.2088 31.7487 67.451 31.7074 67.6902 31.6523C68.2598 31.4895 68.7436 31.1141 69.0395 30.605L69.0902 30.5625H69.1565L69.3983 30.5934C70.0409 30.7131 70.6945 30.7649 71.3482 30.748C71.8512 30.7132 72.1515 30.6166 72.1632 30.6475C71.9164 30.7835 71.6418 30.8628 71.3599 30.8794C70.6917 30.9385 70.0185 30.906 69.3593 30.7828L69.1175 30.748L69.215 30.6978C69.0577 30.9713 68.8442 31.2089 68.5882 31.3953C68.3322 31.5817 68.0396 31.7127 67.7292 31.7798C67.4798 31.8543 67.2135 31.8529 66.9648 31.7759Z" fill="#FF9A6C"/>
<path d="M67.1406 28.6475C67.9269 28.6818 68.7093 28.7774 69.4805 28.9334C70.2627 29.0294 71.036 29.187 71.793 29.4049C71.0063 29.3752 70.2236 29.2795 69.4532 29.1189C68.6709 29.023 67.8976 28.8653 67.1406 28.6475Z" fill="#FF9A6C"/>
<path d="M71.4319 30.8156C71.4438 31.0377 71.3821 31.2575 71.2564 31.4416C70.9788 31.8925 70.5929 32.2682 70.1332 32.5353C69.5186 32.9616 68.796 33.2093 68.0469 33.2502C68.7373 33.028 69.4025 32.7353 70.0318 32.3768C70.4675 32.1204 70.8457 31.7785 71.1433 31.3721C71.3734 31.0513 71.4319 30.8079 71.4319 30.8156Z" fill="#FF9A6C"/>
<path d="M70.8994 33.4021C70.876 33.3518 71.2894 33.1238 71.6793 32.7413C72.0693 32.3587 72.354 31.9684 72.4008 32.0031C72.3088 32.3496 72.1064 32.6572 71.8236 32.8804C71.5779 33.1454 71.2548 33.3278 70.8994 33.4021Z" fill="#FF9A6C"/>
<path d="M24.4548 82.6484L28.7445 87.765L31.8643 85.2299L34.9295 87.4365C34.9295 87.4365 30.1056 92.6883 27.4459 93.2332C24.5406 93.8322 20.793 85.1178 20.793 85.1178L24.4548 82.6484Z" fill="#FFBF9D"/>
<path d="M36.7223 79.6709C36.7223 79.6709 35.8332 80.4438 35.2404 81.0467C34.6477 81.6495 34.1641 83.4697 34.1641 83.4697L31.8555 85.228L34.5853 87.7631L37.5842 84.8918L38.2822 82.7316L36.7223 79.6709Z" fill="#FFBF9D"/>
<path d="M41.2323 72.4695C41.1816 72.57 40.5732 77.1919 40.8423 77.675C41.3103 78.5599 41.1816 80.0284 41.1816 80.0284C41.1816 80.0284 40.8267 83.0427 40.6629 84.0049C40.4991 84.9672 40.2339 85.8212 39.5437 85.4348C38.8534 85.0483 38.8027 84.4107 39.2005 82.6755L39.0445 81.6437L38.4283 82.2118L37.5002 84.9169C37.5002 84.9169 38.8105 87.2704 38.5219 87.7457C38.2334 88.2211 37.9019 88.024 37.9019 88.024L37.5119 88.2172L35.2852 85.3073L35.3593 81.3848L37.1141 76.8325L36.8606 70.3634L41.7938 67.7549L41.2323 72.4695Z" fill="#FFBF9D"/>
<path d="M38.9843 82.5849C39.6161 82.4342 39.1364 81.155 38.7269 80.6101C38.5865 80.4285 38.372 80.2546 38.1537 80.3164C38.064 80.3522 37.9881 80.4153 37.937 80.4965C37.8858 80.5778 37.862 80.6731 37.869 80.7686C37.869 80.9579 38.0679 81.0971 38.1537 81.2671C38.1108 81.1318 37.9626 81.0391 37.8729 80.9309C37.8281 80.873 37.7677 80.8289 37.6987 80.8036C37.6297 80.7783 37.5549 80.7729 37.4829 80.7879C37.2684 80.842 37.2021 81.1048 37.2021 81.3212C37.2045 81.648 37.2721 81.9711 37.401 82.2719C37.3659 82.125 37.401 82.2719 37.3152 82.1482C37.2739 82.0846 37.2155 82.0336 37.1467 82.0009C37.0778 81.9681 37.0012 81.9549 36.9253 81.9627C36.8544 81.9808 36.7901 82.0184 36.7398 82.071C36.6894 82.1236 36.6551 82.1892 36.6406 82.2603C36.6094 82.4016 36.6094 82.5479 36.6406 82.6892C36.7792 83.5009 37.1063 84.2695 37.596 84.9345C37.779 84.8565 37.9369 84.7302 38.0524 84.5693C38.1679 84.4085 38.2367 84.2193 38.2512 84.0225C38.4076 83.9979 38.5558 83.9364 38.6832 83.8431C38.8106 83.7498 38.9135 83.6275 38.9831 83.4865C39.0527 83.3455 39.087 83.1899 39.0832 83.033C39.0793 82.8761 39.0374 82.7224 38.9609 82.5849" fill="#FFBF9D"/>
<path d="M38.986 82.5825C39.0188 82.6139 39.0442 82.6522 39.0601 82.6946C39.1183 82.8152 39.1476 82.9474 39.1459 83.0811C39.1558 83.2885 39.0969 83.4934 38.9782 83.6646C38.899 83.7807 38.7971 83.8798 38.6785 83.9561C38.56 84.0325 38.4271 84.0844 38.2879 84.109L38.3542 84.0394C38.3415 84.2526 38.2695 84.4582 38.1463 84.6335C38.0232 84.8087 37.8535 84.9468 37.6562 85.0326L37.5899 85.0635L37.547 85.0017C37.1889 84.5274 36.9135 83.9971 36.7319 83.4327C36.6259 83.1171 36.5578 82.7903 36.5291 82.4589C36.5212 82.3572 36.5396 82.2552 36.5826 82.1626C36.6256 82.0699 36.6918 81.9897 36.7748 81.9294C36.8232 81.8979 36.8777 81.8768 36.9348 81.8675C36.9919 81.8582 37.0503 81.8609 37.1063 81.8753C37.2115 81.9035 37.3063 81.9612 37.3793 82.0415C37.4105 82.0763 37.4378 82.1227 37.4417 82.1227C37.4456 82.1227 37.4417 82.1227 37.3715 82.1227C37.5002 82.1227 37.4963 82.2 37.5002 82.1884C37.5011 82.1986 37.5011 82.209 37.5002 82.2193V82.2772L37.2857 82.3352C37.2062 82.1259 37.1461 81.9099 37.1063 81.6898C37.0928 81.5795 37.085 81.4686 37.0829 81.3575C37.0814 81.2391 37.1012 81.1213 37.1414 81.0097C37.163 80.9468 37.1979 80.8892 37.2436 80.8406C37.2893 80.7919 37.3448 80.7534 37.4066 80.7276C37.4714 80.706 37.5403 80.6997 37.608 80.7091C37.6757 80.7185 37.7402 80.7433 37.7966 80.7817C37.8472 80.8139 37.8931 80.853 37.933 80.8976L38.0266 80.9981C38.116 81.0684 38.1858 81.1602 38.2294 81.2648L38.0422 81.342C37.9876 81.2338 37.8706 81.1334 37.7926 80.9749C37.7607 80.8956 37.7476 80.8101 37.7544 80.725C37.7612 80.6399 37.7876 80.5575 37.8317 80.4841C37.8729 80.41 37.9341 80.3486 38.0085 80.307C38.0828 80.2654 38.1674 80.2451 38.2528 80.2484C38.4017 80.2681 38.5393 80.3377 38.6428 80.4455C38.9298 80.7819 39.1364 81.1782 39.2472 81.6048C39.3559 81.878 39.3559 82.1818 39.2472 82.455C39.1186 82.6289 38.9782 82.6135 38.986 82.6096C38.9938 82.6057 39.103 82.5787 39.1888 82.4202C39.2681 82.1661 39.2543 81.8924 39.1498 81.6473C39.0282 81.2493 38.8221 80.8817 38.5453 80.5692C38.4786 80.4888 38.3866 80.433 38.284 80.4107C38.2327 80.4096 38.1822 80.4232 38.1386 80.45C38.095 80.4767 38.0602 80.5155 38.0383 80.5614C38.012 80.6096 37.9963 80.6627 37.9923 80.7174C37.9882 80.772 37.9959 80.8269 38.0149 80.8783C38.0656 80.9826 38.1787 81.0793 38.2645 81.2377L38.0812 81.315C38.0434 81.2438 37.9917 81.1808 37.9292 81.1295L37.816 81.0174C37.7899 80.9877 37.7597 80.9617 37.7264 80.9401C37.6972 80.9194 37.6633 80.9063 37.6277 80.9019C37.592 80.8976 37.5559 80.9021 37.5225 80.9152C37.4891 80.9283 37.4596 80.9494 37.4366 80.9768C37.4137 81.0041 37.398 81.0366 37.391 81.0715C37.3414 81.2582 37.3334 81.4534 37.3676 81.6435C37.41 81.8512 37.4687 82.0553 37.5431 82.2541L37.3325 82.312V82.2618H37.3637H37.4027H37.43L37.4534 82.3661C37.4316 82.369 37.4094 82.367 37.3885 82.3603C37.3676 82.3536 37.3485 82.3424 37.3325 82.3275C37.2818 82.2734 37.2779 82.2502 37.2545 82.2309C37.2198 82.1827 37.1687 82.1487 37.1105 82.1351C37.0524 82.1216 36.9913 82.1295 36.9386 82.1574C36.8865 82.1977 36.8457 82.2503 36.8197 82.3105C36.7938 82.3706 36.7837 82.4363 36.7904 82.5014C36.8196 82.8099 36.8824 83.1144 36.9776 83.4095C37.1542 83.9561 37.4175 84.4714 37.7576 84.936L37.6484 84.9051C37.817 84.8348 37.9631 84.7203 38.071 84.5739C38.1789 84.4275 38.2444 84.2548 38.2606 84.0742V84.0124H38.3191C38.5654 83.9754 38.7868 83.8434 38.9353 83.6453C39.0461 83.4956 39.1099 83.3168 39.1186 83.1313C39.1029 82.9427 39.0581 82.7577 38.986 82.5825Z" fill="#EB996E"/>
<path d="M37.3516 82.1667C37.3906 82.1242 37.7766 82.4566 38.0418 83.0053C38.239 83.3217 38.3228 83.6948 38.2797 84.0642C38.1128 83.7534 37.9669 83.4319 37.8429 83.1019C37.6558 82.8028 37.4915 82.4902 37.3516 82.1667Z" fill="#EB996E"/>
<path d="M37.9727 80.927C38.0156 80.8884 38.3626 81.2014 38.6668 81.6999C38.889 81.973 39.0247 82.3051 39.0568 82.6545C38.9983 82.6815 38.7838 82.268 38.4913 81.8159C38.278 81.5446 38.1035 81.2455 37.9727 80.927Z" fill="#EB996E"/>
<path d="M35.9049 86.4523L35.4681 85.892L35.238 85.5906C35.1563 85.4748 35.1005 85.343 35.0742 85.2041C35.0742 84.1259 35.1171 83.2062 35.1405 82.5183C35.1372 82.1475 35.1712 81.7772 35.2419 81.4131C35.2991 81.7786 35.3187 82.1489 35.3004 82.5183C35.3004 83.2912 35.3004 84.1762 35.3004 85.1693C35.3197 85.2811 35.3622 85.3877 35.4252 85.4824L35.6475 85.7761L36.0765 86.3441L36.7901 87.318C37.025 87.6061 37.2301 87.9168 37.4024 88.2454C37.1303 87.9912 36.8835 87.7117 36.6653 87.4107" fill="#EB996E"/>
<path d="M8.14418 133.039L7.94141 126.535L12.9214 126.647L12.5119 133.186L10.2695 134.036L8.14418 133.039Z" fill="#E0E0E0"/>
<path d="M8.13659 132.884V133.197C8.13659 133.197 3.41009 135.346 3.37109 136.355L12.8007 136.277L12.6213 132.761C11.9397 133.139 11.1755 133.349 10.3943 133.37C9.61317 133.392 8.83841 133.225 8.13659 132.884Z" fill="#455A64"/>
<path d="M12.7978 136.277L12.7549 135.431L3.7309 135.817C3.7309 135.817 3.31361 136.026 3.36821 136.354L12.7978 136.277Z" fill="#E0E0E0"/>
<path d="M8.22555 134.462C8.22555 134.462 8.26065 134.385 8.25285 134.257C8.23939 134.092 8.19019 133.931 8.10856 133.786C8.03113 133.646 7.92155 133.527 7.78878 133.438C7.69128 133.376 7.62109 133.364 7.61719 133.376C7.7657 133.517 7.89663 133.676 8.00716 133.848C8.10719 134.042 8.18063 134.248 8.22555 134.462Z" fill="#263238"/>
<path d="M8.7177 134.337C8.7469 134.104 8.6916 133.869 8.5617 133.672C8.37061 133.336 8.09764 133.201 8.08984 133.228C8.23032 133.389 8.36056 133.558 8.47982 133.734C8.56941 133.931 8.6488 134.132 8.7177 134.337Z" fill="#263238"/>
<path d="M7.50079 134.72C7.58448 134.539 7.59426 134.333 7.52809 134.144C7.4462 133.824 7.25511 133.646 7.23951 133.669C7.22391 133.692 7.3604 133.885 7.4306 134.175C7.50079 134.465 7.47739 134.712 7.50079 134.72Z" fill="#263238"/>
<path d="M15.2495 132.916L14.9453 131.417C14.9453 131.417 19.4729 130.841 19.4573 130.895C19.4417 130.949 19.3598 133.28 19.3598 133.28L17.0512 134.489L15.2495 132.916Z" fill="#E0E0E0"/>
<path d="M15.1404 135.244C15.2378 135.584 19.8396 138.405 21.1187 139.147C21.2196 139.204 21.3322 139.239 21.4483 139.247C21.5644 139.256 21.6809 139.239 21.7894 139.197C21.8806 139.168 21.9643 139.119 22.0348 139.055C22.1053 138.99 22.161 138.912 22.198 138.824C22.235 138.736 22.2525 138.642 22.2493 138.547C22.2461 138.452 22.2223 138.359 22.1794 138.274L19.4886 133.161C19.4068 132.921 19.3973 132.664 19.4613 132.419C18.849 132.724 16.7042 132.867 15.1716 132.504V133.385L14.9922 134.738C15.0233 134.912 15.0743 135.081 15.1443 135.244" fill="#455A64"/>
<path d="M19.4023 136.01C19.4374 136.029 19.5973 135.74 19.9249 135.512C20.2525 135.284 20.5801 135.229 20.5723 135.187C20.4429 135.173 20.3121 135.186 20.1876 135.223C20.0631 135.26 19.9472 135.321 19.8469 135.403C19.7346 135.469 19.6371 135.556 19.5606 135.661C19.4841 135.765 19.4302 135.884 19.4023 136.01Z" fill="#263238"/>
<path d="M19.0273 135.344C19.0624 135.363 19.2223 135.069 19.5499 134.845C19.7585 134.723 19.9747 134.615 20.1973 134.521C19.9377 134.51 19.6818 134.585 19.47 134.734C19.2582 134.883 19.1024 135.097 19.0273 135.344Z" fill="#263238"/>
<path d="M21.9492 139.113C21.8286 139.204 21.6828 139.256 21.5315 139.262C21.3802 139.268 21.2307 139.228 21.1029 139.148C17.5541 137.068 15.4366 135.782 14.8906 135.198L15.0154 134.549L21.9492 139.113Z" fill="#E0E0E0"/>
<path d="M18.625 134.673C18.6601 134.673 18.82 134.403 19.1476 134.175C19.4751 133.947 19.7988 133.893 19.7949 133.85C19.6656 133.837 19.5348 133.849 19.4103 133.886C19.2857 133.923 19.1699 133.984 19.0696 134.066C18.9572 134.132 18.8597 134.219 18.7832 134.324C18.7067 134.428 18.6529 134.547 18.625 134.673Z" fill="#263238"/>
<path d="M1.23748 86.7899C1.23748 86.7899 0.570631 93.3363 0.633027 95.4811C0.695423 97.6258 1.16339 101.691 1.16339 101.691L3.38625 102.004L5.23472 86.5967L1.23748 86.7899Z" fill="#FFBF9D"/>
<path d="M1.21064 102.143C1.21064 102.143 0.844067 106.305 0.910362 106.924C0.976658 107.542 2.73543 109.057 3.1995 109.03C3.66357 109.003 3.74546 108.922 3.63627 108.489C3.69557 108.48 3.75206 108.458 3.80134 108.424C3.85061 108.39 3.89135 108.346 3.92039 108.294C3.94944 108.242 3.96601 108.184 3.96881 108.125C3.97161 108.065 3.96058 108.006 3.93656 107.952C3.82736 107.492 3.00841 106.951 3.00841 106.951L2.43126 106.564L2.21677 104.675C2.21677 104.675 2.60674 106.607 3.05131 106.73C3.49588 106.854 3.71037 106.711 3.66747 105.958C3.63237 105.281 3.44518 103.581 3.44518 102.688C3.44342 102.137 3.39779 101.586 3.3087 101.042H1.23404L1.21064 102.143Z" fill="#FFBF9D"/>
<path d="M17.7041 60.2122C17.2835 60.4903 16.9632 60.8938 16.7893 61.3642C16.6154 61.8347 16.597 62.3478 16.7368 62.8292C16.8767 63.3107 17.1674 63.7357 17.567 64.0426C17.9667 64.3495 18.4544 64.5225 18.9598 64.5365C19.7944 64.5636 20.7147 63.9685 20.6952 63.1453C20.7332 63.5275 20.8712 63.8932 21.0955 64.2063C21.3199 64.5195 21.6228 64.7691 21.9743 64.9307C22.3312 65.0801 22.7279 65.1088 23.1029 65.0124C23.4779 64.916 23.8104 64.6999 24.049 64.3974C24.2675 64.0819 24.352 63.6938 24.2841 63.3171C24.2162 62.9403 24.0015 62.6052 23.6863 62.384C24.1137 62.443 24.5489 62.4039 24.9586 62.27C25.3684 62.136 25.7416 61.9106 26.0496 61.6111C26.3502 61.3042 26.5601 60.9213 26.6564 60.5043C26.7526 60.0873 26.7316 59.6521 26.5955 59.2461C26.4469 58.8441 26.1736 58.499 25.815 58.2602C25.4564 58.0214 25.0306 57.9012 24.5989 57.9167C24.8176 57.3951 24.827 56.8103 24.6249 56.2821C24.4229 55.7539 24.0248 55.3221 23.512 55.0752C22.9993 54.8283 22.4107 54.785 21.8668 54.954C21.3229 55.123 20.8647 55.4917 20.586 55.9845C20.3197 55.5516 19.9107 55.2229 19.4282 55.0541C18.9457 54.8853 18.4192 54.8866 17.9376 55.0578C17.4559 55.229 17.0486 55.5596 16.7844 55.9939C16.5203 56.4281 16.4153 56.9394 16.4874 57.4414C16.1003 57.6094 15.7859 57.908 15.6 58.2842C15.4141 58.6603 15.3689 59.0895 15.4722 59.4956C15.5756 59.9016 15.8209 60.2582 16.1646 60.5019C16.5083 60.7456 16.928 60.8607 17.3492 60.8267" fill="#263238"/>
<path d="M20.2144 63.0841C20.6044 61.8784 20.3821 61.577 19.7777 60.8698C19.5188 60.5595 19.1719 60.3333 18.7819 60.2203C18.3919 60.1073 17.9767 60.1128 17.5899 60.236C17.5236 59.2699 17.5626 58.5898 16.7164 58.0642C15.8701 57.5386 15.4022 57.5928 14.357 57.7048C13.6023 57.164 12.6758 56.9115 11.7481 56.9938C10.8419 57.0703 9.99869 57.4846 9.38874 58.1531C8.8238 58.1011 8.25566 58.2103 7.75127 58.4677C7.24688 58.7252 6.82727 59.1202 6.54193 59.6061C6.30404 60.0544 6.20266 60.5722 5.84388 60.9394C5.5741 61.1865 5.36126 61.4883 5.21991 61.8243C5.01347 62.3591 5.02608 62.9526 5.25502 63.4783C5.39931 63.9691 5.73078 64.6763 5.4227 65.0821C4.22548 66.6665 5.71518 68.6142 6.24554 68.7881L15.4957 72.6873C15.7922 72.9914 16.1668 73.2094 16.5792 73.3177C16.9917 73.426 17.4261 73.4205 17.8356 73.3018C18.2225 73.1892 18.5659 72.9632 18.8207 72.6535C19.0754 72.3437 19.2296 71.9648 19.2629 71.5666C19.8967 71.2569 20.3953 70.7294 20.6658 70.0824C20.9362 69.4355 20.9602 68.7131 20.7331 68.05C21.9303 67.1186 22.0083 64.8231 20.2144 63.0841Z" fill="#263238"/>
<path d="M6.88306 63.775C7.21844 61.4563 9.86638 59.3657 12.1165 59.8101L16.5544 61.0931C17.349 61.328 18.034 61.8341 18.4879 62.5216C18.9419 63.2092 19.1356 64.0338 19.0347 64.8493L18.0792 67.4347L17.1316 78.402L17.4943 78.5682C17.4943 78.5682 16.4452 83.5069 12.3427 82.8384C8.64965 82.2549 9.90537 77.8494 9.90537 77.8494L10.1939 74.9704C9.1237 74.7828 8.14979 74.2397 7.43249 73.4306C6.71518 72.6214 6.29722 71.5944 6.2474 70.5185C6.10701 68.567 6.50869 66.3372 6.88306 63.775Z" fill="#FFBF9D"/>
<path d="M8.06145 67.2737C8.04811 67.4014 8.08541 67.5293 8.16546 67.6302C8.24551 67.7312 8.36203 67.7974 8.49041 67.8147C8.55138 67.8246 8.61375 67.8225 8.67387 67.8084C8.734 67.7943 8.79072 67.7685 8.84075 67.7326C8.89078 67.6967 8.93314 67.6513 8.96538 67.5991C8.99762 67.5468 9.01909 67.4888 9.02857 67.4283C9.04199 67.3001 9.00482 67.1718 8.92484 67.0702C8.84487 66.9686 8.72831 66.9017 8.59961 66.8834C8.47603 66.8645 8.34994 66.895 8.24903 66.9682C8.14812 67.0414 8.08065 67.1513 8.06145 67.2737Z" fill="#263238"/>
<path d="M7.36615 65.978C7.41684 66.0398 7.75613 65.8079 8.22409 65.8388C8.69206 65.8698 9.02354 66.1325 9.07814 66.0784C9.13274 66.0243 9.05084 65.9432 8.90655 65.8195C8.71435 65.6626 8.47664 65.5705 8.228 65.5567C7.98506 65.5386 7.74309 65.6026 7.54164 65.7384C7.39345 65.8466 7.33885 65.947 7.36615 65.978Z" fill="#263238"/>
<path d="M12.3191 67.5481C12.3057 67.6758 12.343 67.8037 12.4231 67.9046C12.5031 68.0056 12.6197 68.0718 12.748 68.0891C12.809 68.099 12.8714 68.0969 12.9315 68.0828C12.9916 68.0687 13.0483 68.043 13.0984 68.007C13.1484 67.9711 13.1908 67.9257 13.223 67.8735C13.2552 67.8212 13.2767 67.7632 13.2862 67.7027C13.2996 67.5745 13.2624 67.4462 13.1825 67.3446C13.1025 67.243 12.9859 67.1761 12.8572 67.1578C12.7336 67.1389 12.6076 67.1694 12.5066 67.2426C12.4057 67.3158 12.3383 67.4257 12.3191 67.5481Z" fill="#263238"/>
<path d="M12.1562 66.2681C12.2108 66.33 12.5462 66.0981 13.0181 66.129C13.49 66.1599 13.798 66.4266 13.8682 66.3686C13.9384 66.3106 13.8448 66.2372 13.7006 66.1135C13.508 65.9566 13.2707 65.8634 13.022 65.8469C12.7788 65.8317 12.5374 65.8969 12.3356 66.0324C12.2031 66.1367 12.1562 66.2411 12.1562 66.2681Z" fill="#263238"/>
<path d="M10.3441 69.7922C10.0718 69.6979 9.79107 69.6293 9.50572 69.5873C9.36923 69.5642 9.24443 69.5332 9.22883 69.4559C9.21323 69.3787 9.26784 69.2705 9.33803 69.1545C9.48232 68.9111 9.6344 68.6599 9.79039 68.3816C9.94638 68.1034 10.8043 66.5306 10.8238 66.376C10.3507 66.9804 9.93556 67.6273 9.58372 68.3082L9.14695 69.0811C9.10162 69.1375 9.06937 69.2031 9.05252 69.2732C9.03567 69.3433 9.03463 69.4163 9.04945 69.4869C9.06978 69.5296 9.09907 69.5676 9.13538 69.5983C9.17169 69.6289 9.21419 69.6515 9.26003 69.6646C9.33238 69.6874 9.40685 69.7029 9.48232 69.711C9.76585 69.7685 10.0548 69.7957 10.3441 69.7922Z" fill="#263238"/>
<path d="M10.1639 74.9714C11.9521 75.1575 13.7568 74.8344 15.3662 74.04C15.3662 74.04 13.8648 76.6833 10.0938 75.9723L10.1639 74.9714Z" fill="#EB996E"/>
<path d="M12.1568 64.93C12.2036 65.1 12.6638 65.0189 13.2059 65.1039C13.7479 65.1889 14.1886 65.3899 14.2627 65.2392C14.2939 65.1657 14.2159 65.0034 14.0365 64.8527C13.8198 64.6553 13.5479 64.5274 13.2566 64.4856C12.9752 64.4422 12.6872 64.4882 12.4337 64.617C12.227 64.7175 12.1295 64.8489 12.1568 64.93Z" fill="#263238"/>
<path d="M7.35045 64.3041C7.42454 64.4626 7.82232 64.3776 8.27859 64.4432C8.73486 64.5089 9.09754 64.6751 9.20673 64.5437C9.25743 64.478 9.20672 64.3234 9.07413 64.1573C8.8857 63.9595 8.6331 63.8336 8.36049 63.8017C8.08889 63.7649 7.81285 63.8237 7.58054 63.9679C7.39725 64.0916 7.31925 64.2268 7.35045 64.3041Z" fill="#263238"/>
<path d="M17.9409 67.605C17.9409 67.605 20.4719 66.9442 20.1833 69.2976C19.8947 71.6511 17.6367 70.8666 17.6406 70.797C17.6445 70.7275 17.9409 67.605 17.9409 67.605Z" fill="#FFBF9D"/>
<path d="M18.4597 69.98C18.4597 69.98 18.4948 70.0148 18.561 70.0534C18.6054 70.0807 18.6549 70.0988 18.7065 70.1068C18.758 70.1147 18.8107 70.1124 18.8613 70.0998C19.0234 70.0204 19.1615 69.8999 19.2615 69.7506C19.3615 69.6013 19.4199 69.4285 19.4307 69.2496C19.4637 69.0483 19.4504 68.8422 19.3917 68.6467C19.3799 68.5711 19.3496 68.4995 19.3033 68.4381C19.2571 68.3768 19.1964 68.3277 19.1265 68.2951C19.0821 68.2762 19.0322 68.2741 18.9863 68.289C18.9403 68.3039 18.9015 68.335 18.8769 68.3762C18.8379 68.4381 18.8457 68.4844 18.834 68.4883C18.8223 68.4922 18.7872 68.4419 18.834 68.3492C18.8518 68.292 18.8908 68.2436 18.9432 68.2139C18.977 68.1924 19.0149 68.1782 19.0545 68.1722C19.0942 68.1662 19.1347 68.1686 19.1733 68.1791C19.2693 68.2103 19.3556 68.2654 19.4239 68.3392C19.4922 68.413 19.5402 68.5029 19.5633 68.6004C19.638 68.8164 19.6594 69.0469 19.6257 69.2728C19.6124 69.4818 19.5378 69.6824 19.411 69.8499C19.2842 70.0174 19.1108 70.1446 18.912 70.2157C18.8476 70.2262 18.7815 70.2215 18.7192 70.202C18.6568 70.1826 18.6 70.1489 18.5533 70.1036C18.4558 70.0534 18.4519 69.9993 18.4597 69.98Z" fill="#EB996E"/>
<path d="M10.543 70.9618C10.543 70.9618 10.6405 71.043 10.8354 71.0584C11.0926 71.0797 11.3493 71.0125 11.5624 70.8682C11.7755 70.724 11.9319 70.5114 12.0054 70.2662C12.06 70.0807 12.0405 69.9609 12.0054 69.9609C11.9703 69.9609 11.9547 70.0691 11.8806 70.2237C11.7878 70.4284 11.6395 70.6036 11.4523 70.7298C11.265 70.8561 11.0461 70.9283 10.8199 70.9386C10.66 70.9541 10.5469 70.9348 10.543 70.9618Z" fill="#263238"/>
<g opacity="0.4">
<path d="M13.8396 69.0292C13.7272 68.8993 13.5729 68.8119 13.4028 68.7819C13.2733 68.7667 13.1424 68.7667 13.0129 68.7819C12.8808 68.8009 12.7602 68.8668 12.6736 68.9674C12.6313 69.0181 12.6054 69.0801 12.5991 69.1456C12.5929 69.211 12.6066 69.2769 12.6385 69.3345C12.7001 69.4199 12.7897 69.4813 12.892 69.5084C13.0574 69.5657 13.2315 69.5945 13.4067 69.5934C13.4857 69.5976 13.5647 69.5853 13.6386 69.5574C13.7125 69.5294 13.7796 69.4864 13.8357 69.4311C13.8818 69.3743 13.9073 69.3037 13.908 69.2308C13.9087 69.1579 13.8846 69.0869 13.8396 69.0292Z" fill="#EB996E"/>
</g>
<g opacity="0.4">
<path d="M8.08067 68.7142C7.96722 68.5847 7.81357 68.4964 7.6439 68.463C7.51448 68.4459 7.38335 68.4459 7.25393 68.463C7.12187 68.4819 7.00128 68.5479 6.91465 68.6485C6.86815 68.7008 6.83968 68.7665 6.83337 68.836C6.82706 68.9055 6.84322 68.9751 6.87954 69.0349C6.94112 69.1203 7.03074 69.1817 7.13304 69.2088C7.29821 69.2667 7.47266 69.2942 7.6478 69.29C7.72696 69.2959 7.80647 69.2845 7.88064 69.2564C7.9548 69.2284 8.02177 69.1844 8.07677 69.1277C8.12653 69.0703 8.15422 68.9973 8.15493 68.9216C8.15565 68.8459 8.12935 68.7725 8.08067 68.7142Z" fill="#EB996E"/>
</g>
<path d="M19.7392 64.6258C19.7584 63.9822 19.5684 63.3495 19.1971 62.8211C18.8383 62.2878 18.6901 61.2521 18.1832 60.8541C17.1029 59.9962 15.543 59.8957 14.2054 59.5479C12.8678 59.2001 10.7931 58.3306 9.52572 58.8561L6.21094 62.195C6.31623 62.7979 7.22876 63.1573 7.61093 62.9177C7.80173 62.7945 7.95327 62.6201 8.04787 62.4149C8.14246 62.2096 8.1762 61.9819 8.1452 61.7584C8.83545 62.1448 10.2355 61.7854 10.528 61.0628C11.187 62.0443 12.2282 62.3883 13.2578 61.8356C13.2342 62.1518 13.2933 62.4687 13.4294 62.7557C13.5655 63.0426 13.774 63.2899 14.0347 63.4737C14.2954 63.6574 14.5996 63.7715 14.9178 63.8047C15.236 63.838 15.5574 63.7894 15.8511 63.6635C15.4931 64.1069 15.3238 64.6712 15.3792 65.2364C15.4168 65.5148 15.5524 65.771 15.7623 65.9598C15.9721 66.1487 16.2425 66.2579 16.5258 66.2682C16.1984 66.568 15.9563 66.9478 15.8238 67.3695C15.7596 67.5805 15.7445 67.8031 15.7796 68.0206C15.8147 68.2381 15.8992 68.445 16.0266 68.6255C16.1584 68.8 16.3427 68.9285 16.553 68.9924C16.7633 69.0563 16.9887 69.0523 17.1965 68.981C17.5136 68.8033 17.7681 68.5336 17.9258 68.2081C18.2299 67.7212 18.5354 67.2343 18.8422 66.7474C19.2673 66.0904 19.6924 65.3987 19.7392 64.6258Z" fill="#263238"/>
<path d="M21.1254 64.3617C21.1254 64.3617 21.0903 64.211 20.9772 63.9753C20.8119 63.621 20.5393 63.3265 20.1973 63.1328L20.1661 63.1135V63.0787C20.2625 62.8004 20.3012 62.5056 20.2797 62.2121C20.2583 61.9185 20.1772 61.6323 20.0413 61.3706C19.8723 61.0509 19.6232 60.7795 19.318 60.5826C19.0127 60.3857 18.6615 60.2698 18.2981 60.2461C18.0648 60.227 17.83 60.2479 17.6039 60.3079L17.5064 60.3311V60.2345C17.5584 59.9229 17.5428 59.604 17.4608 59.2988C17.3788 58.9936 17.2321 58.7093 17.0307 58.4646C16.701 58.0697 16.2384 57.8062 15.7282 57.7226C15.388 57.6652 15.0392 57.6824 14.7064 57.7728C14.4724 57.8385 14.3515 57.9042 14.3438 57.8926L14.4296 57.8424C14.5121 57.7953 14.5997 57.7577 14.6908 57.7303C15.0282 57.6176 15.3881 57.5871 15.7399 57.6414C16.2771 57.7149 16.7677 57.9834 17.1165 58.395C17.3323 58.6506 17.49 58.9493 17.5789 59.2707C17.6677 59.5921 17.6856 59.9288 17.6312 60.2577L17.5533 60.1843C17.7934 60.1212 18.0426 60.099 18.2903 60.1186C18.6759 60.1437 19.0482 60.2677 19.3709 60.4784C19.6936 60.6891 19.9555 60.9792 20.131 61.3204C20.2711 61.5956 20.3528 61.8964 20.3709 62.2042C20.389 62.512 20.3432 62.8201 20.2363 63.1097V63.0555C20.5862 63.266 20.8593 63.5813 21.0162 63.956C21.0565 64.0558 21.0866 64.1593 21.1059 64.2651C21.1163 64.2964 21.1229 64.3289 21.1254 64.3617Z" fill="#455A64"/>
<path d="M21.5351 97.5069L12.5969 99.6594L3.69766 96.4326L3.47928 98.7938C3.24052 101.428 3.30857 104.081 3.68207 106.7C4.85199 114.901 7.10994 132.762 7.10994 132.762L13.1857 132.542L13.0103 129.165L12.1757 108.88C12.1813 108.792 12.2093 108.708 12.2571 108.634C12.3049 108.56 12.3709 108.499 12.4489 108.457C12.5269 108.415 12.6144 108.394 12.703 108.395C12.7917 108.396 12.8786 108.419 12.9556 108.463L13.0883 108.517L13.8682 125.694V132.542L19.944 132.712C19.944 132.712 20.2599 128.693 20.6303 124.512C21.0008 120.33 21.8003 104.942 21.9056 103.447C22.0109 101.951 21.5351 97.5069 21.5351 97.5069Z" fill="#263238"/>
<path d="M4.96627 80.9773L3.48047 98.8659C3.48047 98.8659 8.51505 103.005 14.314 102.212C20.1129 101.42 21.8717 97.8456 21.8717 97.8456C21.8717 97.8456 21.4505 90.6423 21.3491 87.9913C21.2282 84.7722 21.4076 77.8587 21.4076 77.8587L17.2544 76.2588C17.2544 76.2588 15.4176 78.419 13.0972 78.1021C10.7769 77.7852 10.0164 76.2588 10.0164 76.2588L7.16964 76.7612L4.96627 80.9773Z" fill="#01A5A3"/>
<path d="M7.20673 76.7607C7.20673 76.7607 4.52761 77.4564 3.60728 78.5307C2.82733 79.4272 0 86.6267 0 86.6267C0 86.6267 5.23346 88.2343 5.23346 88.1107L5.74823 86.1784L7.20673 76.7607Z" fill="#01A5A3"/>
<path d="M19.9195 77.6066C19.9195 77.6066 21.7173 77.4674 23.4956 79.0712C24.0377 79.5658 27.9101 85.0495 27.9101 85.0495L22.2477 88.5275L18.5078 81.471L19.9195 77.6066Z" fill="#01A5A3"/>
<path d="M4.84007 82.1631C4.87366 82.5488 4.87366 82.9367 4.84007 83.3224C4.80498 84.0451 4.73869 85.0421 4.65289 86.1435C4.5671 87.2448 4.4774 88.2419 4.4033 88.9607C4.38324 89.3511 4.32844 89.7391 4.23952 90.12C4.20662 89.7342 4.20662 89.3464 4.23952 88.9607C4.27852 88.2341 4.34481 87.2371 4.4306 86.1357C4.5164 85.0344 4.6022 84.0374 4.68019 83.3147C4.69688 82.9267 4.7504 82.5411 4.84007 82.1631Z" fill="#263238"/>
</svg>
