<svg width="131" height="109" viewBox="0 0 131 109" fill="none" xmlns="http://www.w3.org/2000/svg">
<path d="M129.383 27.2207C125.589 11.608 110.378 -1.64046 94.2722 0.165298C84.779 1.22641 76.2877 7.17115 70.5767 14.7851C68.5395 17.3708 66.7016 20.1047 65.0786 22.9638C63.3757 20.1514 61.4625 17.4694 59.3551 14.9403C53.4313 7.49383 44.7897 1.7849 35.2464 0.984406C19.1029 -0.349747 4.26816 13.302 0.917983 28.9954C-2.4322 44.6887 3.74217 61.2633 13.6737 73.9222C23.6053 86.5811 40.0619 102.808 67.621 108.672C85.6556 104.291 108.324 85.4455 117.899 72.4825C127.473 59.5196 133.184 42.8333 129.383 27.2207Z" fill="#01A5A3"/>
<path d="M126.842 56.318C126.668 56.3649 126.489 56.3858 126.309 56.38L124.744 56.4607L118.726 56.6406L96.5959 57.1184L96.9654 56.833C95.0868 63.9568 92.9264 72.2905 90.5406 81.4372L90.1523 82.9203L89.6263 81.4745C85.5309 70.3483 80.9472 57.8941 76.1191 44.745C74.635 40.6805 73.1697 36.678 71.7357 32.7686L72.6875 32.8493L58.5792 57.5032L58.4415 57.739H58.1722L19.2349 58.0927H8.20753H5.28943C4.95215 58.103 4.61465 58.0822 4.28125 58.0306C4.61146 57.968 4.94695 57.9368 5.28316 57.9376L8.20126 57.8259L19.2287 57.5404L58.1597 56.8144L57.7526 57.0502L71.7733 32.3467L72.3306 31.3662L72.7251 32.4273C74.1529 36.3367 75.6244 40.3392 77.1085 44.4037L90.5218 81.1642L89.6075 81.2014C92.0622 72.0796 94.304 63.7582 96.214 56.653L96.2891 56.3738H96.5834L118.713 56.2373H124.731H126.297C126.481 56.2419 126.664 56.269 126.842 56.318Z" fill="white"/>
<g opacity="0.3">
<path d="M35.6327 6.05027C39.321 7.91188 39.1019 13.6394 37.0542 17.2199C35.0065 20.8004 31.3683 23.1088 27.8427 25.2496C24.3172 27.3905 20.6289 29.5934 18.3746 33.0312C16.2956 36.1959 15.6631 40.0432 14.7551 43.7106C14.4812 45.2158 13.8738 46.6421 12.9767 47.8868C12.0061 49.0658 10.378 49.8477 8.90641 49.4009C6.8462 48.7804 6.12606 46.2982 5.90689 44.1636C4.34765 29.0411 11.6429 14.08 25.2879 7.14862C25.2879 7.13 31.3745 3.90322 35.6327 6.05027Z" fill="white"/>
</g>
<g opacity="0.3">
<path d="M20.8431 64.1772C19.9915 62.1481 16.9169 60.7705 15.0132 61.8936L15.151 61.8192C13.0281 62.4397 12.5084 64.5061 13.097 66.6221C13.4304 67.67 14.1586 68.5501 15.1302 69.0794C16.1017 69.6088 17.2418 69.7466 18.3133 69.4642C18.8301 69.2822 19.3056 69.0009 19.7125 68.6365C20.1195 68.2722 20.45 67.8318 20.6849 67.3407C20.9199 66.8496 21.0549 66.3174 21.082 65.7746C21.1092 65.2317 21.028 64.6889 20.8431 64.1772Z" fill="white"/>
</g>
</svg>
