<svg width="172" height="44" viewBox="0 0 172 44" fill="none" xmlns="http://www.w3.org/2000/svg">
<path d="M148.685 43.9941H22.1367C9.9583 43.9941 0 34.0973 0 22C0 9.89677 9.9583 0 22.1367 0H148.685C164.274 0.0175578 172 9.89677 172 22C172 34.0973 163.155 44.0234 148.685 44V43.9941Z" fill="#01A5A3"/>
<path d="M9.74466 24.4173C11.0879 24.4173 12.1768 23.3351 12.1768 22.0001C12.1768 20.6652 11.0879 19.583 9.74466 19.583C8.40141 19.583 7.3125 20.6652 7.3125 22.0001C7.3125 23.3351 8.40141 24.4173 9.74466 24.4173Z" fill="#FEFEFE"/>
<path d="M162.223 24.4173C163.566 24.4173 164.655 23.3351 164.655 22.0001C164.655 20.6652 163.566 19.583 162.223 19.583C160.88 19.583 159.791 20.6652 159.791 22.0001C159.791 23.3351 160.88 24.4173 162.223 24.4173Z" fill="#FEFEFE"/>
<path d="M22.1133 31.1189V14.0469H28.2379C29.8338 14.0469 31.1235 14.4331 32.0952 15.2115C33.0727 15.9899 33.5615 17.0668 33.5615 18.448C33.5615 19.2498 33.3731 19.9697 33.0021 20.6135C32.6311 21.2573 32.1246 21.7548 31.4768 22.1059V22.1527C32.3778 22.4103 33.0668 22.9136 33.5439 23.6686C34.0209 24.4236 34.2564 25.2546 34.2564 26.1676C34.2564 27.7888 33.6911 29.0179 32.5604 29.8606C31.4297 30.7034 30.0222 31.1248 28.3262 31.1248H22.1074L22.1133 31.1189ZM25.2345 21.0173H28.2614C28.921 21.0173 29.4451 20.8125 29.822 20.4028C30.1989 19.9931 30.3932 19.4664 30.3932 18.8285C30.3932 18.1905 30.2048 17.6931 29.822 17.3009C29.4451 16.9088 28.9033 16.7098 28.2143 16.7098H25.2404V21.0115L25.2345 21.0173ZM25.2345 28.4502H28.5735C29.345 28.4502 29.9575 28.2219 30.3991 27.7654C30.8408 27.3089 31.0646 26.7119 31.0646 25.9745C31.0646 25.2371 30.8408 24.6635 30.3991 24.207C29.9575 23.7505 29.345 23.5223 28.5735 23.5223H25.2345V28.4502Z" fill="#FEFEFE"/>
<path d="M36.0002 31.119L41.3239 22.4629L36.1946 14.0469H39.7515L42.1248 18.2315L43.1907 20.2975H43.2378C43.5617 19.5893 43.9151 18.9045 44.3037 18.2315L46.7006 14.0469H50.2575L45.1046 22.4629L50.4518 31.119H46.9656L44.2802 26.5247L43.2143 24.5055H43.1672C42.8433 25.1961 42.4958 25.8692 42.1248 26.5247L39.463 31.119H36.0002Z" fill="#FEFEFE"/>
<path d="M71.4219 22.5094C71.4219 20.0104 72.2522 17.9268 73.9129 16.2588C75.5736 14.5908 77.6878 13.7598 80.2554 13.7598C82.823 13.7598 84.9842 14.5382 86.5978 16.095L85.0961 18.4009C84.466 17.8742 83.7299 17.4411 82.8819 17.1016C82.0339 16.7622 81.2094 16.5983 80.4026 16.5983C78.5947 16.5983 77.1813 17.1601 76.1684 18.2838C75.1496 19.4075 74.6432 20.8005 74.6432 22.4685C74.6432 24.1365 75.1614 25.5938 76.192 26.7877C77.2225 27.9816 78.6359 28.5786 80.4262 28.5786C82.2164 28.5786 83.9242 27.8587 85.4082 26.4131L87.0513 28.6488C85.2257 30.4924 82.9761 31.4171 80.3025 31.4171C77.6289 31.4171 75.4971 30.5743 73.8658 28.8946C72.2346 27.2091 71.4219 25.0846 71.4219 22.5211V22.5094Z" fill="#FEFEFE"/>
<path d="M89.4648 31.119V14.0469H103.381V31.119H100.259V16.7157H92.586V31.119H89.4648Z" fill="#FEFEFE"/>
<path d="M106.949 31.119V14.0469H110.071V23.9085L109.9 26.5539H109.947C110.495 25.4478 110.977 24.5582 111.401 23.8851L117.885 14.0469H120.983V31.119H117.885V21.2807L118.056 18.6353H118.009C117.479 19.7239 117.002 20.6077 116.584 21.2807L110.053 31.119H106.955H106.949Z" fill="#FEFEFE"/>
<path d="M123.633 22.5094C123.633 20.0104 124.463 17.9268 126.124 16.2588C127.785 14.5908 129.899 13.7598 132.466 13.7598C135.034 13.7598 137.195 14.5382 138.809 16.095L137.307 18.4009C136.677 17.8742 135.941 17.4411 135.093 17.1016C134.245 16.7622 133.42 16.5983 132.614 16.5983C130.806 16.5983 129.392 17.1601 128.379 18.2838C127.361 19.4075 126.854 20.8005 126.854 22.4685C126.854 24.1365 127.372 25.5938 128.403 26.7877C129.433 27.9816 130.847 28.5786 132.637 28.5786C134.427 28.5786 136.135 27.8587 137.619 26.4131L139.262 28.6488C137.437 30.4924 135.187 31.4171 132.513 31.4171C129.84 31.4171 127.708 30.5743 126.077 28.8946C124.445 27.2091 123.633 25.0846 123.633 22.5211V22.5094Z" fill="#FEFEFE"/>
<path d="M141.672 31.119V14.0469H151.954V16.7157H144.793V21.1871H150.576V23.8559H144.793V28.4502H152.343V31.119H141.672Z" fill="#FEFEFE"/>
<path d="M66.393 16.2705C64.691 14.5967 62.5828 13.7598 60.0623 13.7598C57.5418 13.7598 55.4335 14.5967 53.7316 16.2705C52.0297 17.9444 51.1758 20.0104 51.1758 22.4626C51.1758 24.9148 52.0238 27.0979 53.7316 28.8244C55.4335 30.5509 57.5418 31.4113 60.0623 31.4113C62.5828 31.4113 64.6851 30.5509 66.393 28.8244C68.0949 27.1037 68.9488 24.9792 68.9488 22.4626C68.9488 19.946 68.0949 17.9444 66.393 16.2705ZM65.062 23.6975C64.479 24.8973 62.3295 26.9574 59.9975 27.8997C57.7479 26.9633 55.6279 25.0729 54.9683 23.6975C53.8729 21.4208 54.7798 19.4251 56.152 18.8223C58.3721 17.8449 59.8562 20.2035 60.0152 20.5078C60.1742 20.1976 61.6464 17.8859 63.8784 18.8223C65.2623 19.4017 66.1692 21.4208 65.062 23.6975Z" fill="#FEFEFE"/>
</svg>
