<svg width="298" height="77" viewBox="0 0 298 77" fill="none" xmlns="http://www.w3.org/2000/svg">
<path d="M257.61 76.4999L257.611 76.4999C270.022 76.5237 279.987 72.2367 286.849 65.3556C293.713 58.4723 297.5 48.9655 297.5 38.5C297.5 28.0164 294.188 18.5315 287.573 11.667C280.961 4.80672 271.003 0.514221 257.609 0.5H38.3494C17.5355 0.5 0.5 17.5991 0.5 38.5C0.5 59.4008 17.5355 76.4999 38.3494 76.4999L257.61 76.4999Z" fill="#00A5A3" stroke="#FEFEFE"/>
<path d="M21.0997 38.4999C21.0997 40.8394 19.2111 42.7354 16.8807 42.7354C14.5514 42.7354 12.6617 40.8394 12.6617 38.4999C12.6617 36.1615 14.5514 34.2645 16.8807 34.2645C19.2111 34.2645 21.0997 36.1615 21.0997 38.4999Z" fill="white"/>
<path d="M285.283 38.4999C285.283 40.8394 283.394 42.7354 281.064 42.7354C278.734 42.7354 276.845 40.8394 276.845 38.4999C276.845 36.1615 278.734 34.2645 281.064 34.2645C283.394 34.2645 285.283 36.1615 285.283 38.4999Z" fill="white"/>
<path d="M43.7248 49.794H49.511C50.8527 49.794 51.9067 49.3935 52.676 48.5945C53.4443 47.7956 53.829 46.7498 53.829 45.4592C53.829 44.1963 53.4443 43.1648 52.676 42.3658C51.9067 41.5659 50.8527 41.1654 49.511 41.1654H43.7248V49.794ZM43.7248 36.7886H48.9662C50.111 36.7886 51.0129 36.4311 51.67 35.7151C52.326 35.0002 52.6546 34.0814 52.6546 32.9578C52.6546 31.8638 52.326 30.9737 51.67 30.2854C51.0129 29.5991 50.0834 29.2549 48.8815 29.2549H43.7248V36.7886ZM38.3162 54.4668V24.5832H48.9233C51.6914 24.5832 53.9198 25.2643 55.6104 26.6246C57.3021 27.9859 58.1479 29.8726 58.1479 32.2848C58.1479 33.6881 57.8255 34.952 57.1827 36.0726C56.5399 37.1952 55.6594 38.0659 54.5422 38.6825V38.7665C56.1063 39.2162 57.3021 40.1001 58.1265 41.4184C58.9509 42.7377 59.3631 44.1963 59.3631 45.7962C59.3631 48.6304 58.3846 50.7835 56.4287 52.2564C54.4718 53.7303 52.0261 54.4668 49.0917 54.4668H38.3162Z" fill="white"/>
<path d="M62.3674 54.4668L71.591 39.3145L62.7031 24.5832H68.8658L72.9746 31.9079L74.8193 35.5267H74.903C75.4621 34.2924 76.0773 33.0858 76.7477 31.9079L80.8983 24.5832H87.062L78.1312 39.3145L87.3967 54.4668H81.3595L76.7059 46.4272L74.8611 42.8923H74.7775C74.2183 44.0989 73.6174 45.2769 72.9746 46.4272L68.3628 54.4668H62.3674Z" fill="white"/>
<path d="M123.745 39.3984C123.745 35.0216 125.184 31.3741 128.062 28.4549C130.942 25.5377 134.604 24.0781 139.048 24.0781C143.575 24.0781 147.236 25.4394 150.032 28.1609L147.432 32.2017C146.342 31.2748 145.064 30.5178 143.597 29.9288C142.129 29.3399 140.696 29.0449 139.299 29.0449C136.169 29.0449 133.723 30.0272 131.962 31.9918C130.201 33.9553 129.321 36.3962 129.321 39.3144C129.321 42.2603 130.214 44.78 132.004 46.8696C133.793 48.9601 136.238 50.0049 139.341 50.0049C142.527 50.0049 145.406 48.742 147.978 46.2171L150.829 50.1319C147.67 53.3584 143.77 54.9717 139.132 54.9717C134.52 54.9717 130.802 53.4988 127.979 50.5529C125.156 47.606 123.745 43.8878 123.745 39.3984Z" fill="white"/>
<path d="M155.005 54.4668V24.5832H179.112V54.4668H173.704V29.256H160.414V54.4668H155.005Z" fill="white"/>
<path d="M185.303 54.4668V24.5832H190.712V41.8404L190.418 46.4691H190.501C191.451 44.5332 192.29 42.9763 193.017 41.7984L204.253 24.5832H209.62V54.4668H204.253V37.2516L204.547 32.6228H204.463C203.541 34.5311 202.716 36.0736 201.989 37.2516L190.67 54.4668H185.303Z" fill="white"/>
<path d="M214.199 39.3984C214.199 35.0216 215.639 31.3741 218.517 28.4549C221.397 25.5377 225.059 24.0781 229.503 24.0781C234.031 24.0781 237.692 25.4394 240.487 28.1609L237.888 32.2017C236.797 31.2748 235.519 30.5178 234.052 29.9288C232.584 29.3399 231.152 29.0449 229.754 29.0449C226.624 29.0449 224.178 30.0272 222.417 31.9918C220.656 33.9553 219.775 36.3962 219.775 39.3144C219.775 42.2603 220.67 44.78 222.459 46.8696C224.247 48.9601 226.694 50.0049 229.796 50.0049C232.982 50.0049 235.861 48.742 238.433 46.2171L241.284 50.1319C238.125 53.3584 234.225 54.9717 229.587 54.9717C224.975 54.9717 221.257 53.4988 218.434 50.5529C215.611 47.606 214.199 43.8878 214.199 39.3984Z" fill="white"/>
<path d="M245.46 54.4668V24.5832H263.278V29.256H250.868V37.0836H260.889V41.7564H250.868V49.794H263.949V54.4668H245.46Z" fill="white"/>
<path d="M112.722 41.4736C111.708 43.5765 107.984 47.182 103.951 48.8259C100.054 47.182 96.3857 43.8756 95.2399 41.4736C93.337 37.485 94.9114 33.9983 97.2897 32.9402C101.131 31.2317 103.707 35.3535 103.981 35.8943C104.253 35.3535 106.809 31.3055 110.672 32.9402C113.069 33.9543 114.64 37.4922 112.722 41.4736ZM115.027 28.4764C112.077 25.5439 108.423 24.0781 104.063 24.0781C99.7028 24.0781 96.048 25.5439 93.0993 28.4764C90.1496 31.4089 88.6763 35.0206 88.6763 39.3144C88.6763 43.7199 90.1496 47.4298 93.0993 50.4464C96.048 53.4629 99.7028 54.9717 104.063 54.9717C108.423 54.9717 112.077 53.4629 115.027 50.4464C117.974 47.4298 119.45 43.7199 119.45 39.3144C119.45 35.0206 117.974 31.4089 115.027 28.4764Z" fill="white"/>
</svg>
