<svg width="21" height="21" viewBox="0 0 21 21" fill="none" xmlns="http://www.w3.org/2000/svg">
<path d="M10.5 0C4.70995 0 0 4.70995 0 10.5C0 16.2901 4.70995 21 10.5 21C16.2901 21 21 16.2892 21 10.5C21 4.71077 16.2901 0 10.5 0ZM10.5 19.3734C5.60786 19.3734 1.62664 15.393 1.62664 10.5C1.62664 5.60704 5.60786 1.62664 10.5 1.62664C15.3921 1.62664 19.3734 5.60704 19.3734 10.5C19.3734 15.393 15.393 19.3734 10.5 19.3734Z" fill="#707070"/>
<path d="M14.5666 9.61341H11.3133V6.36013C11.3133 5.91118 10.9497 5.54679 10.5 5.54679C10.0502 5.54679 9.68661 5.91118 9.68661 6.36013V9.61341H6.43333C5.98356 9.61341 5.62 9.97779 5.62 10.4267C5.62 10.8757 5.98356 11.2401 6.43333 11.2401H9.68661V14.4934C9.68661 14.9423 10.0502 15.3067 10.5 15.3067C10.9497 15.3067 11.3133 14.9423 11.3133 14.4934V11.2401H14.5666C15.0163 11.2401 15.3799 10.8757 15.3799 10.4267C15.3799 9.97779 15.0163 9.61341 14.5666 9.61341Z" fill="#707070"/>
</svg>
