<svg width="23" height="25" viewBox="0 0 23 25" fill="none" xmlns="http://www.w3.org/2000/svg">
<path d="M17.856 0C18.7667 2.8299 18.7519 5.66532 18.3164 8.5872C19.607 7.23963 21.1915 6.70566 23 6.55435C22.9536 6.94298 22.9244 7.31368 22.8646 7.68023C22.6235 9.1621 21.9372 10.4398 21.0348 11.6241C19.7507 13.3078 18.3183 14.8638 16.8928 16.4266C16.2192 17.1655 15.548 17.9066 14.8793 18.6498C14.8297 18.7046 14.7866 18.7653 14.7402 18.8228L14.7597 18.8913C14.8956 18.8803 15.0379 18.889 15.1655 18.8517C15.2682 18.8167 15.3597 18.7553 15.4307 18.6737C15.9988 18.0455 16.6827 17.5598 17.3876 17.1004C18.315 16.4965 19.1381 15.7666 19.9381 15.0063C20.0156 14.9262 20.1102 14.8643 20.215 14.8251C20.3198 14.7859 20.4321 14.7705 20.5437 14.78C20.814 14.8003 21.0134 14.9139 21.1141 15.1737C21.2147 15.4336 21.1827 15.6613 20.9851 15.8728C18.1824 18.8757 15.1817 21.6678 11.9496 24.2112C11.7015 24.4067 11.4617 24.6123 11.215 24.8091C11.1001 24.9001 10.9641 24.9611 10.8194 24.9865C10.6746 25.012 10.5258 25.0012 10.3863 24.955C10.2469 24.9088 10.1213 24.8288 10.0211 24.7222C9.9208 24.6156 9.84902 24.4858 9.81227 24.3446C9.73669 24.0553 9.86236 23.8359 10.065 23.6487C10.3706 23.3668 10.6859 23.0968 10.9883 22.8107C11.3249 22.4934 11.4422 22.0965 11.4056 21.6412C11.394 21.4894 11.3282 21.4112 11.2025 21.3436C10.4072 20.9117 9.54703 20.7839 8.65483 20.7756C7.64299 20.7664 6.6307 20.76 5.62025 20.7149C4.55138 20.6689 3.56875 20.3276 2.73823 19.6511C2.01066 19.0587 1.29375 18.4479 0.624134 17.7925C-0.0528968 17.1302 -0.112253 16.2881 0.130272 15.4166C0.274953 14.8969 0.53139 14.4222 0.964968 14.0902C2.61952 12.8194 4.26665 11.5344 6.1322 10.5699C6.96365 10.1399 7.84796 9.8851 8.79858 9.89476C8.8802 9.89476 8.98825 9.7922 9.04204 9.71079C9.83036 8.51223 10.5677 7.2732 11.4098 6.11466C12.9016 4.05973 14.7486 2.3433 16.7699 0.803483C17.1163 0.538568 17.472 0.283312 17.856 0ZM16.2436 3.84173C16.1216 3.92911 16.015 4.00316 15.9107 4.08043C13.6783 5.74074 11.9561 7.83339 10.6326 10.2544C10.2961 10.8642 10.0064 11.4982 9.7659 12.1511C9.55259 12.738 9.7659 13.209 10.289 13.5631C10.4537 13.6769 10.6278 13.7769 10.8093 13.862C11.644 14.2433 12.1643 14.9033 12.513 15.7197C12.5751 15.8655 12.6257 16.0159 12.691 16.1897C12.7838 16.1281 12.8724 16.0904 12.9308 16.0264C13.2809 15.6415 13.6811 15.2864 13.9612 14.855C15.7766 12.0587 16.7259 9.00987 16.5784 5.66072C16.5511 5.05592 16.4694 4.4571 16.2436 3.84173ZM10.7328 19.3816C10.7671 18.9883 10.8348 18.6255 10.8255 18.2644C10.7889 17.1077 10.3442 16.1869 9.26184 15.6157C8.89365 15.4212 8.55931 15.1392 8.25835 14.8472C7.48255 14.0938 7.34529 13.2531 7.78907 12.2666C7.86558 12.0969 7.93931 11.9258 8.03298 11.7147C7.8985 11.745 7.81735 11.7607 7.73759 11.7814C6.7814 12.0458 5.91889 12.503 5.12592 13.0829C4.36821 13.6371 3.62486 14.212 2.88987 14.7957C2.67529 14.9681 2.48912 15.1726 2.33804 15.4019C1.93971 16.0062 2.02967 16.5365 2.57871 17.0116C3.02713 17.3988 3.46581 17.7985 3.93138 18.1642C4.20259 18.3771 4.49722 18.5588 4.80967 18.7059C5.5697 19.0628 6.38631 19.1406 7.20942 19.0509C8.38309 18.9212 9.53404 18.998 10.7328 19.3816ZM16.8144 14.2944L16.8478 14.3146C16.8845 14.2755 16.9216 14.2369 16.9568 14.1969C17.8782 13.1542 18.807 12.1176 19.7178 11.0653C20.1704 10.5423 20.6095 10.0033 20.8585 9.34653C20.948 9.10967 21.0093 8.86223 21.0904 8.58904C20.6044 8.67036 20.1519 8.88714 19.7855 9.21407C19.2434 9.68043 18.7189 10.167 18.1935 10.6527C18.1268 10.7143 18.0934 10.8201 18.0651 10.9121C17.8397 11.6425 17.6426 12.3839 17.3885 13.1018C17.2448 13.5153 17.0092 13.8979 16.8144 14.2944Z" fill="white"/>
</svg>
