<svg width="42" height="38" viewBox="0 0 42 38" fill="none" xmlns="http://www.w3.org/2000/svg">
<path d="M26.7083 32.2947L22.2631 29.2134C21.9519 29.0041 21.6588 28.776 21.3861 28.5308C21.2767 28.427 21.1382 28.3486 20.9835 28.3028C20.8288 28.2571 20.6629 28.2455 20.5015 28.2692C18.1066 28.4515 15.6928 28.2348 13.3952 27.6313C11.5988 27.1672 9.90267 26.4584 8.37283 25.5324C7.82561 25.2006 7.66819 24.7987 7.94555 24.4606C8.2229 24.1225 8.74763 24.0715 9.33233 24.4287C11.0073 25.4476 12.8989 26.1799 14.9019 26.585C16.3966 26.8878 17.9313 27.023 19.4671 26.9869C18.9498 26.5212 18.4776 26.1002 18.0128 25.6727C16.0828 23.8871 14.2972 21.9923 12.6681 20.0013C12.5962 19.9136 12.5039 19.8394 12.3968 19.7835C12.2898 19.7275 12.1703 19.6909 12.0459 19.6759C9.38727 19.2976 6.85886 18.4264 4.63976 17.1241C4.40787 16.9905 4.21753 16.811 4.08505 16.601C4.01636 16.4626 4.00727 16.308 4.05938 16.1644C4.11149 16.0209 4.22145 15.8976 4.3699 15.8163C4.50546 15.7308 4.6697 15.6847 4.83841 15.6847C5.00711 15.6847 5.17135 15.7308 5.30692 15.8163C6.99381 16.8747 8.91329 17.634 10.9515 18.0491C10.9913 18.0538 11.0316 18.0538 11.0714 18.0491L10.1494 16.7732C8.0963 13.9113 6.28999 10.9263 4.74471 7.8418C4.68375 7.75773 4.64496 7.6634 4.63101 7.56533C4.61707 7.46725 4.6283 7.36777 4.66394 7.27376C4.69957 7.17974 4.75876 7.09342 4.83742 7.02077C4.91607 6.94812 5.01232 6.89087 5.11951 6.85296C5.56928 6.69347 5.95908 6.85296 6.20645 7.32505C7.16595 9.05179 8.13295 10.7743 9.10745 12.4925C9.16742 12.601 9.24238 12.6967 9.30984 12.7987H9.43728C9.43728 12.4925 9.43728 12.1608 9.43728 11.8801C9.43728 11.5994 9.43728 11.2038 9.43728 10.8657C9.42449 10.7757 9.43438 10.6845 9.46629 10.598C9.49819 10.5116 9.55138 10.4319 9.6223 10.3643C9.69323 10.2967 9.78027 10.2427 9.87762 10.2059C9.97497 10.1692 10.0804 10.1506 10.1869 10.1512C10.289 10.146 10.3914 10.1586 10.4876 10.1883C10.5838 10.218 10.6718 10.2642 10.7463 10.324C10.8207 10.3837 10.88 10.4558 10.9204 10.5359C10.9609 10.6159 10.9817 10.7021 10.9815 10.7892C11.1111 11.8446 11.0606 12.9104 10.8316 13.9534C10.7866 14.1895 10.6966 14.4191 10.6591 14.6552C10.6551 14.7612 10.6891 14.8658 10.7566 14.955C12.5289 17.5514 14.5338 20.0277 16.7535 22.3617C16.8221 22.4186 16.8947 22.4718 16.9709 22.5212C17.1808 21.7621 17.4056 21.0603 17.5556 20.3458C17.7893 19.1488 17.8723 17.9341 17.8029 16.7222C17.7165 15.3389 17.4653 13.9666 17.0533 12.6265C17.0001 12.5157 16.9846 12.3944 17.0086 12.2764C17.0325 12.1585 17.095 12.0487 17.1888 11.9595C17.2826 11.8703 17.404 11.8054 17.5391 11.7722C17.6742 11.739 17.8176 11.7388 17.9529 11.7716C18.1138 11.791 18.263 11.8544 18.3779 11.9522C18.4928 12.05 18.5673 12.1769 18.59 12.3139C18.7924 13.156 19.0398 13.9917 19.1522 14.8657C19.2862 15.8953 19.3538 16.9303 19.3546 17.9662C19.3692 19.8342 18.9752 21.6882 18.1927 23.4335C18.1421 23.5124 18.1235 23.6033 18.1397 23.6921C18.156 23.7809 18.2063 23.8627 18.2827 23.9247C21.1734 26.7363 24.4617 29.2326 28.0726 31.3569C29.287 32.0651 30.5538 32.7158 31.8207 33.3857C31.9556 33.4622 32.1055 33.5132 32.2704 33.5898C31.9931 32.7477 31.6783 31.9439 31.5208 31.1145C31.4009 30.585 31.1085 30.4447 30.5313 30.3171C29.0482 30.0359 27.6888 29.4032 26.6103 28.4921C25.5319 27.5811 24.7784 26.4289 24.437 25.1688C23.763 22.8821 24.0521 20.4666 25.2541 18.3426C26.6355 15.7215 28.6838 13.3943 31.251 11.5292C32.5628 10.5404 34.017 9.69188 35.4188 8.79235C35.6128 8.67018 35.8395 8.59123 36.0785 8.56269C36.1752 8.55201 36.2735 8.55853 36.3671 8.58185C36.4607 8.60516 36.5475 8.64475 36.6222 8.69812C36.6969 8.75149 36.7578 8.81748 36.801 8.8919C36.8441 8.96632 36.8687 9.04756 36.8731 9.13047C37.2688 10.6534 37.8752 12.131 38.6796 13.5324C39.7131 15.4305 40.4684 17.4295 40.9285 19.4845C41.5774 22.1445 41.0004 24.9149 39.3168 27.223C38.6757 28.1499 37.7817 28.9318 36.7105 29.5026C35.6393 30.0733 34.4223 30.4162 33.1625 30.5021L32.9076 30.5404C33.1175 31.1783 33.2974 31.8163 33.5373 32.4542C33.7772 33.0922 34.062 33.7302 34.3619 34.3681C34.4633 34.55 34.6354 34.6964 34.8491 34.7828C36.1759 35.2995 37.5177 35.7908 38.8595 36.282C39.3768 36.4734 39.5717 36.7541 39.4217 37.1432C39.3955 37.2409 39.3426 37.3319 39.2673 37.4089C39.1921 37.4859 39.0966 37.5468 38.9885 37.5865C38.8805 37.6263 38.763 37.6438 38.6455 37.6377C38.528 37.6317 38.4139 37.6021 38.3123 37.5515C36.4383 36.8434 34.5643 36.1608 32.7277 35.3761C31.2735 34.7381 29.9017 33.9981 28.5074 33.2772C28.4216 33.21 28.3092 33.1726 28.1926 33.1726C28.0759 33.1726 27.9635 33.21 27.8777 33.2772C26.2086 34.378 24.2646 35.1376 22.1957 35.4973C19.1251 36.0592 15.9227 35.7477 13.0804 34.6105C9.76687 33.2704 6.98841 31.1321 5.08953 28.4606C3.10861 25.7167 1.75078 22.6805 1.0866 19.5101C0.336412 16.3047 0.0544213 13.0327 0.247037 9.76843C0.359479 7.85456 0.696804 5.88326 0.996649 3.95025C1.12408 3.10177 1.34897 2.25966 1.55136 1.39842C1.75376 0.537172 2.30097 0.460617 3.05058 0.907188C5.21867 2.1364 7.55149 3.14085 9.99949 3.89921C13.4507 4.99002 16.8159 6.26858 20.0743 7.72696C22.7069 8.91832 25.1273 10.4219 27.263 12.1927C27.386 12.2732 27.4819 12.3799 27.5411 12.5019C27.6003 12.624 27.6207 12.7571 27.6004 12.888C27.5799 13.0131 27.5162 13.1302 27.4175 13.2245C27.3187 13.3187 27.1893 13.3859 27.0457 13.4176C26.8898 13.4493 26.7269 13.4447 26.5739 13.4042C26.4209 13.3638 26.2835 13.2891 26.1761 13.1879C25.2691 12.5117 24.3845 11.8099 23.44 11.1783C21.5677 9.9317 19.5236 8.88409 17.3532 8.0587C14.4897 6.96779 11.5812 5.95344 8.68766 4.92633C6.76431 4.28345 4.90648 3.50677 3.13304 2.60416C3.05031 2.56812 2.96522 2.53617 2.87817 2.50846C2.70576 3.29953 2.53335 4.06508 2.39093 4.83063C1.9025 7.47598 1.69926 10.1538 1.78374 12.8306C1.83779 16.544 2.61546 20.2239 4.08505 23.7206C5.17239 26.3226 6.91757 28.6899 9.1974 30.6552C11.3398 32.5505 14.1363 33.8153 17.1808 34.266C18.8255 34.5009 20.5089 34.4526 22.1313 34.1238C23.7536 33.7951 25.282 33.1926 26.6259 32.3522C26.6558 32.3357 26.6835 32.3165 26.7083 32.2947ZM30.9211 29.0348C30.9211 28.8689 30.9211 28.7286 30.9211 28.5882C30.8237 27.6887 30.6813 26.7892 30.6438 25.8833C30.5652 23.7444 30.7663 21.6047 31.2435 19.5037C31.7799 17.0842 32.5986 14.7163 33.6872 12.4351C33.7099 12.3395 33.7581 12.2496 33.828 12.1723C33.8979 12.095 33.9877 12.0324 34.0905 11.9893C34.1933 11.9461 34.3064 11.9236 34.421 11.9235C34.5356 11.9234 34.6487 11.9456 34.7517 11.9885C34.8542 12.0275 34.9464 12.0838 35.0228 12.1539C35.0991 12.2241 35.1579 12.3066 35.1958 12.3966C35.2336 12.4866 35.2496 12.5822 35.2428 12.6777C35.2361 12.7731 35.2067 12.8663 35.1565 12.9518C34.6842 14.0938 34.182 15.223 33.7622 16.3713C32.919 18.6718 32.4154 21.0527 32.263 23.459C32.1357 25.2595 32.2312 27.0663 32.5478 28.8498C32.6003 29.1241 32.7277 29.1624 32.9976 29.1432C34.2866 29.0659 35.5118 28.6363 36.4908 27.9184C37.4244 27.1987 38.1758 26.3246 38.6991 25.3495C39.2224 24.3744 39.5065 23.3187 39.5342 22.2469C39.641 20.5855 39.3397 18.9233 38.6496 17.3665C37.945 15.7078 37.1504 14.081 36.3633 12.4415C36.0485 11.7589 35.7711 11.0635 35.4638 10.349C35.104 10.5723 34.7142 10.7764 34.3993 10.9869C31.1808 12.9573 28.5745 15.5652 26.8058 18.585C25.748 20.3554 25.3779 22.3658 25.7488 24.3266C25.9745 25.4563 26.5849 26.5046 27.5044 27.3416C28.4239 28.1786 29.612 28.7673 30.9211 29.0348Z" fill="#757575"/>
</svg>
