<svg viewBox="0 0 24 22" fill="none" xmlns="http://www.w3.org/2000/svg">
<path d="M23.5 12.2378C23.4517 12.3442 23.3639 12.4019 23.2508 12.4398C22.96 12.5377 22.6713 12.6418 22.3824 12.745C22.2458 12.7937 22.1059 12.8613 22.1116 13.0179C22.1184 13.2051 22.1627 13.3959 22.3657 13.4908C22.6474 13.6219 22.9318 13.7435 23.2141 13.871C23.4071 13.9581 23.4547 14.0784 23.3665 14.262C23.0524 14.9175 22.7371 15.5721 22.4204 16.226C22.3315 16.4103 22.2036 16.4558 22.0113 16.3721C21.7269 16.2484 21.4438 16.1221 21.1599 15.9977C21.0134 15.9336 20.7325 15.9872 20.6055 16.1142C20.4882 16.2312 20.5229 16.3708 20.5731 16.5041C20.6804 16.7886 20.7923 17.0714 20.9001 17.3556C20.9716 17.5443 20.9146 17.666 20.7179 17.7355C20.0076 17.9867 19.2968 18.2366 18.5855 18.4851C18.3959 18.5525 18.2703 18.4928 18.1987 18.3094C18.0894 18.0298 17.9823 17.7483 17.8734 17.4691C17.816 17.3201 17.5857 17.1731 17.3994 17.1753C17.2295 17.1776 17.1501 17.2956 17.087 17.4258C16.9571 17.6933 16.8275 17.961 16.6981 18.2288C16.5953 18.4405 16.4761 18.4842 16.2585 18.3882C15.5848 18.0912 14.9113 17.7937 14.238 17.4958C14.0303 17.404 13.9839 17.2862 14.0777 17.0901C14.2047 16.8252 14.3333 16.5613 14.4605 16.2967C14.5331 16.1461 14.4655 15.8422 14.3291 15.7399C14.22 15.6582 14.0944 15.6703 13.9714 15.7123C13.6738 15.8146 13.3779 15.9205 13.081 16.0249C12.8388 16.11 12.7236 16.0604 12.6351 15.8328C12.3805 15.1706 12.1261 14.5083 11.8719 13.8459C11.7904 13.6338 11.8437 13.5252 12.0667 13.4462C12.3483 13.3465 12.6299 13.248 12.913 13.1486C13.0815 13.0891 13.2556 12.8393 13.2366 12.6692C13.2213 12.5325 13.1193 12.4537 12.9977 12.3999C12.7078 12.2697 12.4168 12.1422 12.126 12.0143C11.9207 11.9245 11.8707 11.8022 11.9641 11.6083C12.277 10.9571 12.5914 10.3063 12.9073 9.65572C13 9.4645 13.1254 9.42073 13.3248 9.50826C13.6053 9.63125 13.8846 9.75514 14.1651 9.87903C14.3214 9.94748 14.6434 9.87386 14.744 9.741C14.8283 9.62878 14.8058 9.50579 14.7607 9.38684C14.6532 9.10249 14.542 8.81948 14.4335 8.53535C14.3549 8.32909 14.4082 8.21463 14.6185 8.14012C15.3212 7.89085 16.0241 7.64218 16.7272 7.3941C16.9288 7.32296 17.0586 7.37996 17.1337 7.57365C17.2412 7.85015 17.3449 8.12755 17.4529 8.40405C17.5132 8.56116 17.7887 8.72589 17.961 8.70232C18.103 8.6828 18.1821 8.58315 18.2384 8.46734C18.3705 8.19668 18.4998 7.92466 18.6306 7.65355C18.7364 7.43405 18.8528 7.39029 19.0779 7.48949C19.7518 7.78619 20.4252 8.08364 21.0981 8.38183C21.3016 8.47161 21.346 8.5919 21.2514 8.79053C21.1235 9.05985 20.9932 9.32647 20.866 9.59512C20.7956 9.74123 20.8771 10.0545 21.0134 10.1477C21.1261 10.2249 21.2514 10.2083 21.3727 10.1661C21.6701 10.0631 21.9663 9.95713 22.2632 9.85187C22.4913 9.77175 22.6053 9.82135 22.6901 10.0399C22.9437 10.6945 23.1969 11.3493 23.4498 12.0042C23.4629 12.0383 23.4819 12.0702 23.4981 12.1032L23.5 12.2378ZM17.6707 10.4367C17.1526 10.4362 16.6461 10.5825 16.215 10.8573C15.784 11.1321 15.4478 11.5229 15.2491 11.9804C15.0503 12.4379 14.9979 12.9415 15.0985 13.4274C15.1991 13.9134 15.4481 14.3599 15.8141 14.7105C16.1801 15.0611 16.6466 15.3001 17.1546 15.3971C17.6626 15.4942 18.1893 15.445 18.668 15.2557C19.1468 15.0665 19.5561 14.7457 19.8442 14.334C20.1323 13.9223 20.2862 13.4382 20.2866 12.9428C20.287 12.6139 20.2197 12.2882 20.0885 11.9843C19.9572 11.6803 19.7646 11.4041 19.5217 11.1713C19.2788 10.9386 18.9902 10.7539 18.6726 10.6279C18.355 10.5018 18.0146 10.4369 17.6707 10.4367Z" fill="#707070"/>
<path d="M16.201 0.5C16.4392 0.53748 16.6805 0.562392 16.9154 0.614236C18.3173 0.923281 19.4661 2.09347 19.6968 3.45084C19.7369 3.69062 19.7582 3.93294 19.7604 4.17576C19.7684 4.90876 19.7632 5.64198 19.7632 6.37521V6.51144L18.6902 6.38463V6.26456C18.6902 5.55386 18.6902 4.84315 18.6902 4.13245C18.6888 2.84084 17.8019 1.81203 16.4758 1.5692C16.3142 1.54201 16.1502 1.52931 15.986 1.53127C14.269 1.52858 12.552 1.52858 10.835 1.53127C9.56317 1.53351 8.46316 2.37155 8.21063 3.52289C8.20758 3.53725 8.20641 3.55184 8.20312 3.57585H8.34628C10.1846 3.57585 12.023 3.56104 13.8616 3.58057C15.3733 3.5965 16.4902 4.2716 17.2121 5.53919C17.3177 5.7248 17.386 5.93016 17.4637 6.12923C17.5 6.22237 17.5174 6.32224 17.5442 6.42256L16.5007 6.63038C16.4885 6.59223 16.4751 6.55453 16.4646 6.51615C16.1543 5.39892 15.1372 4.62665 13.9287 4.60376C13.342 4.59276 12.7552 4.60039 12.1685 4.60039C9.54792 4.60039 6.92717 4.60084 4.30626 4.60174C3.19147 4.60353 2.37121 5.08943 1.84832 6.02711C1.65 6.38261 1.57067 6.76998 1.57067 7.17329C1.57067 10.9138 1.57138 14.6544 1.57279 18.3949C1.57443 19.6816 2.48598 20.7079 3.81294 20.9364C3.98701 20.9618 4.16309 20.9725 4.33912 20.9683C7.48762 20.9702 10.6362 20.9702 13.7848 20.9683C14.9583 20.9683 15.8032 20.4521 16.3195 19.4453C16.328 19.4291 16.3381 19.4136 16.3458 19.4004L17.3785 19.6259C17.367 19.6594 17.3574 19.6978 17.3409 19.7335C16.7326 21.0556 15.691 21.8207 14.1796 21.9818C14.1491 21.9852 14.119 21.9939 14.089 22H4.02041C3.95939 21.9917 3.8986 21.9814 3.83735 21.9753C2.34141 21.8258 1.04824 20.7827 0.64551 19.3896C0.577918 19.158 0.546939 18.9163 0.5 18.6791C0.5 14.7515 0.5 10.8239 0.5 6.89634C0.527459 6.7352 0.546939 6.57203 0.58402 6.41291C0.984877 4.71934 2.48035 3.57698 4.29476 3.57653C5.1981 3.57653 6.10191 3.5754 7.00501 3.57832C7.09419 3.57832 7.13104 3.56149 7.14583 3.46768C7.38615 2.05846 8.57347 0.87615 10.0382 0.589773C10.2365 0.549824 10.4386 0.529176 10.6388 0.5H16.201Z" fill="#707070"/>
<path d="M10.8265 7.29072V8.04414H3.72141V7.29072H10.8265Z" fill="#707070"/>
<path d="M3.7172 18.2786V17.5245H10.8223V18.2786H3.7172Z" fill="#707070"/>
<path d="M9.18766 10.7022V11.4568H3.72165V10.7022H9.18766Z" fill="#707070"/>
<path d="M3.7172 14.8637V14.1132H9.18815V14.8637H3.7172Z" fill="#707070"/>
</svg>
