<svg width="25" height="24" viewBox="0 0 25 24" fill="none" xmlns="http://www.w3.org/2000/svg">
<path d="M6.80312 9.86296V15.8103C6.80312 16.6012 6.20443 17.2329 5.44245 17.2329C4.68542 17.2329 3.95312 16.596 3.95312 15.8103V9.86296C3.95312 9.08744 4.68542 8.4506 5.44245 8.4506C6.18958 8.4506 6.80312 9.08744 6.80312 9.86296ZM7.3375 17.9262C7.3375 18.7685 7.99063 19.4464 8.80208 19.4464H9.78672L9.80156 22.5844C9.80156 24.4796 12.5328 24.4641 12.5328 22.5844V19.4464H14.3734V22.5844C14.3734 24.4693 17.1195 24.4744 17.1195 22.5844V19.4464H18.119C18.9206 19.4464 19.5737 18.7685 19.5737 17.9262V8.71253H7.3375V17.9262ZM19.6083 8.21435H7.28307C7.28307 6.01621 8.54974 4.10568 10.4299 3.10933L9.4849 1.29638C9.34635 1.04472 9.69766 0.885512 9.81641 1.10122L10.7763 2.92958C12.5031 2.13352 14.4872 2.17461 16.1349 2.92958L17.0898 1.10635C17.2135 0.885511 17.5599 1.04986 17.4214 1.30151L16.4763 3.10933C18.3417 4.10568 19.6083 6.01621 19.6083 8.21435ZM11.1622 5.36396C11.1622 5.07122 10.9346 4.8247 10.6427 4.8247C10.3607 4.8247 10.138 5.07122 10.138 5.36396C10.138 5.65671 10.3656 5.90323 10.6427 5.90323C10.9346 5.90323 11.1622 5.65671 11.1622 5.36396ZM16.7732 5.36396C16.7732 5.07122 16.5456 4.8247 16.2685 4.8247C15.9766 4.8247 15.749 5.07122 15.749 5.36396C15.749 5.65671 15.9766 5.90323 16.2685 5.90323C16.5456 5.90323 16.7732 5.65671 16.7732 5.36396ZM21.4638 8.4506C20.7167 8.4506 20.1031 9.07204 20.1031 9.86296V15.8103C20.1031 16.6012 20.7167 17.2329 21.4638 17.2329C22.2258 17.2329 22.9531 16.596 22.9531 15.8103V9.86296C22.9531 9.07204 22.2208 8.4506 21.4638 8.4506Z" fill="#525256"/>
</svg>
