<svg viewBox="0 0 25 24" fill="none" xmlns="http://www.w3.org/2000/svg">
<g clip-path="url(#clip0_1_29)">
<path d="M18.2865 8.66665C18.2865 4.06248 14.4073 0.333313 9.61979 0.333313C4.83229 0.333313 0.953125 4.06248 0.953125 8.66665C0.953125 10.4531 1.54063 12.0989 2.53646 13.4583C1.97813 15.0312 1.05729 16.2812 1.04479 16.2969C0.953125 16.4166 0.928125 16.5937 0.982292 16.75C1.03646 16.9062 1.15313 17 1.28646 17C2.81146 17 4.07396 16.3594 4.98229 15.6979C6.32396 16.5156 7.91146 17 9.61979 17C14.4073 17 18.2865 13.2708 18.2865 8.66665ZM23.3698 20.125C24.3656 18.7708 24.9531 17.1198 24.9531 15.3333C24.9531 11.8489 22.724 8.86456 19.5656 7.61977C19.6031 7.96352 19.6198 8.31248 19.6198 8.66665C19.6198 14.1823 15.1323 18.6666 9.61979 18.6666C9.16979 18.6666 8.73229 18.625 8.29896 18.5677C9.61146 21.5625 12.6948 23.6666 16.2865 23.6666C17.9948 23.6666 19.5823 23.1875 20.924 22.3646C21.8323 23.026 23.0948 23.6666 24.6198 23.6666C24.7531 23.6666 24.874 23.5677 24.924 23.4166C24.9781 23.2656 24.9531 23.0885 24.8615 22.9635C24.849 22.9479 23.9281 21.7031 23.3698 20.125Z" fill="#525256"/>
</g>
<defs>
<clipPath id="clip0_1_29">
<rect width="24" height="24" fill="white" transform="translate(0.953125)"/>
</clipPath>
</defs>
</svg>
