<svg viewBox="0 0 25 24" fill="none" xmlns="http://www.w3.org/2000/svg">
<path d="M17.6674 21V22.875C17.6674 23.4963 17.1398 24 16.4888 24H3.1317C2.48078 24 1.95312 23.4963 1.95312 22.875V5.625C1.95312 5.00367 2.48078 4.5 3.1317 4.5H6.66741V18.375C6.66741 19.8225 7.90103 21 9.41741 21H17.6674ZM17.6674 4.875V0H9.41741C8.7665 0 8.23884 0.503672 8.23884 1.125V18.375C8.23884 18.9963 8.7665 19.5 9.41741 19.5H22.7746C23.4255 19.5 23.9531 18.9963 23.9531 18.375V6H18.846C18.1978 6 17.6674 5.49375 17.6674 4.875ZM23.608 3.42052L20.3697 0.329484C20.1487 0.11852 19.8489 1.55998e-06 19.5364 0L19.2388 0V4.5H23.9531V4.21598C23.9531 3.91763 23.829 3.63149 23.608 3.42052Z" fill="#525256"/>
</svg>
