<svg  viewBox="0 0 25 24" fill="none" xmlns="http://www.w3.org/2000/svg">
<path d="M12.9531 12C16.2672 12 18.9531 9.31406 18.9531 6C18.9531 2.68594 16.2672 0 12.9531 0C9.63906 0 6.95312 2.68594 6.95312 6C6.95312 9.31406 9.63906 12 12.9531 12ZM17.4437 13.5281L15.2031 22.5L13.7031 16.125L15.2031 13.5H10.7031L12.2031 16.125L10.7031 22.5L8.4625 13.5281C5.12031 13.6875 2.45312 16.4203 2.45312 19.8V21.75C2.45312 22.9922 3.46094 24 4.70312 24H21.2031C22.4453 24 23.4531 22.9922 23.4531 21.75V19.8C23.4531 16.4203 20.7859 13.6875 17.4437 13.5281Z" fill="#525256"/>
</svg>
