<svg viewBox="0 0 25 24" fill="none" xmlns="http://www.w3.org/2000/svg">
<g clip-path="url(#clip0_1_9)">
<path d="M12.6352 7.51083L4.95313 13.8379V20.6667C4.95313 20.8435 5.02336 21.013 5.14839 21.1381C5.27341 21.2631 5.44298 21.3333 5.61979 21.3333L10.289 21.3212C10.4652 21.3204 10.6339 21.2497 10.7582 21.1248C10.8825 20.9999 10.9523 20.8308 10.9523 20.6546V16.6667C10.9523 16.4899 11.0225 16.3203 11.1476 16.1953C11.2726 16.0702 11.4421 16 11.619 16H14.2856C14.4624 16 14.632 16.0702 14.757 16.1953C14.8821 16.3203 14.9523 16.4899 14.9523 16.6667V20.6517C14.952 20.7394 14.9691 20.8263 15.0024 20.9074C15.0358 20.9886 15.0849 21.0623 15.1468 21.1244C15.2087 21.1865 15.2823 21.2358 15.3634 21.2695C15.4444 21.3031 15.5312 21.3204 15.619 21.3204L20.2865 21.3333C20.4633 21.3333 20.6328 21.2631 20.7579 21.1381C20.8829 21.013 20.9531 20.8435 20.9531 20.6667V13.8333L13.2727 7.51083C13.1824 7.43805 13.0699 7.39836 12.954 7.39836C12.838 7.39836 12.7255 7.43805 12.6352 7.51083ZM24.7698 11.8113L21.2865 8.94V3.16875C21.2865 3.03614 21.2338 2.90897 21.14 2.8152C21.0462 2.72143 20.9191 2.66875 20.7865 2.66875H18.4531C18.3205 2.66875 18.1933 2.72143 18.0996 2.8152C18.0058 2.90897 17.9531 3.03614 17.9531 3.16875V6.19417L14.2227 3.125C13.8647 2.83041 13.4155 2.66934 12.9519 2.66934C12.4883 2.66934 12.039 2.83041 11.681 3.125L1.13396 11.8113C1.08333 11.8531 1.04144 11.9045 1.01069 11.9626C0.979934 12.0206 0.960918 12.0841 0.954727 12.1495C0.948536 12.2149 0.955291 12.2809 0.974605 12.3437C0.99392 12.4065 1.02542 12.4648 1.06729 12.5154L2.12979 13.8071C2.17156 13.8579 2.22292 13.8999 2.28096 13.9308C2.33899 13.9617 2.40255 13.9809 2.468 13.9872C2.53344 13.9935 2.59949 13.9868 2.66236 13.9676C2.72523 13.9483 2.78368 13.9169 2.83438 13.875L12.6352 5.8025C12.7255 5.72972 12.838 5.69003 12.954 5.69003C13.0699 5.69003 13.1824 5.72972 13.2727 5.8025L23.074 13.875C23.1246 13.9169 23.1829 13.9484 23.2457 13.9677C23.3085 13.987 23.3745 13.9938 23.4399 13.9876C23.5052 13.9814 23.5688 13.9624 23.6268 13.9316C23.6849 13.9009 23.7363 13.859 23.7781 13.8083L24.8406 12.5167C24.8825 12.4658 24.9138 12.4071 24.9329 12.3441C24.952 12.281 24.9584 12.2148 24.9518 12.1492C24.9453 12.0837 24.9258 12.0201 24.8945 11.9621C24.8633 11.9041 24.8209 11.8528 24.7698 11.8113Z" fill="#525256"/>
</g>
<defs>
<clipPath id="clip0_1_9">
<rect width="24" height="24" fill="white" transform="translate(0.953125)"/>
</clipPath>
</defs>
</svg>
