<svg viewBox="0 0 25 24" fill="none" xmlns="http://www.w3.org/2000/svg">
<path d="M23.4531 23.0625V24H2.45312V23.0625C2.45312 22.7519 2.70498 22.5 3.01562 22.5H3.95312V5.625C3.95312 5.00367 4.4568 4.5 5.07812 4.5H9.20312V1.125C9.20312 0.503672 9.7068 0 10.3281 0H15.5781C16.1995 0 16.7031 0.503672 16.7031 1.125V4.5H20.8281C21.4495 4.5 21.9531 5.00367 21.9531 5.625V22.5H22.8906C23.2013 22.5 23.4531 22.7519 23.4531 23.0625ZM16.8906 9H15.0156C14.705 9 14.4531 9.25186 14.4531 9.5625V11.4375C14.4531 11.7481 14.705 12 15.0156 12H16.8906C17.2013 12 17.4531 11.7481 17.4531 11.4375V9.5625C17.4531 9.25186 17.2013 9 16.8906 9ZM9.01562 12H10.8906C11.2013 12 11.4531 11.7481 11.4531 11.4375V9.5625C11.4531 9.25186 11.2013 9 10.8906 9H9.01562C8.70498 9 8.45312 9.25186 8.45312 9.5625V11.4375C8.45312 11.7481 8.70498 12 9.01562 12ZM13.8906 18H12.0156C11.705 18 11.4531 18.2519 11.4531 18.5625V22.5H14.4531V18.5625C14.4531 18.2519 14.2013 18 13.8906 18ZM16.8906 13.5H15.0156C14.705 13.5 14.4531 13.7519 14.4531 14.0625V15.9375C14.4531 16.2481 14.705 16.5 15.0156 16.5H16.8906C17.2013 16.5 17.4531 16.2481 17.4531 15.9375V14.0625C17.4531 13.7519 17.2013 13.5 16.8906 13.5ZM11.4531 14.0625C11.4531 13.7519 11.2013 13.5 10.8906 13.5H9.01562C8.70498 13.5 8.45312 13.7519 8.45312 14.0625V15.9375C8.45312 16.2481 8.70498 16.5 9.01562 16.5H10.8906C11.2013 16.5 11.4531 16.2481 11.4531 15.9375V14.0625ZM10.9844 4.5H12.2031V5.71875C12.2031 5.79334 12.2328 5.86488 12.2855 5.91762C12.3382 5.97037 12.4098 6 12.4844 6H13.4219C13.4965 6 13.568 5.97037 13.6207 5.91762C13.6735 5.86488 13.7031 5.79334 13.7031 5.71875V4.5H14.9219C14.9965 4.5 15.068 4.47037 15.1207 4.41762C15.1735 4.36488 15.2031 4.29334 15.2031 4.21875V3.28125C15.2031 3.20666 15.1735 3.13512 15.1207 3.08238C15.068 3.02963 14.9965 3 14.9219 3H13.7031V1.78125C13.7031 1.70666 13.6735 1.63512 13.6207 1.58238C13.568 1.52963 13.4965 1.5 13.4219 1.5H12.4844C12.4098 1.5 12.3382 1.52963 12.2855 1.58238C12.2328 1.63512 12.2031 1.70666 12.2031 1.78125V3H10.9844C10.9098 3 10.8382 3.02963 10.7855 3.08238C10.7328 3.13512 10.7031 3.20666 10.7031 3.28125V4.21875C10.7031 4.29334 10.7328 4.36488 10.7855 4.41762C10.8382 4.47037 10.9098 4.5 10.9844 4.5Z" fill="#525256"/>
</svg>
