<svg viewBox="0 0 25 24" fill="none" xmlns="http://www.w3.org/2000/svg">
<g clip-path="url(#clip0_1_3)">
<path fill-rule="evenodd" clip-rule="evenodd" d="M18.7031 6.3409C18.7031 9.65496 15.9053 12.3409 12.4531 12.3409C9.00098 12.3409 6.20312 9.65496 6.20312 6.3409C6.20312 3.02684 9.00098 0.340899 12.4531 0.340899C15.9053 0.340899 18.7031 3.02684 18.7031 6.3409ZM16.0127 13.8409H16.8281C20.4512 13.8409 23.3906 16.6628 23.3906 20.1409V22.0909C23.3906 23.3331 22.3408 24.3409 21.0469 24.3409H3.85938C2.56543 24.3409 1.51562 23.3331 1.51562 22.0909V20.1409C1.51562 16.6628 4.45508 13.8409 8.07812 13.8409H8.89356C9.98242 14.319 11.1836 14.5909 12.4531 14.5909C13.7227 14.5909 14.9287 14.319 16.0127 13.8409ZM12.7438 17.4388C13.4239 16.765 14.526 16.656 15.267 17.2622C16.1161 17.958 16.1608 19.2068 15.3995 19.961L12.783 22.5546C12.614 22.722 12.3395 22.722 12.1704 22.5546L9.55396 19.961C8.79403 19.2068 8.83865 17.958 9.68783 17.2622C10.4288 16.656 11.5322 16.765 12.211 17.4388L12.4774 17.7023L12.7438 17.4388Z" fill="#525256"/>
</g>
<defs>
<clipPath id="clip0_1_3">
<rect width="24" height="24" fill="white" transform="translate(0.953125)"/>
</clipPath>
</defs>
</svg>
