<svg viewBox="0 0 25 24" fill="none" xmlns="http://www.w3.org/2000/svg">
<g clip-path="url(#clip0_1_3)">
<path d="M23.8861 14.4188L21.8892 13.2657C22.0908 12.1782 22.0908 11.0625 21.8892 9.97504L23.8861 8.82192C24.1158 8.69067 24.2189 8.41879 24.1439 8.16567C23.6236 6.49692 22.7376 4.98754 21.5798 3.73129C21.4017 3.53911 21.1111 3.49223 20.8861 3.62348L18.8892 4.77661C18.0501 4.05473 17.0845 3.49692 16.0392 3.13129V0.829731C16.0392 0.567231 15.8564 0.337544 15.5986 0.281294C13.8783 -0.103081 12.1158 -0.0843311 10.4798 0.281294C10.222 0.337544 10.0392 0.567231 10.0392 0.829731V3.13598C8.99857 3.50629 8.03294 4.06411 7.18919 4.78129L5.19701 3.62817C4.96732 3.49692 4.68138 3.53911 4.50326 3.73598C3.34544 4.98754 2.45951 6.49692 1.93919 8.17036C1.85951 8.42348 1.96732 8.69536 2.19701 8.82661L4.19388 9.97973C3.99232 11.0672 3.99232 12.1829 4.19388 13.2704L2.19701 14.4235C1.96732 14.5547 1.86419 14.8266 1.93919 15.0797C2.45951 16.7485 3.34544 18.2579 4.50326 19.5141C4.68138 19.7063 4.97201 19.7532 5.19701 19.6219L7.19388 18.4688C8.03294 19.1907 8.99857 19.7485 10.0439 20.1141V22.4204C10.0439 22.6829 10.2267 22.9125 10.4845 22.9688C12.2048 23.3532 13.9673 23.3344 15.6033 22.9688C15.8611 22.9125 16.0439 22.6829 16.0439 22.4204V20.1141C17.0845 19.7438 18.0501 19.186 18.8939 18.4688L20.8908 19.6219C21.1204 19.7532 21.4064 19.711 21.5845 19.5141C22.7423 18.2625 23.6283 16.7532 24.1486 15.0797C24.2189 14.8219 24.1158 14.55 23.8861 14.4188ZM13.0392 15.3704C10.972 15.3704 9.28919 13.6875 9.28919 11.6204C9.28919 9.55317 10.972 7.87036 13.0392 7.87036C15.1064 7.87036 16.7892 9.55317 16.7892 11.6204C16.7892 13.6875 15.1064 15.3704 13.0392 15.3704Z" fill="#525256"/>
</g>
<defs>
<clipPath id="clip0_1_3">
<rect width="24" height="24" fill="white" transform="translate(0.953125)"/>
</clipPath>
</defs>
</svg>
