<svg width="24" height="24" viewBox="0 0 24 24" fill="none" xmlns="http://www.w3.org/2000/svg">
  <g clip-path="url(#clip0_247_10006)">
    <path
      d="M13.4999 7.8377V6.52051C12.178 4.81895 11.2921 2.80333 10.964 0.651765C10.8655 0.0189521 10.0734 -0.229485 9.66085 0.262702C8.67179 1.42989 7.89366 2.79864 7.36866 4.31739C8.97179 6.1127 11.1187 7.34551 13.4999 7.8377ZM18.7499 3.0002C16.678 3.0002 14.9999 4.68301 14.9999 6.75489V9.53926C10.1062 9.24864 5.95304 6.23458 4.07804 1.95958C3.82023 1.37364 2.99054 1.34083 2.71867 1.91739C1.94054 3.5627 1.49992 5.4002 1.49992 7.34083C1.49992 10.6596 3.09835 13.758 5.48898 16.0549C6.10773 16.6502 6.71242 17.1424 7.31242 17.5924L0.567103 19.2799C0.0655403 19.4065 -0.15946 19.9877 0.12179 20.4236C0.937415 21.6846 2.95304 23.8221 7.30304 24.0002C7.67804 24.0143 8.05304 23.8783 8.33898 23.6299L11.3952 21.0002H14.9999C19.1437 21.0002 22.4999 17.6486 22.4999 13.5049V6.0002L23.9999 3.0002H18.7499ZM18.7499 7.50489C18.3374 7.50489 17.9999 7.16739 17.9999 6.75489C17.9999 6.34239 18.3374 6.00489 18.7499 6.00489C19.1624 6.00489 19.4999 6.34239 19.4999 6.75489C19.4999 7.16739 19.1624 7.50489 18.7499 7.50489Z"
      fill="#080C0C" />
  </g>
  <defs>
    <clipPath id="clip0_247_10006">
      <rect width="24" height="24" fill="white" />
    </clipPath>
  </defs>
</svg>