<svg width="24" height="23" viewBox="0 0 24 23" fill="none" xmlns="http://www.w3.org/2000/svg">
<path
d="M24 6.03125V20.0938C24 21.3877 22.9922 22.4375 21.75 22.4375H2.25C1.00781 22.4375 0 21.3877 0 20.0938V6.03125C0 4.7373 1.00781 3.6875 2.25 3.6875H6.375L6.95156 2.08105C7.27969 1.16797 8.11875 0.5625 9.05625 0.5625H14.9391C15.8766 0.5625 16.7156 1.16797 17.0438 2.08105L17.625 3.6875H21.75C22.9922 3.6875 24 4.7373 24 6.03125ZM17.625 13.0625C17.625 9.83008 15.1031 7.20312 12 7.20312C8.89688 7.20312 6.375 9.83008 6.375 13.0625C6.375 16.2949 8.89688 18.9219 12 18.9219C15.1031 18.9219 17.625 16.2949 17.625 13.0625ZM16.125 13.0625C16.125 15.4307 14.2734 17.3594 12 17.3594C9.72656 17.3594 7.875 15.4307 7.875 13.0625C7.875 10.6943 9.72656 8.76562 12 8.76562C14.2734 8.76562 16.125 10.6943 16.125 13.0625Z"
fill="currentColor"/>
</svg>
