<svg width="24" height="24" viewBox="0 0 24 24" fill="none" xmlns="http://www.w3.org/2000/svg">
<path d="M16.7143 21V22.875C16.7143 23.4963 16.1866 24 15.5357 24H2.17857C1.52766 24 1 23.4963 1 22.875V5.625C1 5.00367 1.52766 4.5 2.17857 4.5H5.71429V18.375C5.71429 19.8225 6.94791 21 8.46429 21H16.7143ZM16.7143 4.875V0H8.46429C7.81337 0 7.28571 0.503672 7.28571 1.125V18.375C7.28571 18.9963 7.81337 19.5 8.46429 19.5H21.8214C22.4723 19.5 23 18.9963 23 18.375V6H17.8929C17.2446 6 16.7143 5.49375 16.7143 4.875ZM22.6548 3.42052L19.4166 0.329484C19.1956 0.11852 18.8958 1.55998e-06 18.5833 0L18.2857 0V4.5H23V4.21598C23 3.91763 22.8758 3.63149 22.6548 3.42052Z" fill="#080C0C"/>
</svg>
