<svg width="25" height="24" viewBox="0 0 25 24" fill="none" xmlns="http://www.w3.org/2000/svg">
<g clip-path="url(#clip0_654_23065)">
<path d="M12.4053 17.4C9.56094 17.4 7.25844 15.1984 7.04656 12.4084L3.11281 9.36825C2.59569 10.017 2.11981 10.7029 1.73581 11.4529C1.65003 11.6226 1.60533 11.81 1.60533 12.0002C1.60533 12.1903 1.65003 12.3778 1.73581 12.5475C3.76944 16.5154 7.79544 19.2 12.4053 19.2C13.4144 19.2 14.3879 19.05 15.3262 18.8078L13.3803 17.3021C13.0589 17.3642 12.7326 17.397 12.4053 17.4ZM24.1736 19.5788L20.0279 16.3748C21.2873 15.3135 22.323 14.0124 23.0748 12.5471C23.1606 12.3774 23.2053 12.19 23.2053 11.9998C23.2053 11.8097 23.1606 11.6222 23.0748 11.4525C21.0412 7.48463 17.0152 4.8 12.4053 4.8C10.4746 4.80234 8.57529 5.28839 6.88081 6.21375L2.11006 2.52638C2.04785 2.47797 1.97671 2.44229 1.90071 2.42139C1.8247 2.40048 1.74532 2.39476 1.6671 2.40454C1.58889 2.41433 1.51336 2.43943 1.44485 2.47842C1.37634 2.5174 1.31618 2.56951 1.26781 2.63175L0.531689 3.57938C0.434039 3.70499 0.390282 3.86426 0.410043 4.02213C0.429804 4.18001 0.511465 4.32358 0.637064 4.42125L22.7006 21.4736C22.7628 21.522 22.8339 21.5577 22.9099 21.5786C22.9859 21.5995 23.0653 21.6052 23.1435 21.5955C23.2217 21.5857 23.2973 21.5606 23.3658 21.5216C23.4343 21.4826 23.4944 21.4305 23.5428 21.3683L24.2793 20.4206C24.3769 20.295 24.4206 20.1357 24.4008 19.9778C24.381 19.8199 24.2992 19.6764 24.1736 19.5788ZM17.2841 14.2538L15.8103 13.1145C15.9344 12.7558 16.0003 12.3795 16.0053 12C16.0126 11.4443 15.8895 10.8947 15.6459 10.3953C15.4023 9.89583 15.0449 9.46049 14.6025 9.12421C14.1601 8.78793 13.645 8.56009 13.0986 8.459C12.5521 8.35791 11.9896 8.38638 11.4562 8.54213C11.6823 8.84854 11.8046 9.21918 11.8053 9.6C11.7997 9.72673 11.7804 9.85247 11.7476 9.975L8.98719 7.84163C9.94606 7.04033 11.1557 6.60092 12.4053 6.6C13.1146 6.59961 13.8169 6.73901 14.4723 7.01025C15.1276 7.28148 15.7231 7.67923 16.2246 8.18074C16.7261 8.68226 17.1238 9.27771 17.3951 9.93304C17.6663 10.5884 17.8057 11.2908 17.8053 12C17.8053 12.8111 17.6069 13.5671 17.2841 14.2541V14.2538Z" fill="black"/>
</g>
<defs>
<clipPath id="clip0_654_23065">
<rect width="24" height="24" fill="white" transform="translate(0.405273)"/>
</clipPath>
</defs>
</svg>
