<svg width="24" height="24" viewBox="0 0 24 24" fill="none" xmlns="http://www.w3.org/2000/svg">
  <path
    d="M23.855 11.3917C21.5954 6.98292 17.1221 4 12 4C6.87789 4 2.40331 6.985 0.144977 11.3921C0.0496613 11.5806 0 11.7889 0 12.0002C0 12.2115 0.0496613 12.4198 0.144977 12.6083C2.40456 17.0171 6.87789 20 12 20C17.1221 20 21.5966 17.015 23.855 12.6079C23.9503 12.4194 24 12.2111 24 11.9998C24 11.7885 23.9503 11.5802 23.855 11.3917ZM12 18C10.8133 18 9.65325 17.6481 8.66656 16.9888C7.67986 16.3295 6.91083 15.3925 6.4567 14.2961C6.00257 13.1997 5.88375 11.9933 6.11527 10.8295C6.34678 9.66557 6.91822 8.59647 7.75734 7.75736C8.59645 6.91824 9.66555 6.3468 10.8294 6.11529C11.9933 5.88378 13.1997 6.0026 14.2961 6.45672C15.3924 6.91085 16.3295 7.67988 16.9888 8.66658C17.6481 9.65327 18 10.8133 18 12C18.0004 12.788 17.8454 13.5684 17.544 14.2966C17.2426 15.0247 16.8007 15.6863 16.2435 16.2435C15.6862 16.8007 15.0247 17.2427 14.2965 17.5441C13.5684 17.8455 12.788 18.0004 12 18ZM12 8C11.6429 8.00499 11.2882 8.05811 10.9454 8.15792C11.228 8.54195 11.3636 9.01454 11.3276 9.48998C11.2917 9.96542 11.0865 10.4122 10.7494 10.7494C10.4122 11.0865 9.9654 11.2917 9.48995 11.3276C9.01451 11.3636 8.54192 11.228 8.15789 10.9454C7.93921 11.7511 7.97869 12.605 8.27076 13.3871C8.56284 14.1691 9.0928 14.8399 9.78607 15.305C10.4793 15.7701 11.301 16.006 12.1354 15.9797C12.9698 15.9533 13.7749 15.666 14.4374 15.158C15.1 14.6501 15.5865 13.9473 15.8287 13.1483C16.0708 12.3494 16.0563 11.4947 15.7872 10.7044C15.5181 9.91415 15.008 9.22818 14.3286 8.74305C13.6492 8.25791 12.8348 7.99803 12 8Z"
    fill="currentColor" />
</svg>