<svg width="29" height="24" viewBox="0 0 29 24" fill="none" xmlns="http://www.w3.org/2000/svg">
  <path
    d="M22.0146 2H2.98552C2.11115 2 1.66994 3.06091 2.28948 3.68045L9.87499 11.2671V19.7187C9.87499 20.0399 10.0317 20.3409 10.2949 20.5252L13.5761 22.8212C14.2235 23.2744 15.125 22.8151 15.125 22.0148V11.2671L22.7107 3.68045C23.329 3.06214 22.8908 2 22.0146 2Z"
    fill="currentColor" />
  <rect x="12" y="6" width="15" height="14" rx="7" fill="#FEFEFE" />
  <path
    d="M19.4782 17.1193C18.8418 17.1193 18.275 17.0099 17.7779 16.7912C17.2836 16.5696 16.8929 16.2656 16.606 15.8793C16.3219 15.4901 16.1756 15.0412 16.1671 14.5327H18.025C18.0364 14.7457 18.106 14.9332 18.2338 15.0952C18.3645 15.2543 18.5378 15.3778 18.7537 15.4659C18.9696 15.554 19.2125 15.598 19.4824 15.598C19.7637 15.598 20.0123 15.5483 20.2282 15.4489C20.4441 15.3494 20.6131 15.2116 20.7353 15.0355C20.8574 14.8594 20.9185 14.6562 20.9185 14.4261C20.9185 14.1932 20.8532 13.9872 20.7225 13.8082C20.5946 13.6264 20.41 13.4844 20.1685 13.3821C19.9299 13.2798 19.6458 13.2287 19.3162 13.2287H18.5023V11.8736H19.3162C19.5946 11.8736 19.8404 11.8253 20.0534 11.7287C20.2694 11.6321 20.437 11.4986 20.5563 11.3281C20.6756 11.1548 20.7353 10.9531 20.7353 10.723C20.7353 10.5043 20.6827 10.3125 20.5776 10.1477C20.4753 9.98011 20.3304 9.84943 20.1429 9.75568C19.9583 9.66193 19.7424 9.61506 19.4952 9.61506C19.2452 9.61506 19.0165 9.66051 18.8091 9.75142C18.6017 9.83949 18.4355 9.96591 18.3105 10.1307C18.1855 10.2955 18.1188 10.4886 18.1103 10.7102H16.3418C16.3503 10.2074 16.4938 9.7642 16.7722 9.38068C17.0506 8.99716 17.4256 8.69744 17.8972 8.48153C18.3716 8.26278 18.9071 8.15341 19.5037 8.15341C20.106 8.15341 20.633 8.26278 21.0847 8.48153C21.5364 8.70028 21.8873 8.99574 22.1373 9.3679C22.3901 9.73722 22.5151 10.152 22.5123 10.6122C22.5151 11.1009 22.3631 11.5085 22.0563 11.8352C21.7523 12.1619 21.356 12.3693 20.8674 12.4574V12.5256C21.5094 12.608 21.998 12.831 22.3333 13.1946C22.6713 13.5554 22.839 14.0071 22.8361 14.5497C22.839 15.0469 22.6955 15.4886 22.4057 15.875C22.1188 16.2614 21.7225 16.5653 21.2168 16.7869C20.7111 17.0085 20.1316 17.1193 19.4782 17.1193Z"
    fill="#080C0C" />
</svg>