<svg width="24" height="24" viewBox="0 0 24 24" fill="none" xmlns="http://www.w3.org/2000/svg">
  <path
    d="M11.4702 11.7641C11.7618 12.0821 12.2368 12.0821 12.5326 11.7641L17.0699 6.85732C18.3865 5.43082 18.3115 3.06764 16.8366 1.75285C15.5533 0.60563 13.6409 0.811871 12.466 2.08369L11.9993 2.58641L11.5369 2.08799C10.3619 0.811871 8.44953 0.60563 7.16627 1.75285C5.69552 3.06764 5.61636 5.43082 6.93295 6.85732L11.4702 11.7641ZM23.5529 15.0984C23.0612 14.6386 22.2946 14.6687 21.778 15.0984L17.9282 18.2736C17.4574 18.6646 16.8699 18.8752 16.2616 18.8752H11.3327C10.9661 18.8752 10.6661 18.5658 10.6661 18.1877C10.6661 17.8096 10.9661 17.5002 11.3327 17.5002H14.595C15.2575 17.5002 15.8741 17.0319 15.9825 16.3573C16.1199 15.498 15.4783 14.7503 14.6659 14.7503H7.99956C6.87462 14.7503 5.78718 15.1499 4.91223 15.8804L2.97484 17.5002H0.66663C0.299983 17.5002 0 17.8096 0 18.1877V22.3125C0 22.6906 0.299983 23 0.66663 23H15.5325C16.1366 23 16.7241 22.7895 17.199 22.3985L23.4987 17.1995C24.132 16.6796 24.182 15.6827 23.5529 15.0984Z"
    fill="currentColor" />
</svg>