<svg width="24" height="24" viewBox="0 0 24 24" fill="none" xmlns="http://www.w3.org/2000/svg">
<path d="M8.62499 3.375C8.62499 1.51102 10.136 0 12 0C13.864 0 15.375 1.51102 15.375 3.375C15.375 5.23894 13.864 6.75 12 6.75C10.136 6.75 8.62499 5.23894 8.62499 3.375ZM20.5606 3.43936C19.9749 2.85356 19.0251 2.85356 18.4393 3.43936L14.3787 7.5H9.62127L5.56063 3.43936C4.97488 2.85356 4.0251 2.85356 3.43935 3.43936C2.85355 4.02516 2.85355 4.97489 3.43935 5.56069L7.87499 9.99628V22.5C7.87499 23.3284 8.54657 24 9.37499 24H10.125C10.9534 24 11.625 23.3284 11.625 22.5V17.25H12.375V22.5C12.375 23.3284 13.0466 24 13.875 24H14.625C15.4534 24 16.125 23.3284 16.125 22.5V9.99628L20.5606 5.56064C21.1464 4.97484 21.1464 4.02516 20.5606 3.43936Z" fill="#080C0C"/>
</svg>
