<svg width="24" height="24" viewBox="0 0 24 24" fill="none" xmlns="http://www.w3.org/2000/svg">
<g clip-path="url(#clip0_83_3535)">
<path d="M11.682 7.51078L3.99989 13.8379V20.6666C3.99989 20.8434 4.07013 21.013 4.19515 21.138C4.32018 21.263 4.48975 21.3333 4.66656 21.3333L9.33572 21.3212C9.51196 21.3203 9.68067 21.2497 9.80498 21.1248C9.92928 20.9998 9.99906 20.8308 9.99906 20.6545V16.6666C9.99906 16.4898 10.0693 16.3202 10.1943 16.1952C10.3193 16.0702 10.4889 16 10.6657 16H13.3324C13.5092 16 13.6788 16.0702 13.8038 16.1952C13.9288 16.3202 13.9991 16.4898 13.9991 16.6666V20.6516C13.9988 20.7393 14.0158 20.8263 14.0492 20.9074C14.0826 20.9885 14.1316 21.0622 14.1936 21.1244C14.2555 21.1865 14.3291 21.2358 14.4101 21.2694C14.4911 21.3031 14.578 21.3204 14.6657 21.3204L19.3332 21.3333C19.51 21.3333 19.6796 21.263 19.8046 21.138C19.9297 21.013 19.9999 20.8434 19.9999 20.6666V13.8333L12.3195 7.51078C12.2292 7.438 12.1167 7.39831 12.0007 7.39831C11.8847 7.39831 11.7723 7.438 11.682 7.51078ZM23.8166 11.8112L20.3332 8.93995V3.1687C20.3332 3.03609 20.2805 2.90892 20.1868 2.81515C20.093 2.72138 19.9658 2.6687 19.8332 2.6687H17.4999C17.3673 2.6687 17.2401 2.72138 17.1463 2.81515C17.0526 2.90892 16.9999 3.03609 16.9999 3.1687V6.19412L13.2695 3.12495C12.9115 2.83036 12.4623 2.66929 11.9986 2.66929C11.535 2.66929 11.0858 2.83036 10.7278 3.12495L0.180725 11.8112C0.130095 11.853 0.0882067 11.9045 0.0574534 11.9625C0.0267 12.0205 0.00768456 12.0841 0.00149348 12.1495C-0.00469761 12.2149 0.00205702 12.2808 0.0213714 12.3436C0.0406858 12.4064 0.0721814 12.4648 0.114059 12.5154L1.17656 13.807C1.21832 13.8578 1.26969 13.8999 1.32772 13.9308C1.38576 13.9617 1.44932 13.9808 1.51476 13.9871C1.58021 13.9934 1.64626 13.9868 1.70913 13.9675C1.77199 13.9483 1.83045 13.9168 1.88114 13.875L11.682 5.80245C11.7723 5.72967 11.8847 5.68998 12.0007 5.68998C12.1167 5.68998 12.2292 5.72967 12.3195 5.80245L22.1207 13.875C22.1713 13.9168 22.2297 13.9483 22.2925 13.9676C22.3553 13.987 22.4212 13.9937 22.4866 13.9875C22.552 13.9813 22.6155 13.9623 22.6736 13.9316C22.7316 13.9008 22.783 13.8589 22.8249 13.8083L23.8874 12.5166C23.9292 12.4657 23.9606 12.4071 23.9797 12.344C23.9988 12.2809 24.0052 12.2147 23.9986 12.1492C23.992 12.0836 23.9726 12.02 23.9413 11.962C23.9101 11.904 23.8677 11.8528 23.8166 11.8112Z" fill="#080C0C"/>
</g>
<defs>
<clipPath id="clip0_83_3535">
<rect width="24" height="24" fill="white"/>
</clipPath>
</defs>
</svg>
