<svg width="24" height="24" viewBox="0 0 24 24" fill="none" xmlns="http://www.w3.org/2000/svg">
<g clip-path="url(#clip0_1330_54677)">
<path d="M11.9997 22.8533C12.4196 22.8436 12.8226 22.6857 13.1374 22.4075C13.4522 22.1294 13.6584 21.7488 13.7197 21.3333H10.213C10.276 21.7601 10.4919 22.1496 10.8205 22.4292C11.1492 22.7088 11.5682 22.8595 11.9997 22.8533V22.8533Z" fill="#525256"/>
<path d="M21.673 18.5534L21.8996 18.7534V20.6334H2.03296V18.7534L2.25963 18.5534C2.89309 17.9785 3.44688 17.3216 3.90629 16.6C4.41681 15.6017 4.7228 14.5115 4.80629 13.3934V10.1C4.80211 8.36011 5.42754 6.67743 6.56711 5.36264C7.70668 4.04785 9.28344 3.18972 11.0063 2.94668V2.07335C11.0063 1.83731 11.1001 1.61093 11.267 1.44402C11.4339 1.27712 11.6602 1.18335 11.8963 1.18335C12.1323 1.18335 12.3587 1.27712 12.5256 1.44402C12.6925 1.61093 12.7863 1.83731 12.7863 2.07335V2.91335C15.192 2.92338 16.8585 4.12561 17.7648 5.32592C18.9373 6.87864 19.0973 8.95342 19.0996 10.1V13.3934C19.1831 14.5115 19.4891 15.6017 19.9996 16.6C20.4671 17.3234 21.0299 17.9804 21.673 18.5534Z" fill="#525256"/>
</g>
<defs>
<clipPath id="clip0_1330_54677">
<rect width="24" height="24" fill="white"/>
</clipPath>
</defs>
</svg>
