<svg width="24" height="24" viewBox="0 0 24 24" fill="none" xmlns="http://www.w3.org/2000/svg">
<g clip-path="url(#clip0_327_12050)">
<path fill-rule="evenodd" clip-rule="evenodd" d="M17.75 6.34082C17.75 9.65488 14.9521 12.3408 11.5 12.3408C8.04785 12.3408 5.25 9.65488 5.25 6.34082C5.25 3.02676 8.04785 0.34082 11.5 0.34082C14.9521 0.34082 17.75 3.02676 17.75 6.34082ZM15.0596 13.8408H15.875C19.498 13.8408 22.4375 16.6627 22.4375 20.1408V22.0908C22.4375 23.333 21.3877 24.3408 20.0938 24.3408H2.90625C1.6123 24.3408 0.5625 23.333 0.5625 22.0908V20.1408C0.5625 16.6627 3.50195 13.8408 7.125 13.8408H7.94043C9.0293 14.3189 10.2305 14.5908 11.5 14.5908C12.7695 14.5908 13.9756 14.3189 15.0596 13.8408ZM11.7906 17.4387C12.4708 16.765 13.5728 16.6559 14.3138 17.2621C15.163 17.9579 15.2076 19.2067 14.4463 19.9609L11.8299 22.5545C11.6608 22.722 11.3863 22.722 11.2173 22.5545L8.60084 19.9609C7.84091 19.2067 7.88553 17.9579 8.7347 17.2621C9.4757 16.6559 10.5791 16.765 11.2579 17.4387L11.5243 17.7022L11.7906 17.4387Z" fill="#080C0C"/>
</g>
<defs>
<clipPath id="clip0_327_12050">
<rect width="24" height="24" fill="white"/>
</clipPath>
</defs>
</svg>
