<svg width="24" height="24" viewBox="0 0 24 24" fill="none" xmlns="http://www.w3.org/2000/svg">
  <g>
    <path
      d="M22.9329 14.4188L20.936 13.2657C21.1376 12.1782 21.1376 11.0625 20.936 9.97504L22.9329 8.82192C23.1626 8.69067 23.2657 8.41879 23.1907 8.16567C22.6704 6.49692 21.7845 4.98754 20.6267 3.73129C20.4485 3.53911 20.1579 3.49223 19.9329 3.62348L17.936 4.77661C17.097 4.05473 16.1313 3.49692 15.086 3.13129V0.829731C15.086 0.567231 14.9032 0.337544 14.6454 0.281294C12.9251 -0.103081 11.1626 -0.0843311 9.52665 0.281294C9.26884 0.337544 9.08603 0.567231 9.08603 0.829731V3.13598C8.0454 3.50629 7.07978 4.06411 6.23603 4.78129L4.24384 3.62817C4.01415 3.49692 3.72822 3.53911 3.55009 3.73598C2.39228 4.98754 1.50634 6.49692 0.986029 8.17036C0.906342 8.42348 1.01415 8.69536 1.24384 8.82661L3.24072 9.97973C3.03915 11.0672 3.03915 12.1829 3.24072 13.2704L1.24384 14.4235C1.01415 14.5547 0.911029 14.8266 0.986029 15.0797C1.50634 16.7485 2.39228 18.2579 3.55009 19.5141C3.72822 19.7063 4.01884 19.7532 4.24384 19.6219L6.24072 18.4688C7.07978 19.1907 8.0454 19.7485 9.09072 20.1141V22.4204C9.09072 22.6829 9.27353 22.9125 9.53134 22.9688C11.2517 23.3532 13.0142 23.3344 14.6501 22.9688C14.9079 22.9125 15.0907 22.6829 15.0907 22.4204V20.1141C16.1313 19.7438 17.097 19.186 17.9407 18.4688L19.9376 19.6219C20.1673 19.7532 20.4532 19.711 20.6313 19.5141C21.7892 18.2625 22.6751 16.7532 23.1954 15.0797C23.2657 14.8219 23.1626 14.55 22.9329 14.4188ZM12.086 15.3704C10.0188 15.3704 8.33603 13.6875 8.33603 11.6204C8.33603 9.55317 10.0188 7.87036 12.086 7.87036C14.1532 7.87036 15.836 9.55317 15.836 11.6204C15.836 13.6875 14.1532 15.3704 12.086 15.3704Z"
      fill="currentColor" />
  </g>
</svg>