<svg width="24" height="24" viewBox="0 0 24 24" fill="none" xmlns="http://www.w3.org/2000/svg">
  <path
    d="M5.85 9.86296V15.8103C5.85 16.6012 5.2513 17.2329 4.48932 17.2329C3.73229 17.2329 3 16.596 3 15.8103V9.86296C3 9.08744 3.73229 8.4506 4.48932 8.4506C5.23646 8.4506 5.85 9.08744 5.85 9.86296ZM6.38438 17.9262C6.38438 18.7685 7.0375 19.4464 7.84896 19.4464H8.83359L8.84844 22.5844C8.84844 24.4796 11.5797 24.4641 11.5797 22.5844V19.4464H13.4203V22.5844C13.4203 24.4693 16.1664 24.4744 16.1664 22.5844V19.4464H17.1659C17.9674 19.4464 18.6206 18.7685 18.6206 17.9262V8.71253H6.38438V17.9262ZM18.6552 8.21435H6.32995C6.32995 6.01621 7.59661 4.10568 9.47682 3.10933L8.53177 1.29638C8.39323 1.04472 8.74453 0.885512 8.86328 1.10122L9.82318 2.92958C11.55 2.13352 13.5341 2.17461 15.1818 2.92958L16.1367 1.10635C16.2604 0.885511 16.6068 1.04986 16.4682 1.30151L15.5232 3.10933C17.3885 4.10568 18.6552 6.01621 18.6552 8.21435ZM10.2091 5.36396C10.2091 5.07122 9.98151 4.8247 9.68958 4.8247C9.40755 4.8247 9.1849 5.07122 9.1849 5.36396C9.1849 5.65671 9.4125 5.90323 9.68958 5.90323C9.98151 5.90323 10.2091 5.65671 10.2091 5.36396ZM15.8201 5.36396C15.8201 5.07122 15.5924 4.8247 15.3154 4.8247C15.0234 4.8247 14.7958 5.07122 14.7958 5.36396C14.7958 5.65671 15.0234 5.90323 15.3154 5.90323C15.5924 5.90323 15.8201 5.65671 15.8201 5.36396ZM20.5107 8.4506C19.7635 8.4506 19.15 9.07204 19.15 9.86296V15.8103C19.15 16.6012 19.7635 17.2329 20.5107 17.2329C21.2727 17.2329 22 16.596 22 15.8103V9.86296C22 9.07204 21.2677 8.4506 20.5107 8.4506Z"
    fill="#080C0C" />
</svg>