<svg width="25" height="24" viewBox="0 0 25 24" fill="none" xmlns="http://www.w3.org/2000/svg">
<path d="M6.875 12C8.59805 12 10 10.6542 10 9.00005C10 7.34592 8.59805 6.00005 6.875 6.00005C5.15195 6.00005 3.75 7.34592 3.75 9.00005C3.75 10.6542 5.15195 12 6.875 12ZM20.625 7.20005H11.875C11.5297 7.20005 11.25 7.46855 11.25 7.80005V13.2H2.5V5.40005C2.5 5.06855 2.22031 4.80005 1.875 4.80005H0.625C0.279687 4.80005 0 5.06855 0 5.40005V18.6C0 18.9315 0.279687 19.2 0.625 19.2H1.875C2.22031 19.2 2.5 18.9315 2.5 18.6V16.8H22.5V18.6C22.5 18.9315 22.7797 19.2 23.125 19.2H24.375C24.7203 19.2 25 18.9315 25 18.6V11.4C25 9.0803 23.0414 7.20005 20.625 7.20005Z" fill="#080C0C"/>
</svg>
