<svg width="25" height="24" viewBox="0 0 25 24" fill="none" xmlns="http://www.w3.org/2000/svg">
<path d="M23.4375 23.0625V24H1.5625V23.0625C1.5625 22.7519 1.82485 22.5 2.14844 22.5H3.125V5.625C3.125 5.00367 3.64966 4.5 4.29688 4.5H8.59375V1.125C8.59375 0.503672 9.11841 0 9.76562 0H15.2344C15.8816 0 16.4062 0.503672 16.4062 1.125V4.5H20.7031C21.3503 4.5 21.875 5.00367 21.875 5.625V22.5H22.8516C23.1751 22.5 23.4375 22.7519 23.4375 23.0625ZM16.6016 9H14.6484C14.3249 9 14.0625 9.25186 14.0625 9.5625V11.4375C14.0625 11.7481 14.3249 12 14.6484 12H16.6016C16.9251 12 17.1875 11.7481 17.1875 11.4375V9.5625C17.1875 9.25186 16.9251 9 16.6016 9ZM8.39844 12H10.3516C10.6751 12 10.9375 11.7481 10.9375 11.4375V9.5625C10.9375 9.25186 10.6751 9 10.3516 9H8.39844C8.07485 9 7.8125 9.25186 7.8125 9.5625V11.4375C7.8125 11.7481 8.07485 12 8.39844 12ZM13.4766 18H11.5234C11.1999 18 10.9375 18.2519 10.9375 18.5625V22.5H14.0625V18.5625C14.0625 18.2519 13.8001 18 13.4766 18ZM16.6016 13.5H14.6484C14.3249 13.5 14.0625 13.7519 14.0625 14.0625V15.9375C14.0625 16.2481 14.3249 16.5 14.6484 16.5H16.6016C16.9251 16.5 17.1875 16.2481 17.1875 15.9375V14.0625C17.1875 13.7519 16.9251 13.5 16.6016 13.5ZM10.9375 14.0625C10.9375 13.7519 10.6751 13.5 10.3516 13.5H8.39844C8.07485 13.5 7.8125 13.7519 7.8125 14.0625V15.9375C7.8125 16.2481 8.07485 16.5 8.39844 16.5H10.3516C10.6751 16.5 10.9375 16.2481 10.9375 15.9375V14.0625ZM10.4492 4.5H11.7188V5.71875C11.7188 5.79334 11.7496 5.86488 11.8046 5.91762C11.8595 5.97037 11.934 6 12.0117 6H12.9883C13.066 6 13.1405 5.97037 13.1954 5.91762C13.2504 5.86488 13.2812 5.79334 13.2812 5.71875V4.5H14.5508C14.6285 4.5 14.703 4.47037 14.7579 4.41762C14.8129 4.36488 14.8438 4.29334 14.8438 4.21875V3.28125C14.8438 3.20666 14.8129 3.13512 14.7579 3.08238C14.703 3.02963 14.6285 3 14.5508 3H13.2812V1.78125C13.2812 1.70666 13.2504 1.63512 13.1954 1.58238C13.1405 1.52963 13.066 1.5 12.9883 1.5H12.0117C11.934 1.5 11.8595 1.52963 11.8046 1.58238C11.7496 1.63512 11.7188 1.70666 11.7188 1.78125V3H10.4492C10.3715 3 10.297 3.02963 10.2421 3.08238C10.1871 3.13512 10.1562 3.20666 10.1562 3.28125V4.21875C10.1562 4.29334 10.1871 4.36488 10.2421 4.41762C10.297 4.47037 10.3715 4.5 10.4492 4.5Z" fill="#080C0C"/>
</svg>
