<svg width="30" height="24" viewBox="0 0 30 24" fill="none" xmlns="http://www.w3.org/2000/svg">
<g clip-path="url(#clip0_249_10431)">
<path d="M21.6667 8.66659C21.6667 4.06242 16.8177 0.333252 10.8333 0.333252C4.84896 0.333252 0 4.06242 0 8.66659C0 10.453 0.734375 12.0989 1.97917 13.4583C1.28125 15.0312 0.130208 16.2812 0.114583 16.2968C0 16.4166 -0.03125 16.5937 0.0364583 16.7499C0.104167 16.9062 0.25 16.9999 0.416667 16.9999C2.32292 16.9999 3.90104 16.3593 5.03646 15.6978C6.71354 16.5155 8.69792 16.9999 10.8333 16.9999C16.8177 16.9999 21.6667 13.2708 21.6667 8.66659ZM28.0208 20.1249C29.2656 18.7708 30 17.1197 30 15.3333C30 11.8489 27.2135 8.8645 23.2656 7.61971C23.3125 7.96346 23.3333 8.31242 23.3333 8.66659C23.3333 14.1822 17.724 18.6666 10.8333 18.6666C10.2708 18.6666 9.72396 18.6249 9.18229 18.5676C10.8229 21.5624 14.6771 23.6666 19.1667 23.6666C21.3021 23.6666 23.2865 23.1874 24.9635 22.3645C26.099 23.026 27.6771 23.6666 29.5833 23.6666C29.75 23.6666 29.901 23.5676 29.9635 23.4166C30.0312 23.2655 30 23.0885 29.8854 22.9635C29.8698 22.9478 28.7187 21.703 28.0208 20.1249Z" fill="#080C0C"/>
</g>
<defs>
<clipPath id="clip0_249_10431">
<rect width="30" height="24" fill="white"/>
</clipPath>
</defs>
</svg>
