<svg width="22" height="23" viewBox="0 0 22 23" fill="none" xmlns="http://www.w3.org/2000/svg">
<path d="M0.0219534 23C0.0219534 22.5869 0.0219534 22.186 0.0219534 21.7851C0.0159365 20.8564 0.00874961 19.9279 0.000392752 18.9996C-0.0079702 18.5297 0.11739 18.068 0.360406 17.6735C1.1386 16.3927 2.22465 15.4854 3.49072 14.7931C4.86057 14.0445 6.32419 13.5998 7.84246 13.348C10.524 12.9028 13.1885 13.0029 15.8259 13.6904C17.1903 14.046 18.4894 14.5734 19.6662 15.3964C20.5081 15.9838 21.2211 16.7014 21.7115 17.6445C21.8926 17.9845 21.99 18.3666 21.9948 18.7562C22.0033 20.1392 21.9988 21.5222 21.9988 22.9052C21.9988 22.931 21.9948 22.9579 21.9918 22.9979L0.0219534 23ZM2.19006 20.7872L19.8312 20.7134C19.8312 20.1945 19.8437 19.6966 19.8277 19.1992C19.8118 18.7776 19.6426 18.3783 19.3549 18.0839C19.0978 17.8061 18.8143 17.5567 18.509 17.3394C17.6877 16.7667 16.7591 16.439 15.8314 16.1161C14.2465 15.5644 12.6259 15.2204 10.9492 15.2425C9.22987 15.2657 7.54362 15.5276 5.91153 16.1092C4.88915 16.4749 3.90538 16.9332 3.06301 17.6666C2.60322 18.067 2.23568 18.547 2.19607 19.2019C2.16549 19.7124 2.19006 20.2266 2.19006 20.7851V20.7872Z" fill="white"/>
<path d="M5.57709 5.76067C5.5821 2.56001 8.04403 -0.00473516 11.1071 6.56429e-06C14.1221 0.00474829 16.5595 2.60532 16.5505 5.80651C16.5409 8.9566 14.079 11.5335 11.0816 11.5256C8.02297 11.5171 5.57207 8.94922 5.57709 5.76067ZM11.0721 2.32872C9.2765 2.32872 7.79734 3.86925 7.78982 5.7533C7.78229 7.64419 9.25895 9.19579 11.0665 9.19632C11.926 9.18592 12.7469 8.82007 13.3515 8.17805C13.956 7.53604 14.2954 6.66958 14.2961 5.76644C14.2968 4.86329 13.9588 3.99623 13.3553 3.35314C12.7518 2.71006 11.9315 2.34275 11.0721 2.33083V2.32872Z" fill="white"/>
</svg>
