<svg width="22" height="14" viewBox="0 0 22 14" fill="none" xmlns="http://www.w3.org/2000/svg">
<path d="M20 1V13C20 13.55 20.45 14 21 14C21.55 14 22 13.55 22 13V1C22 0.45 21.55 0 21 0C20.45 0 20 0.45 20 1ZM17 14C17.55 14 18 13.55 18 13V1C18 0.45 17.55 0 17 0C16.45 0 16 0.45 16 1V13C16 13.55 16.45 14 17 14ZM13 0H1C0.45 0 0 0.45 0 1V13C0 13.55 0.45 14 1 14H13C13.55 14 14 13.55 14 13V1C14 0.45 13.55 0 13 0ZM7 2.75C8.24 2.75 9.25 3.76 9.25 5C9.25 6.24 8.24 7.25 7 7.25C5.76 7.25 4.75 6.24 4.75 5C4.75 3.76 5.76 2.75 7 2.75ZM11.5 12H2.5V11.25C2.5 9.75 5.5 9 7 9C8.5 9 11.5 9.75 11.5 11.25V12Z" fill="#01A19F" fill-opacity="0.54"/>
</svg>
