<svg width="26" height="16" viewBox="0 0 26 16" fill="none" xmlns="http://www.w3.org/2000/svg">
<path d="M13.0062 0C14.7223 0.0278281 16.352 0.401436 17.9172 1.09862C19.6823 1.88491 21.2768 2.93113 22.7245 4.2053C23.6174 4.99458 24.4416 5.85859 25.1883 6.78799C25.377 7.02157 25.5704 7.25219 25.7709 7.4757C26.0638 7.80135 26.0783 8.19124 25.8004 8.51186C25.255 9.14746 24.7203 9.79343 24.1593 10.4128C23.2265 11.4397 22.1824 12.343 21.0503 13.1444C19.9037 13.958 18.6663 14.6348 17.3633 15.161C16.5167 15.5036 15.6324 15.7436 14.7291 15.8759C13.9406 15.9944 13.1417 16.0282 12.346 15.9766C11.2082 15.9001 10.0873 15.6601 9.01766 15.2637C7.56243 14.7219 6.18405 13.9918 4.91749 13.092C3.54626 12.1212 2.30277 10.9807 1.21653 9.69751C0.814667 9.22384 0.442032 8.72826 0.057586 8.24098C-0.0209568 8.14151 -0.0174135 7.88572 0.057586 7.783C1.39872 5.97032 2.93739 4.35362 4.77369 3.03563C6.04101 2.12031 7.42117 1.37331 8.87977 0.813233C9.69015 0.498923 10.5331 0.27659 11.3928 0.15039C11.927 0.0746031 12.4682 0.0494393 13.0062 0ZM13.0883 14.3342C13.5832 14.3617 14.1722 14.2794 14.7575 14.1704C15.8 13.9743 16.8138 13.6481 17.7755 13.1994C18.6932 12.7743 19.5388 12.2308 20.3618 11.6461C21.6967 10.6987 22.8849 9.59005 23.9538 8.3514C24.2458 8.01302 24.242 8.00888 23.949 7.66754C22.6991 6.21375 21.2534 4.94139 19.6537 3.88706C18.3988 3.05577 17.0553 2.4249 15.5984 2.0427C14.554 1.76916 13.4955 1.63623 12.4174 1.70225C11.3524 1.76771 10.3043 2.00151 9.31205 2.395C7.36708 3.16264 5.61611 4.25001 4.07744 5.66539C3.29674 6.38448 2.5804 7.17522 1.83336 7.92865C1.75777 8.00503 1.78759 8.04707 1.84724 8.11012C2.12775 8.40054 2.40826 8.69126 2.68198 8.9873C3.3425 9.70047 4.03699 10.3746 4.79407 10.9835C6.00759 11.9648 7.34576 12.78 8.77347 13.4078C10.1173 13.997 11.5118 14.3413 13.0883 14.3342Z" fill="#707070"/>
<path d="M12.8834 3.644C14.7117 3.73726 16.1175 4.5277 16.9032 6.21959C17.8366 8.22884 17.0751 10.5495 15.1664 11.6881C12.9587 13.0055 10.1075 12.1991 8.90457 9.91747C8.07426 8.34252 8.39876 6.26784 9.65427 5.00314C10.4134 4.23816 11.3258 3.8092 12.3823 3.66887C12.5477 3.64608 12.7163 3.65141 12.8834 3.644ZM12.9525 10.776C14.4767 10.7274 15.7242 9.51959 15.7174 8.00799C15.7091 6.20538 14.2351 5.10676 12.7588 5.15679C11.1643 5.21067 9.94127 6.47714 9.97641 8.01983C10.0124 9.61491 11.3568 10.8394 12.9525 10.776Z" fill="#707070"/>
</svg>
